M48
; DRILL file {KiCad (5.1.2)-1} date 23.07.2019 12:14:01
; FORMAT={-:-/ absolute / inch / decimal}
; #@! TF.CreationDate,2019-07-23T12:14:01+02:00
; #@! TF.GenerationSoftware,Kicad,Pcbnew,(5.1.2)-1
; #@! TF.FileFunction,Plated,1,2,PTH
FMAT,2
INCH
T1C0.0157
T2C0.0315
T3C0.0354
T4C0.0394
T5C0.0400
T6C0.0409
T7C0.0433
T8C0.0591
T9C0.0598
%
G90
G05
T1
X1.275Y-1.6
X1.275Y-1.85
X1.275Y-2.2
X1.275Y-2.5
X1.275Y-2.825
X1.275Y-3.125
X1.525Y-1.6
X1.6Y-2.025
X1.6Y-2.2
X1.6Y-2.825
X1.65Y-3.125
X1.775Y-1.6
X1.775Y-3.75
X1.85Y-2.75
X1.8621Y-2.6832
X1.875Y-3.75
X1.8992Y-2.8491
X1.925Y-1.675
X1.975Y-2.875
X1.975Y-3.225
X1.975Y-3.75
X2.0Y-3.025
X2.02Y-2.33
X2.075Y-3.75
X2.1001Y-2.5495
X2.13Y-2.15
X2.13Y-3.32
X2.15Y-1.675
X2.1539Y-1.0758
X2.173Y-1.8881
X2.175Y-3.75
X2.2256Y-2.5031
X2.275Y-3.75
X2.375Y-3.1
X2.375Y-3.2
X2.375Y-3.75
X2.4561Y-2.7404
X2.475Y-3.75
X2.48Y-1.61
X2.5307Y-2.4219
X2.5784Y-2.8094
X2.6141Y-2.157
X2.675Y-3.275
X2.6956Y-2.243
X2.71Y-2.05
X2.725Y-2.85
X2.7435Y-1.7869
X2.76Y-1.94
X2.775Y-3.75
X2.775Y-4.625
X2.82Y-2.06
X2.8573Y-2.2387
X2.8601Y-1.7132
X2.875Y-2.85
X2.8814Y-2.1065
X2.8872Y-2.2117
X2.9Y-1.5
X2.9007Y-1.9226
X2.9047Y-1.9711
X2.925Y-3.75
X2.985Y-4.62
X2.9965Y-2.934
X3.0348Y-1.5356
X3.0358Y-1.6917
X3.0359Y-2.0863
X3.0639Y-2.5931
X3.0721Y-4.4875
X3.0867Y-2.149
X3.1327Y-2.4296
X3.1392Y-2.5008
X3.15Y-3.125
X3.175Y-3.575
X3.1882Y-2.7267
X3.26Y-1.86
X3.2779Y-2.0558
X3.29Y-2.9
X3.3Y-3.75
X3.31Y-2.52
X3.335Y-4.35
X3.35Y-4.05
X3.3545Y-2.6913
X3.355Y-4.56
X3.375Y-1.875
X3.3979Y-1.9463
X3.4116Y-2.5193
X3.4324Y-2.9077
X3.475Y-3.125
X3.48Y-2.31
X3.48Y-2.45
X3.5Y-1.7
X3.5435Y-2.9065
X3.5951Y-2.6955
X3.67Y-2.83
X3.7Y-2.41
X3.7132Y-4.4846
X3.725Y-1.725
X3.78Y-2.33
X3.875Y-3.6
X3.9Y-1.825
X3.95Y-2.75
X4.1Y-3.575
X4.1Y-3.75
X4.1939Y-2.1078
X4.2449Y-1.8922
X4.2674Y-2.0801
X4.275Y-2.375
X4.275Y-2.975
X4.28Y-1.7
X4.32Y-2.02
X4.3458Y-2.1178
X4.35Y-1.925
X4.35Y-3.1
X4.375Y-2.225
X4.4Y-1.72
X4.4Y-2.525
X4.4113Y-2.0654
X4.4188Y-2.4036
X4.475Y-2.45
X4.5Y-1.74
X4.5Y-2.725
X4.65Y-3.1
X4.6539Y-2.3848
X4.7Y-1.85
X4.7Y-2.325
X4.8Y-1.7
X4.8Y-2.5
X4.8Y-2.75
X4.925Y-2.9
X4.925Y-3.1
T2
X3.2548Y-4.1253
X3.2548Y-4.204
X2.0539Y-1.0181
X2.172Y-1.0181
X1.7391Y-4.21
X1.8391Y-4.21
X1.9391Y-4.21
X2.4067Y-1.0181
X2.5067Y-1.0181
X2.6067Y-1.0181
X1.8391Y-4.01
X1.8391Y-4.11
X1.8391Y-4.21
X1.8391Y-4.31
X3.038Y-4.0033
X3.038Y-4.082
X4.007Y-2.025
X4.107Y-2.025
X4.207Y-2.025
X4.4752Y-2.9472
X4.4752Y-3.0457
X4.007Y-2.425
X4.107Y-2.425
X4.207Y-2.425
X2.7972Y-1.0575
X2.8972Y-1.0575
X2.9972Y-1.0575
X3.0972Y-1.0575
X4.7902Y-2.9472
X4.7902Y-3.0457
X4.007Y-1.825
X4.107Y-1.825
X4.207Y-1.825
X4.007Y-2.225
X4.107Y-2.225
X4.207Y-2.225
T3
X1.3402Y-2.6732
X1.4402Y-2.6732
X1.36Y-2.03
X1.46Y-2.03
X1.6142Y-2.5409
X1.7142Y-2.5409
X1.9823Y-2.7291
X2.0823Y-2.7291
X1.9406Y-2.4512
X2.0406Y-2.4512
X1.95Y-1.57
X2.035Y-1.57
X2.12Y-1.57
X2.205Y-1.57
X2.0071Y-2.0374
X2.1071Y-2.0374
X1.7461Y-3.0098
X1.8461Y-3.0098
X1.6689Y-1.8327
X1.7689Y-1.8327
X1.6406Y-2.7429
X1.7406Y-2.7429
X1.4083Y-2.9165
X1.5083Y-2.9165
X1.678Y-2.3051
X1.778Y-2.3051
X1.3961Y-2.3661
X1.4961Y-2.3661
T4
X1.825Y-3.45
X1.825Y-3.55
X1.825Y-3.65
X1.925Y-3.45
X1.925Y-3.55
X1.925Y-3.65
X2.225Y-3.45
X2.225Y-3.55
X2.225Y-3.65
X2.9988Y-3.6953
X3.0972Y-3.6953
X3.1957Y-3.6953
X2.1524Y-3.026
X2.4516Y-3.026
X2.5473Y-4.0529
X2.6473Y-4.0529
X2.7473Y-4.0529
X2.8473Y-4.0529
X2.325Y-3.45
X2.325Y-3.55
X2.325Y-3.65
X3.35Y-1.1
X3.45Y-1.1
X3.55Y-1.1
X3.65Y-1.1
X3.75Y-1.1
X3.85Y-1.1
X3.95Y-1.1
X2.6642Y-3.4394
X2.6642Y-3.5394
X2.6642Y-3.6394
X2.6642Y-3.7394
X4.15Y-1.1
X4.25Y-1.1
X2.425Y-3.45
X2.425Y-3.55
X2.425Y-3.65
X3.7862Y-3.1441
X3.7862Y-3.715
X3.8846Y-3.715
X3.9831Y-3.1441
X3.9831Y-3.715
X2.1193Y-3.45
X2.1193Y-3.55
X2.1193Y-3.65
X1.4Y-1.625
X1.4Y-1.725
X2.025Y-3.45
X2.025Y-3.55
X2.025Y-3.65
X3.085Y-3.015
X3.185Y-3.015
X3.285Y-3.015
X3.385Y-3.015
X3.485Y-3.015
X3.585Y-3.015
X3.685Y-3.015
X3.785Y-3.015
T5
X3.4517Y-4.1706
X3.4517Y-4.2706
X3.4517Y-4.3706
X3.4517Y-4.4706
X3.5517Y-4.1706
X3.5517Y-4.2706
X3.5517Y-4.3706
X3.5517Y-4.4706
T6
X2.9098Y-1.625
X2.9098Y-2.625
X3.0098Y-1.625
X3.0098Y-2.625
X3.1098Y-1.625
X3.1098Y-2.625
X3.2098Y-1.625
X3.2098Y-2.625
X3.3098Y-1.625
X3.3098Y-2.625
X3.4098Y-1.625
X3.4098Y-2.625
X3.5098Y-1.625
X3.5098Y-2.625
X3.6098Y-1.625
X3.6098Y-2.625
X3.7098Y-1.625
X3.7098Y-2.625
X3.8098Y-1.625
X3.8098Y-2.625
X3.9098Y-1.625
X3.9098Y-2.625
X4.0098Y-1.625
X4.0098Y-2.625
X4.1098Y-1.625
X4.1098Y-2.625
X4.2098Y-1.625
X4.2098Y-2.625
X4.3098Y-1.625
X4.3098Y-2.625
X4.4098Y-1.625
X4.4098Y-2.625
X4.5098Y-1.625
X4.5098Y-2.625
X4.6098Y-1.625
X4.6098Y-2.625
X4.7098Y-1.625
X4.7098Y-2.625
T7
X2.2642Y-2.1764
X2.2642Y-2.3535
X2.5201Y-2.1764
X2.5201Y-2.3535
X2.0398Y-4.4001
X2.0398Y-4.5773
X2.2957Y-4.4001
X2.2957Y-4.5773
X2.0398Y-4.0273
X2.0398Y-4.2044
X2.2957Y-4.0273
X2.2957Y-4.2044
X2.2642Y-1.7764
X2.2642Y-1.9535
X2.5201Y-1.7764
X2.5201Y-1.9535
T9
X2.602Y-4.3281
X2.802Y-4.3281
T8
G00X3.6642Y-3.4453
M15
G01X3.6642Y-3.3941
M16
G05
G00X4.1051Y-3.4453
M15
G01X4.1051Y-3.3941
M16
G05
T0
M30
