G04 #@! TF.GenerationSoftware,KiCad,Pcbnew,(5.1.2)-1*
G04 #@! TF.CreationDate,2019-07-23T12:13:02+02:00*
G04 #@! TF.ProjectId,production,70726f64-7563-4746-996f-6e2e6b696361,rev?*
G04 #@! TF.SameCoordinates,Original*
G04 #@! TF.FileFunction,Soldermask,Top*
G04 #@! TF.FilePolarity,Negative*
%FSLAX46Y46*%
G04 Gerber Fmt 4.6, Leading zero omitted, Abs format (unit mm)*
G04 Created by KiCad (PCBNEW (5.1.2)-1) date 2019-07-23 12:13:02*
%MOMM*%
%LPD*%
G04 APERTURE LIST*
%ADD10C,0.150000*%
G04 APERTURE END LIST*
D10*
X45466000Y-97866200D02*
X45466000Y-98933000D01*
X107873800Y-97866200D02*
X107873800Y-98933000D01*
X126669800Y-79070200D02*
G75*
G02X123875800Y-81864200I-2794000J0D01*
G01*
X110667800Y-95072200D02*
G75*
G02X107873800Y-97866200I-2794000J0D01*
G01*
X45466000Y-97866200D02*
G75*
G02X42672000Y-95072200I0J2794000D01*
G01*
X29464000Y-81864200D02*
G75*
G02X26670000Y-79070200I0J2794000D01*
G01*
X26670000Y-41656000D02*
G75*
G02X29464000Y-38862000I2794000J0D01*
G01*
X42672000Y-25654000D02*
G75*
G02X45466000Y-22860000I2794000J0D01*
G01*
X107873800Y-22860000D02*
G75*
G02X110667800Y-25654000I0J-2794000D01*
G01*
X123876000Y-38862000D02*
G75*
G02X126670000Y-41656000I0J-2794000D01*
G01*
X126669800Y-79070200D02*
X126670000Y-41656000D01*
X118670000Y-81860000D02*
X123875800Y-81864200D01*
X118670000Y-89860000D02*
X118670000Y-81860000D01*
X110670000Y-89860000D02*
X118670000Y-89860000D01*
X110667800Y-95072200D02*
X110670000Y-89860000D01*
X42670000Y-89860000D02*
X42672000Y-95072200D01*
X34670000Y-89860000D02*
X42670000Y-89860000D01*
X34670000Y-81860000D02*
X34670000Y-89860000D01*
X29464000Y-81864200D02*
X34670000Y-81860000D01*
X26670000Y-41656000D02*
X26670000Y-79070200D01*
X118670000Y-38860000D02*
X123876000Y-38862000D01*
X118670000Y-30860000D02*
X118670000Y-38860000D01*
X110670000Y-30860000D02*
X118670000Y-30860000D01*
X110667800Y-25654000D02*
X110670000Y-30860000D01*
X45466000Y-22860000D02*
X107873800Y-22860000D01*
X34670000Y-38860000D02*
X29464000Y-38862000D01*
X34670000Y-30860000D02*
X34670000Y-38860000D01*
X42670000Y-30860000D02*
X34670000Y-30860000D01*
X42672000Y-25654000D02*
X42670000Y-30860000D01*
X110667800Y-116128800D02*
G75*
G02X107873800Y-118922800I-2794000J0D01*
G01*
X45466000Y-118922800D02*
G75*
G02X42672000Y-116128800I0J2794000D01*
G01*
X42672000Y-101727000D02*
G75*
G02X45466000Y-98933000I2794000J0D01*
G01*
X107873800Y-98933000D02*
G75*
G02X110667800Y-101727000I0J-2794000D01*
G01*
X42672000Y-116128800D02*
X42672000Y-101727000D01*
X107873800Y-118922800D02*
X45466000Y-118922800D01*
X110667800Y-101727000D02*
X110667800Y-116128800D01*
G36*
X79173000Y-117634000D02*
G01*
X77571000Y-117634000D01*
X77571000Y-115532000D01*
X79173000Y-115532000D01*
X79173000Y-117634000D01*
X79173000Y-117634000D01*
G37*
G36*
X81473000Y-117634000D02*
G01*
X79871000Y-117634000D01*
X79871000Y-115532000D01*
X81473000Y-115532000D01*
X81473000Y-117634000D01*
X81473000Y-117634000D01*
G37*
G36*
X83773000Y-117634000D02*
G01*
X82171000Y-117634000D01*
X82171000Y-115532000D01*
X83773000Y-115532000D01*
X83773000Y-117634000D01*
X83773000Y-117634000D01*
G37*
G36*
X58618564Y-115252389D02*
G01*
X58809833Y-115331615D01*
X58809835Y-115331616D01*
X58981973Y-115446635D01*
X59128365Y-115593027D01*
X59209892Y-115715040D01*
X59243385Y-115765167D01*
X59322611Y-115956436D01*
X59363000Y-116159484D01*
X59363000Y-116366516D01*
X59322611Y-116569564D01*
X59316631Y-116584000D01*
X59243384Y-116760835D01*
X59128365Y-116932973D01*
X58981973Y-117079365D01*
X58809835Y-117194384D01*
X58809834Y-117194385D01*
X58809833Y-117194385D01*
X58618564Y-117273611D01*
X58415516Y-117314000D01*
X58208484Y-117314000D01*
X58005436Y-117273611D01*
X57814167Y-117194385D01*
X57814166Y-117194385D01*
X57814165Y-117194384D01*
X57642027Y-117079365D01*
X57495635Y-116932973D01*
X57380616Y-116760835D01*
X57307369Y-116584000D01*
X57301389Y-116569564D01*
X57261000Y-116366516D01*
X57261000Y-116159484D01*
X57301389Y-115956436D01*
X57380615Y-115765167D01*
X57414109Y-115715040D01*
X57495635Y-115593027D01*
X57642027Y-115446635D01*
X57814165Y-115331616D01*
X57814167Y-115331615D01*
X58005436Y-115252389D01*
X58208484Y-115212000D01*
X58415516Y-115212000D01*
X58618564Y-115252389D01*
X58618564Y-115252389D01*
G37*
G36*
X52118564Y-115252389D02*
G01*
X52309833Y-115331615D01*
X52309835Y-115331616D01*
X52481973Y-115446635D01*
X52628365Y-115593027D01*
X52709892Y-115715040D01*
X52743385Y-115765167D01*
X52822611Y-115956436D01*
X52863000Y-116159484D01*
X52863000Y-116366516D01*
X52822611Y-116569564D01*
X52816631Y-116584000D01*
X52743384Y-116760835D01*
X52628365Y-116932973D01*
X52481973Y-117079365D01*
X52309835Y-117194384D01*
X52309834Y-117194385D01*
X52309833Y-117194385D01*
X52118564Y-117273611D01*
X51915516Y-117314000D01*
X51708484Y-117314000D01*
X51505436Y-117273611D01*
X51314167Y-117194385D01*
X51314166Y-117194385D01*
X51314165Y-117194384D01*
X51142027Y-117079365D01*
X50995635Y-116932973D01*
X50880616Y-116760835D01*
X50807369Y-116584000D01*
X50801389Y-116569564D01*
X50761000Y-116366516D01*
X50761000Y-116159484D01*
X50801389Y-115956436D01*
X50880615Y-115765167D01*
X50914109Y-115715040D01*
X50995635Y-115593027D01*
X51142027Y-115446635D01*
X51314165Y-115331616D01*
X51314167Y-115331615D01*
X51505436Y-115252389D01*
X51708484Y-115212000D01*
X51915516Y-115212000D01*
X52118564Y-115252389D01*
X52118564Y-115252389D01*
G37*
G36*
X47047256Y-113324298D02*
G01*
X47153579Y-113345447D01*
X47454042Y-113469903D01*
X47724451Y-113650585D01*
X47954415Y-113880549D01*
X48135097Y-114150958D01*
X48239111Y-114402069D01*
X48259553Y-114451422D01*
X48323000Y-114770389D01*
X48323000Y-115095611D01*
X48291815Y-115252389D01*
X48259553Y-115414579D01*
X48135097Y-115715042D01*
X47954415Y-115985451D01*
X47724451Y-116215415D01*
X47454042Y-116396097D01*
X47153579Y-116520553D01*
X47047256Y-116541702D01*
X46834611Y-116584000D01*
X46509389Y-116584000D01*
X46296744Y-116541702D01*
X46190421Y-116520553D01*
X45889958Y-116396097D01*
X45619549Y-116215415D01*
X45389585Y-115985451D01*
X45208903Y-115715042D01*
X45084447Y-115414579D01*
X45052185Y-115252389D01*
X45021000Y-115095611D01*
X45021000Y-114770389D01*
X45084447Y-114451422D01*
X45104890Y-114402069D01*
X45208903Y-114150958D01*
X45389585Y-113880549D01*
X45619549Y-113650585D01*
X45889958Y-113469903D01*
X46190421Y-113345447D01*
X46296744Y-113324298D01*
X46509389Y-113282000D01*
X46834611Y-113282000D01*
X47047256Y-113324298D01*
X47047256Y-113324298D01*
G37*
G36*
X76593000Y-114874000D02*
G01*
X74791000Y-114874000D01*
X74791000Y-113472000D01*
X76593000Y-113472000D01*
X76593000Y-114874000D01*
X76593000Y-114874000D01*
G37*
G36*
X90391294Y-112651633D02*
G01*
X90563695Y-112703931D01*
X90722583Y-112788858D01*
X90861849Y-112903151D01*
X90976142Y-113042417D01*
X91061069Y-113201305D01*
X91113367Y-113373706D01*
X91131025Y-113553000D01*
X91113367Y-113732294D01*
X91061069Y-113904695D01*
X90976142Y-114063583D01*
X90861849Y-114202849D01*
X90722583Y-114317142D01*
X90563695Y-114402069D01*
X90391294Y-114454367D01*
X90256931Y-114467600D01*
X90167069Y-114467600D01*
X90032706Y-114454367D01*
X89860305Y-114402069D01*
X89701417Y-114317142D01*
X89562151Y-114202849D01*
X89447858Y-114063583D01*
X89362931Y-113904695D01*
X89310633Y-113732294D01*
X89292975Y-113553000D01*
X89310633Y-113373706D01*
X89362931Y-113201305D01*
X89447858Y-113042417D01*
X89562151Y-112903151D01*
X89701417Y-112788858D01*
X89860305Y-112703931D01*
X90032706Y-112651633D01*
X90167069Y-112638400D01*
X90256931Y-112638400D01*
X90391294Y-112651633D01*
X90391294Y-112651633D01*
G37*
G36*
X87851294Y-112651633D02*
G01*
X88023695Y-112703931D01*
X88182583Y-112788858D01*
X88321849Y-112903151D01*
X88436142Y-113042417D01*
X88521069Y-113201305D01*
X88573367Y-113373706D01*
X88591025Y-113553000D01*
X88573367Y-113732294D01*
X88521069Y-113904695D01*
X88436142Y-114063583D01*
X88321849Y-114202849D01*
X88182583Y-114317142D01*
X88023695Y-114402069D01*
X87851294Y-114454367D01*
X87716931Y-114467600D01*
X87627069Y-114467600D01*
X87492706Y-114454367D01*
X87320305Y-114402069D01*
X87161417Y-114317142D01*
X87022151Y-114202849D01*
X86907858Y-114063583D01*
X86822931Y-113904695D01*
X86770633Y-113732294D01*
X86752975Y-113553000D01*
X86770633Y-113373706D01*
X86822931Y-113201305D01*
X86907858Y-113042417D01*
X87022151Y-112903151D01*
X87161417Y-112788858D01*
X87320305Y-112703931D01*
X87492706Y-112651633D01*
X87627069Y-112638400D01*
X87716931Y-112638400D01*
X87851294Y-112651633D01*
X87851294Y-112651633D01*
G37*
G36*
X96787562Y-112361181D02*
G01*
X96822481Y-112371774D01*
X96854663Y-112388976D01*
X96882873Y-112412127D01*
X96906024Y-112440337D01*
X96923226Y-112472519D01*
X96933819Y-112507438D01*
X96938000Y-112549895D01*
X96938000Y-113691105D01*
X96933819Y-113733562D01*
X96923226Y-113768481D01*
X96906024Y-113800663D01*
X96882873Y-113828873D01*
X96854663Y-113852024D01*
X96822481Y-113869226D01*
X96787562Y-113879819D01*
X96745105Y-113884000D01*
X95278895Y-113884000D01*
X95236438Y-113879819D01*
X95201519Y-113869226D01*
X95169337Y-113852024D01*
X95141127Y-113828873D01*
X95117976Y-113800663D01*
X95100774Y-113768481D01*
X95090181Y-113733562D01*
X95086000Y-113691105D01*
X95086000Y-112549895D01*
X95090181Y-112507438D01*
X95100774Y-112472519D01*
X95117976Y-112440337D01*
X95141127Y-112412127D01*
X95169337Y-112388976D01*
X95201519Y-112371774D01*
X95236438Y-112361181D01*
X95278895Y-112357000D01*
X96745105Y-112357000D01*
X96787562Y-112361181D01*
X96787562Y-112361181D01*
G37*
G36*
X99327562Y-112361181D02*
G01*
X99362481Y-112371774D01*
X99394663Y-112388976D01*
X99422873Y-112412127D01*
X99446024Y-112440337D01*
X99463226Y-112472519D01*
X99473819Y-112507438D01*
X99478000Y-112549895D01*
X99478000Y-113691105D01*
X99473819Y-113733562D01*
X99463226Y-113768481D01*
X99446024Y-113800663D01*
X99422873Y-113828873D01*
X99394663Y-113852024D01*
X99362481Y-113869226D01*
X99327562Y-113879819D01*
X99285105Y-113884000D01*
X97818895Y-113884000D01*
X97776438Y-113879819D01*
X97741519Y-113869226D01*
X97709337Y-113852024D01*
X97681127Y-113828873D01*
X97657976Y-113800663D01*
X97640774Y-113768481D01*
X97630181Y-113733562D01*
X97626000Y-113691105D01*
X97626000Y-112549895D01*
X97630181Y-112507438D01*
X97640774Y-112472519D01*
X97657976Y-112440337D01*
X97681127Y-112412127D01*
X97709337Y-112388976D01*
X97741519Y-112371774D01*
X97776438Y-112361181D01*
X97818895Y-112357000D01*
X99285105Y-112357000D01*
X99327562Y-112361181D01*
X99327562Y-112361181D01*
G37*
G36*
X101867562Y-112361181D02*
G01*
X101902481Y-112371774D01*
X101934663Y-112388976D01*
X101962873Y-112412127D01*
X101986024Y-112440337D01*
X102003226Y-112472519D01*
X102013819Y-112507438D01*
X102018000Y-112549895D01*
X102018000Y-113691105D01*
X102013819Y-113733562D01*
X102003226Y-113768481D01*
X101986024Y-113800663D01*
X101962873Y-113828873D01*
X101934663Y-113852024D01*
X101902481Y-113869226D01*
X101867562Y-113879819D01*
X101825105Y-113884000D01*
X100358895Y-113884000D01*
X100316438Y-113879819D01*
X100281519Y-113869226D01*
X100249337Y-113852024D01*
X100221127Y-113828873D01*
X100197976Y-113800663D01*
X100180774Y-113768481D01*
X100170181Y-113733562D01*
X100166000Y-113691105D01*
X100166000Y-112549895D01*
X100170181Y-112507438D01*
X100180774Y-112472519D01*
X100197976Y-112440337D01*
X100221127Y-112412127D01*
X100249337Y-112388976D01*
X100281519Y-112371774D01*
X100316438Y-112361181D01*
X100358895Y-112357000D01*
X101825105Y-112357000D01*
X101867562Y-112361181D01*
X101867562Y-112361181D01*
G37*
G36*
X104407562Y-112361181D02*
G01*
X104442481Y-112371774D01*
X104474663Y-112388976D01*
X104502873Y-112412127D01*
X104526024Y-112440337D01*
X104543226Y-112472519D01*
X104553819Y-112507438D01*
X104558000Y-112549895D01*
X104558000Y-113691105D01*
X104553819Y-113733562D01*
X104543226Y-113768481D01*
X104526024Y-113800663D01*
X104502873Y-113828873D01*
X104474663Y-113852024D01*
X104442481Y-113869226D01*
X104407562Y-113879819D01*
X104365105Y-113884000D01*
X102898895Y-113884000D01*
X102856438Y-113879819D01*
X102821519Y-113869226D01*
X102789337Y-113852024D01*
X102761127Y-113828873D01*
X102737976Y-113800663D01*
X102720774Y-113768481D01*
X102710181Y-113733562D01*
X102706000Y-113691105D01*
X102706000Y-112549895D01*
X102710181Y-112507438D01*
X102720774Y-112472519D01*
X102737976Y-112440337D01*
X102761127Y-112412127D01*
X102789337Y-112388976D01*
X102821519Y-112371774D01*
X102856438Y-112361181D01*
X102898895Y-112357000D01*
X104365105Y-112357000D01*
X104407562Y-112361181D01*
X104407562Y-112361181D01*
G37*
G36*
X52118564Y-110752389D02*
G01*
X52309833Y-110831615D01*
X52309835Y-110831616D01*
X52403537Y-110894226D01*
X52481973Y-110946635D01*
X52628365Y-111093027D01*
X52743385Y-111265167D01*
X52822611Y-111456436D01*
X52863000Y-111659484D01*
X52863000Y-111866516D01*
X52822611Y-112069564D01*
X52743385Y-112260833D01*
X52743384Y-112260835D01*
X52628365Y-112432973D01*
X52481973Y-112579365D01*
X52309835Y-112694384D01*
X52309834Y-112694385D01*
X52309833Y-112694385D01*
X52118564Y-112773611D01*
X51915516Y-112814000D01*
X51708484Y-112814000D01*
X51505436Y-112773611D01*
X51314167Y-112694385D01*
X51314166Y-112694385D01*
X51314165Y-112694384D01*
X51142027Y-112579365D01*
X50995635Y-112432973D01*
X50880616Y-112260835D01*
X50880615Y-112260833D01*
X50801389Y-112069564D01*
X50761000Y-111866516D01*
X50761000Y-111659484D01*
X50801389Y-111456436D01*
X50880615Y-111265167D01*
X50995635Y-111093027D01*
X51142027Y-110946635D01*
X51220463Y-110894226D01*
X51314165Y-110831616D01*
X51314167Y-110831615D01*
X51505436Y-110752389D01*
X51708484Y-110712000D01*
X51915516Y-110712000D01*
X52118564Y-110752389D01*
X52118564Y-110752389D01*
G37*
G36*
X58618564Y-110752389D02*
G01*
X58809833Y-110831615D01*
X58809835Y-110831616D01*
X58903537Y-110894226D01*
X58981973Y-110946635D01*
X59128365Y-111093027D01*
X59243385Y-111265167D01*
X59322611Y-111456436D01*
X59363000Y-111659484D01*
X59363000Y-111866516D01*
X59322611Y-112069564D01*
X59243385Y-112260833D01*
X59243384Y-112260835D01*
X59128365Y-112432973D01*
X58981973Y-112579365D01*
X58809835Y-112694384D01*
X58809834Y-112694385D01*
X58809833Y-112694385D01*
X58618564Y-112773611D01*
X58415516Y-112814000D01*
X58208484Y-112814000D01*
X58005436Y-112773611D01*
X57814167Y-112694385D01*
X57814166Y-112694385D01*
X57814165Y-112694384D01*
X57642027Y-112579365D01*
X57495635Y-112432973D01*
X57380616Y-112260835D01*
X57380615Y-112260833D01*
X57301389Y-112069564D01*
X57261000Y-111866516D01*
X57261000Y-111659484D01*
X57301389Y-111456436D01*
X57380615Y-111265167D01*
X57495635Y-111093027D01*
X57642027Y-110946635D01*
X57720463Y-110894226D01*
X57814165Y-110831616D01*
X57814167Y-110831615D01*
X58005436Y-110752389D01*
X58208484Y-110712000D01*
X58415516Y-110712000D01*
X58618564Y-110752389D01*
X58618564Y-110752389D01*
G37*
G36*
X87851294Y-110111633D02*
G01*
X88023695Y-110163931D01*
X88182583Y-110248858D01*
X88321849Y-110363151D01*
X88436142Y-110502417D01*
X88521069Y-110661305D01*
X88573367Y-110833706D01*
X88591025Y-111013000D01*
X88573367Y-111192294D01*
X88521069Y-111364695D01*
X88436142Y-111523583D01*
X88321849Y-111662849D01*
X88182583Y-111777142D01*
X88023695Y-111862069D01*
X87851294Y-111914367D01*
X87716931Y-111927600D01*
X87627069Y-111927600D01*
X87492706Y-111914367D01*
X87320305Y-111862069D01*
X87161417Y-111777142D01*
X87022151Y-111662849D01*
X86907858Y-111523583D01*
X86822931Y-111364695D01*
X86770633Y-111192294D01*
X86752975Y-111013000D01*
X86770633Y-110833706D01*
X86822931Y-110661305D01*
X86907858Y-110502417D01*
X87022151Y-110363151D01*
X87161417Y-110248858D01*
X87320305Y-110163931D01*
X87492706Y-110111633D01*
X87627069Y-110098400D01*
X87716931Y-110098400D01*
X87851294Y-110111633D01*
X87851294Y-110111633D01*
G37*
G36*
X90391294Y-110111633D02*
G01*
X90563695Y-110163931D01*
X90722583Y-110248858D01*
X90861849Y-110363151D01*
X90976142Y-110502417D01*
X91061069Y-110661305D01*
X91113367Y-110833706D01*
X91131025Y-111013000D01*
X91113367Y-111192294D01*
X91061069Y-111364695D01*
X90976142Y-111523583D01*
X90861849Y-111662849D01*
X90722583Y-111777142D01*
X90563695Y-111862069D01*
X90391294Y-111914367D01*
X90256931Y-111927600D01*
X90167069Y-111927600D01*
X90032706Y-111914367D01*
X89860305Y-111862069D01*
X89701417Y-111777142D01*
X89562151Y-111662849D01*
X89447858Y-111523583D01*
X89362931Y-111364695D01*
X89310633Y-111192294D01*
X89292975Y-111013000D01*
X89310633Y-110833706D01*
X89362931Y-110661305D01*
X89447858Y-110502417D01*
X89562151Y-110363151D01*
X89701417Y-110248858D01*
X89860305Y-110163931D01*
X90032706Y-110111633D01*
X90167069Y-110098400D01*
X90256931Y-110098400D01*
X90391294Y-110111633D01*
X90391294Y-110111633D01*
G37*
G36*
X71474585Y-108411802D02*
G01*
X71624410Y-108441604D01*
X71906674Y-108558521D01*
X72160705Y-108728259D01*
X72376741Y-108944295D01*
X72546479Y-109198326D01*
X72663396Y-109480590D01*
X72682154Y-109574895D01*
X72723000Y-109780239D01*
X72723000Y-110085761D01*
X72707451Y-110163931D01*
X72663396Y-110385410D01*
X72546479Y-110667674D01*
X72376741Y-110921705D01*
X72160705Y-111137741D01*
X71906674Y-111307479D01*
X71624410Y-111424396D01*
X71474585Y-111454198D01*
X71324761Y-111484000D01*
X71019239Y-111484000D01*
X70869415Y-111454198D01*
X70719590Y-111424396D01*
X70437326Y-111307479D01*
X70183295Y-111137741D01*
X69967259Y-110921705D01*
X69797521Y-110667674D01*
X69680604Y-110385410D01*
X69636549Y-110163931D01*
X69621000Y-110085761D01*
X69621000Y-109780239D01*
X69661846Y-109574895D01*
X69680604Y-109480590D01*
X69797521Y-109198326D01*
X69967259Y-108944295D01*
X70183295Y-108728259D01*
X70437326Y-108558521D01*
X70719590Y-108441604D01*
X70869415Y-108411802D01*
X71019239Y-108382000D01*
X71324761Y-108382000D01*
X71474585Y-108411802D01*
X71474585Y-108411802D01*
G37*
G36*
X67643000Y-111484000D02*
G01*
X64541000Y-111484000D01*
X64541000Y-108382000D01*
X67643000Y-108382000D01*
X67643000Y-111484000D01*
X67643000Y-111484000D01*
G37*
G36*
X76593000Y-111374000D02*
G01*
X74791000Y-111374000D01*
X74791000Y-109972000D01*
X76593000Y-109972000D01*
X76593000Y-111374000D01*
X76593000Y-111374000D01*
G37*
G36*
X82623000Y-111334000D02*
G01*
X78721000Y-111334000D01*
X78721000Y-109232000D01*
X82623000Y-109232000D01*
X82623000Y-111334000D01*
X82623000Y-111334000D01*
G37*
G36*
X104407562Y-109386181D02*
G01*
X104442481Y-109396774D01*
X104474663Y-109413976D01*
X104502873Y-109437127D01*
X104526024Y-109465337D01*
X104543226Y-109497519D01*
X104553819Y-109532438D01*
X104558000Y-109574895D01*
X104558000Y-110716105D01*
X104553819Y-110758562D01*
X104543226Y-110793481D01*
X104526024Y-110825663D01*
X104502873Y-110853873D01*
X104474663Y-110877024D01*
X104442481Y-110894226D01*
X104407562Y-110904819D01*
X104365105Y-110909000D01*
X102898895Y-110909000D01*
X102856438Y-110904819D01*
X102821519Y-110894226D01*
X102789337Y-110877024D01*
X102761127Y-110853873D01*
X102737976Y-110825663D01*
X102720774Y-110793481D01*
X102710181Y-110758562D01*
X102706000Y-110716105D01*
X102706000Y-109574895D01*
X102710181Y-109532438D01*
X102720774Y-109497519D01*
X102737976Y-109465337D01*
X102761127Y-109437127D01*
X102789337Y-109413976D01*
X102821519Y-109396774D01*
X102856438Y-109386181D01*
X102898895Y-109382000D01*
X104365105Y-109382000D01*
X104407562Y-109386181D01*
X104407562Y-109386181D01*
G37*
G36*
X96787562Y-109386181D02*
G01*
X96822481Y-109396774D01*
X96854663Y-109413976D01*
X96882873Y-109437127D01*
X96906024Y-109465337D01*
X96923226Y-109497519D01*
X96933819Y-109532438D01*
X96938000Y-109574895D01*
X96938000Y-110716105D01*
X96933819Y-110758562D01*
X96923226Y-110793481D01*
X96906024Y-110825663D01*
X96882873Y-110853873D01*
X96854663Y-110877024D01*
X96822481Y-110894226D01*
X96787562Y-110904819D01*
X96745105Y-110909000D01*
X95278895Y-110909000D01*
X95236438Y-110904819D01*
X95201519Y-110894226D01*
X95169337Y-110877024D01*
X95141127Y-110853873D01*
X95117976Y-110825663D01*
X95100774Y-110793481D01*
X95090181Y-110758562D01*
X95086000Y-110716105D01*
X95086000Y-109574895D01*
X95090181Y-109532438D01*
X95100774Y-109497519D01*
X95117976Y-109465337D01*
X95141127Y-109437127D01*
X95169337Y-109413976D01*
X95201519Y-109396774D01*
X95236438Y-109386181D01*
X95278895Y-109382000D01*
X96745105Y-109382000D01*
X96787562Y-109386181D01*
X96787562Y-109386181D01*
G37*
G36*
X101867562Y-109386181D02*
G01*
X101902481Y-109396774D01*
X101934663Y-109413976D01*
X101962873Y-109437127D01*
X101986024Y-109465337D01*
X102003226Y-109497519D01*
X102013819Y-109532438D01*
X102018000Y-109574895D01*
X102018000Y-110716105D01*
X102013819Y-110758562D01*
X102003226Y-110793481D01*
X101986024Y-110825663D01*
X101962873Y-110853873D01*
X101934663Y-110877024D01*
X101902481Y-110894226D01*
X101867562Y-110904819D01*
X101825105Y-110909000D01*
X100358895Y-110909000D01*
X100316438Y-110904819D01*
X100281519Y-110894226D01*
X100249337Y-110877024D01*
X100221127Y-110853873D01*
X100197976Y-110825663D01*
X100180774Y-110793481D01*
X100170181Y-110758562D01*
X100166000Y-110716105D01*
X100166000Y-109574895D01*
X100170181Y-109532438D01*
X100180774Y-109497519D01*
X100197976Y-109465337D01*
X100221127Y-109437127D01*
X100249337Y-109413976D01*
X100281519Y-109396774D01*
X100316438Y-109386181D01*
X100358895Y-109382000D01*
X101825105Y-109382000D01*
X101867562Y-109386181D01*
X101867562Y-109386181D01*
G37*
G36*
X99327562Y-109386181D02*
G01*
X99362481Y-109396774D01*
X99394663Y-109413976D01*
X99422873Y-109437127D01*
X99446024Y-109465337D01*
X99463226Y-109497519D01*
X99473819Y-109532438D01*
X99478000Y-109574895D01*
X99478000Y-110716105D01*
X99473819Y-110758562D01*
X99463226Y-110793481D01*
X99446024Y-110825663D01*
X99422873Y-110853873D01*
X99394663Y-110877024D01*
X99362481Y-110894226D01*
X99327562Y-110904819D01*
X99285105Y-110909000D01*
X97818895Y-110909000D01*
X97776438Y-110904819D01*
X97741519Y-110894226D01*
X97709337Y-110877024D01*
X97681127Y-110853873D01*
X97657976Y-110825663D01*
X97640774Y-110793481D01*
X97630181Y-110758562D01*
X97626000Y-110716105D01*
X97626000Y-109574895D01*
X97630181Y-109532438D01*
X97640774Y-109497519D01*
X97657976Y-109465337D01*
X97681127Y-109437127D01*
X97709337Y-109413976D01*
X97741519Y-109396774D01*
X97776438Y-109386181D01*
X97818895Y-109382000D01*
X99285105Y-109382000D01*
X99327562Y-109386181D01*
X99327562Y-109386181D01*
G37*
G36*
X47513000Y-110274000D02*
G01*
X45911000Y-110274000D01*
X45911000Y-108672000D01*
X47513000Y-108672000D01*
X47513000Y-110274000D01*
X47513000Y-110274000D01*
G37*
G36*
X90391294Y-107571633D02*
G01*
X90563695Y-107623931D01*
X90722583Y-107708858D01*
X90861849Y-107823151D01*
X90976142Y-107962417D01*
X91061069Y-108121305D01*
X91113367Y-108293706D01*
X91131025Y-108473000D01*
X91113367Y-108652294D01*
X91061069Y-108824695D01*
X90976142Y-108983583D01*
X90861849Y-109122849D01*
X90722583Y-109237142D01*
X90563695Y-109322069D01*
X90391294Y-109374367D01*
X90256931Y-109387600D01*
X90167069Y-109387600D01*
X90032706Y-109374367D01*
X89860305Y-109322069D01*
X89701417Y-109237142D01*
X89562151Y-109122849D01*
X89447858Y-108983583D01*
X89362931Y-108824695D01*
X89310633Y-108652294D01*
X89292975Y-108473000D01*
X89310633Y-108293706D01*
X89362931Y-108121305D01*
X89447858Y-107962417D01*
X89562151Y-107823151D01*
X89701417Y-107708858D01*
X89860305Y-107623931D01*
X90032706Y-107571633D01*
X90167069Y-107558400D01*
X90256931Y-107558400D01*
X90391294Y-107571633D01*
X90391294Y-107571633D01*
G37*
G36*
X87851294Y-107571633D02*
G01*
X88023695Y-107623931D01*
X88182583Y-107708858D01*
X88321849Y-107823151D01*
X88436142Y-107962417D01*
X88521069Y-108121305D01*
X88573367Y-108293706D01*
X88591025Y-108473000D01*
X88573367Y-108652294D01*
X88521069Y-108824695D01*
X88436142Y-108983583D01*
X88321849Y-109122849D01*
X88182583Y-109237142D01*
X88023695Y-109322069D01*
X87851294Y-109374367D01*
X87716931Y-109387600D01*
X87627069Y-109387600D01*
X87492706Y-109374367D01*
X87320305Y-109322069D01*
X87161417Y-109237142D01*
X87022151Y-109122849D01*
X86907858Y-108983583D01*
X86822931Y-108824695D01*
X86770633Y-108652294D01*
X86752975Y-108473000D01*
X86770633Y-108293706D01*
X86822931Y-108121305D01*
X86907858Y-107962417D01*
X87022151Y-107823151D01*
X87161417Y-107708858D01*
X87320305Y-107623931D01*
X87492706Y-107571633D01*
X87627069Y-107558400D01*
X87716931Y-107558400D01*
X87851294Y-107571633D01*
X87851294Y-107571633D01*
G37*
G36*
X96407962Y-106675981D02*
G01*
X96442881Y-106686574D01*
X96475063Y-106703776D01*
X96503273Y-106726927D01*
X96526424Y-106755137D01*
X96543626Y-106787319D01*
X96554219Y-106822238D01*
X96558400Y-106864695D01*
X96558400Y-108330905D01*
X96554219Y-108373362D01*
X96543626Y-108408281D01*
X96526424Y-108440463D01*
X96503273Y-108468673D01*
X96475063Y-108491824D01*
X96442881Y-108509026D01*
X96407962Y-108519619D01*
X96365505Y-108523800D01*
X95224295Y-108523800D01*
X95181838Y-108519619D01*
X95146919Y-108509026D01*
X95114737Y-108491824D01*
X95086527Y-108468673D01*
X95063376Y-108440463D01*
X95046174Y-108408281D01*
X95035581Y-108373362D01*
X95031400Y-108330905D01*
X95031400Y-106864695D01*
X95035581Y-106822238D01*
X95046174Y-106787319D01*
X95063376Y-106755137D01*
X95086527Y-106726927D01*
X95114737Y-106703776D01*
X95146919Y-106686574D01*
X95181838Y-106675981D01*
X95224295Y-106671800D01*
X96365505Y-106671800D01*
X96407962Y-106675981D01*
X96407962Y-106675981D01*
G37*
G36*
X99382962Y-106675981D02*
G01*
X99417881Y-106686574D01*
X99450063Y-106703776D01*
X99478273Y-106726927D01*
X99501424Y-106755137D01*
X99518626Y-106787319D01*
X99529219Y-106822238D01*
X99533400Y-106864695D01*
X99533400Y-108330905D01*
X99529219Y-108373362D01*
X99518626Y-108408281D01*
X99501424Y-108440463D01*
X99478273Y-108468673D01*
X99450063Y-108491824D01*
X99417881Y-108509026D01*
X99382962Y-108519619D01*
X99340505Y-108523800D01*
X98199295Y-108523800D01*
X98156838Y-108519619D01*
X98121919Y-108509026D01*
X98089737Y-108491824D01*
X98061527Y-108468673D01*
X98038376Y-108440463D01*
X98021174Y-108408281D01*
X98010581Y-108373362D01*
X98006400Y-108330905D01*
X98006400Y-106864695D01*
X98010581Y-106822238D01*
X98021174Y-106787319D01*
X98038376Y-106755137D01*
X98061527Y-106726927D01*
X98089737Y-106703776D01*
X98121919Y-106686574D01*
X98156838Y-106675981D01*
X98199295Y-106671800D01*
X99340505Y-106671800D01*
X99382962Y-106675981D01*
X99382962Y-106675981D01*
G37*
G36*
X104572962Y-106615981D02*
G01*
X104607881Y-106626574D01*
X104640063Y-106643776D01*
X104668273Y-106666927D01*
X104691424Y-106695137D01*
X104708626Y-106727319D01*
X104719219Y-106762238D01*
X104723400Y-106804695D01*
X104723400Y-108270905D01*
X104719219Y-108313362D01*
X104708626Y-108348281D01*
X104691424Y-108380463D01*
X104668273Y-108408673D01*
X104640063Y-108431824D01*
X104607881Y-108449026D01*
X104572962Y-108459619D01*
X104530505Y-108463800D01*
X103389295Y-108463800D01*
X103346838Y-108459619D01*
X103311919Y-108449026D01*
X103279737Y-108431824D01*
X103251527Y-108408673D01*
X103228376Y-108380463D01*
X103211174Y-108348281D01*
X103200581Y-108313362D01*
X103196400Y-108270905D01*
X103196400Y-106804695D01*
X103200581Y-106762238D01*
X103211174Y-106727319D01*
X103228376Y-106695137D01*
X103251527Y-106666927D01*
X103279737Y-106643776D01*
X103311919Y-106626574D01*
X103346838Y-106615981D01*
X103389295Y-106611800D01*
X104530505Y-106611800D01*
X104572962Y-106615981D01*
X104572962Y-106615981D01*
G37*
G36*
X101597962Y-106615981D02*
G01*
X101632881Y-106626574D01*
X101665063Y-106643776D01*
X101693273Y-106666927D01*
X101716424Y-106695137D01*
X101733626Y-106727319D01*
X101744219Y-106762238D01*
X101748400Y-106804695D01*
X101748400Y-108270905D01*
X101744219Y-108313362D01*
X101733626Y-108348281D01*
X101716424Y-108380463D01*
X101693273Y-108408673D01*
X101665063Y-108431824D01*
X101632881Y-108449026D01*
X101597962Y-108459619D01*
X101555505Y-108463800D01*
X100414295Y-108463800D01*
X100371838Y-108459619D01*
X100336919Y-108449026D01*
X100304737Y-108431824D01*
X100276527Y-108408673D01*
X100253376Y-108380463D01*
X100236174Y-108348281D01*
X100225581Y-108313362D01*
X100221400Y-108270905D01*
X100221400Y-106804695D01*
X100225581Y-106762238D01*
X100236174Y-106727319D01*
X100253376Y-106695137D01*
X100276527Y-106666927D01*
X100304737Y-106643776D01*
X100336919Y-106626574D01*
X100371838Y-106615981D01*
X100414295Y-106611800D01*
X101555505Y-106611800D01*
X101597962Y-106615981D01*
X101597962Y-106615981D01*
G37*
G36*
X58618564Y-105782389D02*
G01*
X58809833Y-105861615D01*
X58809835Y-105861616D01*
X58981973Y-105976635D01*
X59128365Y-106123027D01*
X59243385Y-106295167D01*
X59322611Y-106486436D01*
X59363000Y-106689484D01*
X59363000Y-106896516D01*
X59322611Y-107099564D01*
X59294826Y-107166642D01*
X59243384Y-107290835D01*
X59128365Y-107462973D01*
X58981973Y-107609365D01*
X58809835Y-107724384D01*
X58809834Y-107724385D01*
X58809833Y-107724385D01*
X58618564Y-107803611D01*
X58415516Y-107844000D01*
X58208484Y-107844000D01*
X58005436Y-107803611D01*
X57814167Y-107724385D01*
X57814166Y-107724385D01*
X57814165Y-107724384D01*
X57642027Y-107609365D01*
X57495635Y-107462973D01*
X57380616Y-107290835D01*
X57329174Y-107166642D01*
X57301389Y-107099564D01*
X57261000Y-106896516D01*
X57261000Y-106689484D01*
X57301389Y-106486436D01*
X57380615Y-106295167D01*
X57495635Y-106123027D01*
X57642027Y-105976635D01*
X57814165Y-105861616D01*
X57814167Y-105861615D01*
X58005436Y-105782389D01*
X58208484Y-105742000D01*
X58415516Y-105742000D01*
X58618564Y-105782389D01*
X58618564Y-105782389D01*
G37*
G36*
X52118564Y-105782389D02*
G01*
X52309833Y-105861615D01*
X52309835Y-105861616D01*
X52481973Y-105976635D01*
X52628365Y-106123027D01*
X52743385Y-106295167D01*
X52822611Y-106486436D01*
X52863000Y-106689484D01*
X52863000Y-106896516D01*
X52822611Y-107099564D01*
X52794826Y-107166642D01*
X52743384Y-107290835D01*
X52628365Y-107462973D01*
X52481973Y-107609365D01*
X52309835Y-107724384D01*
X52309834Y-107724385D01*
X52309833Y-107724385D01*
X52118564Y-107803611D01*
X51915516Y-107844000D01*
X51708484Y-107844000D01*
X51505436Y-107803611D01*
X51314167Y-107724385D01*
X51314166Y-107724385D01*
X51314165Y-107724384D01*
X51142027Y-107609365D01*
X50995635Y-107462973D01*
X50880616Y-107290835D01*
X50829174Y-107166642D01*
X50801389Y-107099564D01*
X50761000Y-106896516D01*
X50761000Y-106689484D01*
X50801389Y-106486436D01*
X50880615Y-106295167D01*
X50995635Y-106123027D01*
X51142027Y-105976635D01*
X51314165Y-105861616D01*
X51314167Y-105861615D01*
X51505436Y-105782389D01*
X51708484Y-105742000D01*
X51915516Y-105742000D01*
X52118564Y-105782389D01*
X52118564Y-105782389D01*
G37*
G36*
X46945642Y-106162781D02*
G01*
X47091414Y-106223162D01*
X47091416Y-106223163D01*
X47222608Y-106310822D01*
X47334178Y-106422392D01*
X47376970Y-106486436D01*
X47421838Y-106553586D01*
X47482219Y-106699358D01*
X47513000Y-106854107D01*
X47513000Y-107011893D01*
X47482219Y-107166642D01*
X47430777Y-107290833D01*
X47421837Y-107312416D01*
X47334178Y-107443608D01*
X47222608Y-107555178D01*
X47091416Y-107642837D01*
X47091415Y-107642838D01*
X47091414Y-107642838D01*
X46945642Y-107703219D01*
X46790893Y-107734000D01*
X46633107Y-107734000D01*
X46478358Y-107703219D01*
X46332586Y-107642838D01*
X46332585Y-107642838D01*
X46332584Y-107642837D01*
X46201392Y-107555178D01*
X46089822Y-107443608D01*
X46002163Y-107312416D01*
X45993223Y-107290833D01*
X45941781Y-107166642D01*
X45911000Y-107011893D01*
X45911000Y-106854107D01*
X45941781Y-106699358D01*
X46002162Y-106553586D01*
X46047030Y-106486436D01*
X46089822Y-106422392D01*
X46201392Y-106310822D01*
X46332584Y-106223163D01*
X46332586Y-106223162D01*
X46478358Y-106162781D01*
X46633107Y-106132000D01*
X46790893Y-106132000D01*
X46945642Y-106162781D01*
X46945642Y-106162781D01*
G37*
G36*
X44973000Y-107734000D02*
G01*
X43371000Y-107734000D01*
X43371000Y-106132000D01*
X44973000Y-106132000D01*
X44973000Y-107734000D01*
X44973000Y-107734000D01*
G37*
G36*
X49485642Y-106162781D02*
G01*
X49631414Y-106223162D01*
X49631416Y-106223163D01*
X49762608Y-106310822D01*
X49874178Y-106422392D01*
X49916970Y-106486436D01*
X49961838Y-106553586D01*
X50022219Y-106699358D01*
X50053000Y-106854107D01*
X50053000Y-107011893D01*
X50022219Y-107166642D01*
X49970777Y-107290833D01*
X49961837Y-107312416D01*
X49874178Y-107443608D01*
X49762608Y-107555178D01*
X49631416Y-107642837D01*
X49631415Y-107642838D01*
X49631414Y-107642838D01*
X49485642Y-107703219D01*
X49330893Y-107734000D01*
X49173107Y-107734000D01*
X49018358Y-107703219D01*
X48872586Y-107642838D01*
X48872585Y-107642838D01*
X48872584Y-107642837D01*
X48741392Y-107555178D01*
X48629822Y-107443608D01*
X48542163Y-107312416D01*
X48533223Y-107290833D01*
X48481781Y-107166642D01*
X48451000Y-107011893D01*
X48451000Y-106854107D01*
X48481781Y-106699358D01*
X48542162Y-106553586D01*
X48587030Y-106486436D01*
X48629822Y-106422392D01*
X48741392Y-106310822D01*
X48872584Y-106223163D01*
X48872586Y-106223162D01*
X49018358Y-106162781D01*
X49173107Y-106132000D01*
X49330893Y-106132000D01*
X49485642Y-106162781D01*
X49485642Y-106162781D01*
G37*
G36*
X83523000Y-107632600D02*
G01*
X81821000Y-107632600D01*
X81821000Y-105930600D01*
X83523000Y-105930600D01*
X83523000Y-107632600D01*
X83523000Y-107632600D01*
G37*
G36*
X90391294Y-105031633D02*
G01*
X90563695Y-105083931D01*
X90722583Y-105168858D01*
X90861849Y-105283151D01*
X90976142Y-105422417D01*
X91061069Y-105581305D01*
X91113367Y-105753706D01*
X91131025Y-105933000D01*
X91113367Y-106112294D01*
X91061069Y-106284695D01*
X90976142Y-106443583D01*
X90861849Y-106582849D01*
X90722583Y-106697142D01*
X90563695Y-106782069D01*
X90391294Y-106834367D01*
X90256931Y-106847600D01*
X90167069Y-106847600D01*
X90032706Y-106834367D01*
X89860305Y-106782069D01*
X89701417Y-106697142D01*
X89562151Y-106582849D01*
X89447858Y-106443583D01*
X89362931Y-106284695D01*
X89310633Y-106112294D01*
X89292975Y-105933000D01*
X89310633Y-105753706D01*
X89362931Y-105581305D01*
X89447858Y-105422417D01*
X89562151Y-105283151D01*
X89701417Y-105168858D01*
X89860305Y-105083931D01*
X90032706Y-105031633D01*
X90167069Y-105018400D01*
X90256931Y-105018400D01*
X90391294Y-105031633D01*
X90391294Y-105031633D01*
G37*
G36*
X88586600Y-106847600D02*
G01*
X86757400Y-106847600D01*
X86757400Y-105018400D01*
X88586600Y-105018400D01*
X88586600Y-106847600D01*
X88586600Y-106847600D01*
G37*
G36*
X82920228Y-103963303D02*
G01*
X83075100Y-104027453D01*
X83214481Y-104120585D01*
X83333015Y-104239119D01*
X83426147Y-104378500D01*
X83490297Y-104533372D01*
X83523000Y-104697784D01*
X83523000Y-104865416D01*
X83490297Y-105029828D01*
X83426147Y-105184700D01*
X83333015Y-105324081D01*
X83214481Y-105442615D01*
X83075100Y-105535747D01*
X82920228Y-105599897D01*
X82755816Y-105632600D01*
X82588184Y-105632600D01*
X82423772Y-105599897D01*
X82268900Y-105535747D01*
X82129519Y-105442615D01*
X82010985Y-105324081D01*
X81917853Y-105184700D01*
X81853703Y-105029828D01*
X81821000Y-104865416D01*
X81821000Y-104697784D01*
X81853703Y-104533372D01*
X81917853Y-104378500D01*
X82010985Y-104239119D01*
X82129519Y-104120585D01*
X82268900Y-104027453D01*
X82423772Y-103963303D01*
X82588184Y-103930600D01*
X82755816Y-103930600D01*
X82920228Y-103963303D01*
X82920228Y-103963303D01*
G37*
G36*
X46945642Y-103622781D02*
G01*
X47091414Y-103683162D01*
X47091416Y-103683163D01*
X47222608Y-103770822D01*
X47334178Y-103882392D01*
X47403038Y-103985449D01*
X47421838Y-104013586D01*
X47482219Y-104159358D01*
X47513000Y-104314107D01*
X47513000Y-104471893D01*
X47482219Y-104626642D01*
X47452751Y-104697784D01*
X47421837Y-104772416D01*
X47334178Y-104903608D01*
X47222608Y-105015178D01*
X47091416Y-105102837D01*
X47091415Y-105102838D01*
X47091414Y-105102838D01*
X46945642Y-105163219D01*
X46790893Y-105194000D01*
X46633107Y-105194000D01*
X46478358Y-105163219D01*
X46332586Y-105102838D01*
X46332585Y-105102838D01*
X46332584Y-105102837D01*
X46201392Y-105015178D01*
X46089822Y-104903608D01*
X46002163Y-104772416D01*
X45971249Y-104697784D01*
X45941781Y-104626642D01*
X45911000Y-104471893D01*
X45911000Y-104314107D01*
X45941781Y-104159358D01*
X46002162Y-104013586D01*
X46020962Y-103985449D01*
X46089822Y-103882392D01*
X46201392Y-103770822D01*
X46332584Y-103683163D01*
X46332586Y-103683162D01*
X46478358Y-103622781D01*
X46633107Y-103592000D01*
X46790893Y-103592000D01*
X46945642Y-103622781D01*
X46945642Y-103622781D01*
G37*
G36*
X107047256Y-101324298D02*
G01*
X107153579Y-101345447D01*
X107454042Y-101469903D01*
X107724451Y-101650585D01*
X107954415Y-101880549D01*
X108135097Y-102150958D01*
X108259553Y-102451421D01*
X108269434Y-102501095D01*
X108323000Y-102770389D01*
X108323000Y-103095611D01*
X108284439Y-103289468D01*
X108259553Y-103414579D01*
X108189714Y-103583185D01*
X108143077Y-103695778D01*
X108135097Y-103715042D01*
X107954415Y-103985451D01*
X107724451Y-104215415D01*
X107454042Y-104396097D01*
X107153579Y-104520553D01*
X107047256Y-104541702D01*
X106834611Y-104584000D01*
X106509389Y-104584000D01*
X106296744Y-104541702D01*
X106190421Y-104520553D01*
X105889958Y-104396097D01*
X105619549Y-104215415D01*
X105389585Y-103985451D01*
X105208903Y-103715042D01*
X105200924Y-103695778D01*
X105154286Y-103583185D01*
X105084447Y-103414579D01*
X105059561Y-103289468D01*
X105021000Y-103095611D01*
X105021000Y-102770389D01*
X105074566Y-102501095D01*
X105084447Y-102451421D01*
X105208903Y-102150958D01*
X105389585Y-101880549D01*
X105619549Y-101650585D01*
X105889958Y-101469903D01*
X106190421Y-101345447D01*
X106296744Y-101324298D01*
X106509389Y-101282000D01*
X106834611Y-101282000D01*
X107047256Y-101324298D01*
X107047256Y-101324298D01*
G37*
G36*
X78016200Y-104533800D02*
G01*
X76314200Y-104533800D01*
X76314200Y-102831800D01*
X78016200Y-102831800D01*
X78016200Y-104533800D01*
X78016200Y-104533800D01*
G37*
G36*
X73223000Y-103844000D02*
G01*
X71421000Y-103844000D01*
X71421000Y-102042000D01*
X73223000Y-102042000D01*
X73223000Y-103844000D01*
X73223000Y-103844000D01*
G37*
G36*
X64812442Y-102048518D02*
G01*
X64878627Y-102055037D01*
X65048466Y-102106557D01*
X65204991Y-102190222D01*
X65240729Y-102219552D01*
X65342186Y-102302814D01*
X65419082Y-102396514D01*
X65454778Y-102440009D01*
X65538443Y-102596534D01*
X65589963Y-102766373D01*
X65607359Y-102943000D01*
X65589963Y-103119627D01*
X65538443Y-103289466D01*
X65454778Y-103445991D01*
X65425448Y-103481729D01*
X65342186Y-103583186D01*
X65240729Y-103666448D01*
X65204991Y-103695778D01*
X65048466Y-103779443D01*
X64878627Y-103830963D01*
X64812443Y-103837481D01*
X64746260Y-103844000D01*
X64657740Y-103844000D01*
X64591557Y-103837481D01*
X64525373Y-103830963D01*
X64355534Y-103779443D01*
X64199009Y-103695778D01*
X64163271Y-103666448D01*
X64061814Y-103583186D01*
X63978552Y-103481729D01*
X63949222Y-103445991D01*
X63865557Y-103289466D01*
X63814037Y-103119627D01*
X63796641Y-102943000D01*
X63814037Y-102766373D01*
X63865557Y-102596534D01*
X63949222Y-102440009D01*
X63984918Y-102396514D01*
X64061814Y-102302814D01*
X64163271Y-102219552D01*
X64199009Y-102190222D01*
X64355534Y-102106557D01*
X64525373Y-102055037D01*
X64591557Y-102048519D01*
X64657740Y-102042000D01*
X64746260Y-102042000D01*
X64812442Y-102048518D01*
X64812442Y-102048518D01*
G37*
G36*
X67352442Y-102048518D02*
G01*
X67418627Y-102055037D01*
X67588466Y-102106557D01*
X67744991Y-102190222D01*
X67780729Y-102219552D01*
X67882186Y-102302814D01*
X67959082Y-102396514D01*
X67994778Y-102440009D01*
X68078443Y-102596534D01*
X68129963Y-102766373D01*
X68147359Y-102943000D01*
X68129963Y-103119627D01*
X68078443Y-103289466D01*
X67994778Y-103445991D01*
X67965448Y-103481729D01*
X67882186Y-103583186D01*
X67780729Y-103666448D01*
X67744991Y-103695778D01*
X67588466Y-103779443D01*
X67418627Y-103830963D01*
X67352443Y-103837481D01*
X67286260Y-103844000D01*
X67197740Y-103844000D01*
X67131557Y-103837481D01*
X67065373Y-103830963D01*
X66895534Y-103779443D01*
X66739009Y-103695778D01*
X66703271Y-103666448D01*
X66601814Y-103583186D01*
X66518552Y-103481729D01*
X66489222Y-103445991D01*
X66405557Y-103289466D01*
X66354037Y-103119627D01*
X66336641Y-102943000D01*
X66354037Y-102766373D01*
X66405557Y-102596534D01*
X66489222Y-102440009D01*
X66524918Y-102396514D01*
X66601814Y-102302814D01*
X66703271Y-102219552D01*
X66739009Y-102190222D01*
X66895534Y-102106557D01*
X67065373Y-102055037D01*
X67131557Y-102048519D01*
X67197740Y-102042000D01*
X67286260Y-102042000D01*
X67352442Y-102048518D01*
X67352442Y-102048518D01*
G37*
G36*
X69892442Y-102048518D02*
G01*
X69958627Y-102055037D01*
X70128466Y-102106557D01*
X70284991Y-102190222D01*
X70320729Y-102219552D01*
X70422186Y-102302814D01*
X70499082Y-102396514D01*
X70534778Y-102440009D01*
X70618443Y-102596534D01*
X70669963Y-102766373D01*
X70687359Y-102943000D01*
X70669963Y-103119627D01*
X70618443Y-103289466D01*
X70534778Y-103445991D01*
X70505448Y-103481729D01*
X70422186Y-103583186D01*
X70320729Y-103666448D01*
X70284991Y-103695778D01*
X70128466Y-103779443D01*
X69958627Y-103830963D01*
X69892443Y-103837481D01*
X69826260Y-103844000D01*
X69737740Y-103844000D01*
X69671557Y-103837481D01*
X69605373Y-103830963D01*
X69435534Y-103779443D01*
X69279009Y-103695778D01*
X69243271Y-103666448D01*
X69141814Y-103583186D01*
X69058552Y-103481729D01*
X69029222Y-103445991D01*
X68945557Y-103289466D01*
X68894037Y-103119627D01*
X68876641Y-102943000D01*
X68894037Y-102766373D01*
X68945557Y-102596534D01*
X69029222Y-102440009D01*
X69064918Y-102396514D01*
X69141814Y-102302814D01*
X69243271Y-102219552D01*
X69279009Y-102190222D01*
X69435534Y-102106557D01*
X69605373Y-102055037D01*
X69671557Y-102048519D01*
X69737740Y-102042000D01*
X69826260Y-102042000D01*
X69892442Y-102048518D01*
X69892442Y-102048518D01*
G37*
G36*
X52118564Y-101282389D02*
G01*
X52309833Y-101361615D01*
X52309835Y-101361616D01*
X52419020Y-101434571D01*
X52481973Y-101476635D01*
X52628365Y-101623027D01*
X52743385Y-101795167D01*
X52822611Y-101986436D01*
X52863000Y-102189484D01*
X52863000Y-102396516D01*
X52822611Y-102599564D01*
X52753516Y-102766375D01*
X52743384Y-102790835D01*
X52628365Y-102962973D01*
X52481973Y-103109365D01*
X52309835Y-103224384D01*
X52309834Y-103224385D01*
X52309833Y-103224385D01*
X52118564Y-103303611D01*
X51915516Y-103344000D01*
X51708484Y-103344000D01*
X51505436Y-103303611D01*
X51314167Y-103224385D01*
X51314166Y-103224385D01*
X51314165Y-103224384D01*
X51142027Y-103109365D01*
X50995635Y-102962973D01*
X50880616Y-102790835D01*
X50870484Y-102766375D01*
X50801389Y-102599564D01*
X50761000Y-102396516D01*
X50761000Y-102189484D01*
X50801389Y-101986436D01*
X50880615Y-101795167D01*
X50995635Y-101623027D01*
X51142027Y-101476635D01*
X51204980Y-101434571D01*
X51314165Y-101361616D01*
X51314167Y-101361615D01*
X51505436Y-101282389D01*
X51708484Y-101242000D01*
X51915516Y-101242000D01*
X52118564Y-101282389D01*
X52118564Y-101282389D01*
G37*
G36*
X58618564Y-101282389D02*
G01*
X58809833Y-101361615D01*
X58809835Y-101361616D01*
X58919020Y-101434571D01*
X58981973Y-101476635D01*
X59128365Y-101623027D01*
X59243385Y-101795167D01*
X59322611Y-101986436D01*
X59363000Y-102189484D01*
X59363000Y-102396516D01*
X59322611Y-102599564D01*
X59253516Y-102766375D01*
X59243384Y-102790835D01*
X59128365Y-102962973D01*
X58981973Y-103109365D01*
X58809835Y-103224384D01*
X58809834Y-103224385D01*
X58809833Y-103224385D01*
X58618564Y-103303611D01*
X58415516Y-103344000D01*
X58208484Y-103344000D01*
X58005436Y-103303611D01*
X57814167Y-103224385D01*
X57814166Y-103224385D01*
X57814165Y-103224384D01*
X57642027Y-103109365D01*
X57495635Y-102962973D01*
X57380616Y-102790835D01*
X57370484Y-102766375D01*
X57301389Y-102599564D01*
X57261000Y-102396516D01*
X57261000Y-102189484D01*
X57301389Y-101986436D01*
X57380615Y-101795167D01*
X57495635Y-101623027D01*
X57642027Y-101476635D01*
X57704980Y-101434571D01*
X57814165Y-101361616D01*
X57814167Y-101361615D01*
X58005436Y-101282389D01*
X58208484Y-101242000D01*
X58415516Y-101242000D01*
X58618564Y-101282389D01*
X58618564Y-101282389D01*
G37*
G36*
X46945642Y-101082781D02*
G01*
X47091414Y-101143162D01*
X47091416Y-101143163D01*
X47222608Y-101230822D01*
X47334178Y-101342392D01*
X47419377Y-101469903D01*
X47421838Y-101473586D01*
X47482219Y-101619358D01*
X47513000Y-101774107D01*
X47513000Y-101931893D01*
X47482219Y-102086642D01*
X47421838Y-102232414D01*
X47421837Y-102232416D01*
X47334178Y-102363608D01*
X47222608Y-102475178D01*
X47091416Y-102562837D01*
X47091415Y-102562838D01*
X47091414Y-102562838D01*
X46945642Y-102623219D01*
X46790893Y-102654000D01*
X46633107Y-102654000D01*
X46478358Y-102623219D01*
X46332586Y-102562838D01*
X46332585Y-102562838D01*
X46332584Y-102562837D01*
X46201392Y-102475178D01*
X46089822Y-102363608D01*
X46002163Y-102232416D01*
X46002162Y-102232414D01*
X45941781Y-102086642D01*
X45911000Y-101931893D01*
X45911000Y-101774107D01*
X45941781Y-101619358D01*
X46002162Y-101473586D01*
X46004623Y-101469903D01*
X46089822Y-101342392D01*
X46201392Y-101230822D01*
X46332584Y-101143163D01*
X46332586Y-101143162D01*
X46478358Y-101082781D01*
X46633107Y-101052000D01*
X46790893Y-101052000D01*
X46945642Y-101082781D01*
X46945642Y-101082781D01*
G37*
G36*
X77413428Y-100864503D02*
G01*
X77568300Y-100928653D01*
X77707681Y-101021785D01*
X77826215Y-101140319D01*
X77919347Y-101279700D01*
X77983497Y-101434572D01*
X78016200Y-101598984D01*
X78016200Y-101766616D01*
X77983497Y-101931028D01*
X77919347Y-102085900D01*
X77826215Y-102225281D01*
X77707681Y-102343815D01*
X77568300Y-102436947D01*
X77413428Y-102501097D01*
X77249016Y-102533800D01*
X77081384Y-102533800D01*
X76916972Y-102501097D01*
X76762100Y-102436947D01*
X76622719Y-102343815D01*
X76504185Y-102225281D01*
X76411053Y-102085900D01*
X76346903Y-101931028D01*
X76314200Y-101766616D01*
X76314200Y-101598984D01*
X76346903Y-101434572D01*
X76411053Y-101279700D01*
X76504185Y-101140319D01*
X76622719Y-101021785D01*
X76762100Y-100928653D01*
X76916972Y-100864503D01*
X77081384Y-100831800D01*
X77249016Y-100831800D01*
X77413428Y-100864503D01*
X77413428Y-100864503D01*
G37*
G36*
X67780442Y-94085518D02*
G01*
X67846627Y-94092037D01*
X68016466Y-94143557D01*
X68172991Y-94227222D01*
X68208647Y-94256484D01*
X68310186Y-94339814D01*
X68393448Y-94441271D01*
X68422778Y-94477009D01*
X68506443Y-94633534D01*
X68557963Y-94803373D01*
X68575359Y-94980000D01*
X68557963Y-95156627D01*
X68506443Y-95326466D01*
X68422778Y-95482991D01*
X68393448Y-95518729D01*
X68310186Y-95620186D01*
X68208729Y-95703448D01*
X68172991Y-95732778D01*
X68016466Y-95816443D01*
X67846627Y-95867963D01*
X67780443Y-95874481D01*
X67714260Y-95881000D01*
X67625740Y-95881000D01*
X67559557Y-95874481D01*
X67493373Y-95867963D01*
X67323534Y-95816443D01*
X67167009Y-95732778D01*
X67131271Y-95703448D01*
X67029814Y-95620186D01*
X66946552Y-95518729D01*
X66917222Y-95482991D01*
X66833557Y-95326466D01*
X66782037Y-95156627D01*
X66764641Y-94980000D01*
X66782037Y-94803373D01*
X66833557Y-94633534D01*
X66917222Y-94477009D01*
X66946552Y-94441271D01*
X67029814Y-94339814D01*
X67131353Y-94256484D01*
X67167009Y-94227222D01*
X67323534Y-94143557D01*
X67493373Y-94092037D01*
X67559558Y-94085518D01*
X67625740Y-94079000D01*
X67714260Y-94079000D01*
X67780442Y-94085518D01*
X67780442Y-94085518D01*
G37*
G36*
X97221000Y-95411000D02*
G01*
X95119000Y-95411000D01*
X95119000Y-93309000D01*
X97221000Y-93309000D01*
X97221000Y-95411000D01*
X97221000Y-95411000D01*
G37*
G36*
X101476564Y-93349389D02*
G01*
X101621767Y-93409534D01*
X101667835Y-93428616D01*
X101839973Y-93543635D01*
X101986365Y-93690027D01*
X102101385Y-93862167D01*
X102180611Y-94053436D01*
X102221000Y-94256484D01*
X102221000Y-94463516D01*
X102180611Y-94666564D01*
X102123943Y-94803373D01*
X102101384Y-94857835D01*
X101986365Y-95029973D01*
X101839973Y-95176365D01*
X101667835Y-95291384D01*
X101667834Y-95291385D01*
X101667833Y-95291385D01*
X101476564Y-95370611D01*
X101273516Y-95411000D01*
X101066484Y-95411000D01*
X100863436Y-95370611D01*
X100672167Y-95291385D01*
X100672166Y-95291385D01*
X100672165Y-95291384D01*
X100500027Y-95176365D01*
X100353635Y-95029973D01*
X100238616Y-94857835D01*
X100216057Y-94803373D01*
X100159389Y-94666564D01*
X100119000Y-94463516D01*
X100119000Y-94256484D01*
X100159389Y-94053436D01*
X100238615Y-93862167D01*
X100353635Y-93690027D01*
X100500027Y-93543635D01*
X100672165Y-93428616D01*
X100718233Y-93409534D01*
X100863436Y-93349389D01*
X101066484Y-93309000D01*
X101273516Y-93309000D01*
X101476564Y-93349389D01*
X101476564Y-93349389D01*
G37*
G36*
X98976564Y-93349389D02*
G01*
X99121767Y-93409534D01*
X99167835Y-93428616D01*
X99339973Y-93543635D01*
X99486365Y-93690027D01*
X99601385Y-93862167D01*
X99680611Y-94053436D01*
X99721000Y-94256484D01*
X99721000Y-94463516D01*
X99680611Y-94666564D01*
X99623943Y-94803373D01*
X99601384Y-94857835D01*
X99486365Y-95029973D01*
X99339973Y-95176365D01*
X99167835Y-95291384D01*
X99167834Y-95291385D01*
X99167833Y-95291385D01*
X98976564Y-95370611D01*
X98773516Y-95411000D01*
X98566484Y-95411000D01*
X98363436Y-95370611D01*
X98172167Y-95291385D01*
X98172166Y-95291385D01*
X98172165Y-95291384D01*
X98000027Y-95176365D01*
X97853635Y-95029973D01*
X97738616Y-94857835D01*
X97716057Y-94803373D01*
X97659389Y-94666564D01*
X97619000Y-94463516D01*
X97619000Y-94256484D01*
X97659389Y-94053436D01*
X97738615Y-93862167D01*
X97853635Y-93690027D01*
X98000027Y-93543635D01*
X98172165Y-93428616D01*
X98218233Y-93409534D01*
X98363436Y-93349389D01*
X98566484Y-93309000D01*
X98773516Y-93309000D01*
X98976564Y-93349389D01*
X98976564Y-93349389D01*
G37*
G36*
X78947395Y-92945546D02*
G01*
X79120466Y-93017234D01*
X79120467Y-93017235D01*
X79276227Y-93121310D01*
X79408690Y-93253773D01*
X79445591Y-93309000D01*
X79512766Y-93409534D01*
X79584454Y-93582605D01*
X79621000Y-93766333D01*
X79621000Y-93953667D01*
X79584454Y-94137395D01*
X79512766Y-94310466D01*
X79461081Y-94387818D01*
X79408690Y-94466227D01*
X79276227Y-94598690D01*
X79224082Y-94633532D01*
X79120466Y-94702766D01*
X78947395Y-94774454D01*
X78763667Y-94811000D01*
X78576333Y-94811000D01*
X78392605Y-94774454D01*
X78219534Y-94702766D01*
X78115918Y-94633532D01*
X78063773Y-94598690D01*
X77931310Y-94466227D01*
X77878919Y-94387818D01*
X77827234Y-94310466D01*
X77755546Y-94137395D01*
X77719000Y-93953667D01*
X77719000Y-93766333D01*
X77755546Y-93582605D01*
X77827234Y-93409534D01*
X77894409Y-93309000D01*
X77931310Y-93253773D01*
X78063773Y-93121310D01*
X78219533Y-93017235D01*
X78219534Y-93017234D01*
X78392605Y-92945546D01*
X78576333Y-92909000D01*
X78763667Y-92909000D01*
X78947395Y-92945546D01*
X78947395Y-92945546D01*
G37*
G36*
X76447395Y-92945546D02*
G01*
X76620466Y-93017234D01*
X76620467Y-93017235D01*
X76776227Y-93121310D01*
X76908690Y-93253773D01*
X76945591Y-93309000D01*
X77012766Y-93409534D01*
X77084454Y-93582605D01*
X77121000Y-93766333D01*
X77121000Y-93953667D01*
X77084454Y-94137395D01*
X77012766Y-94310466D01*
X76961081Y-94387818D01*
X76908690Y-94466227D01*
X76776227Y-94598690D01*
X76724082Y-94633532D01*
X76620466Y-94702766D01*
X76447395Y-94774454D01*
X76263667Y-94811000D01*
X76076333Y-94811000D01*
X75892605Y-94774454D01*
X75719534Y-94702766D01*
X75615918Y-94633532D01*
X75563773Y-94598690D01*
X75431310Y-94466227D01*
X75378919Y-94387818D01*
X75327234Y-94310466D01*
X75255546Y-94137395D01*
X75219000Y-93953667D01*
X75219000Y-93766333D01*
X75255546Y-93582605D01*
X75327234Y-93409534D01*
X75394409Y-93309000D01*
X75431310Y-93253773D01*
X75563773Y-93121310D01*
X75719533Y-93017235D01*
X75719534Y-93017234D01*
X75892605Y-92945546D01*
X76076333Y-92909000D01*
X76263667Y-92909000D01*
X76447395Y-92945546D01*
X76447395Y-92945546D01*
G37*
G36*
X81447395Y-92945546D02*
G01*
X81620466Y-93017234D01*
X81620467Y-93017235D01*
X81776227Y-93121310D01*
X81908690Y-93253773D01*
X81945591Y-93309000D01*
X82012766Y-93409534D01*
X82084454Y-93582605D01*
X82121000Y-93766333D01*
X82121000Y-93953667D01*
X82084454Y-94137395D01*
X82012766Y-94310466D01*
X81961081Y-94387818D01*
X81908690Y-94466227D01*
X81776227Y-94598690D01*
X81724082Y-94633532D01*
X81620466Y-94702766D01*
X81447395Y-94774454D01*
X81263667Y-94811000D01*
X81076333Y-94811000D01*
X80892605Y-94774454D01*
X80719534Y-94702766D01*
X80615918Y-94633532D01*
X80563773Y-94598690D01*
X80431310Y-94466227D01*
X80378919Y-94387818D01*
X80327234Y-94310466D01*
X80255546Y-94137395D01*
X80219000Y-93953667D01*
X80219000Y-93766333D01*
X80255546Y-93582605D01*
X80327234Y-93409534D01*
X80394409Y-93309000D01*
X80431310Y-93253773D01*
X80563773Y-93121310D01*
X80719533Y-93017235D01*
X80719534Y-93017234D01*
X80892605Y-92945546D01*
X81076333Y-92909000D01*
X81263667Y-92909000D01*
X81447395Y-92945546D01*
X81447395Y-92945546D01*
G37*
G36*
X53940442Y-91815518D02*
G01*
X54006627Y-91822037D01*
X54176466Y-91873557D01*
X54332991Y-91957222D01*
X54368729Y-91986552D01*
X54470186Y-92069814D01*
X54553448Y-92171271D01*
X54582778Y-92207009D01*
X54666443Y-92363534D01*
X54717963Y-92533373D01*
X54735359Y-92710000D01*
X54717963Y-92886627D01*
X54666443Y-93056466D01*
X54582778Y-93212991D01*
X54553448Y-93248729D01*
X54470186Y-93350186D01*
X54374617Y-93428616D01*
X54332991Y-93462778D01*
X54176466Y-93546443D01*
X54006627Y-93597963D01*
X53940443Y-93604481D01*
X53874260Y-93611000D01*
X53785740Y-93611000D01*
X53719557Y-93604481D01*
X53653373Y-93597963D01*
X53483534Y-93546443D01*
X53327009Y-93462778D01*
X53285383Y-93428616D01*
X53189814Y-93350186D01*
X53106552Y-93248729D01*
X53077222Y-93212991D01*
X52993557Y-93056466D01*
X52942037Y-92886627D01*
X52924641Y-92710000D01*
X52942037Y-92533373D01*
X52993557Y-92363534D01*
X53077222Y-92207009D01*
X53106552Y-92171271D01*
X53189814Y-92069814D01*
X53291271Y-91986552D01*
X53327009Y-91957222D01*
X53483534Y-91873557D01*
X53653373Y-91822037D01*
X53719558Y-91815518D01*
X53785740Y-91809000D01*
X53874260Y-91809000D01*
X53940442Y-91815518D01*
X53940442Y-91815518D01*
G37*
G36*
X59165442Y-91815518D02*
G01*
X59231627Y-91822037D01*
X59401466Y-91873557D01*
X59557991Y-91957222D01*
X59593729Y-91986552D01*
X59695186Y-92069814D01*
X59778448Y-92171271D01*
X59807778Y-92207009D01*
X59891443Y-92363534D01*
X59942963Y-92533373D01*
X59960359Y-92710000D01*
X59942963Y-92886627D01*
X59891443Y-93056466D01*
X59807778Y-93212991D01*
X59778448Y-93248729D01*
X59695186Y-93350186D01*
X59599617Y-93428616D01*
X59557991Y-93462778D01*
X59401466Y-93546443D01*
X59231627Y-93597963D01*
X59165443Y-93604481D01*
X59099260Y-93611000D01*
X59010740Y-93611000D01*
X58944557Y-93604481D01*
X58878373Y-93597963D01*
X58708534Y-93546443D01*
X58552009Y-93462778D01*
X58510383Y-93428616D01*
X58414814Y-93350186D01*
X58331552Y-93248729D01*
X58302222Y-93212991D01*
X58218557Y-93056466D01*
X58167037Y-92886627D01*
X58149641Y-92710000D01*
X58167037Y-92533373D01*
X58218557Y-92363534D01*
X58302222Y-92207009D01*
X58331552Y-92171271D01*
X58414814Y-92069814D01*
X58516271Y-91986552D01*
X58552009Y-91957222D01*
X58708534Y-91873557D01*
X58878373Y-91822037D01*
X58944558Y-91815518D01*
X59010740Y-91809000D01*
X59099260Y-91809000D01*
X59165442Y-91815518D01*
X59165442Y-91815518D01*
G37*
G36*
X46465442Y-91815518D02*
G01*
X46531627Y-91822037D01*
X46701466Y-91873557D01*
X46857991Y-91957222D01*
X46893729Y-91986552D01*
X46995186Y-92069814D01*
X47078448Y-92171271D01*
X47107778Y-92207009D01*
X47191443Y-92363534D01*
X47242963Y-92533373D01*
X47260359Y-92710000D01*
X47242963Y-92886627D01*
X47191443Y-93056466D01*
X47107778Y-93212991D01*
X47078448Y-93248729D01*
X46995186Y-93350186D01*
X46899617Y-93428616D01*
X46857991Y-93462778D01*
X46701466Y-93546443D01*
X46531627Y-93597963D01*
X46465443Y-93604481D01*
X46399260Y-93611000D01*
X46310740Y-93611000D01*
X46244557Y-93604481D01*
X46178373Y-93597963D01*
X46008534Y-93546443D01*
X45852009Y-93462778D01*
X45810383Y-93428616D01*
X45714814Y-93350186D01*
X45631552Y-93248729D01*
X45602222Y-93212991D01*
X45518557Y-93056466D01*
X45467037Y-92886627D01*
X45449641Y-92710000D01*
X45467037Y-92533373D01*
X45518557Y-92363534D01*
X45602222Y-92207009D01*
X45631552Y-92171271D01*
X45714814Y-92069814D01*
X45816271Y-91986552D01*
X45852009Y-91957222D01*
X46008534Y-91873557D01*
X46178373Y-91822037D01*
X46244558Y-91815518D01*
X46310740Y-91809000D01*
X46399260Y-91809000D01*
X46465442Y-91815518D01*
X46465442Y-91815518D01*
G37*
G36*
X61705442Y-91815518D02*
G01*
X61771627Y-91822037D01*
X61941466Y-91873557D01*
X62097991Y-91957222D01*
X62133729Y-91986552D01*
X62235186Y-92069814D01*
X62318448Y-92171271D01*
X62347778Y-92207009D01*
X62431443Y-92363534D01*
X62482963Y-92533373D01*
X62500359Y-92710000D01*
X62482963Y-92886627D01*
X62431443Y-93056466D01*
X62347778Y-93212991D01*
X62318448Y-93248729D01*
X62235186Y-93350186D01*
X62139617Y-93428616D01*
X62097991Y-93462778D01*
X61941466Y-93546443D01*
X61771627Y-93597963D01*
X61705443Y-93604481D01*
X61639260Y-93611000D01*
X61550740Y-93611000D01*
X61484557Y-93604481D01*
X61418373Y-93597963D01*
X61248534Y-93546443D01*
X61092009Y-93462778D01*
X61050383Y-93428616D01*
X60954814Y-93350186D01*
X60871552Y-93248729D01*
X60842222Y-93212991D01*
X60758557Y-93056466D01*
X60707037Y-92886627D01*
X60689641Y-92710000D01*
X60707037Y-92533373D01*
X60758557Y-92363534D01*
X60842222Y-92207009D01*
X60871552Y-92171271D01*
X60954814Y-92069814D01*
X61056271Y-91986552D01*
X61092009Y-91957222D01*
X61248534Y-91873557D01*
X61418373Y-91822037D01*
X61484558Y-91815518D01*
X61550740Y-91809000D01*
X61639260Y-91809000D01*
X61705442Y-91815518D01*
X61705442Y-91815518D01*
G37*
G36*
X56625442Y-91815518D02*
G01*
X56691627Y-91822037D01*
X56861466Y-91873557D01*
X57017991Y-91957222D01*
X57053729Y-91986552D01*
X57155186Y-92069814D01*
X57238448Y-92171271D01*
X57267778Y-92207009D01*
X57351443Y-92363534D01*
X57402963Y-92533373D01*
X57420359Y-92710000D01*
X57402963Y-92886627D01*
X57351443Y-93056466D01*
X57267778Y-93212991D01*
X57238448Y-93248729D01*
X57155186Y-93350186D01*
X57059617Y-93428616D01*
X57017991Y-93462778D01*
X56861466Y-93546443D01*
X56691627Y-93597963D01*
X56625443Y-93604481D01*
X56559260Y-93611000D01*
X56470740Y-93611000D01*
X56404557Y-93604481D01*
X56338373Y-93597963D01*
X56168534Y-93546443D01*
X56012009Y-93462778D01*
X55970383Y-93428616D01*
X55874814Y-93350186D01*
X55791552Y-93248729D01*
X55762222Y-93212991D01*
X55678557Y-93056466D01*
X55627037Y-92886627D01*
X55609641Y-92710000D01*
X55627037Y-92533373D01*
X55678557Y-92363534D01*
X55762222Y-92207009D01*
X55791552Y-92171271D01*
X55874814Y-92069814D01*
X55976271Y-91986552D01*
X56012009Y-91957222D01*
X56168534Y-91873557D01*
X56338373Y-91822037D01*
X56404558Y-91815518D01*
X56470740Y-91809000D01*
X56559260Y-91809000D01*
X56625442Y-91815518D01*
X56625442Y-91815518D01*
G37*
G36*
X51545442Y-91815518D02*
G01*
X51611627Y-91822037D01*
X51781466Y-91873557D01*
X51937991Y-91957222D01*
X51973729Y-91986552D01*
X52075186Y-92069814D01*
X52158448Y-92171271D01*
X52187778Y-92207009D01*
X52271443Y-92363534D01*
X52322963Y-92533373D01*
X52340359Y-92710000D01*
X52322963Y-92886627D01*
X52271443Y-93056466D01*
X52187778Y-93212991D01*
X52158448Y-93248729D01*
X52075186Y-93350186D01*
X51979617Y-93428616D01*
X51937991Y-93462778D01*
X51781466Y-93546443D01*
X51611627Y-93597963D01*
X51545443Y-93604481D01*
X51479260Y-93611000D01*
X51390740Y-93611000D01*
X51324557Y-93604481D01*
X51258373Y-93597963D01*
X51088534Y-93546443D01*
X50932009Y-93462778D01*
X50890383Y-93428616D01*
X50794814Y-93350186D01*
X50711552Y-93248729D01*
X50682222Y-93212991D01*
X50598557Y-93056466D01*
X50547037Y-92886627D01*
X50529641Y-92710000D01*
X50547037Y-92533373D01*
X50598557Y-92363534D01*
X50682222Y-92207009D01*
X50711552Y-92171271D01*
X50794814Y-92069814D01*
X50896271Y-91986552D01*
X50932009Y-91957222D01*
X51088534Y-91873557D01*
X51258373Y-91822037D01*
X51324558Y-91815518D01*
X51390740Y-91809000D01*
X51479260Y-91809000D01*
X51545442Y-91815518D01*
X51545442Y-91815518D01*
G37*
G36*
X49005442Y-91815518D02*
G01*
X49071627Y-91822037D01*
X49241466Y-91873557D01*
X49397991Y-91957222D01*
X49433729Y-91986552D01*
X49535186Y-92069814D01*
X49618448Y-92171271D01*
X49647778Y-92207009D01*
X49731443Y-92363534D01*
X49782963Y-92533373D01*
X49800359Y-92710000D01*
X49782963Y-92886627D01*
X49731443Y-93056466D01*
X49647778Y-93212991D01*
X49618448Y-93248729D01*
X49535186Y-93350186D01*
X49439617Y-93428616D01*
X49397991Y-93462778D01*
X49241466Y-93546443D01*
X49071627Y-93597963D01*
X49005443Y-93604481D01*
X48939260Y-93611000D01*
X48850740Y-93611000D01*
X48784557Y-93604481D01*
X48718373Y-93597963D01*
X48548534Y-93546443D01*
X48392009Y-93462778D01*
X48350383Y-93428616D01*
X48254814Y-93350186D01*
X48171552Y-93248729D01*
X48142222Y-93212991D01*
X48058557Y-93056466D01*
X48007037Y-92886627D01*
X47989641Y-92710000D01*
X48007037Y-92533373D01*
X48058557Y-92363534D01*
X48142222Y-92207009D01*
X48171552Y-92171271D01*
X48254814Y-92069814D01*
X48356271Y-91986552D01*
X48392009Y-91957222D01*
X48548534Y-91873557D01*
X48718373Y-91822037D01*
X48784558Y-91815518D01*
X48850740Y-91809000D01*
X48939260Y-91809000D01*
X49005442Y-91815518D01*
X49005442Y-91815518D01*
G37*
G36*
X67780443Y-91545519D02*
G01*
X67846627Y-91552037D01*
X68016466Y-91603557D01*
X68172991Y-91687222D01*
X68208729Y-91716552D01*
X68310186Y-91799814D01*
X68370704Y-91873557D01*
X68422778Y-91937009D01*
X68506443Y-92093534D01*
X68557963Y-92263373D01*
X68575359Y-92440000D01*
X68557963Y-92616627D01*
X68506443Y-92786466D01*
X68422778Y-92942991D01*
X68420681Y-92945546D01*
X68310186Y-93080186D01*
X68208729Y-93163448D01*
X68172991Y-93192778D01*
X68016466Y-93276443D01*
X67846627Y-93327963D01*
X67780443Y-93334481D01*
X67714260Y-93341000D01*
X67625740Y-93341000D01*
X67559557Y-93334481D01*
X67493373Y-93327963D01*
X67323534Y-93276443D01*
X67167009Y-93192778D01*
X67131271Y-93163448D01*
X67029814Y-93080186D01*
X66919319Y-92945546D01*
X66917222Y-92942991D01*
X66833557Y-92786466D01*
X66782037Y-92616627D01*
X66764641Y-92440000D01*
X66782037Y-92263373D01*
X66833557Y-92093534D01*
X66917222Y-91937009D01*
X66969296Y-91873557D01*
X67029814Y-91799814D01*
X67131271Y-91716552D01*
X67167009Y-91687222D01*
X67323534Y-91603557D01*
X67493373Y-91552037D01*
X67559557Y-91545519D01*
X67625740Y-91539000D01*
X67714260Y-91539000D01*
X67780443Y-91545519D01*
X67780443Y-91545519D01*
G37*
G36*
X49005443Y-89275519D02*
G01*
X49071627Y-89282037D01*
X49241466Y-89333557D01*
X49397991Y-89417222D01*
X49433729Y-89446552D01*
X49535186Y-89529814D01*
X49618448Y-89631271D01*
X49647778Y-89667009D01*
X49731443Y-89823534D01*
X49782963Y-89993373D01*
X49800359Y-90170000D01*
X49782963Y-90346627D01*
X49731443Y-90516466D01*
X49647778Y-90672991D01*
X49618448Y-90708729D01*
X49535186Y-90810186D01*
X49433729Y-90893448D01*
X49397991Y-90922778D01*
X49241466Y-91006443D01*
X49071627Y-91057963D01*
X49005442Y-91064482D01*
X48939260Y-91071000D01*
X48850740Y-91071000D01*
X48784558Y-91064482D01*
X48718373Y-91057963D01*
X48548534Y-91006443D01*
X48392009Y-90922778D01*
X48356271Y-90893448D01*
X48254814Y-90810186D01*
X48171552Y-90708729D01*
X48142222Y-90672991D01*
X48058557Y-90516466D01*
X48007037Y-90346627D01*
X47989641Y-90170000D01*
X48007037Y-89993373D01*
X48058557Y-89823534D01*
X48142222Y-89667009D01*
X48171552Y-89631271D01*
X48254814Y-89529814D01*
X48356271Y-89446552D01*
X48392009Y-89417222D01*
X48548534Y-89333557D01*
X48718373Y-89282037D01*
X48784557Y-89275519D01*
X48850740Y-89269000D01*
X48939260Y-89269000D01*
X49005443Y-89275519D01*
X49005443Y-89275519D01*
G37*
G36*
X61705443Y-89275519D02*
G01*
X61771627Y-89282037D01*
X61941466Y-89333557D01*
X62097991Y-89417222D01*
X62133729Y-89446552D01*
X62235186Y-89529814D01*
X62318448Y-89631271D01*
X62347778Y-89667009D01*
X62431443Y-89823534D01*
X62482963Y-89993373D01*
X62500359Y-90170000D01*
X62482963Y-90346627D01*
X62431443Y-90516466D01*
X62347778Y-90672991D01*
X62318448Y-90708729D01*
X62235186Y-90810186D01*
X62133729Y-90893448D01*
X62097991Y-90922778D01*
X61941466Y-91006443D01*
X61771627Y-91057963D01*
X61705442Y-91064482D01*
X61639260Y-91071000D01*
X61550740Y-91071000D01*
X61484558Y-91064482D01*
X61418373Y-91057963D01*
X61248534Y-91006443D01*
X61092009Y-90922778D01*
X61056271Y-90893448D01*
X60954814Y-90810186D01*
X60871552Y-90708729D01*
X60842222Y-90672991D01*
X60758557Y-90516466D01*
X60707037Y-90346627D01*
X60689641Y-90170000D01*
X60707037Y-89993373D01*
X60758557Y-89823534D01*
X60842222Y-89667009D01*
X60871552Y-89631271D01*
X60954814Y-89529814D01*
X61056271Y-89446552D01*
X61092009Y-89417222D01*
X61248534Y-89333557D01*
X61418373Y-89282037D01*
X61484557Y-89275519D01*
X61550740Y-89269000D01*
X61639260Y-89269000D01*
X61705443Y-89275519D01*
X61705443Y-89275519D01*
G37*
G36*
X56625443Y-89275519D02*
G01*
X56691627Y-89282037D01*
X56861466Y-89333557D01*
X57017991Y-89417222D01*
X57053729Y-89446552D01*
X57155186Y-89529814D01*
X57238448Y-89631271D01*
X57267778Y-89667009D01*
X57351443Y-89823534D01*
X57402963Y-89993373D01*
X57420359Y-90170000D01*
X57402963Y-90346627D01*
X57351443Y-90516466D01*
X57267778Y-90672991D01*
X57238448Y-90708729D01*
X57155186Y-90810186D01*
X57053729Y-90893448D01*
X57017991Y-90922778D01*
X56861466Y-91006443D01*
X56691627Y-91057963D01*
X56625442Y-91064482D01*
X56559260Y-91071000D01*
X56470740Y-91071000D01*
X56404558Y-91064482D01*
X56338373Y-91057963D01*
X56168534Y-91006443D01*
X56012009Y-90922778D01*
X55976271Y-90893448D01*
X55874814Y-90810186D01*
X55791552Y-90708729D01*
X55762222Y-90672991D01*
X55678557Y-90516466D01*
X55627037Y-90346627D01*
X55609641Y-90170000D01*
X55627037Y-89993373D01*
X55678557Y-89823534D01*
X55762222Y-89667009D01*
X55791552Y-89631271D01*
X55874814Y-89529814D01*
X55976271Y-89446552D01*
X56012009Y-89417222D01*
X56168534Y-89333557D01*
X56338373Y-89282037D01*
X56404557Y-89275519D01*
X56470740Y-89269000D01*
X56559260Y-89269000D01*
X56625443Y-89275519D01*
X56625443Y-89275519D01*
G37*
G36*
X46465443Y-89275519D02*
G01*
X46531627Y-89282037D01*
X46701466Y-89333557D01*
X46857991Y-89417222D01*
X46893729Y-89446552D01*
X46995186Y-89529814D01*
X47078448Y-89631271D01*
X47107778Y-89667009D01*
X47191443Y-89823534D01*
X47242963Y-89993373D01*
X47260359Y-90170000D01*
X47242963Y-90346627D01*
X47191443Y-90516466D01*
X47107778Y-90672991D01*
X47078448Y-90708729D01*
X46995186Y-90810186D01*
X46893729Y-90893448D01*
X46857991Y-90922778D01*
X46701466Y-91006443D01*
X46531627Y-91057963D01*
X46465442Y-91064482D01*
X46399260Y-91071000D01*
X46310740Y-91071000D01*
X46244558Y-91064482D01*
X46178373Y-91057963D01*
X46008534Y-91006443D01*
X45852009Y-90922778D01*
X45816271Y-90893448D01*
X45714814Y-90810186D01*
X45631552Y-90708729D01*
X45602222Y-90672991D01*
X45518557Y-90516466D01*
X45467037Y-90346627D01*
X45449641Y-90170000D01*
X45467037Y-89993373D01*
X45518557Y-89823534D01*
X45602222Y-89667009D01*
X45631552Y-89631271D01*
X45714814Y-89529814D01*
X45816271Y-89446552D01*
X45852009Y-89417222D01*
X46008534Y-89333557D01*
X46178373Y-89282037D01*
X46244557Y-89275519D01*
X46310740Y-89269000D01*
X46399260Y-89269000D01*
X46465443Y-89275519D01*
X46465443Y-89275519D01*
G37*
G36*
X53940443Y-89275519D02*
G01*
X54006627Y-89282037D01*
X54176466Y-89333557D01*
X54332991Y-89417222D01*
X54368729Y-89446552D01*
X54470186Y-89529814D01*
X54553448Y-89631271D01*
X54582778Y-89667009D01*
X54666443Y-89823534D01*
X54717963Y-89993373D01*
X54735359Y-90170000D01*
X54717963Y-90346627D01*
X54666443Y-90516466D01*
X54582778Y-90672991D01*
X54553448Y-90708729D01*
X54470186Y-90810186D01*
X54368729Y-90893448D01*
X54332991Y-90922778D01*
X54176466Y-91006443D01*
X54006627Y-91057963D01*
X53940442Y-91064482D01*
X53874260Y-91071000D01*
X53785740Y-91071000D01*
X53719558Y-91064482D01*
X53653373Y-91057963D01*
X53483534Y-91006443D01*
X53327009Y-90922778D01*
X53291271Y-90893448D01*
X53189814Y-90810186D01*
X53106552Y-90708729D01*
X53077222Y-90672991D01*
X52993557Y-90516466D01*
X52942037Y-90346627D01*
X52924641Y-90170000D01*
X52942037Y-89993373D01*
X52993557Y-89823534D01*
X53077222Y-89667009D01*
X53106552Y-89631271D01*
X53189814Y-89529814D01*
X53291271Y-89446552D01*
X53327009Y-89417222D01*
X53483534Y-89333557D01*
X53653373Y-89282037D01*
X53719557Y-89275519D01*
X53785740Y-89269000D01*
X53874260Y-89269000D01*
X53940443Y-89275519D01*
X53940443Y-89275519D01*
G37*
G36*
X51545443Y-89275519D02*
G01*
X51611627Y-89282037D01*
X51781466Y-89333557D01*
X51937991Y-89417222D01*
X51973729Y-89446552D01*
X52075186Y-89529814D01*
X52158448Y-89631271D01*
X52187778Y-89667009D01*
X52271443Y-89823534D01*
X52322963Y-89993373D01*
X52340359Y-90170000D01*
X52322963Y-90346627D01*
X52271443Y-90516466D01*
X52187778Y-90672991D01*
X52158448Y-90708729D01*
X52075186Y-90810186D01*
X51973729Y-90893448D01*
X51937991Y-90922778D01*
X51781466Y-91006443D01*
X51611627Y-91057963D01*
X51545442Y-91064482D01*
X51479260Y-91071000D01*
X51390740Y-91071000D01*
X51324558Y-91064482D01*
X51258373Y-91057963D01*
X51088534Y-91006443D01*
X50932009Y-90922778D01*
X50896271Y-90893448D01*
X50794814Y-90810186D01*
X50711552Y-90708729D01*
X50682222Y-90672991D01*
X50598557Y-90516466D01*
X50547037Y-90346627D01*
X50529641Y-90170000D01*
X50547037Y-89993373D01*
X50598557Y-89823534D01*
X50682222Y-89667009D01*
X50711552Y-89631271D01*
X50794814Y-89529814D01*
X50896271Y-89446552D01*
X50932009Y-89417222D01*
X51088534Y-89333557D01*
X51258373Y-89282037D01*
X51324557Y-89275519D01*
X51390740Y-89269000D01*
X51479260Y-89269000D01*
X51545443Y-89275519D01*
X51545443Y-89275519D01*
G37*
G36*
X59165443Y-89275519D02*
G01*
X59231627Y-89282037D01*
X59401466Y-89333557D01*
X59557991Y-89417222D01*
X59593729Y-89446552D01*
X59695186Y-89529814D01*
X59778448Y-89631271D01*
X59807778Y-89667009D01*
X59891443Y-89823534D01*
X59942963Y-89993373D01*
X59960359Y-90170000D01*
X59942963Y-90346627D01*
X59891443Y-90516466D01*
X59807778Y-90672991D01*
X59778448Y-90708729D01*
X59695186Y-90810186D01*
X59593729Y-90893448D01*
X59557991Y-90922778D01*
X59401466Y-91006443D01*
X59231627Y-91057963D01*
X59165442Y-91064482D01*
X59099260Y-91071000D01*
X59010740Y-91071000D01*
X58944558Y-91064482D01*
X58878373Y-91057963D01*
X58708534Y-91006443D01*
X58552009Y-90922778D01*
X58516271Y-90893448D01*
X58414814Y-90810186D01*
X58331552Y-90708729D01*
X58302222Y-90672991D01*
X58218557Y-90516466D01*
X58167037Y-90346627D01*
X58149641Y-90170000D01*
X58167037Y-89993373D01*
X58218557Y-89823534D01*
X58302222Y-89667009D01*
X58331552Y-89631271D01*
X58414814Y-89529814D01*
X58516271Y-89446552D01*
X58552009Y-89417222D01*
X58708534Y-89333557D01*
X58878373Y-89282037D01*
X58944557Y-89275519D01*
X59010740Y-89269000D01*
X59099260Y-89269000D01*
X59165443Y-89275519D01*
X59165443Y-89275519D01*
G37*
G36*
X67780443Y-89005519D02*
G01*
X67846627Y-89012037D01*
X68016466Y-89063557D01*
X68172991Y-89147222D01*
X68208729Y-89176552D01*
X68310186Y-89259814D01*
X68370704Y-89333557D01*
X68422778Y-89397009D01*
X68506443Y-89553534D01*
X68557963Y-89723373D01*
X68575359Y-89900000D01*
X68557963Y-90076627D01*
X68506443Y-90246466D01*
X68422778Y-90402991D01*
X68393448Y-90438729D01*
X68310186Y-90540186D01*
X68208729Y-90623448D01*
X68172991Y-90652778D01*
X68016466Y-90736443D01*
X67846627Y-90787963D01*
X67780442Y-90794482D01*
X67714260Y-90801000D01*
X67625740Y-90801000D01*
X67559558Y-90794482D01*
X67493373Y-90787963D01*
X67323534Y-90736443D01*
X67167009Y-90652778D01*
X67131271Y-90623448D01*
X67029814Y-90540186D01*
X66946552Y-90438729D01*
X66917222Y-90402991D01*
X66833557Y-90246466D01*
X66782037Y-90076627D01*
X66764641Y-89900000D01*
X66782037Y-89723373D01*
X66833557Y-89553534D01*
X66917222Y-89397009D01*
X66969296Y-89333557D01*
X67029814Y-89259814D01*
X67131271Y-89176552D01*
X67167009Y-89147222D01*
X67323534Y-89063557D01*
X67493373Y-89012037D01*
X67559557Y-89005519D01*
X67625740Y-88999000D01*
X67714260Y-88999000D01*
X67780443Y-89005519D01*
X67780443Y-89005519D01*
G37*
G36*
X74868254Y-84887818D02*
G01*
X75241511Y-85042426D01*
X75241513Y-85042427D01*
X75490807Y-85209000D01*
X75577436Y-85266884D01*
X75863116Y-85552564D01*
X76087574Y-85888489D01*
X76242182Y-86261746D01*
X76321000Y-86657993D01*
X76321000Y-87062007D01*
X76242182Y-87458254D01*
X76087574Y-87831511D01*
X76087573Y-87831513D01*
X75863116Y-88167436D01*
X75577436Y-88453116D01*
X75241513Y-88677573D01*
X75241512Y-88677574D01*
X75241511Y-88677574D01*
X74868254Y-88832182D01*
X74472007Y-88911000D01*
X74067993Y-88911000D01*
X73671746Y-88832182D01*
X73298489Y-88677574D01*
X73298488Y-88677574D01*
X73298487Y-88677573D01*
X72962564Y-88453116D01*
X72676884Y-88167436D01*
X72452427Y-87831513D01*
X72452426Y-87831511D01*
X72297818Y-87458254D01*
X72219000Y-87062007D01*
X72219000Y-86657993D01*
X72297818Y-86261746D01*
X72452426Y-85888489D01*
X72676884Y-85552564D01*
X72962564Y-85266884D01*
X73049193Y-85209000D01*
X73298487Y-85042427D01*
X73298489Y-85042426D01*
X73671746Y-84887818D01*
X74067993Y-84809000D01*
X74472007Y-84809000D01*
X74868254Y-84887818D01*
X74868254Y-84887818D01*
G37*
G36*
X83668254Y-84887818D02*
G01*
X84041511Y-85042426D01*
X84041513Y-85042427D01*
X84290807Y-85209000D01*
X84377436Y-85266884D01*
X84663116Y-85552564D01*
X84887574Y-85888489D01*
X85042182Y-86261746D01*
X85121000Y-86657993D01*
X85121000Y-87062007D01*
X85042182Y-87458254D01*
X84887574Y-87831511D01*
X84887573Y-87831513D01*
X84663116Y-88167436D01*
X84377436Y-88453116D01*
X84041513Y-88677573D01*
X84041512Y-88677574D01*
X84041511Y-88677574D01*
X83668254Y-88832182D01*
X83272007Y-88911000D01*
X82867993Y-88911000D01*
X82471746Y-88832182D01*
X82098489Y-88677574D01*
X82098488Y-88677574D01*
X82098487Y-88677573D01*
X81762564Y-88453116D01*
X81476884Y-88167436D01*
X81252427Y-87831513D01*
X81252426Y-87831511D01*
X81097818Y-87458254D01*
X81019000Y-87062007D01*
X81019000Y-86657993D01*
X81097818Y-86261746D01*
X81252426Y-85888489D01*
X81476884Y-85552564D01*
X81762564Y-85266884D01*
X81849193Y-85209000D01*
X82098487Y-85042427D01*
X82098489Y-85042426D01*
X82471746Y-84887818D01*
X82867993Y-84809000D01*
X83272007Y-84809000D01*
X83668254Y-84887818D01*
X83668254Y-84887818D01*
G37*
G36*
X54731000Y-88531000D02*
G01*
X52929000Y-88531000D01*
X52929000Y-86729000D01*
X54731000Y-86729000D01*
X54731000Y-88531000D01*
X54731000Y-88531000D01*
G37*
G36*
X62496000Y-88531000D02*
G01*
X60694000Y-88531000D01*
X60694000Y-86729000D01*
X62496000Y-86729000D01*
X62496000Y-88531000D01*
X62496000Y-88531000D01*
G37*
G36*
X52336000Y-88531000D02*
G01*
X50534000Y-88531000D01*
X50534000Y-86729000D01*
X52336000Y-86729000D01*
X52336000Y-88531000D01*
X52336000Y-88531000D01*
G37*
G36*
X47256000Y-88531000D02*
G01*
X45454000Y-88531000D01*
X45454000Y-86729000D01*
X47256000Y-86729000D01*
X47256000Y-88531000D01*
X47256000Y-88531000D01*
G37*
G36*
X57416000Y-88531000D02*
G01*
X55614000Y-88531000D01*
X55614000Y-86729000D01*
X57416000Y-86729000D01*
X57416000Y-88531000D01*
X57416000Y-88531000D01*
G37*
G36*
X59956000Y-88531000D02*
G01*
X58154000Y-88531000D01*
X58154000Y-86729000D01*
X59956000Y-86729000D01*
X59956000Y-88531000D01*
X59956000Y-88531000D01*
G37*
G36*
X49796000Y-88531000D02*
G01*
X47994000Y-88531000D01*
X47994000Y-86729000D01*
X49796000Y-86729000D01*
X49796000Y-88531000D01*
X49796000Y-88531000D01*
G37*
G36*
X105321000Y-88511000D02*
G01*
X103219000Y-88511000D01*
X103219000Y-85209000D01*
X105321000Y-85209000D01*
X105321000Y-88511000D01*
X105321000Y-88511000D01*
G37*
G36*
X94121000Y-88511000D02*
G01*
X92019000Y-88511000D01*
X92019000Y-85209000D01*
X94121000Y-85209000D01*
X94121000Y-88511000D01*
X94121000Y-88511000D01*
G37*
G36*
X68571000Y-88261000D02*
G01*
X66769000Y-88261000D01*
X66769000Y-86459000D01*
X68571000Y-86459000D01*
X68571000Y-88261000D01*
X68571000Y-88261000D01*
G37*
G36*
X39045256Y-84251298D02*
G01*
X39151579Y-84272447D01*
X39452042Y-84396903D01*
X39722451Y-84577585D01*
X39952415Y-84807549D01*
X40133097Y-85077958D01*
X40257553Y-85378421D01*
X40321000Y-85697391D01*
X40321000Y-86022609D01*
X40257553Y-86341579D01*
X40133097Y-86642042D01*
X39952415Y-86912451D01*
X39722451Y-87142415D01*
X39452042Y-87323097D01*
X39151579Y-87447553D01*
X39097781Y-87458254D01*
X38832611Y-87511000D01*
X38507389Y-87511000D01*
X38242219Y-87458254D01*
X38188421Y-87447553D01*
X37887958Y-87323097D01*
X37617549Y-87142415D01*
X37387585Y-86912451D01*
X37206903Y-86642042D01*
X37082447Y-86341579D01*
X37019000Y-86022609D01*
X37019000Y-85697391D01*
X37082447Y-85378421D01*
X37206903Y-85077958D01*
X37387585Y-84807549D01*
X37617549Y-84577585D01*
X37887958Y-84396903D01*
X38188421Y-84272447D01*
X38294744Y-84251298D01*
X38507389Y-84209000D01*
X38832611Y-84209000D01*
X39045256Y-84251298D01*
X39045256Y-84251298D01*
G37*
G36*
X115045256Y-84251298D02*
G01*
X115151579Y-84272447D01*
X115452042Y-84396903D01*
X115722451Y-84577585D01*
X115952415Y-84807549D01*
X116133097Y-85077958D01*
X116257553Y-85378421D01*
X116321000Y-85697391D01*
X116321000Y-86022609D01*
X116257553Y-86341579D01*
X116133097Y-86642042D01*
X115952415Y-86912451D01*
X115722451Y-87142415D01*
X115452042Y-87323097D01*
X115151579Y-87447553D01*
X115097781Y-87458254D01*
X114832611Y-87511000D01*
X114507389Y-87511000D01*
X114242219Y-87458254D01*
X114188421Y-87447553D01*
X113887958Y-87323097D01*
X113617549Y-87142415D01*
X113387585Y-86912451D01*
X113206903Y-86642042D01*
X113082447Y-86341579D01*
X113019000Y-86022609D01*
X113019000Y-85697391D01*
X113082447Y-85378421D01*
X113206903Y-85077958D01*
X113387585Y-84807549D01*
X113617549Y-84577585D01*
X113887958Y-84396903D01*
X114188421Y-84272447D01*
X114294744Y-84251298D01*
X114507389Y-84209000D01*
X114832611Y-84209000D01*
X115045256Y-84251298D01*
X115045256Y-84251298D01*
G37*
G36*
X96476564Y-78849389D02*
G01*
X96667833Y-78928615D01*
X96667835Y-78928616D01*
X96839973Y-79043635D01*
X96986365Y-79190027D01*
X97101385Y-79362167D01*
X97180611Y-79553436D01*
X97221000Y-79756484D01*
X97221000Y-79963516D01*
X97180611Y-80166564D01*
X97101385Y-80357833D01*
X97101384Y-80357835D01*
X96986365Y-80529973D01*
X96839973Y-80676365D01*
X96667835Y-80791384D01*
X96667834Y-80791385D01*
X96667833Y-80791385D01*
X96476564Y-80870611D01*
X96273516Y-80911000D01*
X96066484Y-80911000D01*
X95863436Y-80870611D01*
X95672167Y-80791385D01*
X95672166Y-80791385D01*
X95672165Y-80791384D01*
X95500027Y-80676365D01*
X95353635Y-80529973D01*
X95238616Y-80357835D01*
X95238615Y-80357833D01*
X95159389Y-80166564D01*
X95119000Y-79963516D01*
X95119000Y-79756484D01*
X95159389Y-79553436D01*
X95238615Y-79362167D01*
X95353635Y-79190027D01*
X95500027Y-79043635D01*
X95672165Y-78928616D01*
X95672167Y-78928615D01*
X95863436Y-78849389D01*
X96066484Y-78809000D01*
X96273516Y-78809000D01*
X96476564Y-78849389D01*
X96476564Y-78849389D01*
G37*
G36*
X101476564Y-78849389D02*
G01*
X101667833Y-78928615D01*
X101667835Y-78928616D01*
X101839973Y-79043635D01*
X101986365Y-79190027D01*
X102101385Y-79362167D01*
X102180611Y-79553436D01*
X102221000Y-79756484D01*
X102221000Y-79963516D01*
X102180611Y-80166564D01*
X102101385Y-80357833D01*
X102101384Y-80357835D01*
X101986365Y-80529973D01*
X101839973Y-80676365D01*
X101667835Y-80791384D01*
X101667834Y-80791385D01*
X101667833Y-80791385D01*
X101476564Y-80870611D01*
X101273516Y-80911000D01*
X101066484Y-80911000D01*
X100863436Y-80870611D01*
X100672167Y-80791385D01*
X100672166Y-80791385D01*
X100672165Y-80791384D01*
X100500027Y-80676365D01*
X100353635Y-80529973D01*
X100238616Y-80357835D01*
X100238615Y-80357833D01*
X100159389Y-80166564D01*
X100119000Y-79963516D01*
X100119000Y-79756484D01*
X100159389Y-79553436D01*
X100238615Y-79362167D01*
X100353635Y-79190027D01*
X100500027Y-79043635D01*
X100672165Y-78928616D01*
X100672167Y-78928615D01*
X100863436Y-78849389D01*
X101066484Y-78809000D01*
X101273516Y-78809000D01*
X101476564Y-78849389D01*
X101476564Y-78849389D01*
G37*
G36*
X104659700Y-75535546D02*
G01*
X104889872Y-75581330D01*
X105199252Y-75709479D01*
X105477687Y-75895523D01*
X105714477Y-76132313D01*
X105900521Y-76410748D01*
X106028670Y-76720128D01*
X106035902Y-76756486D01*
X106085794Y-77007308D01*
X106094000Y-77048565D01*
X106094000Y-77383435D01*
X106028670Y-77711872D01*
X105900521Y-78021252D01*
X105714477Y-78299687D01*
X105477687Y-78536477D01*
X105199252Y-78722521D01*
X104889872Y-78850670D01*
X104725653Y-78883335D01*
X104561437Y-78916000D01*
X104226563Y-78916000D01*
X104062347Y-78883335D01*
X103898128Y-78850670D01*
X103588748Y-78722521D01*
X103310313Y-78536477D01*
X103073523Y-78299687D01*
X102887479Y-78021252D01*
X102759330Y-77711872D01*
X102694000Y-77383435D01*
X102694000Y-77048565D01*
X102702207Y-77007308D01*
X102752098Y-76756486D01*
X102759330Y-76720128D01*
X102887479Y-76410748D01*
X103073523Y-76132313D01*
X103310313Y-75895523D01*
X103588748Y-75709479D01*
X103898128Y-75581330D01*
X104128300Y-75535546D01*
X104226563Y-75516000D01*
X104561437Y-75516000D01*
X104659700Y-75535546D01*
X104659700Y-75535546D01*
G37*
G36*
X70369700Y-75535546D02*
G01*
X70599872Y-75581330D01*
X70909252Y-75709479D01*
X71187687Y-75895523D01*
X71424477Y-76132313D01*
X71610521Y-76410748D01*
X71738670Y-76720128D01*
X71745902Y-76756486D01*
X71795794Y-77007308D01*
X71804000Y-77048565D01*
X71804000Y-77383435D01*
X71738670Y-77711872D01*
X71610521Y-78021252D01*
X71424477Y-78299687D01*
X71187687Y-78536477D01*
X70909252Y-78722521D01*
X70599872Y-78850670D01*
X70435653Y-78883335D01*
X70271437Y-78916000D01*
X69936563Y-78916000D01*
X69772347Y-78883335D01*
X69608128Y-78850670D01*
X69298748Y-78722521D01*
X69020313Y-78536477D01*
X68783523Y-78299687D01*
X68597479Y-78021252D01*
X68469330Y-77711872D01*
X68404000Y-77383435D01*
X68404000Y-77048565D01*
X68412207Y-77007308D01*
X68462098Y-76756486D01*
X68469330Y-76720128D01*
X68597479Y-76410748D01*
X68783523Y-76132313D01*
X69020313Y-75895523D01*
X69298748Y-75709479D01*
X69608128Y-75581330D01*
X69838300Y-75535546D01*
X69936563Y-75516000D01*
X70271437Y-75516000D01*
X70369700Y-75535546D01*
X70369700Y-75535546D01*
G37*
G36*
X113918228Y-76541703D02*
G01*
X114073100Y-76605853D01*
X114212481Y-76698985D01*
X114331015Y-76817519D01*
X114424147Y-76956900D01*
X114488297Y-77111772D01*
X114521000Y-77276184D01*
X114521000Y-77443816D01*
X114488297Y-77608228D01*
X114424147Y-77763100D01*
X114331015Y-77902481D01*
X114212481Y-78021015D01*
X114073100Y-78114147D01*
X113918228Y-78178297D01*
X113753816Y-78211000D01*
X113586184Y-78211000D01*
X113421772Y-78178297D01*
X113266900Y-78114147D01*
X113127519Y-78021015D01*
X113008985Y-77902481D01*
X112915853Y-77763100D01*
X112851703Y-77608228D01*
X112819000Y-77443816D01*
X112819000Y-77276184D01*
X112851703Y-77111772D01*
X112915853Y-76956900D01*
X113008985Y-76817519D01*
X113127519Y-76698985D01*
X113266900Y-76605853D01*
X113421772Y-76541703D01*
X113586184Y-76509000D01*
X113753816Y-76509000D01*
X113918228Y-76541703D01*
X113918228Y-76541703D01*
G37*
G36*
X121918228Y-76541703D02*
G01*
X122073100Y-76605853D01*
X122212481Y-76698985D01*
X122331015Y-76817519D01*
X122424147Y-76956900D01*
X122488297Y-77111772D01*
X122521000Y-77276184D01*
X122521000Y-77443816D01*
X122488297Y-77608228D01*
X122424147Y-77763100D01*
X122331015Y-77902481D01*
X122212481Y-78021015D01*
X122073100Y-78114147D01*
X121918228Y-78178297D01*
X121753816Y-78211000D01*
X121586184Y-78211000D01*
X121421772Y-78178297D01*
X121266900Y-78114147D01*
X121127519Y-78021015D01*
X121008985Y-77902481D01*
X120915853Y-77763100D01*
X120851703Y-77608228D01*
X120819000Y-77443816D01*
X120819000Y-77276184D01*
X120851703Y-77111772D01*
X120915853Y-76956900D01*
X121008985Y-76817519D01*
X121127519Y-76698985D01*
X121266900Y-76605853D01*
X121421772Y-76541703D01*
X121586184Y-76509000D01*
X121753816Y-76509000D01*
X121918228Y-76541703D01*
X121918228Y-76541703D01*
G37*
G36*
X55721000Y-77911000D02*
G01*
X53619000Y-77911000D01*
X53619000Y-75809000D01*
X55721000Y-75809000D01*
X55721000Y-77911000D01*
X55721000Y-77911000D01*
G37*
G36*
X62576564Y-75849389D02*
G01*
X62767833Y-75928615D01*
X62767835Y-75928616D01*
X62939973Y-76043635D01*
X63086365Y-76190027D01*
X63197489Y-76356335D01*
X63201385Y-76362167D01*
X63280611Y-76553436D01*
X63321000Y-76756484D01*
X63321000Y-76963516D01*
X63280611Y-77166564D01*
X63201385Y-77357833D01*
X63201384Y-77357835D01*
X63086365Y-77529973D01*
X62939973Y-77676365D01*
X62767835Y-77791384D01*
X62767834Y-77791385D01*
X62767833Y-77791385D01*
X62576564Y-77870611D01*
X62373516Y-77911000D01*
X62166484Y-77911000D01*
X61963436Y-77870611D01*
X61772167Y-77791385D01*
X61772166Y-77791385D01*
X61772165Y-77791384D01*
X61600027Y-77676365D01*
X61453635Y-77529973D01*
X61338616Y-77357835D01*
X61338615Y-77357833D01*
X61259389Y-77166564D01*
X61219000Y-76963516D01*
X61219000Y-76756484D01*
X61259389Y-76553436D01*
X61338615Y-76362167D01*
X61342512Y-76356335D01*
X61453635Y-76190027D01*
X61600027Y-76043635D01*
X61772165Y-75928616D01*
X61772167Y-75928615D01*
X61963436Y-75849389D01*
X62166484Y-75809000D01*
X62373516Y-75809000D01*
X62576564Y-75849389D01*
X62576564Y-75849389D01*
G37*
G36*
X88760018Y-75711309D02*
G01*
X88781520Y-75715586D01*
X88945310Y-75783430D01*
X89092717Y-75881924D01*
X89218076Y-76007283D01*
X89316570Y-76154690D01*
X89316571Y-76154692D01*
X89384414Y-76318480D01*
X89419000Y-76492356D01*
X89419000Y-76669644D01*
X89384414Y-76843520D01*
X89337451Y-76956900D01*
X89316570Y-77007310D01*
X89218076Y-77154717D01*
X89092717Y-77280076D01*
X88945310Y-77378570D01*
X88945309Y-77378571D01*
X88945308Y-77378571D01*
X88781520Y-77446414D01*
X88607644Y-77481000D01*
X88430356Y-77481000D01*
X88256480Y-77446414D01*
X88092692Y-77378571D01*
X88092691Y-77378571D01*
X88092690Y-77378570D01*
X87945283Y-77280076D01*
X87819924Y-77154717D01*
X87721430Y-77007310D01*
X87700550Y-76956900D01*
X87653586Y-76843520D01*
X87619000Y-76669644D01*
X87619000Y-76492356D01*
X87653586Y-76318480D01*
X87721429Y-76154692D01*
X87721430Y-76154690D01*
X87819924Y-76007283D01*
X87945283Y-75881924D01*
X88092690Y-75783430D01*
X88256480Y-75715586D01*
X88277982Y-75711309D01*
X88430356Y-75681000D01*
X88607644Y-75681000D01*
X88760018Y-75711309D01*
X88760018Y-75711309D01*
G37*
G36*
X91300018Y-75711309D02*
G01*
X91321520Y-75715586D01*
X91485310Y-75783430D01*
X91632717Y-75881924D01*
X91758076Y-76007283D01*
X91856570Y-76154690D01*
X91856571Y-76154692D01*
X91924414Y-76318480D01*
X91959000Y-76492356D01*
X91959000Y-76669644D01*
X91924414Y-76843520D01*
X91877451Y-76956900D01*
X91856570Y-77007310D01*
X91758076Y-77154717D01*
X91632717Y-77280076D01*
X91485310Y-77378570D01*
X91485309Y-77378571D01*
X91485308Y-77378571D01*
X91321520Y-77446414D01*
X91147644Y-77481000D01*
X90970356Y-77481000D01*
X90796480Y-77446414D01*
X90632692Y-77378571D01*
X90632691Y-77378571D01*
X90632690Y-77378570D01*
X90485283Y-77280076D01*
X90359924Y-77154717D01*
X90261430Y-77007310D01*
X90240550Y-76956900D01*
X90193586Y-76843520D01*
X90159000Y-76669644D01*
X90159000Y-76492356D01*
X90193586Y-76318480D01*
X90261429Y-76154692D01*
X90261430Y-76154690D01*
X90359924Y-76007283D01*
X90485283Y-75881924D01*
X90632690Y-75783430D01*
X90796480Y-75715586D01*
X90817982Y-75711309D01*
X90970356Y-75681000D01*
X91147644Y-75681000D01*
X91300018Y-75711309D01*
X91300018Y-75711309D01*
G37*
G36*
X86220018Y-75711309D02*
G01*
X86241520Y-75715586D01*
X86405310Y-75783430D01*
X86552717Y-75881924D01*
X86678076Y-76007283D01*
X86776570Y-76154690D01*
X86776571Y-76154692D01*
X86844414Y-76318480D01*
X86879000Y-76492356D01*
X86879000Y-76669644D01*
X86844414Y-76843520D01*
X86797451Y-76956900D01*
X86776570Y-77007310D01*
X86678076Y-77154717D01*
X86552717Y-77280076D01*
X86405310Y-77378570D01*
X86405309Y-77378571D01*
X86405308Y-77378571D01*
X86241520Y-77446414D01*
X86067644Y-77481000D01*
X85890356Y-77481000D01*
X85716480Y-77446414D01*
X85552692Y-77378571D01*
X85552691Y-77378571D01*
X85552690Y-77378570D01*
X85405283Y-77280076D01*
X85279924Y-77154717D01*
X85181430Y-77007310D01*
X85160550Y-76956900D01*
X85113586Y-76843520D01*
X85079000Y-76669644D01*
X85079000Y-76492356D01*
X85113586Y-76318480D01*
X85181429Y-76154692D01*
X85181430Y-76154690D01*
X85279924Y-76007283D01*
X85405283Y-75881924D01*
X85552690Y-75783430D01*
X85716480Y-75715586D01*
X85737982Y-75711309D01*
X85890356Y-75681000D01*
X86067644Y-75681000D01*
X86220018Y-75711309D01*
X86220018Y-75711309D01*
G37*
G36*
X83680018Y-75711309D02*
G01*
X83701520Y-75715586D01*
X83865310Y-75783430D01*
X84012717Y-75881924D01*
X84138076Y-76007283D01*
X84236570Y-76154690D01*
X84236571Y-76154692D01*
X84304414Y-76318480D01*
X84339000Y-76492356D01*
X84339000Y-76669644D01*
X84304414Y-76843520D01*
X84257451Y-76956900D01*
X84236570Y-77007310D01*
X84138076Y-77154717D01*
X84012717Y-77280076D01*
X83865310Y-77378570D01*
X83865309Y-77378571D01*
X83865308Y-77378571D01*
X83701520Y-77446414D01*
X83527644Y-77481000D01*
X83350356Y-77481000D01*
X83176480Y-77446414D01*
X83012692Y-77378571D01*
X83012691Y-77378571D01*
X83012690Y-77378570D01*
X82865283Y-77280076D01*
X82739924Y-77154717D01*
X82641430Y-77007310D01*
X82620550Y-76956900D01*
X82573586Y-76843520D01*
X82539000Y-76669644D01*
X82539000Y-76492356D01*
X82573586Y-76318480D01*
X82641429Y-76154692D01*
X82641430Y-76154690D01*
X82739924Y-76007283D01*
X82865283Y-75881924D01*
X83012690Y-75783430D01*
X83176480Y-75715586D01*
X83197982Y-75711309D01*
X83350356Y-75681000D01*
X83527644Y-75681000D01*
X83680018Y-75711309D01*
X83680018Y-75711309D01*
G37*
G36*
X81140018Y-75711309D02*
G01*
X81161520Y-75715586D01*
X81325310Y-75783430D01*
X81472717Y-75881924D01*
X81598076Y-76007283D01*
X81696570Y-76154690D01*
X81696571Y-76154692D01*
X81764414Y-76318480D01*
X81799000Y-76492356D01*
X81799000Y-76669644D01*
X81764414Y-76843520D01*
X81717451Y-76956900D01*
X81696570Y-77007310D01*
X81598076Y-77154717D01*
X81472717Y-77280076D01*
X81325310Y-77378570D01*
X81325309Y-77378571D01*
X81325308Y-77378571D01*
X81161520Y-77446414D01*
X80987644Y-77481000D01*
X80810356Y-77481000D01*
X80636480Y-77446414D01*
X80472692Y-77378571D01*
X80472691Y-77378571D01*
X80472690Y-77378570D01*
X80325283Y-77280076D01*
X80199924Y-77154717D01*
X80101430Y-77007310D01*
X80080550Y-76956900D01*
X80033586Y-76843520D01*
X79999000Y-76669644D01*
X79999000Y-76492356D01*
X80033586Y-76318480D01*
X80101429Y-76154692D01*
X80101430Y-76154690D01*
X80199924Y-76007283D01*
X80325283Y-75881924D01*
X80472690Y-75783430D01*
X80636480Y-75715586D01*
X80657982Y-75711309D01*
X80810356Y-75681000D01*
X80987644Y-75681000D01*
X81140018Y-75711309D01*
X81140018Y-75711309D01*
G37*
G36*
X78600018Y-75711309D02*
G01*
X78621520Y-75715586D01*
X78785310Y-75783430D01*
X78932717Y-75881924D01*
X79058076Y-76007283D01*
X79156570Y-76154690D01*
X79156571Y-76154692D01*
X79224414Y-76318480D01*
X79259000Y-76492356D01*
X79259000Y-76669644D01*
X79224414Y-76843520D01*
X79177451Y-76956900D01*
X79156570Y-77007310D01*
X79058076Y-77154717D01*
X78932717Y-77280076D01*
X78785310Y-77378570D01*
X78785309Y-77378571D01*
X78785308Y-77378571D01*
X78621520Y-77446414D01*
X78447644Y-77481000D01*
X78270356Y-77481000D01*
X78096480Y-77446414D01*
X77932692Y-77378571D01*
X77932691Y-77378571D01*
X77932690Y-77378570D01*
X77785283Y-77280076D01*
X77659924Y-77154717D01*
X77561430Y-77007310D01*
X77540550Y-76956900D01*
X77493586Y-76843520D01*
X77459000Y-76669644D01*
X77459000Y-76492356D01*
X77493586Y-76318480D01*
X77561429Y-76154692D01*
X77561430Y-76154690D01*
X77659924Y-76007283D01*
X77785283Y-75881924D01*
X77932690Y-75783430D01*
X78096480Y-75715586D01*
X78117982Y-75711309D01*
X78270356Y-75681000D01*
X78447644Y-75681000D01*
X78600018Y-75711309D01*
X78600018Y-75711309D01*
G37*
G36*
X93840018Y-75711309D02*
G01*
X93861520Y-75715586D01*
X94025310Y-75783430D01*
X94172717Y-75881924D01*
X94298076Y-76007283D01*
X94396570Y-76154690D01*
X94396571Y-76154692D01*
X94464414Y-76318480D01*
X94499000Y-76492356D01*
X94499000Y-76669644D01*
X94464414Y-76843520D01*
X94417451Y-76956900D01*
X94396570Y-77007310D01*
X94298076Y-77154717D01*
X94172717Y-77280076D01*
X94025310Y-77378570D01*
X94025309Y-77378571D01*
X94025308Y-77378571D01*
X93861520Y-77446414D01*
X93687644Y-77481000D01*
X93510356Y-77481000D01*
X93336480Y-77446414D01*
X93172692Y-77378571D01*
X93172691Y-77378571D01*
X93172690Y-77378570D01*
X93025283Y-77280076D01*
X92899924Y-77154717D01*
X92801430Y-77007310D01*
X92780550Y-76956900D01*
X92733586Y-76843520D01*
X92699000Y-76669644D01*
X92699000Y-76492356D01*
X92733586Y-76318480D01*
X92801429Y-76154692D01*
X92801430Y-76154690D01*
X92899924Y-76007283D01*
X93025283Y-75881924D01*
X93172690Y-75783430D01*
X93336480Y-75715586D01*
X93357982Y-75711309D01*
X93510356Y-75681000D01*
X93687644Y-75681000D01*
X93840018Y-75711309D01*
X93840018Y-75711309D01*
G37*
G36*
X96380018Y-75711309D02*
G01*
X96401520Y-75715586D01*
X96565310Y-75783430D01*
X96712717Y-75881924D01*
X96838076Y-76007283D01*
X96936570Y-76154690D01*
X96936571Y-76154692D01*
X97004414Y-76318480D01*
X97039000Y-76492356D01*
X97039000Y-76669644D01*
X97004414Y-76843520D01*
X96957451Y-76956900D01*
X96936570Y-77007310D01*
X96838076Y-77154717D01*
X96712717Y-77280076D01*
X96565310Y-77378570D01*
X96565309Y-77378571D01*
X96565308Y-77378571D01*
X96401520Y-77446414D01*
X96227644Y-77481000D01*
X96050356Y-77481000D01*
X95876480Y-77446414D01*
X95712692Y-77378571D01*
X95712691Y-77378571D01*
X95712690Y-77378570D01*
X95565283Y-77280076D01*
X95439924Y-77154717D01*
X95341430Y-77007310D01*
X95320550Y-76956900D01*
X95273586Y-76843520D01*
X95239000Y-76669644D01*
X95239000Y-76492356D01*
X95273586Y-76318480D01*
X95341429Y-76154692D01*
X95341430Y-76154690D01*
X95439924Y-76007283D01*
X95565283Y-75881924D01*
X95712690Y-75783430D01*
X95876480Y-75715586D01*
X95897982Y-75711309D01*
X96050356Y-75681000D01*
X96227644Y-75681000D01*
X96380018Y-75711309D01*
X96380018Y-75711309D01*
G37*
G36*
X45301000Y-77401000D02*
G01*
X43399000Y-77401000D01*
X43399000Y-75499000D01*
X45301000Y-75499000D01*
X45301000Y-77401000D01*
X45301000Y-77401000D01*
G37*
G36*
X47167395Y-75535546D02*
G01*
X47340466Y-75607234D01*
X47340467Y-75607235D01*
X47496227Y-75711310D01*
X47628690Y-75843773D01*
X47663268Y-75895523D01*
X47732766Y-75999534D01*
X47804454Y-76172605D01*
X47841000Y-76356333D01*
X47841000Y-76543667D01*
X47804454Y-76727395D01*
X47732766Y-76900466D01*
X47732765Y-76900467D01*
X47628690Y-77056227D01*
X47496227Y-77188690D01*
X47417818Y-77241081D01*
X47340466Y-77292766D01*
X47167395Y-77364454D01*
X46983667Y-77401000D01*
X46796333Y-77401000D01*
X46612605Y-77364454D01*
X46439534Y-77292766D01*
X46362182Y-77241081D01*
X46283773Y-77188690D01*
X46151310Y-77056227D01*
X46047235Y-76900467D01*
X46047234Y-76900466D01*
X45975546Y-76727395D01*
X45939000Y-76543667D01*
X45939000Y-76356333D01*
X45975546Y-76172605D01*
X46047234Y-75999534D01*
X46116732Y-75895523D01*
X46151310Y-75843773D01*
X46283773Y-75711310D01*
X46439533Y-75607235D01*
X46439534Y-75607234D01*
X46612605Y-75535546D01*
X46796333Y-75499000D01*
X46983667Y-75499000D01*
X47167395Y-75535546D01*
X47167395Y-75535546D01*
G37*
G36*
X114521000Y-75711000D02*
G01*
X112819000Y-75711000D01*
X112819000Y-74009000D01*
X114521000Y-74009000D01*
X114521000Y-75711000D01*
X114521000Y-75711000D01*
G37*
G36*
X122521000Y-75711000D02*
G01*
X120819000Y-75711000D01*
X120819000Y-74009000D01*
X122521000Y-74009000D01*
X122521000Y-75711000D01*
X122521000Y-75711000D01*
G37*
G36*
X38587395Y-73165546D02*
G01*
X38760466Y-73237234D01*
X38760467Y-73237235D01*
X38916227Y-73341310D01*
X39048690Y-73473773D01*
X39048691Y-73473775D01*
X39152766Y-73629534D01*
X39224454Y-73802605D01*
X39261000Y-73986333D01*
X39261000Y-74173667D01*
X39224454Y-74357395D01*
X39152766Y-74530466D01*
X39152765Y-74530467D01*
X39048690Y-74686227D01*
X38916227Y-74818690D01*
X38837818Y-74871081D01*
X38760466Y-74922766D01*
X38587395Y-74994454D01*
X38403667Y-75031000D01*
X38216333Y-75031000D01*
X38032605Y-74994454D01*
X37859534Y-74922766D01*
X37782182Y-74871081D01*
X37703773Y-74818690D01*
X37571310Y-74686227D01*
X37467235Y-74530467D01*
X37467234Y-74530466D01*
X37395546Y-74357395D01*
X37359000Y-74173667D01*
X37359000Y-73986333D01*
X37395546Y-73802605D01*
X37467234Y-73629534D01*
X37571309Y-73473775D01*
X37571310Y-73473773D01*
X37703773Y-73341310D01*
X37859533Y-73237235D01*
X37859534Y-73237234D01*
X38032605Y-73165546D01*
X38216333Y-73129000D01*
X38403667Y-73129000D01*
X38587395Y-73165546D01*
X38587395Y-73165546D01*
G37*
G36*
X36721000Y-75031000D02*
G01*
X34819000Y-75031000D01*
X34819000Y-73129000D01*
X36721000Y-73129000D01*
X36721000Y-75031000D01*
X36721000Y-75031000D01*
G37*
G36*
X44487395Y-68755546D02*
G01*
X44660466Y-68827234D01*
X44660467Y-68827235D01*
X44816227Y-68931310D01*
X44948690Y-69063773D01*
X44948691Y-69063775D01*
X45052766Y-69219534D01*
X45124454Y-69392605D01*
X45161000Y-69576333D01*
X45161000Y-69763667D01*
X45124454Y-69947395D01*
X45052766Y-70120466D01*
X45052765Y-70120467D01*
X44948690Y-70276227D01*
X44816227Y-70408690D01*
X44737818Y-70461081D01*
X44660466Y-70512766D01*
X44487395Y-70584454D01*
X44303667Y-70621000D01*
X44116333Y-70621000D01*
X43932605Y-70584454D01*
X43759534Y-70512766D01*
X43682182Y-70461081D01*
X43603773Y-70408690D01*
X43471310Y-70276227D01*
X43367235Y-70120467D01*
X43367234Y-70120466D01*
X43295546Y-69947395D01*
X43259000Y-69763667D01*
X43259000Y-69576333D01*
X43295546Y-69392605D01*
X43367234Y-69219534D01*
X43471309Y-69063775D01*
X43471310Y-69063773D01*
X43603773Y-68931310D01*
X43759533Y-68827235D01*
X43759534Y-68827234D01*
X43932605Y-68755546D01*
X44116333Y-68719000D01*
X44303667Y-68719000D01*
X44487395Y-68755546D01*
X44487395Y-68755546D01*
G37*
G36*
X42621000Y-70621000D02*
G01*
X40719000Y-70621000D01*
X40719000Y-68719000D01*
X42621000Y-68719000D01*
X42621000Y-70621000D01*
X42621000Y-70621000D01*
G37*
G36*
X53167395Y-68405546D02*
G01*
X53340466Y-68477234D01*
X53340467Y-68477235D01*
X53496227Y-68581310D01*
X53628690Y-68713773D01*
X53648062Y-68742765D01*
X53732766Y-68869534D01*
X53804454Y-69042605D01*
X53841000Y-69226333D01*
X53841000Y-69413667D01*
X53804454Y-69597395D01*
X53732766Y-69770466D01*
X53732765Y-69770467D01*
X53628690Y-69926227D01*
X53496227Y-70058690D01*
X53417818Y-70111081D01*
X53340466Y-70162766D01*
X53167395Y-70234454D01*
X52983667Y-70271000D01*
X52796333Y-70271000D01*
X52612605Y-70234454D01*
X52439534Y-70162766D01*
X52362182Y-70111081D01*
X52283773Y-70058690D01*
X52151310Y-69926227D01*
X52047235Y-69770467D01*
X52047234Y-69770466D01*
X51975546Y-69597395D01*
X51939000Y-69413667D01*
X51939000Y-69226333D01*
X51975546Y-69042605D01*
X52047234Y-68869534D01*
X52131938Y-68742765D01*
X52151310Y-68713773D01*
X52283773Y-68581310D01*
X52439533Y-68477235D01*
X52439534Y-68477234D01*
X52612605Y-68405546D01*
X52796333Y-68369000D01*
X52983667Y-68369000D01*
X53167395Y-68405546D01*
X53167395Y-68405546D01*
G37*
G36*
X51301000Y-70271000D02*
G01*
X49399000Y-70271000D01*
X49399000Y-68369000D01*
X51301000Y-68369000D01*
X51301000Y-70271000D01*
X51301000Y-70271000D01*
G37*
G36*
X34991000Y-68851000D02*
G01*
X33089000Y-68851000D01*
X33089000Y-66949000D01*
X34991000Y-66949000D01*
X34991000Y-68851000D01*
X34991000Y-68851000D01*
G37*
G36*
X36857395Y-66985546D02*
G01*
X37030466Y-67057234D01*
X37030467Y-67057235D01*
X37186227Y-67161310D01*
X37318690Y-67293773D01*
X37318691Y-67293775D01*
X37422766Y-67449534D01*
X37494454Y-67622605D01*
X37531000Y-67806333D01*
X37531000Y-67993667D01*
X37494454Y-68177395D01*
X37422766Y-68350466D01*
X37422765Y-68350467D01*
X37318690Y-68506227D01*
X37186227Y-68638690D01*
X37107818Y-68691081D01*
X37030466Y-68742766D01*
X36857395Y-68814454D01*
X36673667Y-68851000D01*
X36486333Y-68851000D01*
X36302605Y-68814454D01*
X36129534Y-68742766D01*
X36052182Y-68691081D01*
X35973773Y-68638690D01*
X35841310Y-68506227D01*
X35737235Y-68350467D01*
X35737234Y-68350466D01*
X35665546Y-68177395D01*
X35629000Y-67993667D01*
X35629000Y-67806333D01*
X35665546Y-67622605D01*
X35737234Y-67449534D01*
X35841309Y-67293775D01*
X35841310Y-67293773D01*
X35973773Y-67161310D01*
X36129533Y-67057235D01*
X36129534Y-67057234D01*
X36302605Y-66985546D01*
X36486333Y-66949000D01*
X36673667Y-66949000D01*
X36857395Y-66985546D01*
X36857395Y-66985546D01*
G37*
G36*
X117332394Y-65875934D02*
G01*
X117483624Y-65938576D01*
X117483626Y-65938577D01*
X117619732Y-66029520D01*
X117735480Y-66145268D01*
X117826423Y-66281374D01*
X117826424Y-66281376D01*
X117889066Y-66432606D01*
X117921000Y-66593152D01*
X117921000Y-66756848D01*
X117889066Y-66917394D01*
X117826424Y-67068624D01*
X117826423Y-67068626D01*
X117735480Y-67204732D01*
X117619732Y-67320480D01*
X117483626Y-67411423D01*
X117483625Y-67411424D01*
X117483624Y-67411424D01*
X117332394Y-67474066D01*
X117171848Y-67506000D01*
X117008152Y-67506000D01*
X116847606Y-67474066D01*
X116696376Y-67411424D01*
X116696375Y-67411424D01*
X116696374Y-67411423D01*
X116560268Y-67320480D01*
X116444520Y-67204732D01*
X116353577Y-67068626D01*
X116353576Y-67068624D01*
X116290934Y-66917394D01*
X116259000Y-66756848D01*
X116259000Y-66593152D01*
X116290934Y-66432606D01*
X116353576Y-66281376D01*
X116353577Y-66281374D01*
X116444520Y-66145268D01*
X116560268Y-66029520D01*
X116696374Y-65938577D01*
X116696376Y-65938576D01*
X116847606Y-65875934D01*
X117008152Y-65844000D01*
X117171848Y-65844000D01*
X117332394Y-65875934D01*
X117332394Y-65875934D01*
G37*
G36*
X74741000Y-67506000D02*
G01*
X73079000Y-67506000D01*
X73079000Y-65844000D01*
X74741000Y-65844000D01*
X74741000Y-67506000D01*
X74741000Y-67506000D01*
G37*
G36*
X76692394Y-65875934D02*
G01*
X76843624Y-65938576D01*
X76843626Y-65938577D01*
X76979732Y-66029520D01*
X77095480Y-66145268D01*
X77186423Y-66281374D01*
X77186424Y-66281376D01*
X77249066Y-66432606D01*
X77281000Y-66593152D01*
X77281000Y-66756848D01*
X77249066Y-66917394D01*
X77186424Y-67068624D01*
X77186423Y-67068626D01*
X77095480Y-67204732D01*
X76979732Y-67320480D01*
X76843626Y-67411423D01*
X76843625Y-67411424D01*
X76843624Y-67411424D01*
X76692394Y-67474066D01*
X76531848Y-67506000D01*
X76368152Y-67506000D01*
X76207606Y-67474066D01*
X76056376Y-67411424D01*
X76056375Y-67411424D01*
X76056374Y-67411423D01*
X75920268Y-67320480D01*
X75804520Y-67204732D01*
X75713577Y-67068626D01*
X75713576Y-67068624D01*
X75650934Y-66917394D01*
X75619000Y-66756848D01*
X75619000Y-66593152D01*
X75650934Y-66432606D01*
X75713576Y-66281376D01*
X75713577Y-66281374D01*
X75804520Y-66145268D01*
X75920268Y-66029520D01*
X76056374Y-65938577D01*
X76056376Y-65938576D01*
X76207606Y-65875934D01*
X76368152Y-65844000D01*
X76531848Y-65844000D01*
X76692394Y-65875934D01*
X76692394Y-65875934D01*
G37*
G36*
X119872394Y-65875934D02*
G01*
X120023624Y-65938576D01*
X120023626Y-65938577D01*
X120159732Y-66029520D01*
X120275480Y-66145268D01*
X120366423Y-66281374D01*
X120366424Y-66281376D01*
X120429066Y-66432606D01*
X120461000Y-66593152D01*
X120461000Y-66756848D01*
X120429066Y-66917394D01*
X120366424Y-67068624D01*
X120366423Y-67068626D01*
X120275480Y-67204732D01*
X120159732Y-67320480D01*
X120023626Y-67411423D01*
X120023625Y-67411424D01*
X120023624Y-67411424D01*
X119872394Y-67474066D01*
X119711848Y-67506000D01*
X119548152Y-67506000D01*
X119387606Y-67474066D01*
X119236376Y-67411424D01*
X119236375Y-67411424D01*
X119236374Y-67411423D01*
X119100268Y-67320480D01*
X118984520Y-67204732D01*
X118893577Y-67068626D01*
X118893576Y-67068624D01*
X118830934Y-66917394D01*
X118799000Y-66756848D01*
X118799000Y-66593152D01*
X118830934Y-66432606D01*
X118893576Y-66281376D01*
X118893577Y-66281374D01*
X118984520Y-66145268D01*
X119100268Y-66029520D01*
X119236374Y-65938577D01*
X119236376Y-65938576D01*
X119387606Y-65875934D01*
X119548152Y-65844000D01*
X119711848Y-65844000D01*
X119872394Y-65875934D01*
X119872394Y-65875934D01*
G37*
G36*
X79232394Y-65875934D02*
G01*
X79383624Y-65938576D01*
X79383626Y-65938577D01*
X79519732Y-66029520D01*
X79635480Y-66145268D01*
X79726423Y-66281374D01*
X79726424Y-66281376D01*
X79789066Y-66432606D01*
X79821000Y-66593152D01*
X79821000Y-66756848D01*
X79789066Y-66917394D01*
X79726424Y-67068624D01*
X79726423Y-67068626D01*
X79635480Y-67204732D01*
X79519732Y-67320480D01*
X79383626Y-67411423D01*
X79383625Y-67411424D01*
X79383624Y-67411424D01*
X79232394Y-67474066D01*
X79071848Y-67506000D01*
X78908152Y-67506000D01*
X78747606Y-67474066D01*
X78596376Y-67411424D01*
X78596375Y-67411424D01*
X78596374Y-67411423D01*
X78460268Y-67320480D01*
X78344520Y-67204732D01*
X78253577Y-67068626D01*
X78253576Y-67068624D01*
X78190934Y-66917394D01*
X78159000Y-66756848D01*
X78159000Y-66593152D01*
X78190934Y-66432606D01*
X78253576Y-66281376D01*
X78253577Y-66281374D01*
X78344520Y-66145268D01*
X78460268Y-66029520D01*
X78596374Y-65938577D01*
X78596376Y-65938576D01*
X78747606Y-65875934D01*
X78908152Y-65844000D01*
X79071848Y-65844000D01*
X79232394Y-65875934D01*
X79232394Y-65875934D01*
G37*
G36*
X81772394Y-65875934D02*
G01*
X81923624Y-65938576D01*
X81923626Y-65938577D01*
X82059732Y-66029520D01*
X82175480Y-66145268D01*
X82266423Y-66281374D01*
X82266424Y-66281376D01*
X82329066Y-66432606D01*
X82361000Y-66593152D01*
X82361000Y-66756848D01*
X82329066Y-66917394D01*
X82266424Y-67068624D01*
X82266423Y-67068626D01*
X82175480Y-67204732D01*
X82059732Y-67320480D01*
X81923626Y-67411423D01*
X81923625Y-67411424D01*
X81923624Y-67411424D01*
X81772394Y-67474066D01*
X81611848Y-67506000D01*
X81448152Y-67506000D01*
X81287606Y-67474066D01*
X81136376Y-67411424D01*
X81136375Y-67411424D01*
X81136374Y-67411423D01*
X81000268Y-67320480D01*
X80884520Y-67204732D01*
X80793577Y-67068626D01*
X80793576Y-67068624D01*
X80730934Y-66917394D01*
X80699000Y-66756848D01*
X80699000Y-66593152D01*
X80730934Y-66432606D01*
X80793576Y-66281376D01*
X80793577Y-66281374D01*
X80884520Y-66145268D01*
X81000268Y-66029520D01*
X81136374Y-65938577D01*
X81136376Y-65938576D01*
X81287606Y-65875934D01*
X81448152Y-65844000D01*
X81611848Y-65844000D01*
X81772394Y-65875934D01*
X81772394Y-65875934D01*
G37*
G36*
X97012394Y-65875934D02*
G01*
X97163624Y-65938576D01*
X97163626Y-65938577D01*
X97299732Y-66029520D01*
X97415480Y-66145268D01*
X97506423Y-66281374D01*
X97506424Y-66281376D01*
X97569066Y-66432606D01*
X97601000Y-66593152D01*
X97601000Y-66756848D01*
X97569066Y-66917394D01*
X97506424Y-67068624D01*
X97506423Y-67068626D01*
X97415480Y-67204732D01*
X97299732Y-67320480D01*
X97163626Y-67411423D01*
X97163625Y-67411424D01*
X97163624Y-67411424D01*
X97012394Y-67474066D01*
X96851848Y-67506000D01*
X96688152Y-67506000D01*
X96527606Y-67474066D01*
X96376376Y-67411424D01*
X96376375Y-67411424D01*
X96376374Y-67411423D01*
X96240268Y-67320480D01*
X96124520Y-67204732D01*
X96033577Y-67068626D01*
X96033576Y-67068624D01*
X95970934Y-66917394D01*
X95939000Y-66756848D01*
X95939000Y-66593152D01*
X95970934Y-66432606D01*
X96033576Y-66281376D01*
X96033577Y-66281374D01*
X96124520Y-66145268D01*
X96240268Y-66029520D01*
X96376374Y-65938577D01*
X96376376Y-65938576D01*
X96527606Y-65875934D01*
X96688152Y-65844000D01*
X96851848Y-65844000D01*
X97012394Y-65875934D01*
X97012394Y-65875934D01*
G37*
G36*
X94472394Y-65875934D02*
G01*
X94623624Y-65938576D01*
X94623626Y-65938577D01*
X94759732Y-66029520D01*
X94875480Y-66145268D01*
X94966423Y-66281374D01*
X94966424Y-66281376D01*
X95029066Y-66432606D01*
X95061000Y-66593152D01*
X95061000Y-66756848D01*
X95029066Y-66917394D01*
X94966424Y-67068624D01*
X94966423Y-67068626D01*
X94875480Y-67204732D01*
X94759732Y-67320480D01*
X94623626Y-67411423D01*
X94623625Y-67411424D01*
X94623624Y-67411424D01*
X94472394Y-67474066D01*
X94311848Y-67506000D01*
X94148152Y-67506000D01*
X93987606Y-67474066D01*
X93836376Y-67411424D01*
X93836375Y-67411424D01*
X93836374Y-67411423D01*
X93700268Y-67320480D01*
X93584520Y-67204732D01*
X93493577Y-67068626D01*
X93493576Y-67068624D01*
X93430934Y-66917394D01*
X93399000Y-66756848D01*
X93399000Y-66593152D01*
X93430934Y-66432606D01*
X93493576Y-66281376D01*
X93493577Y-66281374D01*
X93584520Y-66145268D01*
X93700268Y-66029520D01*
X93836374Y-65938577D01*
X93836376Y-65938576D01*
X93987606Y-65875934D01*
X94148152Y-65844000D01*
X94311848Y-65844000D01*
X94472394Y-65875934D01*
X94472394Y-65875934D01*
G37*
G36*
X91932394Y-65875934D02*
G01*
X92083624Y-65938576D01*
X92083626Y-65938577D01*
X92219732Y-66029520D01*
X92335480Y-66145268D01*
X92426423Y-66281374D01*
X92426424Y-66281376D01*
X92489066Y-66432606D01*
X92521000Y-66593152D01*
X92521000Y-66756848D01*
X92489066Y-66917394D01*
X92426424Y-67068624D01*
X92426423Y-67068626D01*
X92335480Y-67204732D01*
X92219732Y-67320480D01*
X92083626Y-67411423D01*
X92083625Y-67411424D01*
X92083624Y-67411424D01*
X91932394Y-67474066D01*
X91771848Y-67506000D01*
X91608152Y-67506000D01*
X91447606Y-67474066D01*
X91296376Y-67411424D01*
X91296375Y-67411424D01*
X91296374Y-67411423D01*
X91160268Y-67320480D01*
X91044520Y-67204732D01*
X90953577Y-67068626D01*
X90953576Y-67068624D01*
X90890934Y-66917394D01*
X90859000Y-66756848D01*
X90859000Y-66593152D01*
X90890934Y-66432606D01*
X90953576Y-66281376D01*
X90953577Y-66281374D01*
X91044520Y-66145268D01*
X91160268Y-66029520D01*
X91296374Y-65938577D01*
X91296376Y-65938576D01*
X91447606Y-65875934D01*
X91608152Y-65844000D01*
X91771848Y-65844000D01*
X91932394Y-65875934D01*
X91932394Y-65875934D01*
G37*
G36*
X89392394Y-65875934D02*
G01*
X89543624Y-65938576D01*
X89543626Y-65938577D01*
X89679732Y-66029520D01*
X89795480Y-66145268D01*
X89886423Y-66281374D01*
X89886424Y-66281376D01*
X89949066Y-66432606D01*
X89981000Y-66593152D01*
X89981000Y-66756848D01*
X89949066Y-66917394D01*
X89886424Y-67068624D01*
X89886423Y-67068626D01*
X89795480Y-67204732D01*
X89679732Y-67320480D01*
X89543626Y-67411423D01*
X89543625Y-67411424D01*
X89543624Y-67411424D01*
X89392394Y-67474066D01*
X89231848Y-67506000D01*
X89068152Y-67506000D01*
X88907606Y-67474066D01*
X88756376Y-67411424D01*
X88756375Y-67411424D01*
X88756374Y-67411423D01*
X88620268Y-67320480D01*
X88504520Y-67204732D01*
X88413577Y-67068626D01*
X88413576Y-67068624D01*
X88350934Y-66917394D01*
X88319000Y-66756848D01*
X88319000Y-66593152D01*
X88350934Y-66432606D01*
X88413576Y-66281376D01*
X88413577Y-66281374D01*
X88504520Y-66145268D01*
X88620268Y-66029520D01*
X88756374Y-65938577D01*
X88756376Y-65938576D01*
X88907606Y-65875934D01*
X89068152Y-65844000D01*
X89231848Y-65844000D01*
X89392394Y-65875934D01*
X89392394Y-65875934D01*
G37*
G36*
X86852394Y-65875934D02*
G01*
X87003624Y-65938576D01*
X87003626Y-65938577D01*
X87139732Y-66029520D01*
X87255480Y-66145268D01*
X87346423Y-66281374D01*
X87346424Y-66281376D01*
X87409066Y-66432606D01*
X87441000Y-66593152D01*
X87441000Y-66756848D01*
X87409066Y-66917394D01*
X87346424Y-67068624D01*
X87346423Y-67068626D01*
X87255480Y-67204732D01*
X87139732Y-67320480D01*
X87003626Y-67411423D01*
X87003625Y-67411424D01*
X87003624Y-67411424D01*
X86852394Y-67474066D01*
X86691848Y-67506000D01*
X86528152Y-67506000D01*
X86367606Y-67474066D01*
X86216376Y-67411424D01*
X86216375Y-67411424D01*
X86216374Y-67411423D01*
X86080268Y-67320480D01*
X85964520Y-67204732D01*
X85873577Y-67068626D01*
X85873576Y-67068624D01*
X85810934Y-66917394D01*
X85779000Y-66756848D01*
X85779000Y-66593152D01*
X85810934Y-66432606D01*
X85873576Y-66281376D01*
X85873577Y-66281374D01*
X85964520Y-66145268D01*
X86080268Y-66029520D01*
X86216374Y-65938577D01*
X86216376Y-65938576D01*
X86367606Y-65875934D01*
X86528152Y-65844000D01*
X86691848Y-65844000D01*
X86852394Y-65875934D01*
X86852394Y-65875934D01*
G37*
G36*
X84312394Y-65875934D02*
G01*
X84463624Y-65938576D01*
X84463626Y-65938577D01*
X84599732Y-66029520D01*
X84715480Y-66145268D01*
X84806423Y-66281374D01*
X84806424Y-66281376D01*
X84869066Y-66432606D01*
X84901000Y-66593152D01*
X84901000Y-66756848D01*
X84869066Y-66917394D01*
X84806424Y-67068624D01*
X84806423Y-67068626D01*
X84715480Y-67204732D01*
X84599732Y-67320480D01*
X84463626Y-67411423D01*
X84463625Y-67411424D01*
X84463624Y-67411424D01*
X84312394Y-67474066D01*
X84151848Y-67506000D01*
X83988152Y-67506000D01*
X83827606Y-67474066D01*
X83676376Y-67411424D01*
X83676375Y-67411424D01*
X83676374Y-67411423D01*
X83540268Y-67320480D01*
X83424520Y-67204732D01*
X83333577Y-67068626D01*
X83333576Y-67068624D01*
X83270934Y-66917394D01*
X83239000Y-66756848D01*
X83239000Y-66593152D01*
X83270934Y-66432606D01*
X83333576Y-66281376D01*
X83333577Y-66281374D01*
X83424520Y-66145268D01*
X83540268Y-66029520D01*
X83676374Y-65938577D01*
X83676376Y-65938576D01*
X83827606Y-65875934D01*
X83988152Y-65844000D01*
X84151848Y-65844000D01*
X84312394Y-65875934D01*
X84312394Y-65875934D01*
G37*
G36*
X114792394Y-65875934D02*
G01*
X114943624Y-65938576D01*
X114943626Y-65938577D01*
X115079732Y-66029520D01*
X115195480Y-66145268D01*
X115286423Y-66281374D01*
X115286424Y-66281376D01*
X115349066Y-66432606D01*
X115381000Y-66593152D01*
X115381000Y-66756848D01*
X115349066Y-66917394D01*
X115286424Y-67068624D01*
X115286423Y-67068626D01*
X115195480Y-67204732D01*
X115079732Y-67320480D01*
X114943626Y-67411423D01*
X114943625Y-67411424D01*
X114943624Y-67411424D01*
X114792394Y-67474066D01*
X114631848Y-67506000D01*
X114468152Y-67506000D01*
X114307606Y-67474066D01*
X114156376Y-67411424D01*
X114156375Y-67411424D01*
X114156374Y-67411423D01*
X114020268Y-67320480D01*
X113904520Y-67204732D01*
X113813577Y-67068626D01*
X113813576Y-67068624D01*
X113750934Y-66917394D01*
X113719000Y-66756848D01*
X113719000Y-66593152D01*
X113750934Y-66432606D01*
X113813576Y-66281376D01*
X113813577Y-66281374D01*
X113904520Y-66145268D01*
X114020268Y-66029520D01*
X114156374Y-65938577D01*
X114156376Y-65938576D01*
X114307606Y-65875934D01*
X114468152Y-65844000D01*
X114631848Y-65844000D01*
X114792394Y-65875934D01*
X114792394Y-65875934D01*
G37*
G36*
X112252394Y-65875934D02*
G01*
X112403624Y-65938576D01*
X112403626Y-65938577D01*
X112539732Y-66029520D01*
X112655480Y-66145268D01*
X112746423Y-66281374D01*
X112746424Y-66281376D01*
X112809066Y-66432606D01*
X112841000Y-66593152D01*
X112841000Y-66756848D01*
X112809066Y-66917394D01*
X112746424Y-67068624D01*
X112746423Y-67068626D01*
X112655480Y-67204732D01*
X112539732Y-67320480D01*
X112403626Y-67411423D01*
X112403625Y-67411424D01*
X112403624Y-67411424D01*
X112252394Y-67474066D01*
X112091848Y-67506000D01*
X111928152Y-67506000D01*
X111767606Y-67474066D01*
X111616376Y-67411424D01*
X111616375Y-67411424D01*
X111616374Y-67411423D01*
X111480268Y-67320480D01*
X111364520Y-67204732D01*
X111273577Y-67068626D01*
X111273576Y-67068624D01*
X111210934Y-66917394D01*
X111179000Y-66756848D01*
X111179000Y-66593152D01*
X111210934Y-66432606D01*
X111273576Y-66281376D01*
X111273577Y-66281374D01*
X111364520Y-66145268D01*
X111480268Y-66029520D01*
X111616374Y-65938577D01*
X111616376Y-65938576D01*
X111767606Y-65875934D01*
X111928152Y-65844000D01*
X112091848Y-65844000D01*
X112252394Y-65875934D01*
X112252394Y-65875934D01*
G37*
G36*
X109712394Y-65875934D02*
G01*
X109863624Y-65938576D01*
X109863626Y-65938577D01*
X109999732Y-66029520D01*
X110115480Y-66145268D01*
X110206423Y-66281374D01*
X110206424Y-66281376D01*
X110269066Y-66432606D01*
X110301000Y-66593152D01*
X110301000Y-66756848D01*
X110269066Y-66917394D01*
X110206424Y-67068624D01*
X110206423Y-67068626D01*
X110115480Y-67204732D01*
X109999732Y-67320480D01*
X109863626Y-67411423D01*
X109863625Y-67411424D01*
X109863624Y-67411424D01*
X109712394Y-67474066D01*
X109551848Y-67506000D01*
X109388152Y-67506000D01*
X109227606Y-67474066D01*
X109076376Y-67411424D01*
X109076375Y-67411424D01*
X109076374Y-67411423D01*
X108940268Y-67320480D01*
X108824520Y-67204732D01*
X108733577Y-67068626D01*
X108733576Y-67068624D01*
X108670934Y-66917394D01*
X108639000Y-66756848D01*
X108639000Y-66593152D01*
X108670934Y-66432606D01*
X108733576Y-66281376D01*
X108733577Y-66281374D01*
X108824520Y-66145268D01*
X108940268Y-66029520D01*
X109076374Y-65938577D01*
X109076376Y-65938576D01*
X109227606Y-65875934D01*
X109388152Y-65844000D01*
X109551848Y-65844000D01*
X109712394Y-65875934D01*
X109712394Y-65875934D01*
G37*
G36*
X107172394Y-65875934D02*
G01*
X107323624Y-65938576D01*
X107323626Y-65938577D01*
X107459732Y-66029520D01*
X107575480Y-66145268D01*
X107666423Y-66281374D01*
X107666424Y-66281376D01*
X107729066Y-66432606D01*
X107761000Y-66593152D01*
X107761000Y-66756848D01*
X107729066Y-66917394D01*
X107666424Y-67068624D01*
X107666423Y-67068626D01*
X107575480Y-67204732D01*
X107459732Y-67320480D01*
X107323626Y-67411423D01*
X107323625Y-67411424D01*
X107323624Y-67411424D01*
X107172394Y-67474066D01*
X107011848Y-67506000D01*
X106848152Y-67506000D01*
X106687606Y-67474066D01*
X106536376Y-67411424D01*
X106536375Y-67411424D01*
X106536374Y-67411423D01*
X106400268Y-67320480D01*
X106284520Y-67204732D01*
X106193577Y-67068626D01*
X106193576Y-67068624D01*
X106130934Y-66917394D01*
X106099000Y-66756848D01*
X106099000Y-66593152D01*
X106130934Y-66432606D01*
X106193576Y-66281376D01*
X106193577Y-66281374D01*
X106284520Y-66145268D01*
X106400268Y-66029520D01*
X106536374Y-65938577D01*
X106536376Y-65938576D01*
X106687606Y-65875934D01*
X106848152Y-65844000D01*
X107011848Y-65844000D01*
X107172394Y-65875934D01*
X107172394Y-65875934D01*
G37*
G36*
X104632394Y-65875934D02*
G01*
X104783624Y-65938576D01*
X104783626Y-65938577D01*
X104919732Y-66029520D01*
X105035480Y-66145268D01*
X105126423Y-66281374D01*
X105126424Y-66281376D01*
X105189066Y-66432606D01*
X105221000Y-66593152D01*
X105221000Y-66756848D01*
X105189066Y-66917394D01*
X105126424Y-67068624D01*
X105126423Y-67068626D01*
X105035480Y-67204732D01*
X104919732Y-67320480D01*
X104783626Y-67411423D01*
X104783625Y-67411424D01*
X104783624Y-67411424D01*
X104632394Y-67474066D01*
X104471848Y-67506000D01*
X104308152Y-67506000D01*
X104147606Y-67474066D01*
X103996376Y-67411424D01*
X103996375Y-67411424D01*
X103996374Y-67411423D01*
X103860268Y-67320480D01*
X103744520Y-67204732D01*
X103653577Y-67068626D01*
X103653576Y-67068624D01*
X103590934Y-66917394D01*
X103559000Y-66756848D01*
X103559000Y-66593152D01*
X103590934Y-66432606D01*
X103653576Y-66281376D01*
X103653577Y-66281374D01*
X103744520Y-66145268D01*
X103860268Y-66029520D01*
X103996374Y-65938577D01*
X103996376Y-65938576D01*
X104147606Y-65875934D01*
X104308152Y-65844000D01*
X104471848Y-65844000D01*
X104632394Y-65875934D01*
X104632394Y-65875934D01*
G37*
G36*
X102092394Y-65875934D02*
G01*
X102243624Y-65938576D01*
X102243626Y-65938577D01*
X102379732Y-66029520D01*
X102495480Y-66145268D01*
X102586423Y-66281374D01*
X102586424Y-66281376D01*
X102649066Y-66432606D01*
X102681000Y-66593152D01*
X102681000Y-66756848D01*
X102649066Y-66917394D01*
X102586424Y-67068624D01*
X102586423Y-67068626D01*
X102495480Y-67204732D01*
X102379732Y-67320480D01*
X102243626Y-67411423D01*
X102243625Y-67411424D01*
X102243624Y-67411424D01*
X102092394Y-67474066D01*
X101931848Y-67506000D01*
X101768152Y-67506000D01*
X101607606Y-67474066D01*
X101456376Y-67411424D01*
X101456375Y-67411424D01*
X101456374Y-67411423D01*
X101320268Y-67320480D01*
X101204520Y-67204732D01*
X101113577Y-67068626D01*
X101113576Y-67068624D01*
X101050934Y-66917394D01*
X101019000Y-66756848D01*
X101019000Y-66593152D01*
X101050934Y-66432606D01*
X101113576Y-66281376D01*
X101113577Y-66281374D01*
X101204520Y-66145268D01*
X101320268Y-66029520D01*
X101456374Y-65938577D01*
X101456376Y-65938576D01*
X101607606Y-65875934D01*
X101768152Y-65844000D01*
X101931848Y-65844000D01*
X102092394Y-65875934D01*
X102092394Y-65875934D01*
G37*
G36*
X99552394Y-65875934D02*
G01*
X99703624Y-65938576D01*
X99703626Y-65938577D01*
X99839732Y-66029520D01*
X99955480Y-66145268D01*
X100046423Y-66281374D01*
X100046424Y-66281376D01*
X100109066Y-66432606D01*
X100141000Y-66593152D01*
X100141000Y-66756848D01*
X100109066Y-66917394D01*
X100046424Y-67068624D01*
X100046423Y-67068626D01*
X99955480Y-67204732D01*
X99839732Y-67320480D01*
X99703626Y-67411423D01*
X99703625Y-67411424D01*
X99703624Y-67411424D01*
X99552394Y-67474066D01*
X99391848Y-67506000D01*
X99228152Y-67506000D01*
X99067606Y-67474066D01*
X98916376Y-67411424D01*
X98916375Y-67411424D01*
X98916374Y-67411423D01*
X98780268Y-67320480D01*
X98664520Y-67204732D01*
X98573577Y-67068626D01*
X98573576Y-67068624D01*
X98510934Y-66917394D01*
X98479000Y-66756848D01*
X98479000Y-66593152D01*
X98510934Y-66432606D01*
X98573576Y-66281376D01*
X98573577Y-66281374D01*
X98664520Y-66145268D01*
X98780268Y-66029520D01*
X98916374Y-65938577D01*
X98916376Y-65938576D01*
X99067606Y-65875934D01*
X99228152Y-65844000D01*
X99391848Y-65844000D01*
X99552394Y-65875934D01*
X99552394Y-65875934D01*
G37*
G36*
X41951000Y-65491000D02*
G01*
X40049000Y-65491000D01*
X40049000Y-63589000D01*
X41951000Y-63589000D01*
X41951000Y-65491000D01*
X41951000Y-65491000D01*
G37*
G36*
X43817395Y-63625546D02*
G01*
X43990466Y-63697234D01*
X43990467Y-63697235D01*
X44146227Y-63801310D01*
X44278690Y-63933773D01*
X44278691Y-63933775D01*
X44382766Y-64089534D01*
X44454454Y-64262605D01*
X44491000Y-64446333D01*
X44491000Y-64633667D01*
X44454454Y-64817395D01*
X44382766Y-64990466D01*
X44382765Y-64990467D01*
X44278690Y-65146227D01*
X44146227Y-65278690D01*
X44067818Y-65331081D01*
X43990466Y-65382766D01*
X43817395Y-65454454D01*
X43633667Y-65491000D01*
X43446333Y-65491000D01*
X43262605Y-65454454D01*
X43089534Y-65382766D01*
X43012182Y-65331081D01*
X42933773Y-65278690D01*
X42801310Y-65146227D01*
X42697235Y-64990467D01*
X42697234Y-64990466D01*
X42625546Y-64817395D01*
X42589000Y-64633667D01*
X42589000Y-64446333D01*
X42625546Y-64262605D01*
X42697234Y-64089534D01*
X42801309Y-63933775D01*
X42801310Y-63933773D01*
X42933773Y-63801310D01*
X43089533Y-63697235D01*
X43089534Y-63697234D01*
X43262605Y-63625546D01*
X43446333Y-63589000D01*
X43633667Y-63589000D01*
X43817395Y-63625546D01*
X43817395Y-63625546D01*
G37*
G36*
X52107395Y-61345546D02*
G01*
X52280466Y-61417234D01*
X52280467Y-61417235D01*
X52436227Y-61521310D01*
X52568690Y-61653773D01*
X52621081Y-61732182D01*
X52672766Y-61809534D01*
X52744454Y-61982605D01*
X52781000Y-62166333D01*
X52781000Y-62353667D01*
X52744454Y-62537395D01*
X52672766Y-62710466D01*
X52672765Y-62710467D01*
X52568690Y-62866227D01*
X52436227Y-62998690D01*
X52357818Y-63051081D01*
X52280466Y-63102766D01*
X52107395Y-63174454D01*
X51923667Y-63211000D01*
X51736333Y-63211000D01*
X51552605Y-63174454D01*
X51379534Y-63102766D01*
X51302182Y-63051081D01*
X51223773Y-62998690D01*
X51091310Y-62866227D01*
X50987235Y-62710467D01*
X50987234Y-62710466D01*
X50915546Y-62537395D01*
X50879000Y-62353667D01*
X50879000Y-62166333D01*
X50915546Y-61982605D01*
X50987234Y-61809534D01*
X51038919Y-61732182D01*
X51091310Y-61653773D01*
X51223773Y-61521310D01*
X51379533Y-61417235D01*
X51379534Y-61417234D01*
X51552605Y-61345546D01*
X51736333Y-61309000D01*
X51923667Y-61309000D01*
X52107395Y-61345546D01*
X52107395Y-61345546D01*
G37*
G36*
X50241000Y-63211000D02*
G01*
X48339000Y-63211000D01*
X48339000Y-61309000D01*
X50241000Y-61309000D01*
X50241000Y-63211000D01*
X50241000Y-63211000D01*
G37*
G36*
X102579800Y-62396000D02*
G01*
X100977800Y-62396000D01*
X100977800Y-60794000D01*
X102579800Y-60794000D01*
X102579800Y-62396000D01*
X102579800Y-62396000D01*
G37*
G36*
X107092442Y-60824781D02*
G01*
X107238214Y-60885162D01*
X107238216Y-60885163D01*
X107369408Y-60972822D01*
X107480978Y-61084392D01*
X107568637Y-61215584D01*
X107568638Y-61215586D01*
X107629019Y-61361358D01*
X107659800Y-61516107D01*
X107659800Y-61673893D01*
X107629019Y-61828642D01*
X107568638Y-61974414D01*
X107568637Y-61974416D01*
X107480978Y-62105608D01*
X107369408Y-62217178D01*
X107238216Y-62304837D01*
X107238215Y-62304838D01*
X107238214Y-62304838D01*
X107092442Y-62365219D01*
X106937693Y-62396000D01*
X106779907Y-62396000D01*
X106625158Y-62365219D01*
X106479386Y-62304838D01*
X106479385Y-62304838D01*
X106479384Y-62304837D01*
X106348192Y-62217178D01*
X106236622Y-62105608D01*
X106148963Y-61974416D01*
X106148962Y-61974414D01*
X106088581Y-61828642D01*
X106057800Y-61673893D01*
X106057800Y-61516107D01*
X106088581Y-61361358D01*
X106148962Y-61215586D01*
X106148963Y-61215584D01*
X106236622Y-61084392D01*
X106348192Y-60972822D01*
X106479384Y-60885163D01*
X106479386Y-60885162D01*
X106625158Y-60824781D01*
X106779907Y-60794000D01*
X106937693Y-60794000D01*
X107092442Y-60824781D01*
X107092442Y-60824781D01*
G37*
G36*
X104552442Y-60824781D02*
G01*
X104698214Y-60885162D01*
X104698216Y-60885163D01*
X104829408Y-60972822D01*
X104940978Y-61084392D01*
X105028637Y-61215584D01*
X105028638Y-61215586D01*
X105089019Y-61361358D01*
X105119800Y-61516107D01*
X105119800Y-61673893D01*
X105089019Y-61828642D01*
X105028638Y-61974414D01*
X105028637Y-61974416D01*
X104940978Y-62105608D01*
X104829408Y-62217178D01*
X104698216Y-62304837D01*
X104698215Y-62304838D01*
X104698214Y-62304838D01*
X104552442Y-62365219D01*
X104397693Y-62396000D01*
X104239907Y-62396000D01*
X104085158Y-62365219D01*
X103939386Y-62304838D01*
X103939385Y-62304838D01*
X103939384Y-62304837D01*
X103808192Y-62217178D01*
X103696622Y-62105608D01*
X103608963Y-61974416D01*
X103608962Y-61974414D01*
X103548581Y-61828642D01*
X103517800Y-61673893D01*
X103517800Y-61516107D01*
X103548581Y-61361358D01*
X103608962Y-61215586D01*
X103608963Y-61215584D01*
X103696622Y-61084392D01*
X103808192Y-60972822D01*
X103939384Y-60885163D01*
X103939386Y-60885162D01*
X104085158Y-60824781D01*
X104239907Y-60794000D01*
X104397693Y-60794000D01*
X104552442Y-60824781D01*
X104552442Y-60824781D01*
G37*
G36*
X38277395Y-59185546D02*
G01*
X38450466Y-59257234D01*
X38527818Y-59308919D01*
X38606227Y-59361310D01*
X38738690Y-59493773D01*
X38738691Y-59493775D01*
X38842766Y-59649534D01*
X38914454Y-59822605D01*
X38951000Y-60006333D01*
X38951000Y-60193667D01*
X38914454Y-60377395D01*
X38842766Y-60550466D01*
X38842765Y-60550467D01*
X38738690Y-60706227D01*
X38606227Y-60838690D01*
X38536676Y-60885162D01*
X38450466Y-60942766D01*
X38277395Y-61014454D01*
X38093667Y-61051000D01*
X37906333Y-61051000D01*
X37722605Y-61014454D01*
X37549534Y-60942766D01*
X37463324Y-60885162D01*
X37393773Y-60838690D01*
X37261310Y-60706227D01*
X37157235Y-60550467D01*
X37157234Y-60550466D01*
X37085546Y-60377395D01*
X37049000Y-60193667D01*
X37049000Y-60006333D01*
X37085546Y-59822605D01*
X37157234Y-59649534D01*
X37261309Y-59493775D01*
X37261310Y-59493773D01*
X37393773Y-59361310D01*
X37472182Y-59308919D01*
X37549534Y-59257234D01*
X37722605Y-59185546D01*
X37906333Y-59149000D01*
X38093667Y-59149000D01*
X38277395Y-59185546D01*
X38277395Y-59185546D01*
G37*
G36*
X36411000Y-61051000D02*
G01*
X34509000Y-61051000D01*
X34509000Y-59149000D01*
X36411000Y-59149000D01*
X36411000Y-61051000D01*
X36411000Y-61051000D01*
G37*
G36*
X57816564Y-58769389D02*
G01*
X58007833Y-58848615D01*
X58007835Y-58848616D01*
X58179973Y-58963635D01*
X58326365Y-59110027D01*
X58424726Y-59257234D01*
X58441385Y-59282167D01*
X58520611Y-59473436D01*
X58561000Y-59676484D01*
X58561000Y-59883516D01*
X58520611Y-60086564D01*
X58441385Y-60277833D01*
X58441384Y-60277835D01*
X58326365Y-60449973D01*
X58179973Y-60596365D01*
X58007835Y-60711384D01*
X58007834Y-60711385D01*
X58007833Y-60711385D01*
X57816564Y-60790611D01*
X57613516Y-60831000D01*
X57406484Y-60831000D01*
X57203436Y-60790611D01*
X57012167Y-60711385D01*
X57012166Y-60711385D01*
X57012165Y-60711384D01*
X56840027Y-60596365D01*
X56693635Y-60449973D01*
X56578616Y-60277835D01*
X56578615Y-60277833D01*
X56499389Y-60086564D01*
X56459000Y-59883516D01*
X56459000Y-59676484D01*
X56499389Y-59473436D01*
X56578615Y-59282167D01*
X56595275Y-59257234D01*
X56693635Y-59110027D01*
X56840027Y-58963635D01*
X57012165Y-58848616D01*
X57012167Y-58848615D01*
X57203436Y-58769389D01*
X57406484Y-58729000D01*
X57613516Y-58729000D01*
X57816564Y-58769389D01*
X57816564Y-58769389D01*
G37*
G36*
X64316564Y-58769389D02*
G01*
X64507833Y-58848615D01*
X64507835Y-58848616D01*
X64679973Y-58963635D01*
X64826365Y-59110027D01*
X64924726Y-59257234D01*
X64941385Y-59282167D01*
X65020611Y-59473436D01*
X65061000Y-59676484D01*
X65061000Y-59883516D01*
X65020611Y-60086564D01*
X64941385Y-60277833D01*
X64941384Y-60277835D01*
X64826365Y-60449973D01*
X64679973Y-60596365D01*
X64507835Y-60711384D01*
X64507834Y-60711385D01*
X64507833Y-60711385D01*
X64316564Y-60790611D01*
X64113516Y-60831000D01*
X63906484Y-60831000D01*
X63703436Y-60790611D01*
X63512167Y-60711385D01*
X63512166Y-60711385D01*
X63512165Y-60711384D01*
X63340027Y-60596365D01*
X63193635Y-60449973D01*
X63078616Y-60277835D01*
X63078615Y-60277833D01*
X62999389Y-60086564D01*
X62959000Y-59883516D01*
X62959000Y-59676484D01*
X62999389Y-59473436D01*
X63078615Y-59282167D01*
X63095275Y-59257234D01*
X63193635Y-59110027D01*
X63340027Y-58963635D01*
X63512165Y-58848616D01*
X63512167Y-58848615D01*
X63703436Y-58769389D01*
X63906484Y-58729000D01*
X64113516Y-58729000D01*
X64316564Y-58769389D01*
X64316564Y-58769389D01*
G37*
G36*
X45437395Y-57635546D02*
G01*
X45610466Y-57707234D01*
X45610467Y-57707235D01*
X45766227Y-57811310D01*
X45898690Y-57943773D01*
X45898691Y-57943775D01*
X46002766Y-58099534D01*
X46074454Y-58272605D01*
X46111000Y-58456333D01*
X46111000Y-58643667D01*
X46074454Y-58827395D01*
X46002766Y-59000466D01*
X46002765Y-59000467D01*
X45898690Y-59156227D01*
X45766227Y-59288690D01*
X45687818Y-59341081D01*
X45610466Y-59392766D01*
X45437395Y-59464454D01*
X45253667Y-59501000D01*
X45066333Y-59501000D01*
X44882605Y-59464454D01*
X44709534Y-59392766D01*
X44632182Y-59341081D01*
X44553773Y-59288690D01*
X44421310Y-59156227D01*
X44317235Y-59000467D01*
X44317234Y-59000466D01*
X44245546Y-58827395D01*
X44209000Y-58643667D01*
X44209000Y-58456333D01*
X44245546Y-58272605D01*
X44317234Y-58099534D01*
X44421309Y-57943775D01*
X44421310Y-57943773D01*
X44553773Y-57811310D01*
X44709533Y-57707235D01*
X44709534Y-57707234D01*
X44882605Y-57635546D01*
X45066333Y-57599000D01*
X45253667Y-57599000D01*
X45437395Y-57635546D01*
X45437395Y-57635546D01*
G37*
G36*
X43571000Y-59501000D02*
G01*
X41669000Y-59501000D01*
X41669000Y-57599000D01*
X43571000Y-57599000D01*
X43571000Y-59501000D01*
X43571000Y-59501000D01*
G37*
G36*
X107092442Y-55744781D02*
G01*
X107238214Y-55805162D01*
X107238216Y-55805163D01*
X107369408Y-55892822D01*
X107480978Y-56004392D01*
X107568637Y-56135584D01*
X107568638Y-56135586D01*
X107629019Y-56281358D01*
X107659800Y-56436107D01*
X107659800Y-56593893D01*
X107629019Y-56748642D01*
X107568638Y-56894414D01*
X107568637Y-56894416D01*
X107480978Y-57025608D01*
X107369408Y-57137178D01*
X107238216Y-57224837D01*
X107238215Y-57224838D01*
X107238214Y-57224838D01*
X107092442Y-57285219D01*
X106937693Y-57316000D01*
X106779907Y-57316000D01*
X106625158Y-57285219D01*
X106479386Y-57224838D01*
X106479385Y-57224838D01*
X106479384Y-57224837D01*
X106348192Y-57137178D01*
X106236622Y-57025608D01*
X106148963Y-56894416D01*
X106148962Y-56894414D01*
X106088581Y-56748642D01*
X106057800Y-56593893D01*
X106057800Y-56436107D01*
X106088581Y-56281358D01*
X106148962Y-56135586D01*
X106148963Y-56135584D01*
X106236622Y-56004392D01*
X106348192Y-55892822D01*
X106479384Y-55805163D01*
X106479386Y-55805162D01*
X106625158Y-55744781D01*
X106779907Y-55714000D01*
X106937693Y-55714000D01*
X107092442Y-55744781D01*
X107092442Y-55744781D01*
G37*
G36*
X102579800Y-57316000D02*
G01*
X100977800Y-57316000D01*
X100977800Y-55714000D01*
X102579800Y-55714000D01*
X102579800Y-57316000D01*
X102579800Y-57316000D01*
G37*
G36*
X104552442Y-55744781D02*
G01*
X104698214Y-55805162D01*
X104698216Y-55805163D01*
X104829408Y-55892822D01*
X104940978Y-56004392D01*
X105028637Y-56135584D01*
X105028638Y-56135586D01*
X105089019Y-56281358D01*
X105119800Y-56436107D01*
X105119800Y-56593893D01*
X105089019Y-56748642D01*
X105028638Y-56894414D01*
X105028637Y-56894416D01*
X104940978Y-57025608D01*
X104829408Y-57137178D01*
X104698216Y-57224837D01*
X104698215Y-57224838D01*
X104698214Y-57224838D01*
X104552442Y-57285219D01*
X104397693Y-57316000D01*
X104239907Y-57316000D01*
X104085158Y-57285219D01*
X103939386Y-57224838D01*
X103939385Y-57224838D01*
X103939384Y-57224837D01*
X103808192Y-57137178D01*
X103696622Y-57025608D01*
X103608963Y-56894416D01*
X103608962Y-56894414D01*
X103548581Y-56748642D01*
X103517800Y-56593893D01*
X103517800Y-56436107D01*
X103548581Y-56281358D01*
X103608962Y-56135586D01*
X103608963Y-56135584D01*
X103696622Y-56004392D01*
X103808192Y-55892822D01*
X103939384Y-55805163D01*
X103939386Y-55805162D01*
X104085158Y-55744781D01*
X104239907Y-55714000D01*
X104397693Y-55714000D01*
X104552442Y-55744781D01*
X104552442Y-55744781D01*
G37*
G36*
X64316564Y-54269389D02*
G01*
X64507833Y-54348615D01*
X64507835Y-54348616D01*
X64679973Y-54463635D01*
X64826365Y-54610027D01*
X64941385Y-54782167D01*
X65020611Y-54973436D01*
X65061000Y-55176484D01*
X65061000Y-55383516D01*
X65020611Y-55586564D01*
X64955075Y-55744782D01*
X64941384Y-55777835D01*
X64826365Y-55949973D01*
X64679973Y-56096365D01*
X64507835Y-56211384D01*
X64507834Y-56211385D01*
X64507833Y-56211385D01*
X64316564Y-56290611D01*
X64113516Y-56331000D01*
X63906484Y-56331000D01*
X63703436Y-56290611D01*
X63512167Y-56211385D01*
X63512166Y-56211385D01*
X63512165Y-56211384D01*
X63340027Y-56096365D01*
X63193635Y-55949973D01*
X63078616Y-55777835D01*
X63064925Y-55744782D01*
X62999389Y-55586564D01*
X62959000Y-55383516D01*
X62959000Y-55176484D01*
X62999389Y-54973436D01*
X63078615Y-54782167D01*
X63193635Y-54610027D01*
X63340027Y-54463635D01*
X63512165Y-54348616D01*
X63512167Y-54348615D01*
X63703436Y-54269389D01*
X63906484Y-54229000D01*
X64113516Y-54229000D01*
X64316564Y-54269389D01*
X64316564Y-54269389D01*
G37*
G36*
X57816564Y-54269389D02*
G01*
X58007833Y-54348615D01*
X58007835Y-54348616D01*
X58179973Y-54463635D01*
X58326365Y-54610027D01*
X58441385Y-54782167D01*
X58520611Y-54973436D01*
X58561000Y-55176484D01*
X58561000Y-55383516D01*
X58520611Y-55586564D01*
X58455075Y-55744782D01*
X58441384Y-55777835D01*
X58326365Y-55949973D01*
X58179973Y-56096365D01*
X58007835Y-56211384D01*
X58007834Y-56211385D01*
X58007833Y-56211385D01*
X57816564Y-56290611D01*
X57613516Y-56331000D01*
X57406484Y-56331000D01*
X57203436Y-56290611D01*
X57012167Y-56211385D01*
X57012166Y-56211385D01*
X57012165Y-56211384D01*
X56840027Y-56096365D01*
X56693635Y-55949973D01*
X56578616Y-55777835D01*
X56564925Y-55744782D01*
X56499389Y-55586564D01*
X56459000Y-55383516D01*
X56459000Y-55176484D01*
X56499389Y-54973436D01*
X56578615Y-54782167D01*
X56693635Y-54610027D01*
X56840027Y-54463635D01*
X57012165Y-54348616D01*
X57012167Y-54348615D01*
X57203436Y-54269389D01*
X57406484Y-54229000D01*
X57613516Y-54229000D01*
X57816564Y-54269389D01*
X57816564Y-54269389D01*
G37*
G36*
X53797395Y-50835546D02*
G01*
X53970466Y-50907234D01*
X53996146Y-50924393D01*
X54126227Y-51011310D01*
X54258690Y-51143773D01*
X54258691Y-51143775D01*
X54362766Y-51299534D01*
X54434454Y-51472605D01*
X54471000Y-51656333D01*
X54471000Y-51843667D01*
X54434454Y-52027395D01*
X54362766Y-52200466D01*
X54359590Y-52205219D01*
X54258690Y-52356227D01*
X54126227Y-52488690D01*
X54089844Y-52513000D01*
X53970466Y-52592766D01*
X53797395Y-52664454D01*
X53613667Y-52701000D01*
X53426333Y-52701000D01*
X53242605Y-52664454D01*
X53069534Y-52592766D01*
X52950156Y-52513000D01*
X52913773Y-52488690D01*
X52781310Y-52356227D01*
X52680410Y-52205219D01*
X52677234Y-52200466D01*
X52605546Y-52027395D01*
X52569000Y-51843667D01*
X52569000Y-51656333D01*
X52605546Y-51472605D01*
X52677234Y-51299534D01*
X52781309Y-51143775D01*
X52781310Y-51143773D01*
X52913773Y-51011310D01*
X53043854Y-50924393D01*
X53069534Y-50907234D01*
X53242605Y-50835546D01*
X53426333Y-50799000D01*
X53613667Y-50799000D01*
X53797395Y-50835546D01*
X53797395Y-50835546D01*
G37*
G36*
X51931000Y-52701000D02*
G01*
X50029000Y-52701000D01*
X50029000Y-50799000D01*
X51931000Y-50799000D01*
X51931000Y-52701000D01*
X51931000Y-52701000D01*
G37*
G36*
X37361395Y-50647546D02*
G01*
X37534466Y-50719234D01*
X37543339Y-50725163D01*
X37690227Y-50823310D01*
X37822690Y-50955773D01*
X37822691Y-50955775D01*
X37926766Y-51111534D01*
X37998454Y-51284605D01*
X38035000Y-51468333D01*
X38035000Y-51655667D01*
X37998454Y-51839395D01*
X37926766Y-52012466D01*
X37916790Y-52027396D01*
X37822690Y-52168227D01*
X37690227Y-52300690D01*
X37611818Y-52353081D01*
X37534466Y-52404766D01*
X37361395Y-52476454D01*
X37177667Y-52513000D01*
X36990333Y-52513000D01*
X36806605Y-52476454D01*
X36633534Y-52404766D01*
X36556182Y-52353081D01*
X36477773Y-52300690D01*
X36345310Y-52168227D01*
X36251210Y-52027396D01*
X36241234Y-52012466D01*
X36169546Y-51839395D01*
X36133000Y-51655667D01*
X36133000Y-51468333D01*
X36169546Y-51284605D01*
X36241234Y-51111534D01*
X36345309Y-50955775D01*
X36345310Y-50955773D01*
X36477773Y-50823310D01*
X36624661Y-50725163D01*
X36633534Y-50719234D01*
X36806605Y-50647546D01*
X36990333Y-50611000D01*
X37177667Y-50611000D01*
X37361395Y-50647546D01*
X37361395Y-50647546D01*
G37*
G36*
X35495000Y-52513000D02*
G01*
X33593000Y-52513000D01*
X33593000Y-50611000D01*
X35495000Y-50611000D01*
X35495000Y-52513000D01*
X35495000Y-52513000D01*
G37*
G36*
X107092442Y-50664781D02*
G01*
X107223905Y-50719235D01*
X107238216Y-50725163D01*
X107369408Y-50812822D01*
X107480978Y-50924392D01*
X107539054Y-51011310D01*
X107568638Y-51055586D01*
X107629019Y-51201358D01*
X107659800Y-51356107D01*
X107659800Y-51513893D01*
X107629019Y-51668642D01*
X107568638Y-51814414D01*
X107568637Y-51814416D01*
X107480978Y-51945608D01*
X107369408Y-52057178D01*
X107238216Y-52144837D01*
X107238215Y-52144838D01*
X107238214Y-52144838D01*
X107092442Y-52205219D01*
X106937693Y-52236000D01*
X106779907Y-52236000D01*
X106625158Y-52205219D01*
X106479386Y-52144838D01*
X106479385Y-52144838D01*
X106479384Y-52144837D01*
X106348192Y-52057178D01*
X106236622Y-51945608D01*
X106148963Y-51814416D01*
X106148962Y-51814414D01*
X106088581Y-51668642D01*
X106057800Y-51513893D01*
X106057800Y-51356107D01*
X106088581Y-51201358D01*
X106148962Y-51055586D01*
X106178546Y-51011310D01*
X106236622Y-50924392D01*
X106348192Y-50812822D01*
X106479384Y-50725163D01*
X106493695Y-50719235D01*
X106625158Y-50664781D01*
X106779907Y-50634000D01*
X106937693Y-50634000D01*
X107092442Y-50664781D01*
X107092442Y-50664781D01*
G37*
G36*
X102579800Y-52236000D02*
G01*
X100977800Y-52236000D01*
X100977800Y-50634000D01*
X102579800Y-50634000D01*
X102579800Y-52236000D01*
X102579800Y-52236000D01*
G37*
G36*
X104552442Y-50664781D02*
G01*
X104683905Y-50719235D01*
X104698216Y-50725163D01*
X104829408Y-50812822D01*
X104940978Y-50924392D01*
X104999054Y-51011310D01*
X105028638Y-51055586D01*
X105089019Y-51201358D01*
X105119800Y-51356107D01*
X105119800Y-51513893D01*
X105089019Y-51668642D01*
X105028638Y-51814414D01*
X105028637Y-51814416D01*
X104940978Y-51945608D01*
X104829408Y-52057178D01*
X104698216Y-52144837D01*
X104698215Y-52144838D01*
X104698214Y-52144838D01*
X104552442Y-52205219D01*
X104397693Y-52236000D01*
X104239907Y-52236000D01*
X104085158Y-52205219D01*
X103939386Y-52144838D01*
X103939385Y-52144838D01*
X103939384Y-52144837D01*
X103808192Y-52057178D01*
X103696622Y-51945608D01*
X103608963Y-51814416D01*
X103608962Y-51814414D01*
X103548581Y-51668642D01*
X103517800Y-51513893D01*
X103517800Y-51356107D01*
X103548581Y-51201358D01*
X103608962Y-51055586D01*
X103638546Y-51011310D01*
X103696622Y-50924392D01*
X103808192Y-50812822D01*
X103939384Y-50725163D01*
X103953695Y-50719235D01*
X104085158Y-50664781D01*
X104239907Y-50634000D01*
X104397693Y-50634000D01*
X104552442Y-50664781D01*
X104552442Y-50664781D01*
G37*
G36*
X64316564Y-48609389D02*
G01*
X64507833Y-48688615D01*
X64507835Y-48688616D01*
X64679973Y-48803635D01*
X64826365Y-48950027D01*
X64941385Y-49122167D01*
X65020611Y-49313436D01*
X65061000Y-49516484D01*
X65061000Y-49723516D01*
X65020611Y-49926564D01*
X64941385Y-50117833D01*
X64941384Y-50117835D01*
X64826365Y-50289973D01*
X64679973Y-50436365D01*
X64507835Y-50551384D01*
X64507834Y-50551385D01*
X64507833Y-50551385D01*
X64316564Y-50630611D01*
X64113516Y-50671000D01*
X63906484Y-50671000D01*
X63703436Y-50630611D01*
X63512167Y-50551385D01*
X63512166Y-50551385D01*
X63512165Y-50551384D01*
X63340027Y-50436365D01*
X63193635Y-50289973D01*
X63078616Y-50117835D01*
X63078615Y-50117833D01*
X62999389Y-49926564D01*
X62959000Y-49723516D01*
X62959000Y-49516484D01*
X62999389Y-49313436D01*
X63078615Y-49122167D01*
X63193635Y-48950027D01*
X63340027Y-48803635D01*
X63512165Y-48688616D01*
X63512167Y-48688615D01*
X63703436Y-48609389D01*
X63906484Y-48569000D01*
X64113516Y-48569000D01*
X64316564Y-48609389D01*
X64316564Y-48609389D01*
G37*
G36*
X57816564Y-48609389D02*
G01*
X58007833Y-48688615D01*
X58007835Y-48688616D01*
X58179973Y-48803635D01*
X58326365Y-48950027D01*
X58441385Y-49122167D01*
X58520611Y-49313436D01*
X58561000Y-49516484D01*
X58561000Y-49723516D01*
X58520611Y-49926564D01*
X58441385Y-50117833D01*
X58441384Y-50117835D01*
X58326365Y-50289973D01*
X58179973Y-50436365D01*
X58007835Y-50551384D01*
X58007834Y-50551385D01*
X58007833Y-50551385D01*
X57816564Y-50630611D01*
X57613516Y-50671000D01*
X57406484Y-50671000D01*
X57203436Y-50630611D01*
X57012167Y-50551385D01*
X57012166Y-50551385D01*
X57012165Y-50551384D01*
X56840027Y-50436365D01*
X56693635Y-50289973D01*
X56578616Y-50117835D01*
X56578615Y-50117833D01*
X56499389Y-49926564D01*
X56459000Y-49723516D01*
X56459000Y-49516484D01*
X56499389Y-49313436D01*
X56578615Y-49122167D01*
X56693635Y-48950027D01*
X56840027Y-48803635D01*
X57012165Y-48688616D01*
X57012167Y-48688615D01*
X57203436Y-48609389D01*
X57406484Y-48569000D01*
X57613516Y-48569000D01*
X57816564Y-48609389D01*
X57816564Y-48609389D01*
G37*
G36*
X45207395Y-45635546D02*
G01*
X45380466Y-45707234D01*
X45380467Y-45707235D01*
X45536227Y-45811310D01*
X45668690Y-45943773D01*
X45721081Y-46022182D01*
X45772766Y-46099534D01*
X45844454Y-46272605D01*
X45881000Y-46456333D01*
X45881000Y-46643667D01*
X45844454Y-46827395D01*
X45772766Y-47000466D01*
X45772765Y-47000467D01*
X45668690Y-47156227D01*
X45536227Y-47288690D01*
X45457818Y-47341081D01*
X45380466Y-47392766D01*
X45207395Y-47464454D01*
X45023667Y-47501000D01*
X44836333Y-47501000D01*
X44652605Y-47464454D01*
X44479534Y-47392766D01*
X44402182Y-47341081D01*
X44323773Y-47288690D01*
X44191310Y-47156227D01*
X44087235Y-47000467D01*
X44087234Y-47000466D01*
X44015546Y-46827395D01*
X43979000Y-46643667D01*
X43979000Y-46456333D01*
X44015546Y-46272605D01*
X44087234Y-46099534D01*
X44138919Y-46022182D01*
X44191310Y-45943773D01*
X44323773Y-45811310D01*
X44479533Y-45707235D01*
X44479534Y-45707234D01*
X44652605Y-45635546D01*
X44836333Y-45599000D01*
X45023667Y-45599000D01*
X45207395Y-45635546D01*
X45207395Y-45635546D01*
G37*
G36*
X43341000Y-47501000D02*
G01*
X41439000Y-47501000D01*
X41439000Y-45599000D01*
X43341000Y-45599000D01*
X43341000Y-47501000D01*
X43341000Y-47501000D01*
G37*
G36*
X107092442Y-45584781D02*
G01*
X107215001Y-45635547D01*
X107238216Y-45645163D01*
X107369408Y-45732822D01*
X107480978Y-45844392D01*
X107547383Y-45943775D01*
X107568638Y-45975586D01*
X107629019Y-46121358D01*
X107659800Y-46276107D01*
X107659800Y-46433893D01*
X107629019Y-46588642D01*
X107568638Y-46734414D01*
X107568637Y-46734416D01*
X107480978Y-46865608D01*
X107369408Y-46977178D01*
X107238216Y-47064837D01*
X107238215Y-47064838D01*
X107238214Y-47064838D01*
X107092442Y-47125219D01*
X106937693Y-47156000D01*
X106779907Y-47156000D01*
X106625158Y-47125219D01*
X106479386Y-47064838D01*
X106479385Y-47064838D01*
X106479384Y-47064837D01*
X106348192Y-46977178D01*
X106236622Y-46865608D01*
X106148963Y-46734416D01*
X106148962Y-46734414D01*
X106088581Y-46588642D01*
X106057800Y-46433893D01*
X106057800Y-46276107D01*
X106088581Y-46121358D01*
X106148962Y-45975586D01*
X106170217Y-45943775D01*
X106236622Y-45844392D01*
X106348192Y-45732822D01*
X106479384Y-45645163D01*
X106502599Y-45635547D01*
X106625158Y-45584781D01*
X106779907Y-45554000D01*
X106937693Y-45554000D01*
X107092442Y-45584781D01*
X107092442Y-45584781D01*
G37*
G36*
X104552442Y-45584781D02*
G01*
X104675001Y-45635547D01*
X104698216Y-45645163D01*
X104829408Y-45732822D01*
X104940978Y-45844392D01*
X105007383Y-45943775D01*
X105028638Y-45975586D01*
X105089019Y-46121358D01*
X105119800Y-46276107D01*
X105119800Y-46433893D01*
X105089019Y-46588642D01*
X105028638Y-46734414D01*
X105028637Y-46734416D01*
X104940978Y-46865608D01*
X104829408Y-46977178D01*
X104698216Y-47064837D01*
X104698215Y-47064838D01*
X104698214Y-47064838D01*
X104552442Y-47125219D01*
X104397693Y-47156000D01*
X104239907Y-47156000D01*
X104085158Y-47125219D01*
X103939386Y-47064838D01*
X103939385Y-47064838D01*
X103939384Y-47064837D01*
X103808192Y-46977178D01*
X103696622Y-46865608D01*
X103608963Y-46734416D01*
X103608962Y-46734414D01*
X103548581Y-46588642D01*
X103517800Y-46433893D01*
X103517800Y-46276107D01*
X103548581Y-46121358D01*
X103608962Y-45975586D01*
X103630217Y-45943775D01*
X103696622Y-45844392D01*
X103808192Y-45732822D01*
X103939384Y-45645163D01*
X103962599Y-45635547D01*
X104085158Y-45584781D01*
X104239907Y-45554000D01*
X104397693Y-45554000D01*
X104552442Y-45584781D01*
X104552442Y-45584781D01*
G37*
G36*
X102579800Y-47156000D02*
G01*
X100977800Y-47156000D01*
X100977800Y-45554000D01*
X102579800Y-45554000D01*
X102579800Y-47156000D01*
X102579800Y-47156000D01*
G37*
G36*
X64316564Y-44109389D02*
G01*
X64507833Y-44188615D01*
X64507835Y-44188616D01*
X64679973Y-44303635D01*
X64826365Y-44450027D01*
X64941385Y-44622167D01*
X65020611Y-44813436D01*
X65061000Y-45016484D01*
X65061000Y-45223516D01*
X65020611Y-45426564D01*
X64955075Y-45584782D01*
X64941384Y-45617835D01*
X64826365Y-45789973D01*
X64679973Y-45936365D01*
X64507835Y-46051384D01*
X64507834Y-46051385D01*
X64507833Y-46051385D01*
X64316564Y-46130611D01*
X64113516Y-46171000D01*
X63906484Y-46171000D01*
X63703436Y-46130611D01*
X63512167Y-46051385D01*
X63512166Y-46051385D01*
X63512165Y-46051384D01*
X63340027Y-45936365D01*
X63193635Y-45789973D01*
X63078616Y-45617835D01*
X63064925Y-45584782D01*
X62999389Y-45426564D01*
X62959000Y-45223516D01*
X62959000Y-45016484D01*
X62999389Y-44813436D01*
X63078615Y-44622167D01*
X63193635Y-44450027D01*
X63340027Y-44303635D01*
X63512165Y-44188616D01*
X63512167Y-44188615D01*
X63703436Y-44109389D01*
X63906484Y-44069000D01*
X64113516Y-44069000D01*
X64316564Y-44109389D01*
X64316564Y-44109389D01*
G37*
G36*
X57816564Y-44109389D02*
G01*
X58007833Y-44188615D01*
X58007835Y-44188616D01*
X58179973Y-44303635D01*
X58326365Y-44450027D01*
X58441385Y-44622167D01*
X58520611Y-44813436D01*
X58561000Y-45016484D01*
X58561000Y-45223516D01*
X58520611Y-45426564D01*
X58455075Y-45584782D01*
X58441384Y-45617835D01*
X58326365Y-45789973D01*
X58179973Y-45936365D01*
X58007835Y-46051384D01*
X58007834Y-46051385D01*
X58007833Y-46051385D01*
X57816564Y-46130611D01*
X57613516Y-46171000D01*
X57406484Y-46171000D01*
X57203436Y-46130611D01*
X57012167Y-46051385D01*
X57012166Y-46051385D01*
X57012165Y-46051384D01*
X56840027Y-45936365D01*
X56693635Y-45789973D01*
X56578616Y-45617835D01*
X56564925Y-45584782D01*
X56499389Y-45426564D01*
X56459000Y-45223516D01*
X56459000Y-45016484D01*
X56499389Y-44813436D01*
X56578615Y-44622167D01*
X56693635Y-44450027D01*
X56840027Y-44303635D01*
X57012165Y-44188616D01*
X57012167Y-44188615D01*
X57203436Y-44109389D01*
X57406484Y-44069000D01*
X57613516Y-44069000D01*
X57816564Y-44109389D01*
X57816564Y-44109389D01*
G37*
G36*
X35670443Y-42920519D02*
G01*
X35736627Y-42927037D01*
X35906466Y-42978557D01*
X36062991Y-43062222D01*
X36098729Y-43091552D01*
X36200186Y-43174814D01*
X36283448Y-43276271D01*
X36312778Y-43312009D01*
X36396443Y-43468534D01*
X36447963Y-43638373D01*
X36465359Y-43815000D01*
X36447963Y-43991627D01*
X36396443Y-44161466D01*
X36312778Y-44317991D01*
X36283448Y-44353729D01*
X36200186Y-44455186D01*
X36098729Y-44538448D01*
X36062991Y-44567778D01*
X35906466Y-44651443D01*
X35736627Y-44702963D01*
X35670443Y-44709481D01*
X35604260Y-44716000D01*
X35515740Y-44716000D01*
X35449557Y-44709481D01*
X35383373Y-44702963D01*
X35213534Y-44651443D01*
X35057009Y-44567778D01*
X35021271Y-44538448D01*
X34919814Y-44455186D01*
X34836552Y-44353729D01*
X34807222Y-44317991D01*
X34723557Y-44161466D01*
X34672037Y-43991627D01*
X34654641Y-43815000D01*
X34672037Y-43638373D01*
X34723557Y-43468534D01*
X34807222Y-43312009D01*
X34836552Y-43276271D01*
X34919814Y-43174814D01*
X35021271Y-43091552D01*
X35057009Y-43062222D01*
X35213534Y-42978557D01*
X35383373Y-42927037D01*
X35449557Y-42920519D01*
X35515740Y-42914000D01*
X35604260Y-42914000D01*
X35670443Y-42920519D01*
X35670443Y-42920519D01*
G37*
G36*
X36461000Y-42176000D02*
G01*
X34659000Y-42176000D01*
X34659000Y-40374000D01*
X36461000Y-40374000D01*
X36461000Y-42176000D01*
X36461000Y-42176000D01*
G37*
G36*
X114792394Y-40475934D02*
G01*
X114943624Y-40538576D01*
X114943626Y-40538577D01*
X115079732Y-40629520D01*
X115195480Y-40745268D01*
X115286423Y-40881374D01*
X115286424Y-40881376D01*
X115349066Y-41032606D01*
X115381000Y-41193152D01*
X115381000Y-41356848D01*
X115349066Y-41517394D01*
X115286424Y-41668624D01*
X115286423Y-41668626D01*
X115195480Y-41804732D01*
X115079732Y-41920480D01*
X114943626Y-42011423D01*
X114943625Y-42011424D01*
X114943624Y-42011424D01*
X114792394Y-42074066D01*
X114631848Y-42106000D01*
X114468152Y-42106000D01*
X114307606Y-42074066D01*
X114156376Y-42011424D01*
X114156375Y-42011424D01*
X114156374Y-42011423D01*
X114020268Y-41920480D01*
X113904520Y-41804732D01*
X113813577Y-41668626D01*
X113813576Y-41668624D01*
X113750934Y-41517394D01*
X113719000Y-41356848D01*
X113719000Y-41193152D01*
X113750934Y-41032606D01*
X113813576Y-40881376D01*
X113813577Y-40881374D01*
X113904520Y-40745268D01*
X114020268Y-40629520D01*
X114156374Y-40538577D01*
X114156376Y-40538576D01*
X114307606Y-40475934D01*
X114468152Y-40444000D01*
X114631848Y-40444000D01*
X114792394Y-40475934D01*
X114792394Y-40475934D01*
G37*
G36*
X112252394Y-40475934D02*
G01*
X112403624Y-40538576D01*
X112403626Y-40538577D01*
X112539732Y-40629520D01*
X112655480Y-40745268D01*
X112746423Y-40881374D01*
X112746424Y-40881376D01*
X112809066Y-41032606D01*
X112841000Y-41193152D01*
X112841000Y-41356848D01*
X112809066Y-41517394D01*
X112746424Y-41668624D01*
X112746423Y-41668626D01*
X112655480Y-41804732D01*
X112539732Y-41920480D01*
X112403626Y-42011423D01*
X112403625Y-42011424D01*
X112403624Y-42011424D01*
X112252394Y-42074066D01*
X112091848Y-42106000D01*
X111928152Y-42106000D01*
X111767606Y-42074066D01*
X111616376Y-42011424D01*
X111616375Y-42011424D01*
X111616374Y-42011423D01*
X111480268Y-41920480D01*
X111364520Y-41804732D01*
X111273577Y-41668626D01*
X111273576Y-41668624D01*
X111210934Y-41517394D01*
X111179000Y-41356848D01*
X111179000Y-41193152D01*
X111210934Y-41032606D01*
X111273576Y-40881376D01*
X111273577Y-40881374D01*
X111364520Y-40745268D01*
X111480268Y-40629520D01*
X111616374Y-40538577D01*
X111616376Y-40538576D01*
X111767606Y-40475934D01*
X111928152Y-40444000D01*
X112091848Y-40444000D01*
X112252394Y-40475934D01*
X112252394Y-40475934D01*
G37*
G36*
X109712394Y-40475934D02*
G01*
X109863624Y-40538576D01*
X109863626Y-40538577D01*
X109999732Y-40629520D01*
X110115480Y-40745268D01*
X110206423Y-40881374D01*
X110206424Y-40881376D01*
X110269066Y-41032606D01*
X110301000Y-41193152D01*
X110301000Y-41356848D01*
X110269066Y-41517394D01*
X110206424Y-41668624D01*
X110206423Y-41668626D01*
X110115480Y-41804732D01*
X109999732Y-41920480D01*
X109863626Y-42011423D01*
X109863625Y-42011424D01*
X109863624Y-42011424D01*
X109712394Y-42074066D01*
X109551848Y-42106000D01*
X109388152Y-42106000D01*
X109227606Y-42074066D01*
X109076376Y-42011424D01*
X109076375Y-42011424D01*
X109076374Y-42011423D01*
X108940268Y-41920480D01*
X108824520Y-41804732D01*
X108733577Y-41668626D01*
X108733576Y-41668624D01*
X108670934Y-41517394D01*
X108639000Y-41356848D01*
X108639000Y-41193152D01*
X108670934Y-41032606D01*
X108733576Y-40881376D01*
X108733577Y-40881374D01*
X108824520Y-40745268D01*
X108940268Y-40629520D01*
X109076374Y-40538577D01*
X109076376Y-40538576D01*
X109227606Y-40475934D01*
X109388152Y-40444000D01*
X109551848Y-40444000D01*
X109712394Y-40475934D01*
X109712394Y-40475934D01*
G37*
G36*
X107172394Y-40475934D02*
G01*
X107323624Y-40538576D01*
X107323626Y-40538577D01*
X107459732Y-40629520D01*
X107575480Y-40745268D01*
X107666423Y-40881374D01*
X107666424Y-40881376D01*
X107729066Y-41032606D01*
X107761000Y-41193152D01*
X107761000Y-41356848D01*
X107729066Y-41517394D01*
X107666424Y-41668624D01*
X107666423Y-41668626D01*
X107575480Y-41804732D01*
X107459732Y-41920480D01*
X107323626Y-42011423D01*
X107323625Y-42011424D01*
X107323624Y-42011424D01*
X107172394Y-42074066D01*
X107011848Y-42106000D01*
X106848152Y-42106000D01*
X106687606Y-42074066D01*
X106536376Y-42011424D01*
X106536375Y-42011424D01*
X106536374Y-42011423D01*
X106400268Y-41920480D01*
X106284520Y-41804732D01*
X106193577Y-41668626D01*
X106193576Y-41668624D01*
X106130934Y-41517394D01*
X106099000Y-41356848D01*
X106099000Y-41193152D01*
X106130934Y-41032606D01*
X106193576Y-40881376D01*
X106193577Y-40881374D01*
X106284520Y-40745268D01*
X106400268Y-40629520D01*
X106536374Y-40538577D01*
X106536376Y-40538576D01*
X106687606Y-40475934D01*
X106848152Y-40444000D01*
X107011848Y-40444000D01*
X107172394Y-40475934D01*
X107172394Y-40475934D01*
G37*
G36*
X104632394Y-40475934D02*
G01*
X104783624Y-40538576D01*
X104783626Y-40538577D01*
X104919732Y-40629520D01*
X105035480Y-40745268D01*
X105126423Y-40881374D01*
X105126424Y-40881376D01*
X105189066Y-41032606D01*
X105221000Y-41193152D01*
X105221000Y-41356848D01*
X105189066Y-41517394D01*
X105126424Y-41668624D01*
X105126423Y-41668626D01*
X105035480Y-41804732D01*
X104919732Y-41920480D01*
X104783626Y-42011423D01*
X104783625Y-42011424D01*
X104783624Y-42011424D01*
X104632394Y-42074066D01*
X104471848Y-42106000D01*
X104308152Y-42106000D01*
X104147606Y-42074066D01*
X103996376Y-42011424D01*
X103996375Y-42011424D01*
X103996374Y-42011423D01*
X103860268Y-41920480D01*
X103744520Y-41804732D01*
X103653577Y-41668626D01*
X103653576Y-41668624D01*
X103590934Y-41517394D01*
X103559000Y-41356848D01*
X103559000Y-41193152D01*
X103590934Y-41032606D01*
X103653576Y-40881376D01*
X103653577Y-40881374D01*
X103744520Y-40745268D01*
X103860268Y-40629520D01*
X103996374Y-40538577D01*
X103996376Y-40538576D01*
X104147606Y-40475934D01*
X104308152Y-40444000D01*
X104471848Y-40444000D01*
X104632394Y-40475934D01*
X104632394Y-40475934D01*
G37*
G36*
X102092394Y-40475934D02*
G01*
X102243624Y-40538576D01*
X102243626Y-40538577D01*
X102379732Y-40629520D01*
X102495480Y-40745268D01*
X102586423Y-40881374D01*
X102586424Y-40881376D01*
X102649066Y-41032606D01*
X102681000Y-41193152D01*
X102681000Y-41356848D01*
X102649066Y-41517394D01*
X102586424Y-41668624D01*
X102586423Y-41668626D01*
X102495480Y-41804732D01*
X102379732Y-41920480D01*
X102243626Y-42011423D01*
X102243625Y-42011424D01*
X102243624Y-42011424D01*
X102092394Y-42074066D01*
X101931848Y-42106000D01*
X101768152Y-42106000D01*
X101607606Y-42074066D01*
X101456376Y-42011424D01*
X101456375Y-42011424D01*
X101456374Y-42011423D01*
X101320268Y-41920480D01*
X101204520Y-41804732D01*
X101113577Y-41668626D01*
X101113576Y-41668624D01*
X101050934Y-41517394D01*
X101019000Y-41356848D01*
X101019000Y-41193152D01*
X101050934Y-41032606D01*
X101113576Y-40881376D01*
X101113577Y-40881374D01*
X101204520Y-40745268D01*
X101320268Y-40629520D01*
X101456374Y-40538577D01*
X101456376Y-40538576D01*
X101607606Y-40475934D01*
X101768152Y-40444000D01*
X101931848Y-40444000D01*
X102092394Y-40475934D01*
X102092394Y-40475934D01*
G37*
G36*
X99552394Y-40475934D02*
G01*
X99703624Y-40538576D01*
X99703626Y-40538577D01*
X99839732Y-40629520D01*
X99955480Y-40745268D01*
X100046423Y-40881374D01*
X100046424Y-40881376D01*
X100109066Y-41032606D01*
X100141000Y-41193152D01*
X100141000Y-41356848D01*
X100109066Y-41517394D01*
X100046424Y-41668624D01*
X100046423Y-41668626D01*
X99955480Y-41804732D01*
X99839732Y-41920480D01*
X99703626Y-42011423D01*
X99703625Y-42011424D01*
X99703624Y-42011424D01*
X99552394Y-42074066D01*
X99391848Y-42106000D01*
X99228152Y-42106000D01*
X99067606Y-42074066D01*
X98916376Y-42011424D01*
X98916375Y-42011424D01*
X98916374Y-42011423D01*
X98780268Y-41920480D01*
X98664520Y-41804732D01*
X98573577Y-41668626D01*
X98573576Y-41668624D01*
X98510934Y-41517394D01*
X98479000Y-41356848D01*
X98479000Y-41193152D01*
X98510934Y-41032606D01*
X98573576Y-40881376D01*
X98573577Y-40881374D01*
X98664520Y-40745268D01*
X98780268Y-40629520D01*
X98916374Y-40538577D01*
X98916376Y-40538576D01*
X99067606Y-40475934D01*
X99228152Y-40444000D01*
X99391848Y-40444000D01*
X99552394Y-40475934D01*
X99552394Y-40475934D01*
G37*
G36*
X97012394Y-40475934D02*
G01*
X97163624Y-40538576D01*
X97163626Y-40538577D01*
X97299732Y-40629520D01*
X97415480Y-40745268D01*
X97506423Y-40881374D01*
X97506424Y-40881376D01*
X97569066Y-41032606D01*
X97601000Y-41193152D01*
X97601000Y-41356848D01*
X97569066Y-41517394D01*
X97506424Y-41668624D01*
X97506423Y-41668626D01*
X97415480Y-41804732D01*
X97299732Y-41920480D01*
X97163626Y-42011423D01*
X97163625Y-42011424D01*
X97163624Y-42011424D01*
X97012394Y-42074066D01*
X96851848Y-42106000D01*
X96688152Y-42106000D01*
X96527606Y-42074066D01*
X96376376Y-42011424D01*
X96376375Y-42011424D01*
X96376374Y-42011423D01*
X96240268Y-41920480D01*
X96124520Y-41804732D01*
X96033577Y-41668626D01*
X96033576Y-41668624D01*
X95970934Y-41517394D01*
X95939000Y-41356848D01*
X95939000Y-41193152D01*
X95970934Y-41032606D01*
X96033576Y-40881376D01*
X96033577Y-40881374D01*
X96124520Y-40745268D01*
X96240268Y-40629520D01*
X96376374Y-40538577D01*
X96376376Y-40538576D01*
X96527606Y-40475934D01*
X96688152Y-40444000D01*
X96851848Y-40444000D01*
X97012394Y-40475934D01*
X97012394Y-40475934D01*
G37*
G36*
X94472394Y-40475934D02*
G01*
X94623624Y-40538576D01*
X94623626Y-40538577D01*
X94759732Y-40629520D01*
X94875480Y-40745268D01*
X94966423Y-40881374D01*
X94966424Y-40881376D01*
X95029066Y-41032606D01*
X95061000Y-41193152D01*
X95061000Y-41356848D01*
X95029066Y-41517394D01*
X94966424Y-41668624D01*
X94966423Y-41668626D01*
X94875480Y-41804732D01*
X94759732Y-41920480D01*
X94623626Y-42011423D01*
X94623625Y-42011424D01*
X94623624Y-42011424D01*
X94472394Y-42074066D01*
X94311848Y-42106000D01*
X94148152Y-42106000D01*
X93987606Y-42074066D01*
X93836376Y-42011424D01*
X93836375Y-42011424D01*
X93836374Y-42011423D01*
X93700268Y-41920480D01*
X93584520Y-41804732D01*
X93493577Y-41668626D01*
X93493576Y-41668624D01*
X93430934Y-41517394D01*
X93399000Y-41356848D01*
X93399000Y-41193152D01*
X93430934Y-41032606D01*
X93493576Y-40881376D01*
X93493577Y-40881374D01*
X93584520Y-40745268D01*
X93700268Y-40629520D01*
X93836374Y-40538577D01*
X93836376Y-40538576D01*
X93987606Y-40475934D01*
X94148152Y-40444000D01*
X94311848Y-40444000D01*
X94472394Y-40475934D01*
X94472394Y-40475934D01*
G37*
G36*
X89392394Y-40475934D02*
G01*
X89543624Y-40538576D01*
X89543626Y-40538577D01*
X89679732Y-40629520D01*
X89795480Y-40745268D01*
X89886423Y-40881374D01*
X89886424Y-40881376D01*
X89949066Y-41032606D01*
X89981000Y-41193152D01*
X89981000Y-41356848D01*
X89949066Y-41517394D01*
X89886424Y-41668624D01*
X89886423Y-41668626D01*
X89795480Y-41804732D01*
X89679732Y-41920480D01*
X89543626Y-42011423D01*
X89543625Y-42011424D01*
X89543624Y-42011424D01*
X89392394Y-42074066D01*
X89231848Y-42106000D01*
X89068152Y-42106000D01*
X88907606Y-42074066D01*
X88756376Y-42011424D01*
X88756375Y-42011424D01*
X88756374Y-42011423D01*
X88620268Y-41920480D01*
X88504520Y-41804732D01*
X88413577Y-41668626D01*
X88413576Y-41668624D01*
X88350934Y-41517394D01*
X88319000Y-41356848D01*
X88319000Y-41193152D01*
X88350934Y-41032606D01*
X88413576Y-40881376D01*
X88413577Y-40881374D01*
X88504520Y-40745268D01*
X88620268Y-40629520D01*
X88756374Y-40538577D01*
X88756376Y-40538576D01*
X88907606Y-40475934D01*
X89068152Y-40444000D01*
X89231848Y-40444000D01*
X89392394Y-40475934D01*
X89392394Y-40475934D01*
G37*
G36*
X117332394Y-40475934D02*
G01*
X117483624Y-40538576D01*
X117483626Y-40538577D01*
X117619732Y-40629520D01*
X117735480Y-40745268D01*
X117826423Y-40881374D01*
X117826424Y-40881376D01*
X117889066Y-41032606D01*
X117921000Y-41193152D01*
X117921000Y-41356848D01*
X117889066Y-41517394D01*
X117826424Y-41668624D01*
X117826423Y-41668626D01*
X117735480Y-41804732D01*
X117619732Y-41920480D01*
X117483626Y-42011423D01*
X117483625Y-42011424D01*
X117483624Y-42011424D01*
X117332394Y-42074066D01*
X117171848Y-42106000D01*
X117008152Y-42106000D01*
X116847606Y-42074066D01*
X116696376Y-42011424D01*
X116696375Y-42011424D01*
X116696374Y-42011423D01*
X116560268Y-41920480D01*
X116444520Y-41804732D01*
X116353577Y-41668626D01*
X116353576Y-41668624D01*
X116290934Y-41517394D01*
X116259000Y-41356848D01*
X116259000Y-41193152D01*
X116290934Y-41032606D01*
X116353576Y-40881376D01*
X116353577Y-40881374D01*
X116444520Y-40745268D01*
X116560268Y-40629520D01*
X116696374Y-40538577D01*
X116696376Y-40538576D01*
X116847606Y-40475934D01*
X117008152Y-40444000D01*
X117171848Y-40444000D01*
X117332394Y-40475934D01*
X117332394Y-40475934D01*
G37*
G36*
X84312394Y-40475934D02*
G01*
X84463624Y-40538576D01*
X84463626Y-40538577D01*
X84599732Y-40629520D01*
X84715480Y-40745268D01*
X84806423Y-40881374D01*
X84806424Y-40881376D01*
X84869066Y-41032606D01*
X84901000Y-41193152D01*
X84901000Y-41356848D01*
X84869066Y-41517394D01*
X84806424Y-41668624D01*
X84806423Y-41668626D01*
X84715480Y-41804732D01*
X84599732Y-41920480D01*
X84463626Y-42011423D01*
X84463625Y-42011424D01*
X84463624Y-42011424D01*
X84312394Y-42074066D01*
X84151848Y-42106000D01*
X83988152Y-42106000D01*
X83827606Y-42074066D01*
X83676376Y-42011424D01*
X83676375Y-42011424D01*
X83676374Y-42011423D01*
X83540268Y-41920480D01*
X83424520Y-41804732D01*
X83333577Y-41668626D01*
X83333576Y-41668624D01*
X83270934Y-41517394D01*
X83239000Y-41356848D01*
X83239000Y-41193152D01*
X83270934Y-41032606D01*
X83333576Y-40881376D01*
X83333577Y-40881374D01*
X83424520Y-40745268D01*
X83540268Y-40629520D01*
X83676374Y-40538577D01*
X83676376Y-40538576D01*
X83827606Y-40475934D01*
X83988152Y-40444000D01*
X84151848Y-40444000D01*
X84312394Y-40475934D01*
X84312394Y-40475934D01*
G37*
G36*
X81772394Y-40475934D02*
G01*
X81923624Y-40538576D01*
X81923626Y-40538577D01*
X82059732Y-40629520D01*
X82175480Y-40745268D01*
X82266423Y-40881374D01*
X82266424Y-40881376D01*
X82329066Y-41032606D01*
X82361000Y-41193152D01*
X82361000Y-41356848D01*
X82329066Y-41517394D01*
X82266424Y-41668624D01*
X82266423Y-41668626D01*
X82175480Y-41804732D01*
X82059732Y-41920480D01*
X81923626Y-42011423D01*
X81923625Y-42011424D01*
X81923624Y-42011424D01*
X81772394Y-42074066D01*
X81611848Y-42106000D01*
X81448152Y-42106000D01*
X81287606Y-42074066D01*
X81136376Y-42011424D01*
X81136375Y-42011424D01*
X81136374Y-42011423D01*
X81000268Y-41920480D01*
X80884520Y-41804732D01*
X80793577Y-41668626D01*
X80793576Y-41668624D01*
X80730934Y-41517394D01*
X80699000Y-41356848D01*
X80699000Y-41193152D01*
X80730934Y-41032606D01*
X80793576Y-40881376D01*
X80793577Y-40881374D01*
X80884520Y-40745268D01*
X81000268Y-40629520D01*
X81136374Y-40538577D01*
X81136376Y-40538576D01*
X81287606Y-40475934D01*
X81448152Y-40444000D01*
X81611848Y-40444000D01*
X81772394Y-40475934D01*
X81772394Y-40475934D01*
G37*
G36*
X79232394Y-40475934D02*
G01*
X79383624Y-40538576D01*
X79383626Y-40538577D01*
X79519732Y-40629520D01*
X79635480Y-40745268D01*
X79726423Y-40881374D01*
X79726424Y-40881376D01*
X79789066Y-41032606D01*
X79821000Y-41193152D01*
X79821000Y-41356848D01*
X79789066Y-41517394D01*
X79726424Y-41668624D01*
X79726423Y-41668626D01*
X79635480Y-41804732D01*
X79519732Y-41920480D01*
X79383626Y-42011423D01*
X79383625Y-42011424D01*
X79383624Y-42011424D01*
X79232394Y-42074066D01*
X79071848Y-42106000D01*
X78908152Y-42106000D01*
X78747606Y-42074066D01*
X78596376Y-42011424D01*
X78596375Y-42011424D01*
X78596374Y-42011423D01*
X78460268Y-41920480D01*
X78344520Y-41804732D01*
X78253577Y-41668626D01*
X78253576Y-41668624D01*
X78190934Y-41517394D01*
X78159000Y-41356848D01*
X78159000Y-41193152D01*
X78190934Y-41032606D01*
X78253576Y-40881376D01*
X78253577Y-40881374D01*
X78344520Y-40745268D01*
X78460268Y-40629520D01*
X78596374Y-40538577D01*
X78596376Y-40538576D01*
X78747606Y-40475934D01*
X78908152Y-40444000D01*
X79071848Y-40444000D01*
X79232394Y-40475934D01*
X79232394Y-40475934D01*
G37*
G36*
X76692394Y-40475934D02*
G01*
X76843624Y-40538576D01*
X76843626Y-40538577D01*
X76979732Y-40629520D01*
X77095480Y-40745268D01*
X77186423Y-40881374D01*
X77186424Y-40881376D01*
X77249066Y-41032606D01*
X77281000Y-41193152D01*
X77281000Y-41356848D01*
X77249066Y-41517394D01*
X77186424Y-41668624D01*
X77186423Y-41668626D01*
X77095480Y-41804732D01*
X76979732Y-41920480D01*
X76843626Y-42011423D01*
X76843625Y-42011424D01*
X76843624Y-42011424D01*
X76692394Y-42074066D01*
X76531848Y-42106000D01*
X76368152Y-42106000D01*
X76207606Y-42074066D01*
X76056376Y-42011424D01*
X76056375Y-42011424D01*
X76056374Y-42011423D01*
X75920268Y-41920480D01*
X75804520Y-41804732D01*
X75713577Y-41668626D01*
X75713576Y-41668624D01*
X75650934Y-41517394D01*
X75619000Y-41356848D01*
X75619000Y-41193152D01*
X75650934Y-41032606D01*
X75713576Y-40881376D01*
X75713577Y-40881374D01*
X75804520Y-40745268D01*
X75920268Y-40629520D01*
X76056374Y-40538577D01*
X76056376Y-40538576D01*
X76207606Y-40475934D01*
X76368152Y-40444000D01*
X76531848Y-40444000D01*
X76692394Y-40475934D01*
X76692394Y-40475934D01*
G37*
G36*
X74152394Y-40475934D02*
G01*
X74303624Y-40538576D01*
X74303626Y-40538577D01*
X74439732Y-40629520D01*
X74555480Y-40745268D01*
X74646423Y-40881374D01*
X74646424Y-40881376D01*
X74709066Y-41032606D01*
X74741000Y-41193152D01*
X74741000Y-41356848D01*
X74709066Y-41517394D01*
X74646424Y-41668624D01*
X74646423Y-41668626D01*
X74555480Y-41804732D01*
X74439732Y-41920480D01*
X74303626Y-42011423D01*
X74303625Y-42011424D01*
X74303624Y-42011424D01*
X74152394Y-42074066D01*
X73991848Y-42106000D01*
X73828152Y-42106000D01*
X73667606Y-42074066D01*
X73516376Y-42011424D01*
X73516375Y-42011424D01*
X73516374Y-42011423D01*
X73380268Y-41920480D01*
X73264520Y-41804732D01*
X73173577Y-41668626D01*
X73173576Y-41668624D01*
X73110934Y-41517394D01*
X73079000Y-41356848D01*
X73079000Y-41193152D01*
X73110934Y-41032606D01*
X73173576Y-40881376D01*
X73173577Y-40881374D01*
X73264520Y-40745268D01*
X73380268Y-40629520D01*
X73516374Y-40538577D01*
X73516376Y-40538576D01*
X73667606Y-40475934D01*
X73828152Y-40444000D01*
X73991848Y-40444000D01*
X74152394Y-40475934D01*
X74152394Y-40475934D01*
G37*
G36*
X119872394Y-40475934D02*
G01*
X120023624Y-40538576D01*
X120023626Y-40538577D01*
X120159732Y-40629520D01*
X120275480Y-40745268D01*
X120366423Y-40881374D01*
X120366424Y-40881376D01*
X120429066Y-41032606D01*
X120461000Y-41193152D01*
X120461000Y-41356848D01*
X120429066Y-41517394D01*
X120366424Y-41668624D01*
X120366423Y-41668626D01*
X120275480Y-41804732D01*
X120159732Y-41920480D01*
X120023626Y-42011423D01*
X120023625Y-42011424D01*
X120023624Y-42011424D01*
X119872394Y-42074066D01*
X119711848Y-42106000D01*
X119548152Y-42106000D01*
X119387606Y-42074066D01*
X119236376Y-42011424D01*
X119236375Y-42011424D01*
X119236374Y-42011423D01*
X119100268Y-41920480D01*
X118984520Y-41804732D01*
X118893577Y-41668626D01*
X118893576Y-41668624D01*
X118830934Y-41517394D01*
X118799000Y-41356848D01*
X118799000Y-41193152D01*
X118830934Y-41032606D01*
X118893576Y-40881376D01*
X118893577Y-40881374D01*
X118984520Y-40745268D01*
X119100268Y-40629520D01*
X119236374Y-40538577D01*
X119236376Y-40538576D01*
X119387606Y-40475934D01*
X119548152Y-40444000D01*
X119711848Y-40444000D01*
X119872394Y-40475934D01*
X119872394Y-40475934D01*
G37*
G36*
X86852394Y-40475934D02*
G01*
X87003624Y-40538576D01*
X87003626Y-40538577D01*
X87139732Y-40629520D01*
X87255480Y-40745268D01*
X87346423Y-40881374D01*
X87346424Y-40881376D01*
X87409066Y-41032606D01*
X87441000Y-41193152D01*
X87441000Y-41356848D01*
X87409066Y-41517394D01*
X87346424Y-41668624D01*
X87346423Y-41668626D01*
X87255480Y-41804732D01*
X87139732Y-41920480D01*
X87003626Y-42011423D01*
X87003625Y-42011424D01*
X87003624Y-42011424D01*
X86852394Y-42074066D01*
X86691848Y-42106000D01*
X86528152Y-42106000D01*
X86367606Y-42074066D01*
X86216376Y-42011424D01*
X86216375Y-42011424D01*
X86216374Y-42011423D01*
X86080268Y-41920480D01*
X85964520Y-41804732D01*
X85873577Y-41668626D01*
X85873576Y-41668624D01*
X85810934Y-41517394D01*
X85779000Y-41356848D01*
X85779000Y-41193152D01*
X85810934Y-41032606D01*
X85873576Y-40881376D01*
X85873577Y-40881374D01*
X85964520Y-40745268D01*
X86080268Y-40629520D01*
X86216374Y-40538577D01*
X86216376Y-40538576D01*
X86367606Y-40475934D01*
X86528152Y-40444000D01*
X86691848Y-40444000D01*
X86852394Y-40475934D01*
X86852394Y-40475934D01*
G37*
G36*
X91932394Y-40475934D02*
G01*
X92083624Y-40538576D01*
X92083626Y-40538577D01*
X92219732Y-40629520D01*
X92335480Y-40745268D01*
X92426423Y-40881374D01*
X92426424Y-40881376D01*
X92489066Y-41032606D01*
X92521000Y-41193152D01*
X92521000Y-41356848D01*
X92489066Y-41517394D01*
X92426424Y-41668624D01*
X92426423Y-41668626D01*
X92335480Y-41804732D01*
X92219732Y-41920480D01*
X92083626Y-42011423D01*
X92083625Y-42011424D01*
X92083624Y-42011424D01*
X91932394Y-42074066D01*
X91771848Y-42106000D01*
X91608152Y-42106000D01*
X91447606Y-42074066D01*
X91296376Y-42011424D01*
X91296375Y-42011424D01*
X91296374Y-42011423D01*
X91160268Y-41920480D01*
X91044520Y-41804732D01*
X90953577Y-41668626D01*
X90953576Y-41668624D01*
X90890934Y-41517394D01*
X90859000Y-41356848D01*
X90859000Y-41193152D01*
X90890934Y-41032606D01*
X90953576Y-40881376D01*
X90953577Y-40881374D01*
X91044520Y-40745268D01*
X91160268Y-40629520D01*
X91296374Y-40538577D01*
X91296376Y-40538576D01*
X91447606Y-40475934D01*
X91608152Y-40444000D01*
X91771848Y-40444000D01*
X91932394Y-40475934D01*
X91932394Y-40475934D01*
G37*
G36*
X51966395Y-38963546D02*
G01*
X52139466Y-39035234D01*
X52139467Y-39035235D01*
X52295227Y-39139310D01*
X52427690Y-39271773D01*
X52427691Y-39271775D01*
X52531766Y-39427534D01*
X52603454Y-39600605D01*
X52640000Y-39784333D01*
X52640000Y-39971667D01*
X52603454Y-40155395D01*
X52531766Y-40328466D01*
X52531765Y-40328467D01*
X52427690Y-40484227D01*
X52295227Y-40616690D01*
X52276025Y-40629520D01*
X52139466Y-40720766D01*
X51966395Y-40792454D01*
X51782667Y-40829000D01*
X51595333Y-40829000D01*
X51411605Y-40792454D01*
X51238534Y-40720766D01*
X51101975Y-40629520D01*
X51082773Y-40616690D01*
X50950310Y-40484227D01*
X50846235Y-40328467D01*
X50846234Y-40328466D01*
X50774546Y-40155395D01*
X50738000Y-39971667D01*
X50738000Y-39784333D01*
X50774546Y-39600605D01*
X50846234Y-39427534D01*
X50950309Y-39271775D01*
X50950310Y-39271773D01*
X51082773Y-39139310D01*
X51238533Y-39035235D01*
X51238534Y-39035234D01*
X51411605Y-38963546D01*
X51595333Y-38927000D01*
X51782667Y-38927000D01*
X51966395Y-38963546D01*
X51966395Y-38963546D01*
G37*
G36*
X56284395Y-38963546D02*
G01*
X56457466Y-39035234D01*
X56457467Y-39035235D01*
X56613227Y-39139310D01*
X56745690Y-39271773D01*
X56745691Y-39271775D01*
X56849766Y-39427534D01*
X56921454Y-39600605D01*
X56958000Y-39784333D01*
X56958000Y-39971667D01*
X56921454Y-40155395D01*
X56849766Y-40328466D01*
X56849765Y-40328467D01*
X56745690Y-40484227D01*
X56613227Y-40616690D01*
X56594025Y-40629520D01*
X56457466Y-40720766D01*
X56284395Y-40792454D01*
X56100667Y-40829000D01*
X55913333Y-40829000D01*
X55729605Y-40792454D01*
X55556534Y-40720766D01*
X55419975Y-40629520D01*
X55400773Y-40616690D01*
X55268310Y-40484227D01*
X55164235Y-40328467D01*
X55164234Y-40328466D01*
X55092546Y-40155395D01*
X55056000Y-39971667D01*
X55056000Y-39784333D01*
X55092546Y-39600605D01*
X55164234Y-39427534D01*
X55268309Y-39271775D01*
X55268310Y-39271773D01*
X55400773Y-39139310D01*
X55556533Y-39035235D01*
X55556534Y-39035234D01*
X55729605Y-38963546D01*
X55913333Y-38927000D01*
X56100667Y-38927000D01*
X56284395Y-38963546D01*
X56284395Y-38963546D01*
G37*
G36*
X54125395Y-38963546D02*
G01*
X54298466Y-39035234D01*
X54298467Y-39035235D01*
X54454227Y-39139310D01*
X54586690Y-39271773D01*
X54586691Y-39271775D01*
X54690766Y-39427534D01*
X54762454Y-39600605D01*
X54799000Y-39784333D01*
X54799000Y-39971667D01*
X54762454Y-40155395D01*
X54690766Y-40328466D01*
X54690765Y-40328467D01*
X54586690Y-40484227D01*
X54454227Y-40616690D01*
X54435025Y-40629520D01*
X54298466Y-40720766D01*
X54125395Y-40792454D01*
X53941667Y-40829000D01*
X53754333Y-40829000D01*
X53570605Y-40792454D01*
X53397534Y-40720766D01*
X53260975Y-40629520D01*
X53241773Y-40616690D01*
X53109310Y-40484227D01*
X53005235Y-40328467D01*
X53005234Y-40328466D01*
X52933546Y-40155395D01*
X52897000Y-39971667D01*
X52897000Y-39784333D01*
X52933546Y-39600605D01*
X53005234Y-39427534D01*
X53109309Y-39271775D01*
X53109310Y-39271773D01*
X53241773Y-39139310D01*
X53397533Y-39035235D01*
X53397534Y-39035234D01*
X53570605Y-38963546D01*
X53754333Y-38927000D01*
X53941667Y-38927000D01*
X54125395Y-38963546D01*
X54125395Y-38963546D01*
G37*
G36*
X50481000Y-40829000D02*
G01*
X48579000Y-40829000D01*
X48579000Y-38927000D01*
X50481000Y-38927000D01*
X50481000Y-40829000D01*
X50481000Y-40829000D01*
G37*
G36*
X104725653Y-34908665D02*
G01*
X104889872Y-34941330D01*
X105199252Y-35069479D01*
X105477687Y-35255523D01*
X105714477Y-35492313D01*
X105900521Y-35770748D01*
X106028670Y-36080128D01*
X106041060Y-36142416D01*
X106077000Y-36323097D01*
X106094000Y-36408565D01*
X106094000Y-36743435D01*
X106028670Y-37071872D01*
X105900521Y-37381252D01*
X105714477Y-37659687D01*
X105477687Y-37896477D01*
X105199252Y-38082521D01*
X104889872Y-38210670D01*
X104725654Y-38243335D01*
X104561437Y-38276000D01*
X104226563Y-38276000D01*
X104062346Y-38243335D01*
X103898128Y-38210670D01*
X103588748Y-38082521D01*
X103310313Y-37896477D01*
X103073523Y-37659687D01*
X102887479Y-37381252D01*
X102759330Y-37071872D01*
X102694000Y-36743435D01*
X102694000Y-36408565D01*
X102711001Y-36323097D01*
X102746940Y-36142416D01*
X102759330Y-36080128D01*
X102887479Y-35770748D01*
X103073523Y-35492313D01*
X103310313Y-35255523D01*
X103588748Y-35069479D01*
X103898128Y-34941330D01*
X104062346Y-34908665D01*
X104226563Y-34876000D01*
X104561437Y-34876000D01*
X104725653Y-34908665D01*
X104725653Y-34908665D01*
G37*
G36*
X70435653Y-34908665D02*
G01*
X70599872Y-34941330D01*
X70909252Y-35069479D01*
X71187687Y-35255523D01*
X71424477Y-35492313D01*
X71610521Y-35770748D01*
X71738670Y-36080128D01*
X71751060Y-36142416D01*
X71787000Y-36323097D01*
X71804000Y-36408565D01*
X71804000Y-36743435D01*
X71738670Y-37071872D01*
X71610521Y-37381252D01*
X71424477Y-37659687D01*
X71187687Y-37896477D01*
X70909252Y-38082521D01*
X70599872Y-38210670D01*
X70435654Y-38243335D01*
X70271437Y-38276000D01*
X69936563Y-38276000D01*
X69772346Y-38243335D01*
X69608128Y-38210670D01*
X69298748Y-38082521D01*
X69020313Y-37896477D01*
X68783523Y-37659687D01*
X68597479Y-37381252D01*
X68469330Y-37071872D01*
X68404000Y-36743435D01*
X68404000Y-36408565D01*
X68421001Y-36323097D01*
X68456940Y-36142416D01*
X68469330Y-36080128D01*
X68597479Y-35770748D01*
X68783523Y-35492313D01*
X69020313Y-35255523D01*
X69298748Y-35069479D01*
X69608128Y-34941330D01*
X69772347Y-34908665D01*
X69936563Y-34876000D01*
X70271437Y-34876000D01*
X70435653Y-34908665D01*
X70435653Y-34908665D01*
G37*
G36*
X115045256Y-33251298D02*
G01*
X115151579Y-33272447D01*
X115452042Y-33396903D01*
X115722451Y-33577585D01*
X115952415Y-33807549D01*
X116133097Y-34077958D01*
X116257553Y-34378421D01*
X116321000Y-34697391D01*
X116321000Y-35022609D01*
X116257553Y-35341579D01*
X116133097Y-35642042D01*
X115952415Y-35912451D01*
X115722451Y-36142415D01*
X115452042Y-36323097D01*
X115151579Y-36447553D01*
X115045256Y-36468702D01*
X114832611Y-36511000D01*
X114507389Y-36511000D01*
X114294744Y-36468702D01*
X114188421Y-36447553D01*
X113887958Y-36323097D01*
X113617549Y-36142415D01*
X113387585Y-35912451D01*
X113206903Y-35642042D01*
X113082447Y-35341579D01*
X113019000Y-35022609D01*
X113019000Y-34697391D01*
X113082447Y-34378421D01*
X113206903Y-34077958D01*
X113387585Y-33807549D01*
X113617549Y-33577585D01*
X113887958Y-33396903D01*
X114188421Y-33272447D01*
X114294744Y-33251298D01*
X114507389Y-33209000D01*
X114832611Y-33209000D01*
X115045256Y-33251298D01*
X115045256Y-33251298D01*
G37*
G36*
X39045256Y-33251298D02*
G01*
X39151579Y-33272447D01*
X39452042Y-33396903D01*
X39722451Y-33577585D01*
X39952415Y-33807549D01*
X40133097Y-34077958D01*
X40257553Y-34378421D01*
X40321000Y-34697391D01*
X40321000Y-35022609D01*
X40257553Y-35341579D01*
X40133097Y-35642042D01*
X39952415Y-35912451D01*
X39722451Y-36142415D01*
X39452042Y-36323097D01*
X39151579Y-36447553D01*
X39045256Y-36468702D01*
X38832611Y-36511000D01*
X38507389Y-36511000D01*
X38294744Y-36468702D01*
X38188421Y-36447553D01*
X37887958Y-36323097D01*
X37617549Y-36142415D01*
X37387585Y-35912451D01*
X37206903Y-35642042D01*
X37082447Y-35341579D01*
X37019000Y-35022609D01*
X37019000Y-34697391D01*
X37082447Y-34378421D01*
X37206903Y-34077958D01*
X37387585Y-33807549D01*
X37617549Y-33577585D01*
X37887958Y-33396903D01*
X38188421Y-33272447D01*
X38294744Y-33251298D01*
X38507389Y-33209000D01*
X38832611Y-33209000D01*
X39045256Y-33251298D01*
X39045256Y-33251298D01*
G37*
G36*
X95360443Y-27045519D02*
G01*
X95426627Y-27052037D01*
X95596466Y-27103557D01*
X95752991Y-27187222D01*
X95788729Y-27216552D01*
X95890186Y-27299814D01*
X95948283Y-27370607D01*
X96002778Y-27437009D01*
X96086443Y-27593534D01*
X96137963Y-27763373D01*
X96155359Y-27940000D01*
X96137963Y-28116627D01*
X96086443Y-28286466D01*
X96002778Y-28442991D01*
X95973448Y-28478729D01*
X95890186Y-28580186D01*
X95788729Y-28663448D01*
X95752991Y-28692778D01*
X95596466Y-28776443D01*
X95426627Y-28827963D01*
X95360442Y-28834482D01*
X95294260Y-28841000D01*
X95205740Y-28841000D01*
X95139558Y-28834482D01*
X95073373Y-28827963D01*
X94903534Y-28776443D01*
X94747009Y-28692778D01*
X94711271Y-28663448D01*
X94609814Y-28580186D01*
X94526552Y-28478729D01*
X94497222Y-28442991D01*
X94413557Y-28286466D01*
X94362037Y-28116627D01*
X94344641Y-27940000D01*
X94362037Y-27763373D01*
X94413557Y-27593534D01*
X94497222Y-27437009D01*
X94551717Y-27370607D01*
X94609814Y-27299814D01*
X94711271Y-27216552D01*
X94747009Y-27187222D01*
X94903534Y-27103557D01*
X95073373Y-27052037D01*
X95139557Y-27045519D01*
X95205740Y-27039000D01*
X95294260Y-27039000D01*
X95360443Y-27045519D01*
X95360443Y-27045519D01*
G37*
G36*
X100440443Y-27045519D02*
G01*
X100506627Y-27052037D01*
X100676466Y-27103557D01*
X100832991Y-27187222D01*
X100868729Y-27216552D01*
X100970186Y-27299814D01*
X101028283Y-27370607D01*
X101082778Y-27437009D01*
X101166443Y-27593534D01*
X101217963Y-27763373D01*
X101235359Y-27940000D01*
X101217963Y-28116627D01*
X101166443Y-28286466D01*
X101082778Y-28442991D01*
X101053448Y-28478729D01*
X100970186Y-28580186D01*
X100868729Y-28663448D01*
X100832991Y-28692778D01*
X100676466Y-28776443D01*
X100506627Y-28827963D01*
X100440442Y-28834482D01*
X100374260Y-28841000D01*
X100285740Y-28841000D01*
X100219558Y-28834482D01*
X100153373Y-28827963D01*
X99983534Y-28776443D01*
X99827009Y-28692778D01*
X99791271Y-28663448D01*
X99689814Y-28580186D01*
X99606552Y-28478729D01*
X99577222Y-28442991D01*
X99493557Y-28286466D01*
X99442037Y-28116627D01*
X99424641Y-27940000D01*
X99442037Y-27763373D01*
X99493557Y-27593534D01*
X99577222Y-27437009D01*
X99631717Y-27370607D01*
X99689814Y-27299814D01*
X99791271Y-27216552D01*
X99827009Y-27187222D01*
X99983534Y-27103557D01*
X100153373Y-27052037D01*
X100219557Y-27045519D01*
X100285740Y-27039000D01*
X100374260Y-27039000D01*
X100440443Y-27045519D01*
X100440443Y-27045519D01*
G37*
G36*
X106311000Y-28841000D02*
G01*
X104509000Y-28841000D01*
X104509000Y-27039000D01*
X106311000Y-27039000D01*
X106311000Y-28841000D01*
X106311000Y-28841000D01*
G37*
G36*
X85991000Y-28841000D02*
G01*
X84189000Y-28841000D01*
X84189000Y-27039000D01*
X85991000Y-27039000D01*
X85991000Y-28841000D01*
X85991000Y-28841000D01*
G37*
G36*
X87740443Y-27045519D02*
G01*
X87806627Y-27052037D01*
X87976466Y-27103557D01*
X88132991Y-27187222D01*
X88168729Y-27216552D01*
X88270186Y-27299814D01*
X88328283Y-27370607D01*
X88382778Y-27437009D01*
X88466443Y-27593534D01*
X88517963Y-27763373D01*
X88535359Y-27940000D01*
X88517963Y-28116627D01*
X88466443Y-28286466D01*
X88382778Y-28442991D01*
X88353448Y-28478729D01*
X88270186Y-28580186D01*
X88168729Y-28663448D01*
X88132991Y-28692778D01*
X87976466Y-28776443D01*
X87806627Y-28827963D01*
X87740442Y-28834482D01*
X87674260Y-28841000D01*
X87585740Y-28841000D01*
X87519558Y-28834482D01*
X87453373Y-28827963D01*
X87283534Y-28776443D01*
X87127009Y-28692778D01*
X87091271Y-28663448D01*
X86989814Y-28580186D01*
X86906552Y-28478729D01*
X86877222Y-28442991D01*
X86793557Y-28286466D01*
X86742037Y-28116627D01*
X86724641Y-27940000D01*
X86742037Y-27763373D01*
X86793557Y-27593534D01*
X86877222Y-27437009D01*
X86931717Y-27370607D01*
X86989814Y-27299814D01*
X87091271Y-27216552D01*
X87127009Y-27187222D01*
X87283534Y-27103557D01*
X87453373Y-27052037D01*
X87519557Y-27045519D01*
X87585740Y-27039000D01*
X87674260Y-27039000D01*
X87740443Y-27045519D01*
X87740443Y-27045519D01*
G37*
G36*
X90280443Y-27045519D02*
G01*
X90346627Y-27052037D01*
X90516466Y-27103557D01*
X90672991Y-27187222D01*
X90708729Y-27216552D01*
X90810186Y-27299814D01*
X90868283Y-27370607D01*
X90922778Y-27437009D01*
X91006443Y-27593534D01*
X91057963Y-27763373D01*
X91075359Y-27940000D01*
X91057963Y-28116627D01*
X91006443Y-28286466D01*
X90922778Y-28442991D01*
X90893448Y-28478729D01*
X90810186Y-28580186D01*
X90708729Y-28663448D01*
X90672991Y-28692778D01*
X90516466Y-28776443D01*
X90346627Y-28827963D01*
X90280442Y-28834482D01*
X90214260Y-28841000D01*
X90125740Y-28841000D01*
X90059558Y-28834482D01*
X89993373Y-28827963D01*
X89823534Y-28776443D01*
X89667009Y-28692778D01*
X89631271Y-28663448D01*
X89529814Y-28580186D01*
X89446552Y-28478729D01*
X89417222Y-28442991D01*
X89333557Y-28286466D01*
X89282037Y-28116627D01*
X89264641Y-27940000D01*
X89282037Y-27763373D01*
X89333557Y-27593534D01*
X89417222Y-27437009D01*
X89471717Y-27370607D01*
X89529814Y-27299814D01*
X89631271Y-27216552D01*
X89667009Y-27187222D01*
X89823534Y-27103557D01*
X89993373Y-27052037D01*
X90059557Y-27045519D01*
X90125740Y-27039000D01*
X90214260Y-27039000D01*
X90280443Y-27045519D01*
X90280443Y-27045519D01*
G37*
G36*
X92820443Y-27045519D02*
G01*
X92886627Y-27052037D01*
X93056466Y-27103557D01*
X93212991Y-27187222D01*
X93248729Y-27216552D01*
X93350186Y-27299814D01*
X93408283Y-27370607D01*
X93462778Y-27437009D01*
X93546443Y-27593534D01*
X93597963Y-27763373D01*
X93615359Y-27940000D01*
X93597963Y-28116627D01*
X93546443Y-28286466D01*
X93462778Y-28442991D01*
X93433448Y-28478729D01*
X93350186Y-28580186D01*
X93248729Y-28663448D01*
X93212991Y-28692778D01*
X93056466Y-28776443D01*
X92886627Y-28827963D01*
X92820442Y-28834482D01*
X92754260Y-28841000D01*
X92665740Y-28841000D01*
X92599558Y-28834482D01*
X92533373Y-28827963D01*
X92363534Y-28776443D01*
X92207009Y-28692778D01*
X92171271Y-28663448D01*
X92069814Y-28580186D01*
X91986552Y-28478729D01*
X91957222Y-28442991D01*
X91873557Y-28286466D01*
X91822037Y-28116627D01*
X91804641Y-27940000D01*
X91822037Y-27763373D01*
X91873557Y-27593534D01*
X91957222Y-27437009D01*
X92011717Y-27370607D01*
X92069814Y-27299814D01*
X92171271Y-27216552D01*
X92207009Y-27187222D01*
X92363534Y-27103557D01*
X92533373Y-27052037D01*
X92599557Y-27045519D01*
X92665740Y-27039000D01*
X92754260Y-27039000D01*
X92820443Y-27045519D01*
X92820443Y-27045519D01*
G37*
G36*
X97900443Y-27045519D02*
G01*
X97966627Y-27052037D01*
X98136466Y-27103557D01*
X98292991Y-27187222D01*
X98328729Y-27216552D01*
X98430186Y-27299814D01*
X98488283Y-27370607D01*
X98542778Y-27437009D01*
X98626443Y-27593534D01*
X98677963Y-27763373D01*
X98695359Y-27940000D01*
X98677963Y-28116627D01*
X98626443Y-28286466D01*
X98542778Y-28442991D01*
X98513448Y-28478729D01*
X98430186Y-28580186D01*
X98328729Y-28663448D01*
X98292991Y-28692778D01*
X98136466Y-28776443D01*
X97966627Y-28827963D01*
X97900442Y-28834482D01*
X97834260Y-28841000D01*
X97745740Y-28841000D01*
X97679558Y-28834482D01*
X97613373Y-28827963D01*
X97443534Y-28776443D01*
X97287009Y-28692778D01*
X97251271Y-28663448D01*
X97149814Y-28580186D01*
X97066552Y-28478729D01*
X97037222Y-28442991D01*
X96953557Y-28286466D01*
X96902037Y-28116627D01*
X96884641Y-27940000D01*
X96902037Y-27763373D01*
X96953557Y-27593534D01*
X97037222Y-27437009D01*
X97091717Y-27370607D01*
X97149814Y-27299814D01*
X97251271Y-27216552D01*
X97287009Y-27187222D01*
X97443534Y-27103557D01*
X97613373Y-27052037D01*
X97679557Y-27045519D01*
X97745740Y-27039000D01*
X97834260Y-27039000D01*
X97900443Y-27045519D01*
X97900443Y-27045519D01*
G37*
G36*
X108060443Y-27045519D02*
G01*
X108126627Y-27052037D01*
X108296466Y-27103557D01*
X108452991Y-27187222D01*
X108488729Y-27216552D01*
X108590186Y-27299814D01*
X108648283Y-27370607D01*
X108702778Y-27437009D01*
X108786443Y-27593534D01*
X108837963Y-27763373D01*
X108855359Y-27940000D01*
X108837963Y-28116627D01*
X108786443Y-28286466D01*
X108702778Y-28442991D01*
X108673448Y-28478729D01*
X108590186Y-28580186D01*
X108488729Y-28663448D01*
X108452991Y-28692778D01*
X108296466Y-28776443D01*
X108126627Y-28827963D01*
X108060442Y-28834482D01*
X107994260Y-28841000D01*
X107905740Y-28841000D01*
X107839558Y-28834482D01*
X107773373Y-28827963D01*
X107603534Y-28776443D01*
X107447009Y-28692778D01*
X107411271Y-28663448D01*
X107309814Y-28580186D01*
X107226552Y-28478729D01*
X107197222Y-28442991D01*
X107113557Y-28286466D01*
X107062037Y-28116627D01*
X107044641Y-27940000D01*
X107062037Y-27763373D01*
X107113557Y-27593534D01*
X107197222Y-27437009D01*
X107251717Y-27370607D01*
X107309814Y-27299814D01*
X107411271Y-27216552D01*
X107447009Y-27187222D01*
X107603534Y-27103557D01*
X107773373Y-27052037D01*
X107839557Y-27045519D01*
X107905740Y-27039000D01*
X107994260Y-27039000D01*
X108060443Y-27045519D01*
X108060443Y-27045519D01*
G37*
G36*
X73823642Y-26089781D02*
G01*
X73969414Y-26150162D01*
X73969416Y-26150163D01*
X74100608Y-26237822D01*
X74212178Y-26349392D01*
X74299837Y-26480584D01*
X74299838Y-26480586D01*
X74360219Y-26626358D01*
X74391000Y-26781107D01*
X74391000Y-26938893D01*
X74360219Y-27093642D01*
X74299838Y-27239414D01*
X74299837Y-27239416D01*
X74212178Y-27370608D01*
X74100608Y-27482178D01*
X73969416Y-27569837D01*
X73969415Y-27569838D01*
X73969414Y-27569838D01*
X73823642Y-27630219D01*
X73668893Y-27661000D01*
X73511107Y-27661000D01*
X73356358Y-27630219D01*
X73210586Y-27569838D01*
X73210585Y-27569838D01*
X73210584Y-27569837D01*
X73079392Y-27482178D01*
X72967822Y-27370608D01*
X72880163Y-27239416D01*
X72880162Y-27239414D01*
X72819781Y-27093642D01*
X72789000Y-26938893D01*
X72789000Y-26781107D01*
X72819781Y-26626358D01*
X72880162Y-26480586D01*
X72880163Y-26480584D01*
X72967822Y-26349392D01*
X73079392Y-26237822D01*
X73210584Y-26150163D01*
X73210586Y-26150162D01*
X73356358Y-26089781D01*
X73511107Y-26059000D01*
X73668893Y-26059000D01*
X73823642Y-26089781D01*
X73823642Y-26089781D01*
G37*
G36*
X79471000Y-27661000D02*
G01*
X77869000Y-27661000D01*
X77869000Y-26059000D01*
X79471000Y-26059000D01*
X79471000Y-27661000D01*
X79471000Y-27661000D01*
G37*
G36*
X76363642Y-26089781D02*
G01*
X76509414Y-26150162D01*
X76509416Y-26150163D01*
X76640608Y-26237822D01*
X76752178Y-26349392D01*
X76839837Y-26480584D01*
X76839838Y-26480586D01*
X76900219Y-26626358D01*
X76931000Y-26781107D01*
X76931000Y-26938893D01*
X76900219Y-27093642D01*
X76839838Y-27239414D01*
X76839837Y-27239416D01*
X76752178Y-27370608D01*
X76640608Y-27482178D01*
X76509416Y-27569837D01*
X76509415Y-27569838D01*
X76509414Y-27569838D01*
X76363642Y-27630219D01*
X76208893Y-27661000D01*
X76051107Y-27661000D01*
X75896358Y-27630219D01*
X75750586Y-27569838D01*
X75750585Y-27569838D01*
X75750584Y-27569837D01*
X75619392Y-27482178D01*
X75507822Y-27370608D01*
X75420163Y-27239416D01*
X75420162Y-27239414D01*
X75359781Y-27093642D01*
X75329000Y-26938893D01*
X75329000Y-26781107D01*
X75359781Y-26626358D01*
X75420162Y-26480586D01*
X75420163Y-26480584D01*
X75507822Y-26349392D01*
X75619392Y-26237822D01*
X75750584Y-26150163D01*
X75750586Y-26150162D01*
X75896358Y-26089781D01*
X76051107Y-26059000D01*
X76208893Y-26059000D01*
X76363642Y-26089781D01*
X76363642Y-26089781D01*
G37*
G36*
X71283642Y-26089781D02*
G01*
X71429414Y-26150162D01*
X71429416Y-26150163D01*
X71560608Y-26237822D01*
X71672178Y-26349392D01*
X71759837Y-26480584D01*
X71759838Y-26480586D01*
X71820219Y-26626358D01*
X71851000Y-26781107D01*
X71851000Y-26938893D01*
X71820219Y-27093642D01*
X71759838Y-27239414D01*
X71759837Y-27239416D01*
X71672178Y-27370608D01*
X71560608Y-27482178D01*
X71429416Y-27569837D01*
X71429415Y-27569838D01*
X71429414Y-27569838D01*
X71283642Y-27630219D01*
X71128893Y-27661000D01*
X70971107Y-27661000D01*
X70816358Y-27630219D01*
X70670586Y-27569838D01*
X70670585Y-27569838D01*
X70670584Y-27569837D01*
X70539392Y-27482178D01*
X70427822Y-27370608D01*
X70340163Y-27239416D01*
X70340162Y-27239414D01*
X70279781Y-27093642D01*
X70249000Y-26938893D01*
X70249000Y-26781107D01*
X70279781Y-26626358D01*
X70340162Y-26480586D01*
X70340163Y-26480584D01*
X70427822Y-26349392D01*
X70539392Y-26237822D01*
X70670584Y-26150163D01*
X70670586Y-26150162D01*
X70816358Y-26089781D01*
X70971107Y-26059000D01*
X71128893Y-26059000D01*
X71283642Y-26089781D01*
X71283642Y-26089781D01*
G37*
G36*
X52418228Y-25041703D02*
G01*
X52573100Y-25105853D01*
X52712481Y-25198985D01*
X52831015Y-25317519D01*
X52924147Y-25456900D01*
X52988297Y-25611772D01*
X53021000Y-25776184D01*
X53021000Y-25943816D01*
X52988297Y-26108228D01*
X52924147Y-26263100D01*
X52831015Y-26402481D01*
X52712481Y-26521015D01*
X52573100Y-26614147D01*
X52418228Y-26678297D01*
X52253816Y-26711000D01*
X52086184Y-26711000D01*
X51921772Y-26678297D01*
X51766900Y-26614147D01*
X51627519Y-26521015D01*
X51508985Y-26402481D01*
X51415853Y-26263100D01*
X51351703Y-26108228D01*
X51319000Y-25943816D01*
X51319000Y-25776184D01*
X51351703Y-25611772D01*
X51415853Y-25456900D01*
X51508985Y-25317519D01*
X51627519Y-25198985D01*
X51766900Y-25105853D01*
X51921772Y-25041703D01*
X52086184Y-25009000D01*
X52253816Y-25009000D01*
X52418228Y-25041703D01*
X52418228Y-25041703D01*
G37*
G36*
X55418228Y-25041703D02*
G01*
X55573100Y-25105853D01*
X55712481Y-25198985D01*
X55831015Y-25317519D01*
X55924147Y-25456900D01*
X55988297Y-25611772D01*
X56021000Y-25776184D01*
X56021000Y-25943816D01*
X55988297Y-26108228D01*
X55924147Y-26263100D01*
X55831015Y-26402481D01*
X55712481Y-26521015D01*
X55573100Y-26614147D01*
X55418228Y-26678297D01*
X55253816Y-26711000D01*
X55086184Y-26711000D01*
X54921772Y-26678297D01*
X54766900Y-26614147D01*
X54627519Y-26521015D01*
X54508985Y-26402481D01*
X54415853Y-26263100D01*
X54351703Y-26108228D01*
X54319000Y-25943816D01*
X54319000Y-25776184D01*
X54351703Y-25611772D01*
X54415853Y-25456900D01*
X54508985Y-25317519D01*
X54627519Y-25198985D01*
X54766900Y-25105853D01*
X54921772Y-25041703D01*
X55086184Y-25009000D01*
X55253816Y-25009000D01*
X55418228Y-25041703D01*
X55418228Y-25041703D01*
G37*
G36*
X63903642Y-25089781D02*
G01*
X64049414Y-25150162D01*
X64049416Y-25150163D01*
X64180608Y-25237822D01*
X64292178Y-25349392D01*
X64364012Y-25456900D01*
X64379838Y-25480586D01*
X64440219Y-25626358D01*
X64471000Y-25781107D01*
X64471000Y-25938893D01*
X64440219Y-26093642D01*
X64416807Y-26150163D01*
X64379837Y-26239416D01*
X64292178Y-26370608D01*
X64180608Y-26482178D01*
X64049416Y-26569837D01*
X64049415Y-26569838D01*
X64049414Y-26569838D01*
X63903642Y-26630219D01*
X63748893Y-26661000D01*
X63591107Y-26661000D01*
X63436358Y-26630219D01*
X63290586Y-26569838D01*
X63290585Y-26569838D01*
X63290584Y-26569837D01*
X63159392Y-26482178D01*
X63047822Y-26370608D01*
X62960163Y-26239416D01*
X62923193Y-26150163D01*
X62899781Y-26093642D01*
X62869000Y-25938893D01*
X62869000Y-25781107D01*
X62899781Y-25626358D01*
X62960162Y-25480586D01*
X62975988Y-25456900D01*
X63047822Y-25349392D01*
X63159392Y-25237822D01*
X63290584Y-25150163D01*
X63290586Y-25150162D01*
X63436358Y-25089781D01*
X63591107Y-25059000D01*
X63748893Y-25059000D01*
X63903642Y-25089781D01*
X63903642Y-25089781D01*
G37*
G36*
X67011000Y-26661000D02*
G01*
X65409000Y-26661000D01*
X65409000Y-25059000D01*
X67011000Y-25059000D01*
X67011000Y-26661000D01*
X67011000Y-26661000D01*
G37*
G36*
X61363642Y-25089781D02*
G01*
X61509414Y-25150162D01*
X61509416Y-25150163D01*
X61640608Y-25237822D01*
X61752178Y-25349392D01*
X61824012Y-25456900D01*
X61839838Y-25480586D01*
X61900219Y-25626358D01*
X61931000Y-25781107D01*
X61931000Y-25938893D01*
X61900219Y-26093642D01*
X61876807Y-26150163D01*
X61839837Y-26239416D01*
X61752178Y-26370608D01*
X61640608Y-26482178D01*
X61509416Y-26569837D01*
X61509415Y-26569838D01*
X61509414Y-26569838D01*
X61363642Y-26630219D01*
X61208893Y-26661000D01*
X61051107Y-26661000D01*
X60896358Y-26630219D01*
X60750586Y-26569838D01*
X60750585Y-26569838D01*
X60750584Y-26569837D01*
X60619392Y-26482178D01*
X60507822Y-26370608D01*
X60420163Y-26239416D01*
X60383193Y-26150163D01*
X60359781Y-26093642D01*
X60329000Y-25938893D01*
X60329000Y-25781107D01*
X60359781Y-25626358D01*
X60420162Y-25480586D01*
X60435988Y-25456900D01*
X60507822Y-25349392D01*
X60619392Y-25237822D01*
X60750584Y-25150163D01*
X60750586Y-25150162D01*
X60896358Y-25089781D01*
X61051107Y-25059000D01*
X61208893Y-25059000D01*
X61363642Y-25089781D01*
X61363642Y-25089781D01*
G37*
M02*
