M48
; DRILL file {KiCad (5.1.0)-1} date 12.05.2019 21:15:27
; FORMAT={-:-/ absolute / inch / decimal}
; #@! TF.CreationDate,2019-05-12T21:15:27+02:00
; #@! TF.GenerationSoftware,Kicad,Pcbnew,(5.1.0)-1
; #@! TF.FileFunction,Plated,1,2,PTH
FMAT,2
INCH
T1C0.0157
T2C0.0300
T3C0.0315
T4C0.0354
T5C0.0394
T6C0.0433
T7C0.0591
%
G90
G05
T1
X1.1257Y-1.4933
X1.1854Y-1.6919
X1.337Y-1.3916
X1.3671Y-1.5849
X1.3962Y-1.4224
X1.4141Y-1.897
X1.4218Y-1.9463
X1.4636Y-1.6415
X1.465Y-0.2256
X1.4959Y-1.6921
X1.631Y-0.7939
X1.6842Y-0.9058
X1.7245Y-0.7032
X1.74Y-1.09
X1.7469Y-2.5963
X1.82Y-0.22
X1.8469Y-1.371
X1.8598Y-0.973
X1.87Y-0.59
X1.8854Y-2.2617
X1.9239Y-0.6339
X1.98Y-1.4
X1.9976Y-1.3021
X2.0023Y-0.9941
X2.0028Y-1.0651
X2.0512Y-1.0275
X2.0519Y-1.3523
X2.0967Y-1.1996
X2.1766Y-1.3834
X2.4068Y-0.2628
X2.4656Y-1.9438
X2.6903Y-2.1112
X2.717Y-0.9058
X2.8268Y-1.383
X3.0914Y-1.4382
X3.0943Y-1.5128
X3.1607Y-1.5686
X3.2025Y-1.5803
X3.2139Y-1.622
X3.2394Y-0.9604
X3.3272Y-0.9798
X3.3286Y-1.0704
X3.3713Y-1.3613
X3.4037Y-0.9278
X3.4368Y-1.2632
X3.4448Y-1.0343
X3.5Y-1.3665
X3.5663Y-1.6892
T2
X2.0368Y-2.0787
X2.1368Y-2.0787
X2.2368Y-2.0787
X2.3368Y-2.0787
X2.4368Y-2.0787
X2.5368Y-2.0787
X2.6368Y-2.0787
X2.7368Y-2.0787
T3
X3.7402Y-2.0472
X3.7402Y-2.1457
X1.7472Y-0.1575
X1.8472Y-0.1575
X1.9472Y-0.1575
X2.0472Y-0.1575
X2.1546Y-1.107
X2.1546Y-1.207
X2.1546Y-1.307
X3.4252Y-2.0472
X3.4252Y-2.1457
X1.8598Y-0.7598
X1.8598Y-1.7598
X1.9598Y-0.7598
X1.9598Y-1.7598
X2.0598Y-0.7598
X2.0598Y-1.7598
X2.1598Y-0.7598
X2.1598Y-1.7598
X2.2598Y-0.7598
X2.2598Y-1.7598
X2.3598Y-0.7598
X2.3598Y-1.7598
X2.4598Y-0.7598
X2.4598Y-1.7598
X2.5598Y-0.7598
X2.5598Y-1.7598
X2.6598Y-0.7598
X2.6598Y-1.7598
X2.7598Y-0.7598
X2.7598Y-1.7598
X2.8598Y-0.7598
X2.8598Y-1.7598
X2.9598Y-0.7598
X2.9598Y-1.7598
X3.0598Y-0.7598
X3.0598Y-1.7598
X3.1598Y-0.7598
X3.1598Y-1.7598
X3.2598Y-0.7598
X3.2598Y-1.7598
X3.3598Y-0.7598
X3.3598Y-1.7598
X3.4598Y-0.7598
X3.4598Y-1.7598
X3.5598Y-0.7598
X3.5598Y-1.7598
X3.6598Y-0.7598
X3.6598Y-1.7598
X2.3908Y-1.107
X2.3908Y-1.207
X2.3908Y-1.307
X2.627Y-1.107
X2.627Y-1.207
X2.627Y-1.307
X1.0039Y-0.1181
X1.122Y-0.1181
X1.3567Y-0.1181
X1.4567Y-0.1181
X1.5567Y-0.1181
X2.8633Y-1.107
X2.8633Y-1.207
X2.8633Y-1.307
T4
X0.6961Y-2.1098
X0.7961Y-2.1098
X0.9Y-0.67
X0.985Y-0.67
X1.07Y-0.67
X1.155Y-0.67
X0.9571Y-1.1374
X1.0571Y-1.1374
X0.5642Y-1.6409
X0.6642Y-1.6409
X0.2902Y-1.7732
X0.3902Y-1.7732
X0.628Y-1.4051
X0.728Y-1.4051
X0.31Y-1.13
X0.41Y-1.13
X0.3461Y-1.4661
X0.4461Y-1.4661
X0.6189Y-0.9327
X0.7189Y-0.9327
X0.8906Y-1.5512
X0.9906Y-1.5512
X0.5906Y-1.8429
X0.6906Y-1.8429
X0.3583Y-2.0165
X0.4583Y-2.0165
X0.9323Y-1.8291
X1.0323Y-1.8291
T5
X2.7362Y-2.2441
X2.7362Y-2.815
X2.8346Y-2.815
X2.9331Y-2.2441
X2.9331Y-2.815
X1.1693Y-2.5575
X1.1693Y-2.6575
X1.1693Y-2.7575
X0.7693Y-2.5575
X0.7693Y-2.6575
X0.7693Y-2.7575
X1.1024Y-2.126
X1.4016Y-2.126
X1.6142Y-2.5394
X1.6142Y-2.6394
X1.6142Y-2.7394
X1.6142Y-2.8394
X0.9693Y-2.5575
X0.9693Y-2.6575
X0.9693Y-2.7575
X1.2693Y-2.5575
X1.2693Y-2.6575
X1.2693Y-2.7575
X1.7323Y-2.7394
X1.7323Y-2.8394
X2.3622Y-0.1969
X2.4622Y-0.1969
X2.5622Y-0.1969
X2.6622Y-0.1969
X2.7622Y-0.1969
X2.8622Y-0.1969
X2.9622Y-0.1969
X3.0622Y-0.1969
X3.1622Y-0.1969
X1.9488Y-2.7953
X2.0472Y-2.7953
X2.1457Y-2.7953
X1.3693Y-2.5575
X1.3693Y-2.6575
X1.3693Y-2.7575
X1.0693Y-2.5575
X1.0693Y-2.6575
X1.0693Y-2.7575
X0.8693Y-2.5575
X0.8693Y-2.6575
X0.8693Y-2.7575
T6
X1.2142Y-0.8764
X1.2142Y-1.0535
X1.4701Y-0.8764
X1.4701Y-1.0535
X1.2142Y-1.2764
X1.2142Y-1.4535
X1.4701Y-1.2764
X1.4701Y-1.4535
T7
G00X2.6142Y-2.5453
M15
G01X2.6142Y-2.4941
M16
G05
G00X3.0551Y-2.5453
M15
G01X3.0551Y-2.4941
M16
G05
T0
M30
