G04 #@! TF.GenerationSoftware,KiCad,Pcbnew,(5.1.0)-1*
G04 #@! TF.CreationDate,2019-05-12T21:15:30+02:00*
G04 #@! TF.ProjectId,ESP32 dev board,45535033-3220-4646-9576-20626f617264,rev?*
G04 #@! TF.SameCoordinates,Original*
G04 #@! TF.FileFunction,Profile,NP*
%FSLAX46Y46*%
G04 Gerber Fmt 4.6, Leading zero omitted, Abs format (unit mm)*
G04 Created by KiCad (PCBNEW (5.1.0)-1) date 2019-05-12 21:15:30*
%MOMM*%
%LPD*%
G04 APERTURE LIST*
%ADD10C,0.150000*%
G04 APERTURE END LIST*
D10*
X100000000Y-59000000D02*
X100000000Y-16000000D01*
X92000000Y-59000000D02*
X100000000Y-59000000D01*
X92000000Y-67000000D02*
X92000000Y-59000000D01*
X84000000Y-67000000D02*
X92000000Y-67000000D01*
X84000000Y-75000000D02*
X84000000Y-67000000D01*
X16000000Y-75000000D02*
X84000000Y-75000000D01*
X16000000Y-67000000D02*
X16000000Y-75000000D01*
X8000000Y-67000000D02*
X16000000Y-67000000D01*
X8000000Y-59000000D02*
X8000000Y-67000000D01*
X0Y-59000000D02*
X8000000Y-59000000D01*
X0Y-16000000D02*
X0Y-59000000D01*
X92000000Y-16000000D02*
X100000000Y-16000000D01*
X92000000Y-8000000D02*
X92000000Y-16000000D01*
X84000000Y-8000000D02*
X92000000Y-8000000D01*
X84000000Y0D02*
X84000000Y-8000000D01*
X16000000Y0D02*
X84000000Y0D01*
X8000000Y-16000000D02*
X0Y-16000000D01*
X8000000Y-8000000D02*
X8000000Y-16000000D01*
X16000000Y-8000000D02*
X8000000Y-8000000D01*
X16000000Y0D02*
X16000000Y-8000000D01*
M02*
