G04 #@! TF.GenerationSoftware,KiCad,Pcbnew,(5.1.0)-1*
G04 #@! TF.CreationDate,2019-05-12T21:15:30+02:00*
G04 #@! TF.ProjectId,ESP32 dev board,45535033-3220-4646-9576-20626f617264,rev?*
G04 #@! TF.SameCoordinates,Original*
G04 #@! TF.FileFunction,Soldermask,Top*
G04 #@! TF.FilePolarity,Negative*
%FSLAX46Y46*%
G04 Gerber Fmt 4.6, Leading zero omitted, Abs format (unit mm)*
G04 Created by KiCad (PCBNEW (5.1.0)-1) date 2019-05-12 21:15:30*
%MOMM*%
%LPD*%
G04 APERTURE LIST*
%ADD10C,0.100000*%
G04 APERTURE END LIST*
D10*
G36*
X44110443Y-71225519D02*
G01*
X44176627Y-71232037D01*
X44346466Y-71283557D01*
X44502991Y-71367222D01*
X44538647Y-71396484D01*
X44640186Y-71479814D01*
X44723448Y-71581271D01*
X44752778Y-71617009D01*
X44836443Y-71773534D01*
X44887963Y-71943373D01*
X44905359Y-72120000D01*
X44887963Y-72296627D01*
X44836443Y-72466466D01*
X44752778Y-72622991D01*
X44723448Y-72658729D01*
X44640186Y-72760186D01*
X44538729Y-72843448D01*
X44502991Y-72872778D01*
X44346466Y-72956443D01*
X44176627Y-73007963D01*
X44110442Y-73014482D01*
X44044260Y-73021000D01*
X43955740Y-73021000D01*
X43889558Y-73014482D01*
X43823373Y-73007963D01*
X43653534Y-72956443D01*
X43497009Y-72872778D01*
X43461271Y-72843448D01*
X43359814Y-72760186D01*
X43276552Y-72658729D01*
X43247222Y-72622991D01*
X43163557Y-72466466D01*
X43112037Y-72296627D01*
X43094641Y-72120000D01*
X43112037Y-71943373D01*
X43163557Y-71773534D01*
X43247222Y-71617009D01*
X43276552Y-71581271D01*
X43359814Y-71479814D01*
X43461353Y-71396484D01*
X43497009Y-71367222D01*
X43653534Y-71283557D01*
X43823373Y-71232037D01*
X43889557Y-71225519D01*
X43955740Y-71219000D01*
X44044260Y-71219000D01*
X44110443Y-71225519D01*
X44110443Y-71225519D01*
G37*
G36*
X41110443Y-71225519D02*
G01*
X41176627Y-71232037D01*
X41346466Y-71283557D01*
X41502991Y-71367222D01*
X41538647Y-71396484D01*
X41640186Y-71479814D01*
X41723448Y-71581271D01*
X41752778Y-71617009D01*
X41836443Y-71773534D01*
X41887963Y-71943373D01*
X41905359Y-72120000D01*
X41887963Y-72296627D01*
X41836443Y-72466466D01*
X41752778Y-72622991D01*
X41723448Y-72658729D01*
X41640186Y-72760186D01*
X41538729Y-72843448D01*
X41502991Y-72872778D01*
X41346466Y-72956443D01*
X41176627Y-73007963D01*
X41110442Y-73014482D01*
X41044260Y-73021000D01*
X40955740Y-73021000D01*
X40889558Y-73014482D01*
X40823373Y-73007963D01*
X40653534Y-72956443D01*
X40497009Y-72872778D01*
X40461271Y-72843448D01*
X40359814Y-72760186D01*
X40276552Y-72658729D01*
X40247222Y-72622991D01*
X40163557Y-72466466D01*
X40112037Y-72296627D01*
X40094641Y-72120000D01*
X40112037Y-71943373D01*
X40163557Y-71773534D01*
X40247222Y-71617009D01*
X40276552Y-71581271D01*
X40359814Y-71479814D01*
X40461353Y-71396484D01*
X40497009Y-71367222D01*
X40653534Y-71283557D01*
X40823373Y-71232037D01*
X40889557Y-71225519D01*
X40955740Y-71219000D01*
X41044260Y-71219000D01*
X41110443Y-71225519D01*
X41110443Y-71225519D01*
G37*
G36*
X74806564Y-70489389D02*
G01*
X74951767Y-70549534D01*
X74997835Y-70568616D01*
X75169973Y-70683635D01*
X75316365Y-70830027D01*
X75347379Y-70876442D01*
X75431385Y-71002167D01*
X75510611Y-71193436D01*
X75551000Y-71396484D01*
X75551000Y-71603516D01*
X75510611Y-71806564D01*
X75453943Y-71943373D01*
X75431384Y-71997835D01*
X75316365Y-72169973D01*
X75169973Y-72316365D01*
X74997835Y-72431384D01*
X74997834Y-72431385D01*
X74997833Y-72431385D01*
X74806564Y-72510611D01*
X74603516Y-72551000D01*
X74396484Y-72551000D01*
X74193436Y-72510611D01*
X74002167Y-72431385D01*
X74002166Y-72431385D01*
X74002165Y-72431384D01*
X73830027Y-72316365D01*
X73683635Y-72169973D01*
X73568616Y-71997835D01*
X73546057Y-71943373D01*
X73489389Y-71806564D01*
X73449000Y-71603516D01*
X73449000Y-71396484D01*
X73489389Y-71193436D01*
X73568615Y-71002167D01*
X73652622Y-70876442D01*
X73683635Y-70830027D01*
X73830027Y-70683635D01*
X74002165Y-70568616D01*
X74048233Y-70549534D01*
X74193436Y-70489389D01*
X74396484Y-70449000D01*
X74603516Y-70449000D01*
X74806564Y-70489389D01*
X74806564Y-70489389D01*
G37*
G36*
X70551000Y-72551000D02*
G01*
X68449000Y-72551000D01*
X68449000Y-70449000D01*
X70551000Y-70449000D01*
X70551000Y-72551000D01*
X70551000Y-72551000D01*
G37*
G36*
X72306564Y-70489389D02*
G01*
X72451767Y-70549534D01*
X72497835Y-70568616D01*
X72669973Y-70683635D01*
X72816365Y-70830027D01*
X72847379Y-70876442D01*
X72931385Y-71002167D01*
X73010611Y-71193436D01*
X73051000Y-71396484D01*
X73051000Y-71603516D01*
X73010611Y-71806564D01*
X72953943Y-71943373D01*
X72931384Y-71997835D01*
X72816365Y-72169973D01*
X72669973Y-72316365D01*
X72497835Y-72431384D01*
X72497834Y-72431385D01*
X72497833Y-72431385D01*
X72306564Y-72510611D01*
X72103516Y-72551000D01*
X71896484Y-72551000D01*
X71693436Y-72510611D01*
X71502167Y-72431385D01*
X71502166Y-72431385D01*
X71502165Y-72431384D01*
X71330027Y-72316365D01*
X71183635Y-72169973D01*
X71068616Y-71997835D01*
X71046057Y-71943373D01*
X70989389Y-71806564D01*
X70949000Y-71603516D01*
X70949000Y-71396484D01*
X70989389Y-71193436D01*
X71068615Y-71002167D01*
X71152622Y-70876442D01*
X71183635Y-70830027D01*
X71330027Y-70683635D01*
X71502165Y-70568616D01*
X71548233Y-70549534D01*
X71693436Y-70489389D01*
X71896484Y-70449000D01*
X72103516Y-70449000D01*
X72306564Y-70489389D01*
X72306564Y-70489389D01*
G37*
G36*
X54777395Y-70085546D02*
G01*
X54950466Y-70157234D01*
X54950467Y-70157235D01*
X55106227Y-70261310D01*
X55238690Y-70393773D01*
X55275591Y-70449000D01*
X55342766Y-70549534D01*
X55414454Y-70722605D01*
X55451000Y-70906333D01*
X55451000Y-71093667D01*
X55414454Y-71277395D01*
X55342766Y-71450466D01*
X55291081Y-71527818D01*
X55238690Y-71606227D01*
X55106227Y-71738690D01*
X55054082Y-71773532D01*
X54950466Y-71842766D01*
X54777395Y-71914454D01*
X54593667Y-71951000D01*
X54406333Y-71951000D01*
X54222605Y-71914454D01*
X54049534Y-71842766D01*
X53945918Y-71773532D01*
X53893773Y-71738690D01*
X53761310Y-71606227D01*
X53708919Y-71527818D01*
X53657234Y-71450466D01*
X53585546Y-71277395D01*
X53549000Y-71093667D01*
X53549000Y-70906333D01*
X53585546Y-70722605D01*
X53657234Y-70549534D01*
X53724409Y-70449000D01*
X53761310Y-70393773D01*
X53893773Y-70261310D01*
X54049533Y-70157235D01*
X54049534Y-70157234D01*
X54222605Y-70085546D01*
X54406333Y-70049000D01*
X54593667Y-70049000D01*
X54777395Y-70085546D01*
X54777395Y-70085546D01*
G37*
G36*
X52277395Y-70085546D02*
G01*
X52450466Y-70157234D01*
X52450467Y-70157235D01*
X52606227Y-70261310D01*
X52738690Y-70393773D01*
X52775591Y-70449000D01*
X52842766Y-70549534D01*
X52914454Y-70722605D01*
X52951000Y-70906333D01*
X52951000Y-71093667D01*
X52914454Y-71277395D01*
X52842766Y-71450466D01*
X52791081Y-71527818D01*
X52738690Y-71606227D01*
X52606227Y-71738690D01*
X52554082Y-71773532D01*
X52450466Y-71842766D01*
X52277395Y-71914454D01*
X52093667Y-71951000D01*
X51906333Y-71951000D01*
X51722605Y-71914454D01*
X51549534Y-71842766D01*
X51445918Y-71773532D01*
X51393773Y-71738690D01*
X51261310Y-71606227D01*
X51208919Y-71527818D01*
X51157234Y-71450466D01*
X51085546Y-71277395D01*
X51049000Y-71093667D01*
X51049000Y-70906333D01*
X51085546Y-70722605D01*
X51157234Y-70549534D01*
X51224409Y-70449000D01*
X51261310Y-70393773D01*
X51393773Y-70261310D01*
X51549533Y-70157235D01*
X51549534Y-70157234D01*
X51722605Y-70085546D01*
X51906333Y-70049000D01*
X52093667Y-70049000D01*
X52277395Y-70085546D01*
X52277395Y-70085546D01*
G37*
G36*
X49777395Y-70085546D02*
G01*
X49950466Y-70157234D01*
X49950467Y-70157235D01*
X50106227Y-70261310D01*
X50238690Y-70393773D01*
X50275591Y-70449000D01*
X50342766Y-70549534D01*
X50414454Y-70722605D01*
X50451000Y-70906333D01*
X50451000Y-71093667D01*
X50414454Y-71277395D01*
X50342766Y-71450466D01*
X50291081Y-71527818D01*
X50238690Y-71606227D01*
X50106227Y-71738690D01*
X50054082Y-71773532D01*
X49950466Y-71842766D01*
X49777395Y-71914454D01*
X49593667Y-71951000D01*
X49406333Y-71951000D01*
X49222605Y-71914454D01*
X49049534Y-71842766D01*
X48945918Y-71773532D01*
X48893773Y-71738690D01*
X48761310Y-71606227D01*
X48708919Y-71527818D01*
X48657234Y-71450466D01*
X48585546Y-71277395D01*
X48549000Y-71093667D01*
X48549000Y-70906333D01*
X48585546Y-70722605D01*
X48657234Y-70549534D01*
X48724409Y-70449000D01*
X48761310Y-70393773D01*
X48893773Y-70261310D01*
X49049533Y-70157235D01*
X49049534Y-70157234D01*
X49222605Y-70085546D01*
X49406333Y-70049000D01*
X49593667Y-70049000D01*
X49777395Y-70085546D01*
X49777395Y-70085546D01*
G37*
G36*
X24730443Y-69145519D02*
G01*
X24796627Y-69152037D01*
X24966466Y-69203557D01*
X25122991Y-69287222D01*
X25158729Y-69316552D01*
X25260186Y-69399814D01*
X25343448Y-69501271D01*
X25372778Y-69537009D01*
X25456443Y-69693534D01*
X25507963Y-69863373D01*
X25525359Y-70040000D01*
X25507963Y-70216627D01*
X25456443Y-70386466D01*
X25372778Y-70542991D01*
X25367409Y-70549533D01*
X25260186Y-70680186D01*
X25158729Y-70763448D01*
X25122991Y-70792778D01*
X24966466Y-70876443D01*
X24796627Y-70927963D01*
X24730442Y-70934482D01*
X24664260Y-70941000D01*
X24575740Y-70941000D01*
X24509558Y-70934482D01*
X24443373Y-70927963D01*
X24273534Y-70876443D01*
X24117009Y-70792778D01*
X24081271Y-70763448D01*
X23979814Y-70680186D01*
X23872591Y-70549533D01*
X23867222Y-70542991D01*
X23783557Y-70386466D01*
X23732037Y-70216627D01*
X23714641Y-70040000D01*
X23732037Y-69863373D01*
X23783557Y-69693534D01*
X23867222Y-69537009D01*
X23896552Y-69501271D01*
X23979814Y-69399814D01*
X24081271Y-69316552D01*
X24117009Y-69287222D01*
X24273534Y-69203557D01*
X24443373Y-69152037D01*
X24509557Y-69145519D01*
X24575740Y-69139000D01*
X24664260Y-69139000D01*
X24730443Y-69145519D01*
X24730443Y-69145519D01*
G37*
G36*
X29810443Y-69145519D02*
G01*
X29876627Y-69152037D01*
X30046466Y-69203557D01*
X30202991Y-69287222D01*
X30238729Y-69316552D01*
X30340186Y-69399814D01*
X30423448Y-69501271D01*
X30452778Y-69537009D01*
X30536443Y-69693534D01*
X30587963Y-69863373D01*
X30605359Y-70040000D01*
X30587963Y-70216627D01*
X30536443Y-70386466D01*
X30452778Y-70542991D01*
X30447409Y-70549533D01*
X30340186Y-70680186D01*
X30238729Y-70763448D01*
X30202991Y-70792778D01*
X30046466Y-70876443D01*
X29876627Y-70927963D01*
X29810442Y-70934482D01*
X29744260Y-70941000D01*
X29655740Y-70941000D01*
X29589558Y-70934482D01*
X29523373Y-70927963D01*
X29353534Y-70876443D01*
X29197009Y-70792778D01*
X29161271Y-70763448D01*
X29059814Y-70680186D01*
X28952591Y-70549533D01*
X28947222Y-70542991D01*
X28863557Y-70386466D01*
X28812037Y-70216627D01*
X28794641Y-70040000D01*
X28812037Y-69863373D01*
X28863557Y-69693534D01*
X28947222Y-69537009D01*
X28976552Y-69501271D01*
X29059814Y-69399814D01*
X29161271Y-69316552D01*
X29197009Y-69287222D01*
X29353534Y-69203557D01*
X29523373Y-69152037D01*
X29589557Y-69145519D01*
X29655740Y-69139000D01*
X29744260Y-69139000D01*
X29810443Y-69145519D01*
X29810443Y-69145519D01*
G37*
G36*
X27270443Y-69145519D02*
G01*
X27336627Y-69152037D01*
X27506466Y-69203557D01*
X27662991Y-69287222D01*
X27698729Y-69316552D01*
X27800186Y-69399814D01*
X27883448Y-69501271D01*
X27912778Y-69537009D01*
X27996443Y-69693534D01*
X28047963Y-69863373D01*
X28065359Y-70040000D01*
X28047963Y-70216627D01*
X27996443Y-70386466D01*
X27912778Y-70542991D01*
X27907409Y-70549533D01*
X27800186Y-70680186D01*
X27698729Y-70763448D01*
X27662991Y-70792778D01*
X27506466Y-70876443D01*
X27336627Y-70927963D01*
X27270442Y-70934482D01*
X27204260Y-70941000D01*
X27115740Y-70941000D01*
X27049558Y-70934482D01*
X26983373Y-70927963D01*
X26813534Y-70876443D01*
X26657009Y-70792778D01*
X26621271Y-70763448D01*
X26519814Y-70680186D01*
X26412591Y-70549533D01*
X26407222Y-70542991D01*
X26323557Y-70386466D01*
X26272037Y-70216627D01*
X26254641Y-70040000D01*
X26272037Y-69863373D01*
X26323557Y-69693534D01*
X26407222Y-69537009D01*
X26436552Y-69501271D01*
X26519814Y-69399814D01*
X26621271Y-69316552D01*
X26657009Y-69287222D01*
X26813534Y-69203557D01*
X26983373Y-69152037D01*
X27049557Y-69145519D01*
X27115740Y-69139000D01*
X27204260Y-69139000D01*
X27270443Y-69145519D01*
X27270443Y-69145519D01*
G37*
G36*
X32350443Y-69145519D02*
G01*
X32416627Y-69152037D01*
X32586466Y-69203557D01*
X32742991Y-69287222D01*
X32778729Y-69316552D01*
X32880186Y-69399814D01*
X32963448Y-69501271D01*
X32992778Y-69537009D01*
X33076443Y-69693534D01*
X33127963Y-69863373D01*
X33145359Y-70040000D01*
X33127963Y-70216627D01*
X33076443Y-70386466D01*
X32992778Y-70542991D01*
X32987409Y-70549533D01*
X32880186Y-70680186D01*
X32778729Y-70763448D01*
X32742991Y-70792778D01*
X32586466Y-70876443D01*
X32416627Y-70927963D01*
X32350442Y-70934482D01*
X32284260Y-70941000D01*
X32195740Y-70941000D01*
X32129558Y-70934482D01*
X32063373Y-70927963D01*
X31893534Y-70876443D01*
X31737009Y-70792778D01*
X31701271Y-70763448D01*
X31599814Y-70680186D01*
X31492591Y-70549533D01*
X31487222Y-70542991D01*
X31403557Y-70386466D01*
X31352037Y-70216627D01*
X31334641Y-70040000D01*
X31352037Y-69863373D01*
X31403557Y-69693534D01*
X31487222Y-69537009D01*
X31516552Y-69501271D01*
X31599814Y-69399814D01*
X31701271Y-69316552D01*
X31737009Y-69287222D01*
X31893534Y-69203557D01*
X32063373Y-69152037D01*
X32129557Y-69145519D01*
X32195740Y-69139000D01*
X32284260Y-69139000D01*
X32350443Y-69145519D01*
X32350443Y-69145519D01*
G37*
G36*
X22190443Y-69145519D02*
G01*
X22256627Y-69152037D01*
X22426466Y-69203557D01*
X22582991Y-69287222D01*
X22618729Y-69316552D01*
X22720186Y-69399814D01*
X22803448Y-69501271D01*
X22832778Y-69537009D01*
X22916443Y-69693534D01*
X22967963Y-69863373D01*
X22985359Y-70040000D01*
X22967963Y-70216627D01*
X22916443Y-70386466D01*
X22832778Y-70542991D01*
X22827409Y-70549533D01*
X22720186Y-70680186D01*
X22618729Y-70763448D01*
X22582991Y-70792778D01*
X22426466Y-70876443D01*
X22256627Y-70927963D01*
X22190442Y-70934482D01*
X22124260Y-70941000D01*
X22035740Y-70941000D01*
X21969558Y-70934482D01*
X21903373Y-70927963D01*
X21733534Y-70876443D01*
X21577009Y-70792778D01*
X21541271Y-70763448D01*
X21439814Y-70680186D01*
X21332591Y-70549533D01*
X21327222Y-70542991D01*
X21243557Y-70386466D01*
X21192037Y-70216627D01*
X21174641Y-70040000D01*
X21192037Y-69863373D01*
X21243557Y-69693534D01*
X21327222Y-69537009D01*
X21356552Y-69501271D01*
X21439814Y-69399814D01*
X21541271Y-69316552D01*
X21577009Y-69287222D01*
X21733534Y-69203557D01*
X21903373Y-69152037D01*
X21969557Y-69145519D01*
X22035740Y-69139000D01*
X22124260Y-69139000D01*
X22190443Y-69145519D01*
X22190443Y-69145519D01*
G37*
G36*
X19650443Y-69145519D02*
G01*
X19716627Y-69152037D01*
X19886466Y-69203557D01*
X20042991Y-69287222D01*
X20078729Y-69316552D01*
X20180186Y-69399814D01*
X20263448Y-69501271D01*
X20292778Y-69537009D01*
X20376443Y-69693534D01*
X20427963Y-69863373D01*
X20445359Y-70040000D01*
X20427963Y-70216627D01*
X20376443Y-70386466D01*
X20292778Y-70542991D01*
X20287409Y-70549533D01*
X20180186Y-70680186D01*
X20078729Y-70763448D01*
X20042991Y-70792778D01*
X19886466Y-70876443D01*
X19716627Y-70927963D01*
X19650442Y-70934482D01*
X19584260Y-70941000D01*
X19495740Y-70941000D01*
X19429558Y-70934482D01*
X19363373Y-70927963D01*
X19193534Y-70876443D01*
X19037009Y-70792778D01*
X19001271Y-70763448D01*
X18899814Y-70680186D01*
X18792591Y-70549533D01*
X18787222Y-70542991D01*
X18703557Y-70386466D01*
X18652037Y-70216627D01*
X18634641Y-70040000D01*
X18652037Y-69863373D01*
X18703557Y-69693534D01*
X18787222Y-69537009D01*
X18816552Y-69501271D01*
X18899814Y-69399814D01*
X19001271Y-69316552D01*
X19037009Y-69287222D01*
X19193534Y-69203557D01*
X19363373Y-69152037D01*
X19429557Y-69145519D01*
X19495740Y-69139000D01*
X19584260Y-69139000D01*
X19650443Y-69145519D01*
X19650443Y-69145519D01*
G37*
G36*
X34890443Y-69145519D02*
G01*
X34956627Y-69152037D01*
X35126466Y-69203557D01*
X35282991Y-69287222D01*
X35318729Y-69316552D01*
X35420186Y-69399814D01*
X35503448Y-69501271D01*
X35532778Y-69537009D01*
X35616443Y-69693534D01*
X35667963Y-69863373D01*
X35685359Y-70040000D01*
X35667963Y-70216627D01*
X35616443Y-70386466D01*
X35532778Y-70542991D01*
X35527409Y-70549533D01*
X35420186Y-70680186D01*
X35318729Y-70763448D01*
X35282991Y-70792778D01*
X35126466Y-70876443D01*
X34956627Y-70927963D01*
X34890442Y-70934482D01*
X34824260Y-70941000D01*
X34735740Y-70941000D01*
X34669558Y-70934482D01*
X34603373Y-70927963D01*
X34433534Y-70876443D01*
X34277009Y-70792778D01*
X34241271Y-70763448D01*
X34139814Y-70680186D01*
X34032591Y-70549533D01*
X34027222Y-70542991D01*
X33943557Y-70386466D01*
X33892037Y-70216627D01*
X33874641Y-70040000D01*
X33892037Y-69863373D01*
X33943557Y-69693534D01*
X34027222Y-69537009D01*
X34056552Y-69501271D01*
X34139814Y-69399814D01*
X34241271Y-69316552D01*
X34277009Y-69287222D01*
X34433534Y-69203557D01*
X34603373Y-69152037D01*
X34669557Y-69145519D01*
X34735740Y-69139000D01*
X34824260Y-69139000D01*
X34890443Y-69145519D01*
X34890443Y-69145519D01*
G37*
G36*
X41110442Y-68685518D02*
G01*
X41176627Y-68692037D01*
X41346466Y-68743557D01*
X41502991Y-68827222D01*
X41538729Y-68856552D01*
X41640186Y-68939814D01*
X41723448Y-69041271D01*
X41752778Y-69077009D01*
X41836443Y-69233534D01*
X41887963Y-69403373D01*
X41905359Y-69580000D01*
X41887963Y-69756627D01*
X41836443Y-69926466D01*
X41752778Y-70082991D01*
X41750681Y-70085546D01*
X41640186Y-70220186D01*
X41538729Y-70303448D01*
X41502991Y-70332778D01*
X41346466Y-70416443D01*
X41176627Y-70467963D01*
X41110443Y-70474481D01*
X41044260Y-70481000D01*
X40955740Y-70481000D01*
X40889557Y-70474481D01*
X40823373Y-70467963D01*
X40653534Y-70416443D01*
X40497009Y-70332778D01*
X40461271Y-70303448D01*
X40359814Y-70220186D01*
X40249319Y-70085546D01*
X40247222Y-70082991D01*
X40163557Y-69926466D01*
X40112037Y-69756627D01*
X40094641Y-69580000D01*
X40112037Y-69403373D01*
X40163557Y-69233534D01*
X40247222Y-69077009D01*
X40276552Y-69041271D01*
X40359814Y-68939814D01*
X40461271Y-68856552D01*
X40497009Y-68827222D01*
X40653534Y-68743557D01*
X40823373Y-68692037D01*
X40889558Y-68685518D01*
X40955740Y-68679000D01*
X41044260Y-68679000D01*
X41110442Y-68685518D01*
X41110442Y-68685518D01*
G37*
G36*
X44901000Y-70481000D02*
G01*
X43099000Y-70481000D01*
X43099000Y-68679000D01*
X44901000Y-68679000D01*
X44901000Y-70481000D01*
X44901000Y-70481000D01*
G37*
G36*
X29810442Y-66605518D02*
G01*
X29876627Y-66612037D01*
X30046466Y-66663557D01*
X30202991Y-66747222D01*
X30238729Y-66776552D01*
X30340186Y-66859814D01*
X30423448Y-66961271D01*
X30452778Y-66997009D01*
X30536443Y-67153534D01*
X30587963Y-67323373D01*
X30605359Y-67500000D01*
X30587963Y-67676627D01*
X30536443Y-67846466D01*
X30452778Y-68002991D01*
X30423448Y-68038729D01*
X30340186Y-68140186D01*
X30238729Y-68223448D01*
X30202991Y-68252778D01*
X30046466Y-68336443D01*
X29876627Y-68387963D01*
X29810442Y-68394482D01*
X29744260Y-68401000D01*
X29655740Y-68401000D01*
X29589558Y-68394482D01*
X29523373Y-68387963D01*
X29353534Y-68336443D01*
X29197009Y-68252778D01*
X29161271Y-68223448D01*
X29059814Y-68140186D01*
X28976552Y-68038729D01*
X28947222Y-68002991D01*
X28863557Y-67846466D01*
X28812037Y-67676627D01*
X28794641Y-67500000D01*
X28812037Y-67323373D01*
X28863557Y-67153534D01*
X28947222Y-66997009D01*
X28976552Y-66961271D01*
X29059814Y-66859814D01*
X29161271Y-66776552D01*
X29197009Y-66747222D01*
X29353534Y-66663557D01*
X29523373Y-66612037D01*
X29589558Y-66605518D01*
X29655740Y-66599000D01*
X29744260Y-66599000D01*
X29810442Y-66605518D01*
X29810442Y-66605518D01*
G37*
G36*
X32350442Y-66605518D02*
G01*
X32416627Y-66612037D01*
X32586466Y-66663557D01*
X32742991Y-66747222D01*
X32778729Y-66776552D01*
X32880186Y-66859814D01*
X32963448Y-66961271D01*
X32992778Y-66997009D01*
X33076443Y-67153534D01*
X33127963Y-67323373D01*
X33145359Y-67500000D01*
X33127963Y-67676627D01*
X33076443Y-67846466D01*
X32992778Y-68002991D01*
X32963448Y-68038729D01*
X32880186Y-68140186D01*
X32778729Y-68223448D01*
X32742991Y-68252778D01*
X32586466Y-68336443D01*
X32416627Y-68387963D01*
X32350442Y-68394482D01*
X32284260Y-68401000D01*
X32195740Y-68401000D01*
X32129558Y-68394482D01*
X32063373Y-68387963D01*
X31893534Y-68336443D01*
X31737009Y-68252778D01*
X31701271Y-68223448D01*
X31599814Y-68140186D01*
X31516552Y-68038729D01*
X31487222Y-68002991D01*
X31403557Y-67846466D01*
X31352037Y-67676627D01*
X31334641Y-67500000D01*
X31352037Y-67323373D01*
X31403557Y-67153534D01*
X31487222Y-66997009D01*
X31516552Y-66961271D01*
X31599814Y-66859814D01*
X31701271Y-66776552D01*
X31737009Y-66747222D01*
X31893534Y-66663557D01*
X32063373Y-66612037D01*
X32129558Y-66605518D01*
X32195740Y-66599000D01*
X32284260Y-66599000D01*
X32350442Y-66605518D01*
X32350442Y-66605518D01*
G37*
G36*
X34890442Y-66605518D02*
G01*
X34956627Y-66612037D01*
X35126466Y-66663557D01*
X35282991Y-66747222D01*
X35318729Y-66776552D01*
X35420186Y-66859814D01*
X35503448Y-66961271D01*
X35532778Y-66997009D01*
X35616443Y-67153534D01*
X35667963Y-67323373D01*
X35685359Y-67500000D01*
X35667963Y-67676627D01*
X35616443Y-67846466D01*
X35532778Y-68002991D01*
X35503448Y-68038729D01*
X35420186Y-68140186D01*
X35318729Y-68223448D01*
X35282991Y-68252778D01*
X35126466Y-68336443D01*
X34956627Y-68387963D01*
X34890442Y-68394482D01*
X34824260Y-68401000D01*
X34735740Y-68401000D01*
X34669558Y-68394482D01*
X34603373Y-68387963D01*
X34433534Y-68336443D01*
X34277009Y-68252778D01*
X34241271Y-68223448D01*
X34139814Y-68140186D01*
X34056552Y-68038729D01*
X34027222Y-68002991D01*
X33943557Y-67846466D01*
X33892037Y-67676627D01*
X33874641Y-67500000D01*
X33892037Y-67323373D01*
X33943557Y-67153534D01*
X34027222Y-66997009D01*
X34056552Y-66961271D01*
X34139814Y-66859814D01*
X34241271Y-66776552D01*
X34277009Y-66747222D01*
X34433534Y-66663557D01*
X34603373Y-66612037D01*
X34669558Y-66605518D01*
X34735740Y-66599000D01*
X34824260Y-66599000D01*
X34890442Y-66605518D01*
X34890442Y-66605518D01*
G37*
G36*
X22190442Y-66605518D02*
G01*
X22256627Y-66612037D01*
X22426466Y-66663557D01*
X22582991Y-66747222D01*
X22618729Y-66776552D01*
X22720186Y-66859814D01*
X22803448Y-66961271D01*
X22832778Y-66997009D01*
X22916443Y-67153534D01*
X22967963Y-67323373D01*
X22985359Y-67500000D01*
X22967963Y-67676627D01*
X22916443Y-67846466D01*
X22832778Y-68002991D01*
X22803448Y-68038729D01*
X22720186Y-68140186D01*
X22618729Y-68223448D01*
X22582991Y-68252778D01*
X22426466Y-68336443D01*
X22256627Y-68387963D01*
X22190442Y-68394482D01*
X22124260Y-68401000D01*
X22035740Y-68401000D01*
X21969558Y-68394482D01*
X21903373Y-68387963D01*
X21733534Y-68336443D01*
X21577009Y-68252778D01*
X21541271Y-68223448D01*
X21439814Y-68140186D01*
X21356552Y-68038729D01*
X21327222Y-68002991D01*
X21243557Y-67846466D01*
X21192037Y-67676627D01*
X21174641Y-67500000D01*
X21192037Y-67323373D01*
X21243557Y-67153534D01*
X21327222Y-66997009D01*
X21356552Y-66961271D01*
X21439814Y-66859814D01*
X21541271Y-66776552D01*
X21577009Y-66747222D01*
X21733534Y-66663557D01*
X21903373Y-66612037D01*
X21969558Y-66605518D01*
X22035740Y-66599000D01*
X22124260Y-66599000D01*
X22190442Y-66605518D01*
X22190442Y-66605518D01*
G37*
G36*
X19650442Y-66605518D02*
G01*
X19716627Y-66612037D01*
X19886466Y-66663557D01*
X20042991Y-66747222D01*
X20078729Y-66776552D01*
X20180186Y-66859814D01*
X20263448Y-66961271D01*
X20292778Y-66997009D01*
X20376443Y-67153534D01*
X20427963Y-67323373D01*
X20445359Y-67500000D01*
X20427963Y-67676627D01*
X20376443Y-67846466D01*
X20292778Y-68002991D01*
X20263448Y-68038729D01*
X20180186Y-68140186D01*
X20078729Y-68223448D01*
X20042991Y-68252778D01*
X19886466Y-68336443D01*
X19716627Y-68387963D01*
X19650442Y-68394482D01*
X19584260Y-68401000D01*
X19495740Y-68401000D01*
X19429558Y-68394482D01*
X19363373Y-68387963D01*
X19193534Y-68336443D01*
X19037009Y-68252778D01*
X19001271Y-68223448D01*
X18899814Y-68140186D01*
X18816552Y-68038729D01*
X18787222Y-68002991D01*
X18703557Y-67846466D01*
X18652037Y-67676627D01*
X18634641Y-67500000D01*
X18652037Y-67323373D01*
X18703557Y-67153534D01*
X18787222Y-66997009D01*
X18816552Y-66961271D01*
X18899814Y-66859814D01*
X19001271Y-66776552D01*
X19037009Y-66747222D01*
X19193534Y-66663557D01*
X19363373Y-66612037D01*
X19429558Y-66605518D01*
X19495740Y-66599000D01*
X19584260Y-66599000D01*
X19650442Y-66605518D01*
X19650442Y-66605518D01*
G37*
G36*
X27270442Y-66605518D02*
G01*
X27336627Y-66612037D01*
X27506466Y-66663557D01*
X27662991Y-66747222D01*
X27698729Y-66776552D01*
X27800186Y-66859814D01*
X27883448Y-66961271D01*
X27912778Y-66997009D01*
X27996443Y-67153534D01*
X28047963Y-67323373D01*
X28065359Y-67500000D01*
X28047963Y-67676627D01*
X27996443Y-67846466D01*
X27912778Y-68002991D01*
X27883448Y-68038729D01*
X27800186Y-68140186D01*
X27698729Y-68223448D01*
X27662991Y-68252778D01*
X27506466Y-68336443D01*
X27336627Y-68387963D01*
X27270442Y-68394482D01*
X27204260Y-68401000D01*
X27115740Y-68401000D01*
X27049558Y-68394482D01*
X26983373Y-68387963D01*
X26813534Y-68336443D01*
X26657009Y-68252778D01*
X26621271Y-68223448D01*
X26519814Y-68140186D01*
X26436552Y-68038729D01*
X26407222Y-68002991D01*
X26323557Y-67846466D01*
X26272037Y-67676627D01*
X26254641Y-67500000D01*
X26272037Y-67323373D01*
X26323557Y-67153534D01*
X26407222Y-66997009D01*
X26436552Y-66961271D01*
X26519814Y-66859814D01*
X26621271Y-66776552D01*
X26657009Y-66747222D01*
X26813534Y-66663557D01*
X26983373Y-66612037D01*
X27049558Y-66605518D01*
X27115740Y-66599000D01*
X27204260Y-66599000D01*
X27270442Y-66605518D01*
X27270442Y-66605518D01*
G37*
G36*
X24730442Y-66605518D02*
G01*
X24796627Y-66612037D01*
X24966466Y-66663557D01*
X25122991Y-66747222D01*
X25158729Y-66776552D01*
X25260186Y-66859814D01*
X25343448Y-66961271D01*
X25372778Y-66997009D01*
X25456443Y-67153534D01*
X25507963Y-67323373D01*
X25525359Y-67500000D01*
X25507963Y-67676627D01*
X25456443Y-67846466D01*
X25372778Y-68002991D01*
X25343448Y-68038729D01*
X25260186Y-68140186D01*
X25158729Y-68223448D01*
X25122991Y-68252778D01*
X24966466Y-68336443D01*
X24796627Y-68387963D01*
X24730442Y-68394482D01*
X24664260Y-68401000D01*
X24575740Y-68401000D01*
X24509558Y-68394482D01*
X24443373Y-68387963D01*
X24273534Y-68336443D01*
X24117009Y-68252778D01*
X24081271Y-68223448D01*
X23979814Y-68140186D01*
X23896552Y-68038729D01*
X23867222Y-68002991D01*
X23783557Y-67846466D01*
X23732037Y-67676627D01*
X23714641Y-67500000D01*
X23732037Y-67323373D01*
X23783557Y-67153534D01*
X23867222Y-66997009D01*
X23896552Y-66961271D01*
X23979814Y-66859814D01*
X24081271Y-66776552D01*
X24117009Y-66747222D01*
X24273534Y-66663557D01*
X24443373Y-66612037D01*
X24509558Y-66605518D01*
X24575740Y-66599000D01*
X24664260Y-66599000D01*
X24730442Y-66605518D01*
X24730442Y-66605518D01*
G37*
G36*
X41110442Y-66145518D02*
G01*
X41176627Y-66152037D01*
X41346466Y-66203557D01*
X41502991Y-66287222D01*
X41538729Y-66316552D01*
X41640186Y-66399814D01*
X41723448Y-66501271D01*
X41752778Y-66537009D01*
X41836443Y-66693534D01*
X41887963Y-66863373D01*
X41905359Y-67040000D01*
X41887963Y-67216627D01*
X41836443Y-67386466D01*
X41752778Y-67542991D01*
X41723448Y-67578729D01*
X41640186Y-67680186D01*
X41538729Y-67763448D01*
X41502991Y-67792778D01*
X41346466Y-67876443D01*
X41176627Y-67927963D01*
X41110442Y-67934482D01*
X41044260Y-67941000D01*
X40955740Y-67941000D01*
X40889558Y-67934482D01*
X40823373Y-67927963D01*
X40653534Y-67876443D01*
X40497009Y-67792778D01*
X40461271Y-67763448D01*
X40359814Y-67680186D01*
X40276552Y-67578729D01*
X40247222Y-67542991D01*
X40163557Y-67386466D01*
X40112037Y-67216627D01*
X40094641Y-67040000D01*
X40112037Y-66863373D01*
X40163557Y-66693534D01*
X40247222Y-66537009D01*
X40276552Y-66501271D01*
X40359814Y-66399814D01*
X40461271Y-66316552D01*
X40497009Y-66287222D01*
X40653534Y-66203557D01*
X40823373Y-66152037D01*
X40889558Y-66145518D01*
X40955740Y-66139000D01*
X41044260Y-66139000D01*
X41110442Y-66145518D01*
X41110442Y-66145518D01*
G37*
G36*
X56998254Y-62027818D02*
G01*
X57371511Y-62182426D01*
X57371513Y-62182427D01*
X57620807Y-62349000D01*
X57707436Y-62406884D01*
X57993116Y-62692564D01*
X58217574Y-63028489D01*
X58372182Y-63401746D01*
X58451000Y-63797993D01*
X58451000Y-64202007D01*
X58372182Y-64598254D01*
X58217574Y-64971511D01*
X58217573Y-64971513D01*
X57993116Y-65307436D01*
X57707436Y-65593116D01*
X57371513Y-65817573D01*
X57371512Y-65817574D01*
X57371511Y-65817574D01*
X56998254Y-65972182D01*
X56602007Y-66051000D01*
X56197993Y-66051000D01*
X55801746Y-65972182D01*
X55428489Y-65817574D01*
X55428488Y-65817574D01*
X55428487Y-65817573D01*
X55092564Y-65593116D01*
X54806884Y-65307436D01*
X54582427Y-64971513D01*
X54582426Y-64971511D01*
X54427818Y-64598254D01*
X54349000Y-64202007D01*
X54349000Y-63797993D01*
X54427818Y-63401746D01*
X54582426Y-63028489D01*
X54806884Y-62692564D01*
X55092564Y-62406884D01*
X55179193Y-62349000D01*
X55428487Y-62182427D01*
X55428489Y-62182426D01*
X55801746Y-62027818D01*
X56197993Y-61949000D01*
X56602007Y-61949000D01*
X56998254Y-62027818D01*
X56998254Y-62027818D01*
G37*
G36*
X48198254Y-62027818D02*
G01*
X48571511Y-62182426D01*
X48571513Y-62182427D01*
X48820807Y-62349000D01*
X48907436Y-62406884D01*
X49193116Y-62692564D01*
X49417574Y-63028489D01*
X49572182Y-63401746D01*
X49651000Y-63797993D01*
X49651000Y-64202007D01*
X49572182Y-64598254D01*
X49417574Y-64971511D01*
X49417573Y-64971513D01*
X49193116Y-65307436D01*
X48907436Y-65593116D01*
X48571513Y-65817573D01*
X48571512Y-65817574D01*
X48571511Y-65817574D01*
X48198254Y-65972182D01*
X47802007Y-66051000D01*
X47397993Y-66051000D01*
X47001746Y-65972182D01*
X46628489Y-65817574D01*
X46628488Y-65817574D01*
X46628487Y-65817573D01*
X46292564Y-65593116D01*
X46006884Y-65307436D01*
X45782427Y-64971513D01*
X45782426Y-64971511D01*
X45627818Y-64598254D01*
X45549000Y-64202007D01*
X45549000Y-63797993D01*
X45627818Y-63401746D01*
X45782426Y-63028489D01*
X46006884Y-62692564D01*
X46292564Y-62406884D01*
X46379193Y-62349000D01*
X46628487Y-62182427D01*
X46628489Y-62182426D01*
X47001746Y-62027818D01*
X47397993Y-61949000D01*
X47802007Y-61949000D01*
X48198254Y-62027818D01*
X48198254Y-62027818D01*
G37*
G36*
X22981000Y-65861000D02*
G01*
X21179000Y-65861000D01*
X21179000Y-64059000D01*
X22981000Y-64059000D01*
X22981000Y-65861000D01*
X22981000Y-65861000D01*
G37*
G36*
X20441000Y-65861000D02*
G01*
X18639000Y-65861000D01*
X18639000Y-64059000D01*
X20441000Y-64059000D01*
X20441000Y-65861000D01*
X20441000Y-65861000D01*
G37*
G36*
X35681000Y-65861000D02*
G01*
X33879000Y-65861000D01*
X33879000Y-64059000D01*
X35681000Y-64059000D01*
X35681000Y-65861000D01*
X35681000Y-65861000D01*
G37*
G36*
X25521000Y-65861000D02*
G01*
X23719000Y-65861000D01*
X23719000Y-64059000D01*
X25521000Y-64059000D01*
X25521000Y-65861000D01*
X25521000Y-65861000D01*
G37*
G36*
X28061000Y-65861000D02*
G01*
X26259000Y-65861000D01*
X26259000Y-64059000D01*
X28061000Y-64059000D01*
X28061000Y-65861000D01*
X28061000Y-65861000D01*
G37*
G36*
X33141000Y-65861000D02*
G01*
X31339000Y-65861000D01*
X31339000Y-64059000D01*
X33141000Y-64059000D01*
X33141000Y-65861000D01*
X33141000Y-65861000D01*
G37*
G36*
X30601000Y-65861000D02*
G01*
X28799000Y-65861000D01*
X28799000Y-64059000D01*
X30601000Y-64059000D01*
X30601000Y-65861000D01*
X30601000Y-65861000D01*
G37*
G36*
X67451000Y-65651000D02*
G01*
X65349000Y-65651000D01*
X65349000Y-62349000D01*
X67451000Y-62349000D01*
X67451000Y-65651000D01*
X67451000Y-65651000D01*
G37*
G36*
X78651000Y-65651000D02*
G01*
X76549000Y-65651000D01*
X76549000Y-62349000D01*
X78651000Y-62349000D01*
X78651000Y-65651000D01*
X78651000Y-65651000D01*
G37*
G36*
X41901000Y-65401000D02*
G01*
X40099000Y-65401000D01*
X40099000Y-63599000D01*
X41901000Y-63599000D01*
X41901000Y-65401000D01*
X41901000Y-65401000D01*
G37*
G36*
X12375256Y-61391298D02*
G01*
X12481579Y-61412447D01*
X12782042Y-61536903D01*
X13052451Y-61717585D01*
X13282415Y-61947549D01*
X13463097Y-62217958D01*
X13587553Y-62518421D01*
X13651000Y-62837391D01*
X13651000Y-63162609D01*
X13587553Y-63481579D01*
X13463097Y-63782042D01*
X13282415Y-64052451D01*
X13052451Y-64282415D01*
X12782042Y-64463097D01*
X12481579Y-64587553D01*
X12427781Y-64598254D01*
X12162611Y-64651000D01*
X11837389Y-64651000D01*
X11572219Y-64598254D01*
X11518421Y-64587553D01*
X11217958Y-64463097D01*
X10947549Y-64282415D01*
X10717585Y-64052451D01*
X10536903Y-63782042D01*
X10412447Y-63481579D01*
X10349000Y-63162609D01*
X10349000Y-62837391D01*
X10412447Y-62518421D01*
X10536903Y-62217958D01*
X10717585Y-61947549D01*
X10947549Y-61717585D01*
X11217958Y-61536903D01*
X11518421Y-61412447D01*
X11624744Y-61391298D01*
X11837389Y-61349000D01*
X12162611Y-61349000D01*
X12375256Y-61391298D01*
X12375256Y-61391298D01*
G37*
G36*
X88375256Y-61391298D02*
G01*
X88481579Y-61412447D01*
X88782042Y-61536903D01*
X89052451Y-61717585D01*
X89282415Y-61947549D01*
X89463097Y-62217958D01*
X89587553Y-62518421D01*
X89651000Y-62837391D01*
X89651000Y-63162609D01*
X89587553Y-63481579D01*
X89463097Y-63782042D01*
X89282415Y-64052451D01*
X89052451Y-64282415D01*
X88782042Y-64463097D01*
X88481579Y-64587553D01*
X88427781Y-64598254D01*
X88162611Y-64651000D01*
X87837389Y-64651000D01*
X87572219Y-64598254D01*
X87518421Y-64587553D01*
X87217958Y-64463097D01*
X86947549Y-64282415D01*
X86717585Y-64052451D01*
X86536903Y-63782042D01*
X86412447Y-63481579D01*
X86349000Y-63162609D01*
X86349000Y-62837391D01*
X86412447Y-62518421D01*
X86536903Y-62217958D01*
X86717585Y-61947549D01*
X86947549Y-61717585D01*
X87217958Y-61536903D01*
X87518421Y-61412447D01*
X87624744Y-61391298D01*
X87837389Y-61349000D01*
X88162611Y-61349000D01*
X88375256Y-61391298D01*
X88375256Y-61391298D01*
G37*
G36*
X69806564Y-55989389D02*
G01*
X69997833Y-56068615D01*
X69997835Y-56068616D01*
X70169973Y-56183635D01*
X70316365Y-56330027D01*
X70431385Y-56502167D01*
X70510611Y-56693436D01*
X70551000Y-56896484D01*
X70551000Y-57103516D01*
X70510611Y-57306564D01*
X70431385Y-57497833D01*
X70431384Y-57497835D01*
X70316365Y-57669973D01*
X70169973Y-57816365D01*
X69997835Y-57931384D01*
X69997834Y-57931385D01*
X69997833Y-57931385D01*
X69806564Y-58010611D01*
X69603516Y-58051000D01*
X69396484Y-58051000D01*
X69193436Y-58010611D01*
X69002167Y-57931385D01*
X69002166Y-57931385D01*
X69002165Y-57931384D01*
X68830027Y-57816365D01*
X68683635Y-57669973D01*
X68568616Y-57497835D01*
X68568615Y-57497833D01*
X68489389Y-57306564D01*
X68449000Y-57103516D01*
X68449000Y-56896484D01*
X68489389Y-56693436D01*
X68568615Y-56502167D01*
X68683635Y-56330027D01*
X68830027Y-56183635D01*
X69002165Y-56068616D01*
X69002167Y-56068615D01*
X69193436Y-55989389D01*
X69396484Y-55949000D01*
X69603516Y-55949000D01*
X69806564Y-55989389D01*
X69806564Y-55989389D01*
G37*
G36*
X74806564Y-55989389D02*
G01*
X74997833Y-56068615D01*
X74997835Y-56068616D01*
X75169973Y-56183635D01*
X75316365Y-56330027D01*
X75431385Y-56502167D01*
X75510611Y-56693436D01*
X75551000Y-56896484D01*
X75551000Y-57103516D01*
X75510611Y-57306564D01*
X75431385Y-57497833D01*
X75431384Y-57497835D01*
X75316365Y-57669973D01*
X75169973Y-57816365D01*
X74997835Y-57931384D01*
X74997834Y-57931385D01*
X74997833Y-57931385D01*
X74806564Y-58010611D01*
X74603516Y-58051000D01*
X74396484Y-58051000D01*
X74193436Y-58010611D01*
X74002167Y-57931385D01*
X74002166Y-57931385D01*
X74002165Y-57931384D01*
X73830027Y-57816365D01*
X73683635Y-57669973D01*
X73568616Y-57497835D01*
X73568615Y-57497833D01*
X73489389Y-57306564D01*
X73449000Y-57103516D01*
X73449000Y-56896484D01*
X73489389Y-56693436D01*
X73568615Y-56502167D01*
X73683635Y-56330027D01*
X73830027Y-56183635D01*
X74002165Y-56068616D01*
X74002167Y-56068615D01*
X74193436Y-55989389D01*
X74396484Y-55949000D01*
X74603516Y-55949000D01*
X74806564Y-55989389D01*
X74806564Y-55989389D01*
G37*
G36*
X87248228Y-53681703D02*
G01*
X87403100Y-53745853D01*
X87542481Y-53838985D01*
X87661015Y-53957519D01*
X87754147Y-54096900D01*
X87818297Y-54251772D01*
X87851000Y-54416184D01*
X87851000Y-54583816D01*
X87818297Y-54748228D01*
X87754147Y-54903100D01*
X87661015Y-55042481D01*
X87542481Y-55161015D01*
X87403100Y-55254147D01*
X87248228Y-55318297D01*
X87083816Y-55351000D01*
X86916184Y-55351000D01*
X86751772Y-55318297D01*
X86596900Y-55254147D01*
X86457519Y-55161015D01*
X86338985Y-55042481D01*
X86245853Y-54903100D01*
X86181703Y-54748228D01*
X86149000Y-54583816D01*
X86149000Y-54416184D01*
X86181703Y-54251772D01*
X86245853Y-54096900D01*
X86338985Y-53957519D01*
X86457519Y-53838985D01*
X86596900Y-53745853D01*
X86751772Y-53681703D01*
X86916184Y-53649000D01*
X87083816Y-53649000D01*
X87248228Y-53681703D01*
X87248228Y-53681703D01*
G37*
G36*
X95248228Y-53681703D02*
G01*
X95403100Y-53745853D01*
X95542481Y-53838985D01*
X95661015Y-53957519D01*
X95754147Y-54096900D01*
X95818297Y-54251772D01*
X95851000Y-54416184D01*
X95851000Y-54583816D01*
X95818297Y-54748228D01*
X95754147Y-54903100D01*
X95661015Y-55042481D01*
X95542481Y-55161015D01*
X95403100Y-55254147D01*
X95248228Y-55318297D01*
X95083816Y-55351000D01*
X94916184Y-55351000D01*
X94751772Y-55318297D01*
X94596900Y-55254147D01*
X94457519Y-55161015D01*
X94338985Y-55042481D01*
X94245853Y-54903100D01*
X94181703Y-54748228D01*
X94149000Y-54583816D01*
X94149000Y-54416184D01*
X94181703Y-54251772D01*
X94245853Y-54096900D01*
X94338985Y-53957519D01*
X94457519Y-53838985D01*
X94596900Y-53745853D01*
X94751772Y-53681703D01*
X94916184Y-53649000D01*
X95083816Y-53649000D01*
X95248228Y-53681703D01*
X95248228Y-53681703D01*
G37*
G36*
X35906564Y-52989389D02*
G01*
X36097833Y-53068615D01*
X36097835Y-53068616D01*
X36269973Y-53183635D01*
X36416365Y-53330027D01*
X36527489Y-53496335D01*
X36531385Y-53502167D01*
X36610611Y-53693436D01*
X36651000Y-53896484D01*
X36651000Y-54103516D01*
X36610611Y-54306564D01*
X36531385Y-54497833D01*
X36531384Y-54497835D01*
X36416365Y-54669973D01*
X36269973Y-54816365D01*
X36097835Y-54931384D01*
X36097834Y-54931385D01*
X36097833Y-54931385D01*
X35906564Y-55010611D01*
X35703516Y-55051000D01*
X35496484Y-55051000D01*
X35293436Y-55010611D01*
X35102167Y-54931385D01*
X35102166Y-54931385D01*
X35102165Y-54931384D01*
X34930027Y-54816365D01*
X34783635Y-54669973D01*
X34668616Y-54497835D01*
X34668615Y-54497833D01*
X34589389Y-54306564D01*
X34549000Y-54103516D01*
X34549000Y-53896484D01*
X34589389Y-53693436D01*
X34668615Y-53502167D01*
X34672512Y-53496335D01*
X34783635Y-53330027D01*
X34930027Y-53183635D01*
X35102165Y-53068616D01*
X35102167Y-53068615D01*
X35293436Y-52989389D01*
X35496484Y-52949000D01*
X35703516Y-52949000D01*
X35906564Y-52989389D01*
X35906564Y-52989389D01*
G37*
G36*
X29051000Y-55051000D02*
G01*
X26949000Y-55051000D01*
X26949000Y-52949000D01*
X29051000Y-52949000D01*
X29051000Y-55051000D01*
X29051000Y-55051000D01*
G37*
G36*
X20497395Y-52675546D02*
G01*
X20670466Y-52747234D01*
X20670467Y-52747235D01*
X20826227Y-52851310D01*
X20958690Y-52983773D01*
X21011081Y-53062182D01*
X21062766Y-53139534D01*
X21134454Y-53312605D01*
X21171000Y-53496333D01*
X21171000Y-53683667D01*
X21134454Y-53867395D01*
X21062766Y-54040466D01*
X21062765Y-54040467D01*
X20958690Y-54196227D01*
X20826227Y-54328690D01*
X20747818Y-54381081D01*
X20670466Y-54432766D01*
X20497395Y-54504454D01*
X20313667Y-54541000D01*
X20126333Y-54541000D01*
X19942605Y-54504454D01*
X19769534Y-54432766D01*
X19692182Y-54381081D01*
X19613773Y-54328690D01*
X19481310Y-54196227D01*
X19377235Y-54040467D01*
X19377234Y-54040466D01*
X19305546Y-53867395D01*
X19269000Y-53683667D01*
X19269000Y-53496333D01*
X19305546Y-53312605D01*
X19377234Y-53139534D01*
X19428919Y-53062182D01*
X19481310Y-52983773D01*
X19613773Y-52851310D01*
X19769533Y-52747235D01*
X19769534Y-52747234D01*
X19942605Y-52675546D01*
X20126333Y-52639000D01*
X20313667Y-52639000D01*
X20497395Y-52675546D01*
X20497395Y-52675546D01*
G37*
G36*
X18631000Y-54541000D02*
G01*
X16729000Y-54541000D01*
X16729000Y-52639000D01*
X18631000Y-52639000D01*
X18631000Y-54541000D01*
X18631000Y-54541000D01*
G37*
G36*
X81129487Y-51748996D02*
G01*
X81366253Y-51847068D01*
X81366255Y-51847069D01*
X81579339Y-51989447D01*
X81760553Y-52170661D01*
X81834776Y-52281743D01*
X81902932Y-52383747D01*
X82001004Y-52620513D01*
X82051000Y-52871861D01*
X82051000Y-53128139D01*
X82001004Y-53379487D01*
X81950189Y-53502165D01*
X81902931Y-53616255D01*
X81760553Y-53829339D01*
X81579339Y-54010553D01*
X81366255Y-54152931D01*
X81366254Y-54152932D01*
X81366253Y-54152932D01*
X81129487Y-54251004D01*
X80878139Y-54301000D01*
X80621861Y-54301000D01*
X80370513Y-54251004D01*
X80133747Y-54152932D01*
X80133746Y-54152932D01*
X80133745Y-54152931D01*
X79920661Y-54010553D01*
X79739447Y-53829339D01*
X79597069Y-53616255D01*
X79549811Y-53502165D01*
X79498996Y-53379487D01*
X79449000Y-53128139D01*
X79449000Y-52871861D01*
X79498996Y-52620513D01*
X79597068Y-52383747D01*
X79665225Y-52281743D01*
X79739447Y-52170661D01*
X79920661Y-51989447D01*
X80133745Y-51847069D01*
X80133747Y-51847068D01*
X80370513Y-51748996D01*
X80621861Y-51699000D01*
X80878139Y-51699000D01*
X81129487Y-51748996D01*
X81129487Y-51748996D01*
G37*
G36*
X40879487Y-51748996D02*
G01*
X41116253Y-51847068D01*
X41116255Y-51847069D01*
X41329339Y-51989447D01*
X41510553Y-52170661D01*
X41584776Y-52281743D01*
X41652932Y-52383747D01*
X41751004Y-52620513D01*
X41801000Y-52871861D01*
X41801000Y-53128139D01*
X41751004Y-53379487D01*
X41700189Y-53502165D01*
X41652931Y-53616255D01*
X41510553Y-53829339D01*
X41329339Y-54010553D01*
X41116255Y-54152931D01*
X41116254Y-54152932D01*
X41116253Y-54152932D01*
X40879487Y-54251004D01*
X40628139Y-54301000D01*
X40371861Y-54301000D01*
X40120513Y-54251004D01*
X39883747Y-54152932D01*
X39883746Y-54152932D01*
X39883745Y-54152931D01*
X39670661Y-54010553D01*
X39489447Y-53829339D01*
X39347069Y-53616255D01*
X39299811Y-53502165D01*
X39248996Y-53379487D01*
X39199000Y-53128139D01*
X39199000Y-52871861D01*
X39248996Y-52620513D01*
X39347068Y-52383747D01*
X39415225Y-52281743D01*
X39489447Y-52170661D01*
X39670661Y-51989447D01*
X39883745Y-51847069D01*
X39883747Y-51847068D01*
X40120513Y-51748996D01*
X40371861Y-51699000D01*
X40628139Y-51699000D01*
X40879487Y-51748996D01*
X40879487Y-51748996D01*
G37*
G36*
X57052142Y-52018242D02*
G01*
X57200101Y-52079529D01*
X57333255Y-52168499D01*
X57446501Y-52281745D01*
X57535471Y-52414899D01*
X57596758Y-52562858D01*
X57628000Y-52719925D01*
X57628000Y-52880075D01*
X57596758Y-53037142D01*
X57535471Y-53185101D01*
X57446501Y-53318255D01*
X57333255Y-53431501D01*
X57200101Y-53520471D01*
X57052142Y-53581758D01*
X56895075Y-53613000D01*
X56734925Y-53613000D01*
X56577858Y-53581758D01*
X56429899Y-53520471D01*
X56296745Y-53431501D01*
X56183499Y-53318255D01*
X56094529Y-53185101D01*
X56033242Y-53037142D01*
X56002000Y-52880075D01*
X56002000Y-52719925D01*
X56033242Y-52562858D01*
X56094529Y-52414899D01*
X56183499Y-52281745D01*
X56296745Y-52168499D01*
X56429899Y-52079529D01*
X56577858Y-52018242D01*
X56734925Y-51987000D01*
X56895075Y-51987000D01*
X57052142Y-52018242D01*
X57052142Y-52018242D01*
G37*
G36*
X54512142Y-52018242D02*
G01*
X54660101Y-52079529D01*
X54793255Y-52168499D01*
X54906501Y-52281745D01*
X54995471Y-52414899D01*
X55056758Y-52562858D01*
X55088000Y-52719925D01*
X55088000Y-52880075D01*
X55056758Y-53037142D01*
X54995471Y-53185101D01*
X54906501Y-53318255D01*
X54793255Y-53431501D01*
X54660101Y-53520471D01*
X54512142Y-53581758D01*
X54355075Y-53613000D01*
X54194925Y-53613000D01*
X54037858Y-53581758D01*
X53889899Y-53520471D01*
X53756745Y-53431501D01*
X53643499Y-53318255D01*
X53554529Y-53185101D01*
X53493242Y-53037142D01*
X53462000Y-52880075D01*
X53462000Y-52719925D01*
X53493242Y-52562858D01*
X53554529Y-52414899D01*
X53643499Y-52281745D01*
X53756745Y-52168499D01*
X53889899Y-52079529D01*
X54037858Y-52018242D01*
X54194925Y-51987000D01*
X54355075Y-51987000D01*
X54512142Y-52018242D01*
X54512142Y-52018242D01*
G37*
G36*
X59592142Y-52018242D02*
G01*
X59740101Y-52079529D01*
X59873255Y-52168499D01*
X59986501Y-52281745D01*
X60075471Y-52414899D01*
X60136758Y-52562858D01*
X60168000Y-52719925D01*
X60168000Y-52880075D01*
X60136758Y-53037142D01*
X60075471Y-53185101D01*
X59986501Y-53318255D01*
X59873255Y-53431501D01*
X59740101Y-53520471D01*
X59592142Y-53581758D01*
X59435075Y-53613000D01*
X59274925Y-53613000D01*
X59117858Y-53581758D01*
X58969899Y-53520471D01*
X58836745Y-53431501D01*
X58723499Y-53318255D01*
X58634529Y-53185101D01*
X58573242Y-53037142D01*
X58542000Y-52880075D01*
X58542000Y-52719925D01*
X58573242Y-52562858D01*
X58634529Y-52414899D01*
X58723499Y-52281745D01*
X58836745Y-52168499D01*
X58969899Y-52079529D01*
X59117858Y-52018242D01*
X59274925Y-51987000D01*
X59435075Y-51987000D01*
X59592142Y-52018242D01*
X59592142Y-52018242D01*
G37*
G36*
X62132142Y-52018242D02*
G01*
X62280101Y-52079529D01*
X62413255Y-52168499D01*
X62526501Y-52281745D01*
X62615471Y-52414899D01*
X62676758Y-52562858D01*
X62708000Y-52719925D01*
X62708000Y-52880075D01*
X62676758Y-53037142D01*
X62615471Y-53185101D01*
X62526501Y-53318255D01*
X62413255Y-53431501D01*
X62280101Y-53520471D01*
X62132142Y-53581758D01*
X61975075Y-53613000D01*
X61814925Y-53613000D01*
X61657858Y-53581758D01*
X61509899Y-53520471D01*
X61376745Y-53431501D01*
X61263499Y-53318255D01*
X61174529Y-53185101D01*
X61113242Y-53037142D01*
X61082000Y-52880075D01*
X61082000Y-52719925D01*
X61113242Y-52562858D01*
X61174529Y-52414899D01*
X61263499Y-52281745D01*
X61376745Y-52168499D01*
X61509899Y-52079529D01*
X61657858Y-52018242D01*
X61814925Y-51987000D01*
X61975075Y-51987000D01*
X62132142Y-52018242D01*
X62132142Y-52018242D01*
G37*
G36*
X64672142Y-52018242D02*
G01*
X64820101Y-52079529D01*
X64953255Y-52168499D01*
X65066501Y-52281745D01*
X65155471Y-52414899D01*
X65216758Y-52562858D01*
X65248000Y-52719925D01*
X65248000Y-52880075D01*
X65216758Y-53037142D01*
X65155471Y-53185101D01*
X65066501Y-53318255D01*
X64953255Y-53431501D01*
X64820101Y-53520471D01*
X64672142Y-53581758D01*
X64515075Y-53613000D01*
X64354925Y-53613000D01*
X64197858Y-53581758D01*
X64049899Y-53520471D01*
X63916745Y-53431501D01*
X63803499Y-53318255D01*
X63714529Y-53185101D01*
X63653242Y-53037142D01*
X63622000Y-52880075D01*
X63622000Y-52719925D01*
X63653242Y-52562858D01*
X63714529Y-52414899D01*
X63803499Y-52281745D01*
X63916745Y-52168499D01*
X64049899Y-52079529D01*
X64197858Y-52018242D01*
X64354925Y-51987000D01*
X64515075Y-51987000D01*
X64672142Y-52018242D01*
X64672142Y-52018242D01*
G37*
G36*
X67212142Y-52018242D02*
G01*
X67360101Y-52079529D01*
X67493255Y-52168499D01*
X67606501Y-52281745D01*
X67695471Y-52414899D01*
X67756758Y-52562858D01*
X67788000Y-52719925D01*
X67788000Y-52880075D01*
X67756758Y-53037142D01*
X67695471Y-53185101D01*
X67606501Y-53318255D01*
X67493255Y-53431501D01*
X67360101Y-53520471D01*
X67212142Y-53581758D01*
X67055075Y-53613000D01*
X66894925Y-53613000D01*
X66737858Y-53581758D01*
X66589899Y-53520471D01*
X66456745Y-53431501D01*
X66343499Y-53318255D01*
X66254529Y-53185101D01*
X66193242Y-53037142D01*
X66162000Y-52880075D01*
X66162000Y-52719925D01*
X66193242Y-52562858D01*
X66254529Y-52414899D01*
X66343499Y-52281745D01*
X66456745Y-52168499D01*
X66589899Y-52079529D01*
X66737858Y-52018242D01*
X66894925Y-51987000D01*
X67055075Y-51987000D01*
X67212142Y-52018242D01*
X67212142Y-52018242D01*
G37*
G36*
X69752142Y-52018242D02*
G01*
X69900101Y-52079529D01*
X70033255Y-52168499D01*
X70146501Y-52281745D01*
X70235471Y-52414899D01*
X70296758Y-52562858D01*
X70328000Y-52719925D01*
X70328000Y-52880075D01*
X70296758Y-53037142D01*
X70235471Y-53185101D01*
X70146501Y-53318255D01*
X70033255Y-53431501D01*
X69900101Y-53520471D01*
X69752142Y-53581758D01*
X69595075Y-53613000D01*
X69434925Y-53613000D01*
X69277858Y-53581758D01*
X69129899Y-53520471D01*
X68996745Y-53431501D01*
X68883499Y-53318255D01*
X68794529Y-53185101D01*
X68733242Y-53037142D01*
X68702000Y-52880075D01*
X68702000Y-52719925D01*
X68733242Y-52562858D01*
X68794529Y-52414899D01*
X68883499Y-52281745D01*
X68996745Y-52168499D01*
X69129899Y-52079529D01*
X69277858Y-52018242D01*
X69434925Y-51987000D01*
X69595075Y-51987000D01*
X69752142Y-52018242D01*
X69752142Y-52018242D01*
G37*
G36*
X52548000Y-53613000D02*
G01*
X50922000Y-53613000D01*
X50922000Y-51987000D01*
X52548000Y-51987000D01*
X52548000Y-53613000D01*
X52548000Y-53613000D01*
G37*
G36*
X87851000Y-52851000D02*
G01*
X86149000Y-52851000D01*
X86149000Y-51149000D01*
X87851000Y-51149000D01*
X87851000Y-52851000D01*
X87851000Y-52851000D01*
G37*
G36*
X95851000Y-52851000D02*
G01*
X94149000Y-52851000D01*
X94149000Y-51149000D01*
X95851000Y-51149000D01*
X95851000Y-52851000D01*
X95851000Y-52851000D01*
G37*
G36*
X10051000Y-52171000D02*
G01*
X8149000Y-52171000D01*
X8149000Y-50269000D01*
X10051000Y-50269000D01*
X10051000Y-52171000D01*
X10051000Y-52171000D01*
G37*
G36*
X11917395Y-50305546D02*
G01*
X12090466Y-50377234D01*
X12090467Y-50377235D01*
X12246227Y-50481310D01*
X12378690Y-50613773D01*
X12378691Y-50613775D01*
X12482766Y-50769534D01*
X12554454Y-50942605D01*
X12591000Y-51126333D01*
X12591000Y-51313667D01*
X12554454Y-51497395D01*
X12482766Y-51670466D01*
X12482765Y-51670467D01*
X12378690Y-51826227D01*
X12246227Y-51958690D01*
X12167818Y-52011081D01*
X12090466Y-52062766D01*
X11917395Y-52134454D01*
X11733667Y-52171000D01*
X11546333Y-52171000D01*
X11362605Y-52134454D01*
X11189534Y-52062766D01*
X11112182Y-52011081D01*
X11033773Y-51958690D01*
X10901310Y-51826227D01*
X10797235Y-51670467D01*
X10797234Y-51670466D01*
X10725546Y-51497395D01*
X10689000Y-51313667D01*
X10689000Y-51126333D01*
X10725546Y-50942605D01*
X10797234Y-50769534D01*
X10901309Y-50613775D01*
X10901310Y-50613773D01*
X11033773Y-50481310D01*
X11189533Y-50377235D01*
X11189534Y-50377234D01*
X11362605Y-50305546D01*
X11546333Y-50269000D01*
X11733667Y-50269000D01*
X11917395Y-50305546D01*
X11917395Y-50305546D01*
G37*
G36*
X17817395Y-45895546D02*
G01*
X17990466Y-45967234D01*
X17990467Y-45967235D01*
X18146227Y-46071310D01*
X18278690Y-46203773D01*
X18278691Y-46203775D01*
X18382766Y-46359534D01*
X18454454Y-46532605D01*
X18491000Y-46716333D01*
X18491000Y-46903667D01*
X18454454Y-47087395D01*
X18382766Y-47260466D01*
X18382765Y-47260467D01*
X18278690Y-47416227D01*
X18146227Y-47548690D01*
X18067818Y-47601081D01*
X17990466Y-47652766D01*
X17817395Y-47724454D01*
X17633667Y-47761000D01*
X17446333Y-47761000D01*
X17262605Y-47724454D01*
X17089534Y-47652766D01*
X17012182Y-47601081D01*
X16933773Y-47548690D01*
X16801310Y-47416227D01*
X16697235Y-47260467D01*
X16697234Y-47260466D01*
X16625546Y-47087395D01*
X16589000Y-46903667D01*
X16589000Y-46716333D01*
X16625546Y-46532605D01*
X16697234Y-46359534D01*
X16801309Y-46203775D01*
X16801310Y-46203773D01*
X16933773Y-46071310D01*
X17089533Y-45967235D01*
X17089534Y-45967234D01*
X17262605Y-45895546D01*
X17446333Y-45859000D01*
X17633667Y-45859000D01*
X17817395Y-45895546D01*
X17817395Y-45895546D01*
G37*
G36*
X15951000Y-47761000D02*
G01*
X14049000Y-47761000D01*
X14049000Y-45859000D01*
X15951000Y-45859000D01*
X15951000Y-47761000D01*
X15951000Y-47761000D01*
G37*
G36*
X26497395Y-45545546D02*
G01*
X26670466Y-45617234D01*
X26670467Y-45617235D01*
X26826227Y-45721310D01*
X26958690Y-45853773D01*
X26978062Y-45882765D01*
X27062766Y-46009534D01*
X27134454Y-46182605D01*
X27171000Y-46366333D01*
X27171000Y-46553667D01*
X27134454Y-46737395D01*
X27062766Y-46910466D01*
X27062765Y-46910467D01*
X26958690Y-47066227D01*
X26826227Y-47198690D01*
X26747818Y-47251081D01*
X26670466Y-47302766D01*
X26497395Y-47374454D01*
X26313667Y-47411000D01*
X26126333Y-47411000D01*
X25942605Y-47374454D01*
X25769534Y-47302766D01*
X25692182Y-47251081D01*
X25613773Y-47198690D01*
X25481310Y-47066227D01*
X25377235Y-46910467D01*
X25377234Y-46910466D01*
X25305546Y-46737395D01*
X25269000Y-46553667D01*
X25269000Y-46366333D01*
X25305546Y-46182605D01*
X25377234Y-46009534D01*
X25461938Y-45882765D01*
X25481310Y-45853773D01*
X25613773Y-45721310D01*
X25769533Y-45617235D01*
X25769534Y-45617234D01*
X25942605Y-45545546D01*
X26126333Y-45509000D01*
X26313667Y-45509000D01*
X26497395Y-45545546D01*
X26497395Y-45545546D01*
G37*
G36*
X24631000Y-47411000D02*
G01*
X22729000Y-47411000D01*
X22729000Y-45509000D01*
X24631000Y-45509000D01*
X24631000Y-47411000D01*
X24631000Y-47411000D01*
G37*
G36*
X10187395Y-44125546D02*
G01*
X10360466Y-44197234D01*
X10360467Y-44197235D01*
X10516227Y-44301310D01*
X10648690Y-44433773D01*
X10701081Y-44512182D01*
X10752766Y-44589534D01*
X10824454Y-44762605D01*
X10861000Y-44946333D01*
X10861000Y-45133667D01*
X10824454Y-45317395D01*
X10752766Y-45490466D01*
X10740382Y-45509000D01*
X10648690Y-45646227D01*
X10516227Y-45778690D01*
X10437818Y-45831081D01*
X10360466Y-45882766D01*
X10187395Y-45954454D01*
X10003667Y-45991000D01*
X9816333Y-45991000D01*
X9632605Y-45954454D01*
X9459534Y-45882766D01*
X9382182Y-45831081D01*
X9303773Y-45778690D01*
X9171310Y-45646227D01*
X9079618Y-45509000D01*
X9067234Y-45490466D01*
X8995546Y-45317395D01*
X8959000Y-45133667D01*
X8959000Y-44946333D01*
X8995546Y-44762605D01*
X9067234Y-44589534D01*
X9118919Y-44512182D01*
X9171310Y-44433773D01*
X9303773Y-44301310D01*
X9459533Y-44197235D01*
X9459534Y-44197234D01*
X9632605Y-44125546D01*
X9816333Y-44089000D01*
X10003667Y-44089000D01*
X10187395Y-44125546D01*
X10187395Y-44125546D01*
G37*
G36*
X8321000Y-45991000D02*
G01*
X6419000Y-45991000D01*
X6419000Y-44089000D01*
X8321000Y-44089000D01*
X8321000Y-45991000D01*
X8321000Y-45991000D01*
G37*
G36*
X65262394Y-43900934D02*
G01*
X65413624Y-43963576D01*
X65413626Y-43963577D01*
X65549732Y-44054520D01*
X65665480Y-44170268D01*
X65753039Y-44301310D01*
X65756424Y-44306376D01*
X65819066Y-44457606D01*
X65851000Y-44618152D01*
X65851000Y-44781848D01*
X65819066Y-44942394D01*
X65756424Y-45093624D01*
X65756423Y-45093626D01*
X65665480Y-45229732D01*
X65549732Y-45345480D01*
X65413626Y-45436423D01*
X65413625Y-45436424D01*
X65413624Y-45436424D01*
X65262394Y-45499066D01*
X65101848Y-45531000D01*
X64938152Y-45531000D01*
X64777606Y-45499066D01*
X64626376Y-45436424D01*
X64626375Y-45436424D01*
X64626374Y-45436423D01*
X64490268Y-45345480D01*
X64374520Y-45229732D01*
X64283577Y-45093626D01*
X64283576Y-45093624D01*
X64220934Y-44942394D01*
X64189000Y-44781848D01*
X64189000Y-44618152D01*
X64220934Y-44457606D01*
X64283576Y-44306376D01*
X64286961Y-44301310D01*
X64374520Y-44170268D01*
X64490268Y-44054520D01*
X64626374Y-43963577D01*
X64626376Y-43963576D01*
X64777606Y-43900934D01*
X64938152Y-43869000D01*
X65101848Y-43869000D01*
X65262394Y-43900934D01*
X65262394Y-43900934D01*
G37*
G36*
X88122394Y-43900934D02*
G01*
X88273624Y-43963576D01*
X88273626Y-43963577D01*
X88409732Y-44054520D01*
X88525480Y-44170268D01*
X88613039Y-44301310D01*
X88616424Y-44306376D01*
X88679066Y-44457606D01*
X88711000Y-44618152D01*
X88711000Y-44781848D01*
X88679066Y-44942394D01*
X88616424Y-45093624D01*
X88616423Y-45093626D01*
X88525480Y-45229732D01*
X88409732Y-45345480D01*
X88273626Y-45436423D01*
X88273625Y-45436424D01*
X88273624Y-45436424D01*
X88122394Y-45499066D01*
X87961848Y-45531000D01*
X87798152Y-45531000D01*
X87637606Y-45499066D01*
X87486376Y-45436424D01*
X87486375Y-45436424D01*
X87486374Y-45436423D01*
X87350268Y-45345480D01*
X87234520Y-45229732D01*
X87143577Y-45093626D01*
X87143576Y-45093624D01*
X87080934Y-44942394D01*
X87049000Y-44781848D01*
X87049000Y-44618152D01*
X87080934Y-44457606D01*
X87143576Y-44306376D01*
X87146961Y-44301310D01*
X87234520Y-44170268D01*
X87350268Y-44054520D01*
X87486374Y-43963577D01*
X87486376Y-43963576D01*
X87637606Y-43900934D01*
X87798152Y-43869000D01*
X87961848Y-43869000D01*
X88122394Y-43900934D01*
X88122394Y-43900934D01*
G37*
G36*
X70342394Y-43900934D02*
G01*
X70493624Y-43963576D01*
X70493626Y-43963577D01*
X70629732Y-44054520D01*
X70745480Y-44170268D01*
X70833039Y-44301310D01*
X70836424Y-44306376D01*
X70899066Y-44457606D01*
X70931000Y-44618152D01*
X70931000Y-44781848D01*
X70899066Y-44942394D01*
X70836424Y-45093624D01*
X70836423Y-45093626D01*
X70745480Y-45229732D01*
X70629732Y-45345480D01*
X70493626Y-45436423D01*
X70493625Y-45436424D01*
X70493624Y-45436424D01*
X70342394Y-45499066D01*
X70181848Y-45531000D01*
X70018152Y-45531000D01*
X69857606Y-45499066D01*
X69706376Y-45436424D01*
X69706375Y-45436424D01*
X69706374Y-45436423D01*
X69570268Y-45345480D01*
X69454520Y-45229732D01*
X69363577Y-45093626D01*
X69363576Y-45093624D01*
X69300934Y-44942394D01*
X69269000Y-44781848D01*
X69269000Y-44618152D01*
X69300934Y-44457606D01*
X69363576Y-44306376D01*
X69366961Y-44301310D01*
X69454520Y-44170268D01*
X69570268Y-44054520D01*
X69706374Y-43963577D01*
X69706376Y-43963576D01*
X69857606Y-43900934D01*
X70018152Y-43869000D01*
X70181848Y-43869000D01*
X70342394Y-43900934D01*
X70342394Y-43900934D01*
G37*
G36*
X72882394Y-43900934D02*
G01*
X73033624Y-43963576D01*
X73033626Y-43963577D01*
X73169732Y-44054520D01*
X73285480Y-44170268D01*
X73373039Y-44301310D01*
X73376424Y-44306376D01*
X73439066Y-44457606D01*
X73471000Y-44618152D01*
X73471000Y-44781848D01*
X73439066Y-44942394D01*
X73376424Y-45093624D01*
X73376423Y-45093626D01*
X73285480Y-45229732D01*
X73169732Y-45345480D01*
X73033626Y-45436423D01*
X73033625Y-45436424D01*
X73033624Y-45436424D01*
X72882394Y-45499066D01*
X72721848Y-45531000D01*
X72558152Y-45531000D01*
X72397606Y-45499066D01*
X72246376Y-45436424D01*
X72246375Y-45436424D01*
X72246374Y-45436423D01*
X72110268Y-45345480D01*
X71994520Y-45229732D01*
X71903577Y-45093626D01*
X71903576Y-45093624D01*
X71840934Y-44942394D01*
X71809000Y-44781848D01*
X71809000Y-44618152D01*
X71840934Y-44457606D01*
X71903576Y-44306376D01*
X71906961Y-44301310D01*
X71994520Y-44170268D01*
X72110268Y-44054520D01*
X72246374Y-43963577D01*
X72246376Y-43963576D01*
X72397606Y-43900934D01*
X72558152Y-43869000D01*
X72721848Y-43869000D01*
X72882394Y-43900934D01*
X72882394Y-43900934D01*
G37*
G36*
X75422394Y-43900934D02*
G01*
X75573624Y-43963576D01*
X75573626Y-43963577D01*
X75709732Y-44054520D01*
X75825480Y-44170268D01*
X75913039Y-44301310D01*
X75916424Y-44306376D01*
X75979066Y-44457606D01*
X76011000Y-44618152D01*
X76011000Y-44781848D01*
X75979066Y-44942394D01*
X75916424Y-45093624D01*
X75916423Y-45093626D01*
X75825480Y-45229732D01*
X75709732Y-45345480D01*
X75573626Y-45436423D01*
X75573625Y-45436424D01*
X75573624Y-45436424D01*
X75422394Y-45499066D01*
X75261848Y-45531000D01*
X75098152Y-45531000D01*
X74937606Y-45499066D01*
X74786376Y-45436424D01*
X74786375Y-45436424D01*
X74786374Y-45436423D01*
X74650268Y-45345480D01*
X74534520Y-45229732D01*
X74443577Y-45093626D01*
X74443576Y-45093624D01*
X74380934Y-44942394D01*
X74349000Y-44781848D01*
X74349000Y-44618152D01*
X74380934Y-44457606D01*
X74443576Y-44306376D01*
X74446961Y-44301310D01*
X74534520Y-44170268D01*
X74650268Y-44054520D01*
X74786374Y-43963577D01*
X74786376Y-43963576D01*
X74937606Y-43900934D01*
X75098152Y-43869000D01*
X75261848Y-43869000D01*
X75422394Y-43900934D01*
X75422394Y-43900934D01*
G37*
G36*
X77962394Y-43900934D02*
G01*
X78113624Y-43963576D01*
X78113626Y-43963577D01*
X78249732Y-44054520D01*
X78365480Y-44170268D01*
X78453039Y-44301310D01*
X78456424Y-44306376D01*
X78519066Y-44457606D01*
X78551000Y-44618152D01*
X78551000Y-44781848D01*
X78519066Y-44942394D01*
X78456424Y-45093624D01*
X78456423Y-45093626D01*
X78365480Y-45229732D01*
X78249732Y-45345480D01*
X78113626Y-45436423D01*
X78113625Y-45436424D01*
X78113624Y-45436424D01*
X77962394Y-45499066D01*
X77801848Y-45531000D01*
X77638152Y-45531000D01*
X77477606Y-45499066D01*
X77326376Y-45436424D01*
X77326375Y-45436424D01*
X77326374Y-45436423D01*
X77190268Y-45345480D01*
X77074520Y-45229732D01*
X76983577Y-45093626D01*
X76983576Y-45093624D01*
X76920934Y-44942394D01*
X76889000Y-44781848D01*
X76889000Y-44618152D01*
X76920934Y-44457606D01*
X76983576Y-44306376D01*
X76986961Y-44301310D01*
X77074520Y-44170268D01*
X77190268Y-44054520D01*
X77326374Y-43963577D01*
X77326376Y-43963576D01*
X77477606Y-43900934D01*
X77638152Y-43869000D01*
X77801848Y-43869000D01*
X77962394Y-43900934D01*
X77962394Y-43900934D01*
G37*
G36*
X80502394Y-43900934D02*
G01*
X80653624Y-43963576D01*
X80653626Y-43963577D01*
X80789732Y-44054520D01*
X80905480Y-44170268D01*
X80993039Y-44301310D01*
X80996424Y-44306376D01*
X81059066Y-44457606D01*
X81091000Y-44618152D01*
X81091000Y-44781848D01*
X81059066Y-44942394D01*
X80996424Y-45093624D01*
X80996423Y-45093626D01*
X80905480Y-45229732D01*
X80789732Y-45345480D01*
X80653626Y-45436423D01*
X80653625Y-45436424D01*
X80653624Y-45436424D01*
X80502394Y-45499066D01*
X80341848Y-45531000D01*
X80178152Y-45531000D01*
X80017606Y-45499066D01*
X79866376Y-45436424D01*
X79866375Y-45436424D01*
X79866374Y-45436423D01*
X79730268Y-45345480D01*
X79614520Y-45229732D01*
X79523577Y-45093626D01*
X79523576Y-45093624D01*
X79460934Y-44942394D01*
X79429000Y-44781848D01*
X79429000Y-44618152D01*
X79460934Y-44457606D01*
X79523576Y-44306376D01*
X79526961Y-44301310D01*
X79614520Y-44170268D01*
X79730268Y-44054520D01*
X79866374Y-43963577D01*
X79866376Y-43963576D01*
X80017606Y-43900934D01*
X80178152Y-43869000D01*
X80341848Y-43869000D01*
X80502394Y-43900934D01*
X80502394Y-43900934D01*
G37*
G36*
X52562394Y-43900934D02*
G01*
X52713624Y-43963576D01*
X52713626Y-43963577D01*
X52849732Y-44054520D01*
X52965480Y-44170268D01*
X53053039Y-44301310D01*
X53056424Y-44306376D01*
X53119066Y-44457606D01*
X53151000Y-44618152D01*
X53151000Y-44781848D01*
X53119066Y-44942394D01*
X53056424Y-45093624D01*
X53056423Y-45093626D01*
X52965480Y-45229732D01*
X52849732Y-45345480D01*
X52713626Y-45436423D01*
X52713625Y-45436424D01*
X52713624Y-45436424D01*
X52562394Y-45499066D01*
X52401848Y-45531000D01*
X52238152Y-45531000D01*
X52077606Y-45499066D01*
X51926376Y-45436424D01*
X51926375Y-45436424D01*
X51926374Y-45436423D01*
X51790268Y-45345480D01*
X51674520Y-45229732D01*
X51583577Y-45093626D01*
X51583576Y-45093624D01*
X51520934Y-44942394D01*
X51489000Y-44781848D01*
X51489000Y-44618152D01*
X51520934Y-44457606D01*
X51583576Y-44306376D01*
X51586961Y-44301310D01*
X51674520Y-44170268D01*
X51790268Y-44054520D01*
X51926374Y-43963577D01*
X51926376Y-43963576D01*
X52077606Y-43900934D01*
X52238152Y-43869000D01*
X52401848Y-43869000D01*
X52562394Y-43900934D01*
X52562394Y-43900934D01*
G37*
G36*
X85582394Y-43900934D02*
G01*
X85733624Y-43963576D01*
X85733626Y-43963577D01*
X85869732Y-44054520D01*
X85985480Y-44170268D01*
X86073039Y-44301310D01*
X86076424Y-44306376D01*
X86139066Y-44457606D01*
X86171000Y-44618152D01*
X86171000Y-44781848D01*
X86139066Y-44942394D01*
X86076424Y-45093624D01*
X86076423Y-45093626D01*
X85985480Y-45229732D01*
X85869732Y-45345480D01*
X85733626Y-45436423D01*
X85733625Y-45436424D01*
X85733624Y-45436424D01*
X85582394Y-45499066D01*
X85421848Y-45531000D01*
X85258152Y-45531000D01*
X85097606Y-45499066D01*
X84946376Y-45436424D01*
X84946375Y-45436424D01*
X84946374Y-45436423D01*
X84810268Y-45345480D01*
X84694520Y-45229732D01*
X84603577Y-45093626D01*
X84603576Y-45093624D01*
X84540934Y-44942394D01*
X84509000Y-44781848D01*
X84509000Y-44618152D01*
X84540934Y-44457606D01*
X84603576Y-44306376D01*
X84606961Y-44301310D01*
X84694520Y-44170268D01*
X84810268Y-44054520D01*
X84946374Y-43963577D01*
X84946376Y-43963576D01*
X85097606Y-43900934D01*
X85258152Y-43869000D01*
X85421848Y-43869000D01*
X85582394Y-43900934D01*
X85582394Y-43900934D01*
G37*
G36*
X48071000Y-45531000D02*
G01*
X46409000Y-45531000D01*
X46409000Y-43869000D01*
X48071000Y-43869000D01*
X48071000Y-45531000D01*
X48071000Y-45531000D01*
G37*
G36*
X50022394Y-43900934D02*
G01*
X50173624Y-43963576D01*
X50173626Y-43963577D01*
X50309732Y-44054520D01*
X50425480Y-44170268D01*
X50513039Y-44301310D01*
X50516424Y-44306376D01*
X50579066Y-44457606D01*
X50611000Y-44618152D01*
X50611000Y-44781848D01*
X50579066Y-44942394D01*
X50516424Y-45093624D01*
X50516423Y-45093626D01*
X50425480Y-45229732D01*
X50309732Y-45345480D01*
X50173626Y-45436423D01*
X50173625Y-45436424D01*
X50173624Y-45436424D01*
X50022394Y-45499066D01*
X49861848Y-45531000D01*
X49698152Y-45531000D01*
X49537606Y-45499066D01*
X49386376Y-45436424D01*
X49386375Y-45436424D01*
X49386374Y-45436423D01*
X49250268Y-45345480D01*
X49134520Y-45229732D01*
X49043577Y-45093626D01*
X49043576Y-45093624D01*
X48980934Y-44942394D01*
X48949000Y-44781848D01*
X48949000Y-44618152D01*
X48980934Y-44457606D01*
X49043576Y-44306376D01*
X49046961Y-44301310D01*
X49134520Y-44170268D01*
X49250268Y-44054520D01*
X49386374Y-43963577D01*
X49386376Y-43963576D01*
X49537606Y-43900934D01*
X49698152Y-43869000D01*
X49861848Y-43869000D01*
X50022394Y-43900934D01*
X50022394Y-43900934D01*
G37*
G36*
X93202394Y-43900934D02*
G01*
X93353624Y-43963576D01*
X93353626Y-43963577D01*
X93489732Y-44054520D01*
X93605480Y-44170268D01*
X93693039Y-44301310D01*
X93696424Y-44306376D01*
X93759066Y-44457606D01*
X93791000Y-44618152D01*
X93791000Y-44781848D01*
X93759066Y-44942394D01*
X93696424Y-45093624D01*
X93696423Y-45093626D01*
X93605480Y-45229732D01*
X93489732Y-45345480D01*
X93353626Y-45436423D01*
X93353625Y-45436424D01*
X93353624Y-45436424D01*
X93202394Y-45499066D01*
X93041848Y-45531000D01*
X92878152Y-45531000D01*
X92717606Y-45499066D01*
X92566376Y-45436424D01*
X92566375Y-45436424D01*
X92566374Y-45436423D01*
X92430268Y-45345480D01*
X92314520Y-45229732D01*
X92223577Y-45093626D01*
X92223576Y-45093624D01*
X92160934Y-44942394D01*
X92129000Y-44781848D01*
X92129000Y-44618152D01*
X92160934Y-44457606D01*
X92223576Y-44306376D01*
X92226961Y-44301310D01*
X92314520Y-44170268D01*
X92430268Y-44054520D01*
X92566374Y-43963577D01*
X92566376Y-43963576D01*
X92717606Y-43900934D01*
X92878152Y-43869000D01*
X93041848Y-43869000D01*
X93202394Y-43900934D01*
X93202394Y-43900934D01*
G37*
G36*
X60182394Y-43900934D02*
G01*
X60333624Y-43963576D01*
X60333626Y-43963577D01*
X60469732Y-44054520D01*
X60585480Y-44170268D01*
X60673039Y-44301310D01*
X60676424Y-44306376D01*
X60739066Y-44457606D01*
X60771000Y-44618152D01*
X60771000Y-44781848D01*
X60739066Y-44942394D01*
X60676424Y-45093624D01*
X60676423Y-45093626D01*
X60585480Y-45229732D01*
X60469732Y-45345480D01*
X60333626Y-45436423D01*
X60333625Y-45436424D01*
X60333624Y-45436424D01*
X60182394Y-45499066D01*
X60021848Y-45531000D01*
X59858152Y-45531000D01*
X59697606Y-45499066D01*
X59546376Y-45436424D01*
X59546375Y-45436424D01*
X59546374Y-45436423D01*
X59410268Y-45345480D01*
X59294520Y-45229732D01*
X59203577Y-45093626D01*
X59203576Y-45093624D01*
X59140934Y-44942394D01*
X59109000Y-44781848D01*
X59109000Y-44618152D01*
X59140934Y-44457606D01*
X59203576Y-44306376D01*
X59206961Y-44301310D01*
X59294520Y-44170268D01*
X59410268Y-44054520D01*
X59546374Y-43963577D01*
X59546376Y-43963576D01*
X59697606Y-43900934D01*
X59858152Y-43869000D01*
X60021848Y-43869000D01*
X60182394Y-43900934D01*
X60182394Y-43900934D01*
G37*
G36*
X57642394Y-43900934D02*
G01*
X57793624Y-43963576D01*
X57793626Y-43963577D01*
X57929732Y-44054520D01*
X58045480Y-44170268D01*
X58133039Y-44301310D01*
X58136424Y-44306376D01*
X58199066Y-44457606D01*
X58231000Y-44618152D01*
X58231000Y-44781848D01*
X58199066Y-44942394D01*
X58136424Y-45093624D01*
X58136423Y-45093626D01*
X58045480Y-45229732D01*
X57929732Y-45345480D01*
X57793626Y-45436423D01*
X57793625Y-45436424D01*
X57793624Y-45436424D01*
X57642394Y-45499066D01*
X57481848Y-45531000D01*
X57318152Y-45531000D01*
X57157606Y-45499066D01*
X57006376Y-45436424D01*
X57006375Y-45436424D01*
X57006374Y-45436423D01*
X56870268Y-45345480D01*
X56754520Y-45229732D01*
X56663577Y-45093626D01*
X56663576Y-45093624D01*
X56600934Y-44942394D01*
X56569000Y-44781848D01*
X56569000Y-44618152D01*
X56600934Y-44457606D01*
X56663576Y-44306376D01*
X56666961Y-44301310D01*
X56754520Y-44170268D01*
X56870268Y-44054520D01*
X57006374Y-43963577D01*
X57006376Y-43963576D01*
X57157606Y-43900934D01*
X57318152Y-43869000D01*
X57481848Y-43869000D01*
X57642394Y-43900934D01*
X57642394Y-43900934D01*
G37*
G36*
X55102394Y-43900934D02*
G01*
X55253624Y-43963576D01*
X55253626Y-43963577D01*
X55389732Y-44054520D01*
X55505480Y-44170268D01*
X55593039Y-44301310D01*
X55596424Y-44306376D01*
X55659066Y-44457606D01*
X55691000Y-44618152D01*
X55691000Y-44781848D01*
X55659066Y-44942394D01*
X55596424Y-45093624D01*
X55596423Y-45093626D01*
X55505480Y-45229732D01*
X55389732Y-45345480D01*
X55253626Y-45436423D01*
X55253625Y-45436424D01*
X55253624Y-45436424D01*
X55102394Y-45499066D01*
X54941848Y-45531000D01*
X54778152Y-45531000D01*
X54617606Y-45499066D01*
X54466376Y-45436424D01*
X54466375Y-45436424D01*
X54466374Y-45436423D01*
X54330268Y-45345480D01*
X54214520Y-45229732D01*
X54123577Y-45093626D01*
X54123576Y-45093624D01*
X54060934Y-44942394D01*
X54029000Y-44781848D01*
X54029000Y-44618152D01*
X54060934Y-44457606D01*
X54123576Y-44306376D01*
X54126961Y-44301310D01*
X54214520Y-44170268D01*
X54330268Y-44054520D01*
X54466374Y-43963577D01*
X54466376Y-43963576D01*
X54617606Y-43900934D01*
X54778152Y-43869000D01*
X54941848Y-43869000D01*
X55102394Y-43900934D01*
X55102394Y-43900934D01*
G37*
G36*
X67802394Y-43900934D02*
G01*
X67953624Y-43963576D01*
X67953626Y-43963577D01*
X68089732Y-44054520D01*
X68205480Y-44170268D01*
X68293039Y-44301310D01*
X68296424Y-44306376D01*
X68359066Y-44457606D01*
X68391000Y-44618152D01*
X68391000Y-44781848D01*
X68359066Y-44942394D01*
X68296424Y-45093624D01*
X68296423Y-45093626D01*
X68205480Y-45229732D01*
X68089732Y-45345480D01*
X67953626Y-45436423D01*
X67953625Y-45436424D01*
X67953624Y-45436424D01*
X67802394Y-45499066D01*
X67641848Y-45531000D01*
X67478152Y-45531000D01*
X67317606Y-45499066D01*
X67166376Y-45436424D01*
X67166375Y-45436424D01*
X67166374Y-45436423D01*
X67030268Y-45345480D01*
X66914520Y-45229732D01*
X66823577Y-45093626D01*
X66823576Y-45093624D01*
X66760934Y-44942394D01*
X66729000Y-44781848D01*
X66729000Y-44618152D01*
X66760934Y-44457606D01*
X66823576Y-44306376D01*
X66826961Y-44301310D01*
X66914520Y-44170268D01*
X67030268Y-44054520D01*
X67166374Y-43963577D01*
X67166376Y-43963576D01*
X67317606Y-43900934D01*
X67478152Y-43869000D01*
X67641848Y-43869000D01*
X67802394Y-43900934D01*
X67802394Y-43900934D01*
G37*
G36*
X83042394Y-43900934D02*
G01*
X83193624Y-43963576D01*
X83193626Y-43963577D01*
X83329732Y-44054520D01*
X83445480Y-44170268D01*
X83533039Y-44301310D01*
X83536424Y-44306376D01*
X83599066Y-44457606D01*
X83631000Y-44618152D01*
X83631000Y-44781848D01*
X83599066Y-44942394D01*
X83536424Y-45093624D01*
X83536423Y-45093626D01*
X83445480Y-45229732D01*
X83329732Y-45345480D01*
X83193626Y-45436423D01*
X83193625Y-45436424D01*
X83193624Y-45436424D01*
X83042394Y-45499066D01*
X82881848Y-45531000D01*
X82718152Y-45531000D01*
X82557606Y-45499066D01*
X82406376Y-45436424D01*
X82406375Y-45436424D01*
X82406374Y-45436423D01*
X82270268Y-45345480D01*
X82154520Y-45229732D01*
X82063577Y-45093626D01*
X82063576Y-45093624D01*
X82000934Y-44942394D01*
X81969000Y-44781848D01*
X81969000Y-44618152D01*
X82000934Y-44457606D01*
X82063576Y-44306376D01*
X82066961Y-44301310D01*
X82154520Y-44170268D01*
X82270268Y-44054520D01*
X82406374Y-43963577D01*
X82406376Y-43963576D01*
X82557606Y-43900934D01*
X82718152Y-43869000D01*
X82881848Y-43869000D01*
X83042394Y-43900934D01*
X83042394Y-43900934D01*
G37*
G36*
X90662394Y-43900934D02*
G01*
X90813624Y-43963576D01*
X90813626Y-43963577D01*
X90949732Y-44054520D01*
X91065480Y-44170268D01*
X91153039Y-44301310D01*
X91156424Y-44306376D01*
X91219066Y-44457606D01*
X91251000Y-44618152D01*
X91251000Y-44781848D01*
X91219066Y-44942394D01*
X91156424Y-45093624D01*
X91156423Y-45093626D01*
X91065480Y-45229732D01*
X90949732Y-45345480D01*
X90813626Y-45436423D01*
X90813625Y-45436424D01*
X90813624Y-45436424D01*
X90662394Y-45499066D01*
X90501848Y-45531000D01*
X90338152Y-45531000D01*
X90177606Y-45499066D01*
X90026376Y-45436424D01*
X90026375Y-45436424D01*
X90026374Y-45436423D01*
X89890268Y-45345480D01*
X89774520Y-45229732D01*
X89683577Y-45093626D01*
X89683576Y-45093624D01*
X89620934Y-44942394D01*
X89589000Y-44781848D01*
X89589000Y-44618152D01*
X89620934Y-44457606D01*
X89683576Y-44306376D01*
X89686961Y-44301310D01*
X89774520Y-44170268D01*
X89890268Y-44054520D01*
X90026374Y-43963577D01*
X90026376Y-43963576D01*
X90177606Y-43900934D01*
X90338152Y-43869000D01*
X90501848Y-43869000D01*
X90662394Y-43900934D01*
X90662394Y-43900934D01*
G37*
G36*
X62722394Y-43900934D02*
G01*
X62873624Y-43963576D01*
X62873626Y-43963577D01*
X63009732Y-44054520D01*
X63125480Y-44170268D01*
X63213039Y-44301310D01*
X63216424Y-44306376D01*
X63279066Y-44457606D01*
X63311000Y-44618152D01*
X63311000Y-44781848D01*
X63279066Y-44942394D01*
X63216424Y-45093624D01*
X63216423Y-45093626D01*
X63125480Y-45229732D01*
X63009732Y-45345480D01*
X62873626Y-45436423D01*
X62873625Y-45436424D01*
X62873624Y-45436424D01*
X62722394Y-45499066D01*
X62561848Y-45531000D01*
X62398152Y-45531000D01*
X62237606Y-45499066D01*
X62086376Y-45436424D01*
X62086375Y-45436424D01*
X62086374Y-45436423D01*
X61950268Y-45345480D01*
X61834520Y-45229732D01*
X61743577Y-45093626D01*
X61743576Y-45093624D01*
X61680934Y-44942394D01*
X61649000Y-44781848D01*
X61649000Y-44618152D01*
X61680934Y-44457606D01*
X61743576Y-44306376D01*
X61746961Y-44301310D01*
X61834520Y-44170268D01*
X61950268Y-44054520D01*
X62086374Y-43963577D01*
X62086376Y-43963576D01*
X62237606Y-43900934D01*
X62398152Y-43869000D01*
X62561848Y-43869000D01*
X62722394Y-43900934D01*
X62722394Y-43900934D01*
G37*
G36*
X15281000Y-42631000D02*
G01*
X13379000Y-42631000D01*
X13379000Y-40729000D01*
X15281000Y-40729000D01*
X15281000Y-42631000D01*
X15281000Y-42631000D01*
G37*
G36*
X17147395Y-40765546D02*
G01*
X17320466Y-40837234D01*
X17320467Y-40837235D01*
X17476227Y-40941310D01*
X17608690Y-41073773D01*
X17608691Y-41073775D01*
X17712766Y-41229534D01*
X17784454Y-41402605D01*
X17821000Y-41586333D01*
X17821000Y-41773667D01*
X17784454Y-41957395D01*
X17712766Y-42130466D01*
X17712765Y-42130467D01*
X17608690Y-42286227D01*
X17476227Y-42418690D01*
X17397818Y-42471081D01*
X17320466Y-42522766D01*
X17147395Y-42594454D01*
X16963667Y-42631000D01*
X16776333Y-42631000D01*
X16592605Y-42594454D01*
X16419534Y-42522766D01*
X16342182Y-42471081D01*
X16263773Y-42418690D01*
X16131310Y-42286227D01*
X16027235Y-42130467D01*
X16027234Y-42130466D01*
X15955546Y-41957395D01*
X15919000Y-41773667D01*
X15919000Y-41586333D01*
X15955546Y-41402605D01*
X16027234Y-41229534D01*
X16131309Y-41073775D01*
X16131310Y-41073773D01*
X16263773Y-40941310D01*
X16419533Y-40837235D01*
X16419534Y-40837234D01*
X16592605Y-40765546D01*
X16776333Y-40729000D01*
X16963667Y-40729000D01*
X17147395Y-40765546D01*
X17147395Y-40765546D01*
G37*
G36*
X23571000Y-40351000D02*
G01*
X21669000Y-40351000D01*
X21669000Y-38449000D01*
X23571000Y-38449000D01*
X23571000Y-40351000D01*
X23571000Y-40351000D01*
G37*
G36*
X25437395Y-38485546D02*
G01*
X25610466Y-38557234D01*
X25610467Y-38557235D01*
X25766227Y-38661310D01*
X25898690Y-38793773D01*
X25898691Y-38793775D01*
X26002766Y-38949534D01*
X26074454Y-39122605D01*
X26111000Y-39306333D01*
X26111000Y-39493667D01*
X26074454Y-39677395D01*
X26002766Y-39850466D01*
X26002765Y-39850467D01*
X25898690Y-40006227D01*
X25766227Y-40138690D01*
X25687818Y-40191081D01*
X25610466Y-40242766D01*
X25437395Y-40314454D01*
X25253667Y-40351000D01*
X25066333Y-40351000D01*
X24882605Y-40314454D01*
X24709534Y-40242766D01*
X24632182Y-40191081D01*
X24553773Y-40138690D01*
X24421310Y-40006227D01*
X24317235Y-39850467D01*
X24317234Y-39850466D01*
X24245546Y-39677395D01*
X24209000Y-39493667D01*
X24209000Y-39306333D01*
X24245546Y-39122605D01*
X24317234Y-38949534D01*
X24421309Y-38793775D01*
X24421310Y-38793773D01*
X24553773Y-38661310D01*
X24709533Y-38557235D01*
X24709534Y-38557234D01*
X24882605Y-38485546D01*
X25066333Y-38449000D01*
X25253667Y-38449000D01*
X25437395Y-38485546D01*
X25437395Y-38485546D01*
G37*
G36*
X11607395Y-36325546D02*
G01*
X11780466Y-36397234D01*
X11857818Y-36448919D01*
X11936227Y-36501310D01*
X12068690Y-36633773D01*
X12068691Y-36633775D01*
X12172766Y-36789534D01*
X12244454Y-36962605D01*
X12281000Y-37146333D01*
X12281000Y-37333667D01*
X12244454Y-37517395D01*
X12172766Y-37690466D01*
X12172765Y-37690467D01*
X12068690Y-37846227D01*
X11936227Y-37978690D01*
X11857818Y-38031081D01*
X11780466Y-38082766D01*
X11607395Y-38154454D01*
X11423667Y-38191000D01*
X11236333Y-38191000D01*
X11052605Y-38154454D01*
X10879534Y-38082766D01*
X10802182Y-38031081D01*
X10723773Y-37978690D01*
X10591310Y-37846227D01*
X10487235Y-37690467D01*
X10487234Y-37690466D01*
X10415546Y-37517395D01*
X10379000Y-37333667D01*
X10379000Y-37146333D01*
X10415546Y-36962605D01*
X10487234Y-36789534D01*
X10591309Y-36633775D01*
X10591310Y-36633773D01*
X10723773Y-36501310D01*
X10802182Y-36448919D01*
X10879534Y-36397234D01*
X11052605Y-36325546D01*
X11236333Y-36289000D01*
X11423667Y-36289000D01*
X11607395Y-36325546D01*
X11607395Y-36325546D01*
G37*
G36*
X9741000Y-38191000D02*
G01*
X7839000Y-38191000D01*
X7839000Y-36289000D01*
X9741000Y-36289000D01*
X9741000Y-38191000D01*
X9741000Y-38191000D01*
G37*
G36*
X37646564Y-35909389D02*
G01*
X37837833Y-35988615D01*
X37837835Y-35988616D01*
X38009973Y-36103635D01*
X38156365Y-36250027D01*
X38254726Y-36397234D01*
X38271385Y-36422167D01*
X38350611Y-36613436D01*
X38391000Y-36816484D01*
X38391000Y-37023516D01*
X38350611Y-37226564D01*
X38271385Y-37417833D01*
X38271384Y-37417835D01*
X38156365Y-37589973D01*
X38009973Y-37736365D01*
X37837835Y-37851384D01*
X37837834Y-37851385D01*
X37837833Y-37851385D01*
X37646564Y-37930611D01*
X37443516Y-37971000D01*
X37236484Y-37971000D01*
X37033436Y-37930611D01*
X36842167Y-37851385D01*
X36842166Y-37851385D01*
X36842165Y-37851384D01*
X36670027Y-37736365D01*
X36523635Y-37589973D01*
X36408616Y-37417835D01*
X36408615Y-37417833D01*
X36329389Y-37226564D01*
X36289000Y-37023516D01*
X36289000Y-36816484D01*
X36329389Y-36613436D01*
X36408615Y-36422167D01*
X36425275Y-36397234D01*
X36523635Y-36250027D01*
X36670027Y-36103635D01*
X36842165Y-35988616D01*
X36842167Y-35988615D01*
X37033436Y-35909389D01*
X37236484Y-35869000D01*
X37443516Y-35869000D01*
X37646564Y-35909389D01*
X37646564Y-35909389D01*
G37*
G36*
X31146564Y-35909389D02*
G01*
X31337833Y-35988615D01*
X31337835Y-35988616D01*
X31509973Y-36103635D01*
X31656365Y-36250027D01*
X31754726Y-36397234D01*
X31771385Y-36422167D01*
X31850611Y-36613436D01*
X31891000Y-36816484D01*
X31891000Y-37023516D01*
X31850611Y-37226564D01*
X31771385Y-37417833D01*
X31771384Y-37417835D01*
X31656365Y-37589973D01*
X31509973Y-37736365D01*
X31337835Y-37851384D01*
X31337834Y-37851385D01*
X31337833Y-37851385D01*
X31146564Y-37930611D01*
X30943516Y-37971000D01*
X30736484Y-37971000D01*
X30533436Y-37930611D01*
X30342167Y-37851385D01*
X30342166Y-37851385D01*
X30342165Y-37851384D01*
X30170027Y-37736365D01*
X30023635Y-37589973D01*
X29908616Y-37417835D01*
X29908615Y-37417833D01*
X29829389Y-37226564D01*
X29789000Y-37023516D01*
X29789000Y-36816484D01*
X29829389Y-36613436D01*
X29908615Y-36422167D01*
X29925275Y-36397234D01*
X30023635Y-36250027D01*
X30170027Y-36103635D01*
X30342165Y-35988616D01*
X30342167Y-35988615D01*
X30533436Y-35909389D01*
X30736484Y-35869000D01*
X30943516Y-35869000D01*
X31146564Y-35909389D01*
X31146564Y-35909389D01*
G37*
G36*
X16901000Y-36641000D02*
G01*
X14999000Y-36641000D01*
X14999000Y-34739000D01*
X16901000Y-34739000D01*
X16901000Y-36641000D01*
X16901000Y-36641000D01*
G37*
G36*
X18767395Y-34775546D02*
G01*
X18940466Y-34847234D01*
X18940467Y-34847235D01*
X19096227Y-34951310D01*
X19228690Y-35083773D01*
X19228691Y-35083775D01*
X19332766Y-35239534D01*
X19404454Y-35412605D01*
X19441000Y-35596333D01*
X19441000Y-35783667D01*
X19404454Y-35967395D01*
X19332766Y-36140466D01*
X19332765Y-36140467D01*
X19228690Y-36296227D01*
X19096227Y-36428690D01*
X19017818Y-36481081D01*
X18940466Y-36532766D01*
X18767395Y-36604454D01*
X18583667Y-36641000D01*
X18396333Y-36641000D01*
X18212605Y-36604454D01*
X18039534Y-36532766D01*
X17962182Y-36481081D01*
X17883773Y-36428690D01*
X17751310Y-36296227D01*
X17647235Y-36140467D01*
X17647234Y-36140466D01*
X17575546Y-35967395D01*
X17539000Y-35783667D01*
X17539000Y-35596333D01*
X17575546Y-35412605D01*
X17647234Y-35239534D01*
X17751309Y-35083775D01*
X17751310Y-35083773D01*
X17883773Y-34951310D01*
X18039533Y-34847235D01*
X18039534Y-34847234D01*
X18212605Y-34775546D01*
X18396333Y-34739000D01*
X18583667Y-34739000D01*
X18767395Y-34775546D01*
X18767395Y-34775546D01*
G37*
G36*
X72960642Y-32428581D02*
G01*
X73106414Y-32488962D01*
X73106416Y-32488963D01*
X73237608Y-32576622D01*
X73349178Y-32688192D01*
X73436837Y-32819384D01*
X73436838Y-32819386D01*
X73497219Y-32965158D01*
X73528000Y-33119907D01*
X73528000Y-33277693D01*
X73497219Y-33432442D01*
X73436838Y-33578214D01*
X73436837Y-33578216D01*
X73349178Y-33709408D01*
X73237608Y-33820978D01*
X73106416Y-33908637D01*
X73106415Y-33908638D01*
X73106414Y-33908638D01*
X72960642Y-33969019D01*
X72805893Y-33999800D01*
X72648107Y-33999800D01*
X72493358Y-33969019D01*
X72347586Y-33908638D01*
X72347585Y-33908638D01*
X72347584Y-33908637D01*
X72216392Y-33820978D01*
X72104822Y-33709408D01*
X72017163Y-33578216D01*
X72017162Y-33578214D01*
X71956781Y-33432442D01*
X71926000Y-33277693D01*
X71926000Y-33119907D01*
X71956781Y-32965158D01*
X72017162Y-32819386D01*
X72017163Y-32819384D01*
X72104822Y-32688192D01*
X72216392Y-32576622D01*
X72347584Y-32488963D01*
X72347586Y-32488962D01*
X72493358Y-32428581D01*
X72648107Y-32397800D01*
X72805893Y-32397800D01*
X72960642Y-32428581D01*
X72960642Y-32428581D01*
G37*
G36*
X54960642Y-32428581D02*
G01*
X55106414Y-32488962D01*
X55106416Y-32488963D01*
X55237608Y-32576622D01*
X55349178Y-32688192D01*
X55436837Y-32819384D01*
X55436838Y-32819386D01*
X55497219Y-32965158D01*
X55528000Y-33119907D01*
X55528000Y-33277693D01*
X55497219Y-33432442D01*
X55436838Y-33578214D01*
X55436837Y-33578216D01*
X55349178Y-33709408D01*
X55237608Y-33820978D01*
X55106416Y-33908637D01*
X55106415Y-33908638D01*
X55106414Y-33908638D01*
X54960642Y-33969019D01*
X54805893Y-33999800D01*
X54648107Y-33999800D01*
X54493358Y-33969019D01*
X54347586Y-33908638D01*
X54347585Y-33908638D01*
X54347584Y-33908637D01*
X54216392Y-33820978D01*
X54104822Y-33709408D01*
X54017163Y-33578216D01*
X54017162Y-33578214D01*
X53956781Y-33432442D01*
X53926000Y-33277693D01*
X53926000Y-33119907D01*
X53956781Y-32965158D01*
X54017162Y-32819386D01*
X54017163Y-32819384D01*
X54104822Y-32688192D01*
X54216392Y-32576622D01*
X54347584Y-32488963D01*
X54347586Y-32488962D01*
X54493358Y-32428581D01*
X54648107Y-32397800D01*
X54805893Y-32397800D01*
X54960642Y-32428581D01*
X54960642Y-32428581D01*
G37*
G36*
X60960642Y-32428581D02*
G01*
X61106414Y-32488962D01*
X61106416Y-32488963D01*
X61237608Y-32576622D01*
X61349178Y-32688192D01*
X61436837Y-32819384D01*
X61436838Y-32819386D01*
X61497219Y-32965158D01*
X61528000Y-33119907D01*
X61528000Y-33277693D01*
X61497219Y-33432442D01*
X61436838Y-33578214D01*
X61436837Y-33578216D01*
X61349178Y-33709408D01*
X61237608Y-33820978D01*
X61106416Y-33908637D01*
X61106415Y-33908638D01*
X61106414Y-33908638D01*
X60960642Y-33969019D01*
X60805893Y-33999800D01*
X60648107Y-33999800D01*
X60493358Y-33969019D01*
X60347586Y-33908638D01*
X60347585Y-33908638D01*
X60347584Y-33908637D01*
X60216392Y-33820978D01*
X60104822Y-33709408D01*
X60017163Y-33578216D01*
X60017162Y-33578214D01*
X59956781Y-33432442D01*
X59926000Y-33277693D01*
X59926000Y-33119907D01*
X59956781Y-32965158D01*
X60017162Y-32819386D01*
X60017163Y-32819384D01*
X60104822Y-32688192D01*
X60216392Y-32576622D01*
X60347584Y-32488963D01*
X60347586Y-32488962D01*
X60493358Y-32428581D01*
X60648107Y-32397800D01*
X60805893Y-32397800D01*
X60960642Y-32428581D01*
X60960642Y-32428581D01*
G37*
G36*
X66960642Y-32428581D02*
G01*
X67106414Y-32488962D01*
X67106416Y-32488963D01*
X67237608Y-32576622D01*
X67349178Y-32688192D01*
X67436837Y-32819384D01*
X67436838Y-32819386D01*
X67497219Y-32965158D01*
X67528000Y-33119907D01*
X67528000Y-33277693D01*
X67497219Y-33432442D01*
X67436838Y-33578214D01*
X67436837Y-33578216D01*
X67349178Y-33709408D01*
X67237608Y-33820978D01*
X67106416Y-33908637D01*
X67106415Y-33908638D01*
X67106414Y-33908638D01*
X66960642Y-33969019D01*
X66805893Y-33999800D01*
X66648107Y-33999800D01*
X66493358Y-33969019D01*
X66347586Y-33908638D01*
X66347585Y-33908638D01*
X66347584Y-33908637D01*
X66216392Y-33820978D01*
X66104822Y-33709408D01*
X66017163Y-33578216D01*
X66017162Y-33578214D01*
X65956781Y-33432442D01*
X65926000Y-33277693D01*
X65926000Y-33119907D01*
X65956781Y-32965158D01*
X66017162Y-32819386D01*
X66017163Y-32819384D01*
X66104822Y-32688192D01*
X66216392Y-32576622D01*
X66347584Y-32488963D01*
X66347586Y-32488962D01*
X66493358Y-32428581D01*
X66648107Y-32397800D01*
X66805893Y-32397800D01*
X66960642Y-32428581D01*
X66960642Y-32428581D01*
G37*
G36*
X31146564Y-31409389D02*
G01*
X31337833Y-31488615D01*
X31337835Y-31488616D01*
X31509973Y-31603635D01*
X31656365Y-31750027D01*
X31771385Y-31922167D01*
X31850611Y-32113436D01*
X31891000Y-32316484D01*
X31891000Y-32523516D01*
X31850611Y-32726564D01*
X31812163Y-32819386D01*
X31771384Y-32917835D01*
X31656365Y-33089973D01*
X31509973Y-33236365D01*
X31337835Y-33351384D01*
X31337834Y-33351385D01*
X31337833Y-33351385D01*
X31146564Y-33430611D01*
X30943516Y-33471000D01*
X30736484Y-33471000D01*
X30533436Y-33430611D01*
X30342167Y-33351385D01*
X30342166Y-33351385D01*
X30342165Y-33351384D01*
X30170027Y-33236365D01*
X30023635Y-33089973D01*
X29908616Y-32917835D01*
X29867837Y-32819386D01*
X29829389Y-32726564D01*
X29789000Y-32523516D01*
X29789000Y-32316484D01*
X29829389Y-32113436D01*
X29908615Y-31922167D01*
X30023635Y-31750027D01*
X30170027Y-31603635D01*
X30342165Y-31488616D01*
X30342167Y-31488615D01*
X30533436Y-31409389D01*
X30736484Y-31369000D01*
X30943516Y-31369000D01*
X31146564Y-31409389D01*
X31146564Y-31409389D01*
G37*
G36*
X37646564Y-31409389D02*
G01*
X37837833Y-31488615D01*
X37837835Y-31488616D01*
X38009973Y-31603635D01*
X38156365Y-31750027D01*
X38271385Y-31922167D01*
X38350611Y-32113436D01*
X38391000Y-32316484D01*
X38391000Y-32523516D01*
X38350611Y-32726564D01*
X38312163Y-32819386D01*
X38271384Y-32917835D01*
X38156365Y-33089973D01*
X38009973Y-33236365D01*
X37837835Y-33351384D01*
X37837834Y-33351385D01*
X37837833Y-33351385D01*
X37646564Y-33430611D01*
X37443516Y-33471000D01*
X37236484Y-33471000D01*
X37033436Y-33430611D01*
X36842167Y-33351385D01*
X36842166Y-33351385D01*
X36842165Y-33351384D01*
X36670027Y-33236365D01*
X36523635Y-33089973D01*
X36408616Y-32917835D01*
X36367837Y-32819386D01*
X36329389Y-32726564D01*
X36289000Y-32523516D01*
X36289000Y-32316484D01*
X36329389Y-32113436D01*
X36408615Y-31922167D01*
X36523635Y-31750027D01*
X36670027Y-31603635D01*
X36842165Y-31488616D01*
X36842167Y-31488615D01*
X37033436Y-31409389D01*
X37236484Y-31369000D01*
X37443516Y-31369000D01*
X37646564Y-31409389D01*
X37646564Y-31409389D01*
G37*
G36*
X54960642Y-29888581D02*
G01*
X55106414Y-29948962D01*
X55106416Y-29948963D01*
X55237608Y-30036622D01*
X55349178Y-30148192D01*
X55436837Y-30279384D01*
X55436838Y-30279386D01*
X55497219Y-30425158D01*
X55528000Y-30579907D01*
X55528000Y-30737693D01*
X55497219Y-30892442D01*
X55436838Y-31038214D01*
X55436837Y-31038216D01*
X55349178Y-31169408D01*
X55237608Y-31280978D01*
X55106416Y-31368637D01*
X55106415Y-31368638D01*
X55106414Y-31368638D01*
X54960642Y-31429019D01*
X54805893Y-31459800D01*
X54648107Y-31459800D01*
X54493358Y-31429019D01*
X54347586Y-31368638D01*
X54347585Y-31368638D01*
X54347584Y-31368637D01*
X54216392Y-31280978D01*
X54104822Y-31169408D01*
X54017163Y-31038216D01*
X54017162Y-31038214D01*
X53956781Y-30892442D01*
X53926000Y-30737693D01*
X53926000Y-30579907D01*
X53956781Y-30425158D01*
X54017162Y-30279386D01*
X54017163Y-30279384D01*
X54104822Y-30148192D01*
X54216392Y-30036622D01*
X54347584Y-29948963D01*
X54347586Y-29948962D01*
X54493358Y-29888581D01*
X54648107Y-29857800D01*
X54805893Y-29857800D01*
X54960642Y-29888581D01*
X54960642Y-29888581D01*
G37*
G36*
X66960642Y-29888581D02*
G01*
X67106414Y-29948962D01*
X67106416Y-29948963D01*
X67237608Y-30036622D01*
X67349178Y-30148192D01*
X67436837Y-30279384D01*
X67436838Y-30279386D01*
X67497219Y-30425158D01*
X67528000Y-30579907D01*
X67528000Y-30737693D01*
X67497219Y-30892442D01*
X67436838Y-31038214D01*
X67436837Y-31038216D01*
X67349178Y-31169408D01*
X67237608Y-31280978D01*
X67106416Y-31368637D01*
X67106415Y-31368638D01*
X67106414Y-31368638D01*
X66960642Y-31429019D01*
X66805893Y-31459800D01*
X66648107Y-31459800D01*
X66493358Y-31429019D01*
X66347586Y-31368638D01*
X66347585Y-31368638D01*
X66347584Y-31368637D01*
X66216392Y-31280978D01*
X66104822Y-31169408D01*
X66017163Y-31038216D01*
X66017162Y-31038214D01*
X65956781Y-30892442D01*
X65926000Y-30737693D01*
X65926000Y-30579907D01*
X65956781Y-30425158D01*
X66017162Y-30279386D01*
X66017163Y-30279384D01*
X66104822Y-30148192D01*
X66216392Y-30036622D01*
X66347584Y-29948963D01*
X66347586Y-29948962D01*
X66493358Y-29888581D01*
X66648107Y-29857800D01*
X66805893Y-29857800D01*
X66960642Y-29888581D01*
X66960642Y-29888581D01*
G37*
G36*
X60960642Y-29888581D02*
G01*
X61106414Y-29948962D01*
X61106416Y-29948963D01*
X61237608Y-30036622D01*
X61349178Y-30148192D01*
X61436837Y-30279384D01*
X61436838Y-30279386D01*
X61497219Y-30425158D01*
X61528000Y-30579907D01*
X61528000Y-30737693D01*
X61497219Y-30892442D01*
X61436838Y-31038214D01*
X61436837Y-31038216D01*
X61349178Y-31169408D01*
X61237608Y-31280978D01*
X61106416Y-31368637D01*
X61106415Y-31368638D01*
X61106414Y-31368638D01*
X60960642Y-31429019D01*
X60805893Y-31459800D01*
X60648107Y-31459800D01*
X60493358Y-31429019D01*
X60347586Y-31368638D01*
X60347585Y-31368638D01*
X60347584Y-31368637D01*
X60216392Y-31280978D01*
X60104822Y-31169408D01*
X60017163Y-31038216D01*
X60017162Y-31038214D01*
X59956781Y-30892442D01*
X59926000Y-30737693D01*
X59926000Y-30579907D01*
X59956781Y-30425158D01*
X60017162Y-30279386D01*
X60017163Y-30279384D01*
X60104822Y-30148192D01*
X60216392Y-30036622D01*
X60347584Y-29948963D01*
X60347586Y-29948962D01*
X60493358Y-29888581D01*
X60648107Y-29857800D01*
X60805893Y-29857800D01*
X60960642Y-29888581D01*
X60960642Y-29888581D01*
G37*
G36*
X72960642Y-29888581D02*
G01*
X73106414Y-29948962D01*
X73106416Y-29948963D01*
X73237608Y-30036622D01*
X73349178Y-30148192D01*
X73436837Y-30279384D01*
X73436838Y-30279386D01*
X73497219Y-30425158D01*
X73528000Y-30579907D01*
X73528000Y-30737693D01*
X73497219Y-30892442D01*
X73436838Y-31038214D01*
X73436837Y-31038216D01*
X73349178Y-31169408D01*
X73237608Y-31280978D01*
X73106416Y-31368637D01*
X73106415Y-31368638D01*
X73106414Y-31368638D01*
X72960642Y-31429019D01*
X72805893Y-31459800D01*
X72648107Y-31459800D01*
X72493358Y-31429019D01*
X72347586Y-31368638D01*
X72347585Y-31368638D01*
X72347584Y-31368637D01*
X72216392Y-31280978D01*
X72104822Y-31169408D01*
X72017163Y-31038216D01*
X72017162Y-31038214D01*
X71956781Y-30892442D01*
X71926000Y-30737693D01*
X71926000Y-30579907D01*
X71956781Y-30425158D01*
X72017162Y-30279386D01*
X72017163Y-30279384D01*
X72104822Y-30148192D01*
X72216392Y-30036622D01*
X72347584Y-29948963D01*
X72347586Y-29948962D01*
X72493358Y-29888581D01*
X72648107Y-29857800D01*
X72805893Y-29857800D01*
X72960642Y-29888581D01*
X72960642Y-29888581D01*
G37*
G36*
X27127395Y-27975546D02*
G01*
X27300466Y-28047234D01*
X27300467Y-28047235D01*
X27456227Y-28151310D01*
X27588690Y-28283773D01*
X27588691Y-28283775D01*
X27692766Y-28439534D01*
X27764454Y-28612605D01*
X27801000Y-28796333D01*
X27801000Y-28983667D01*
X27764454Y-29167395D01*
X27692766Y-29340466D01*
X27692765Y-29340467D01*
X27588690Y-29496227D01*
X27456227Y-29628690D01*
X27419844Y-29653000D01*
X27300466Y-29732766D01*
X27127395Y-29804454D01*
X26943667Y-29841000D01*
X26756333Y-29841000D01*
X26572605Y-29804454D01*
X26399534Y-29732766D01*
X26280156Y-29653000D01*
X26243773Y-29628690D01*
X26111310Y-29496227D01*
X26007235Y-29340467D01*
X26007234Y-29340466D01*
X25935546Y-29167395D01*
X25899000Y-28983667D01*
X25899000Y-28796333D01*
X25935546Y-28612605D01*
X26007234Y-28439534D01*
X26111309Y-28283775D01*
X26111310Y-28283773D01*
X26243773Y-28151310D01*
X26399533Y-28047235D01*
X26399534Y-28047234D01*
X26572605Y-27975546D01*
X26756333Y-27939000D01*
X26943667Y-27939000D01*
X27127395Y-27975546D01*
X27127395Y-27975546D01*
G37*
G36*
X25261000Y-29841000D02*
G01*
X23359000Y-29841000D01*
X23359000Y-27939000D01*
X25261000Y-27939000D01*
X25261000Y-29841000D01*
X25261000Y-29841000D01*
G37*
G36*
X10691395Y-27787546D02*
G01*
X10864466Y-27859234D01*
X10864467Y-27859235D01*
X11020227Y-27963310D01*
X11152690Y-28095773D01*
X11152691Y-28095775D01*
X11256766Y-28251534D01*
X11328454Y-28424605D01*
X11365000Y-28608333D01*
X11365000Y-28795667D01*
X11328454Y-28979395D01*
X11256766Y-29152466D01*
X11246790Y-29167396D01*
X11152690Y-29308227D01*
X11020227Y-29440690D01*
X10941818Y-29493081D01*
X10864466Y-29544766D01*
X10691395Y-29616454D01*
X10507667Y-29653000D01*
X10320333Y-29653000D01*
X10136605Y-29616454D01*
X9963534Y-29544766D01*
X9886182Y-29493081D01*
X9807773Y-29440690D01*
X9675310Y-29308227D01*
X9581210Y-29167396D01*
X9571234Y-29152466D01*
X9499546Y-28979395D01*
X9463000Y-28795667D01*
X9463000Y-28608333D01*
X9499546Y-28424605D01*
X9571234Y-28251534D01*
X9675309Y-28095775D01*
X9675310Y-28095773D01*
X9807773Y-27963310D01*
X9963533Y-27859235D01*
X9963534Y-27859234D01*
X10136605Y-27787546D01*
X10320333Y-27751000D01*
X10507667Y-27751000D01*
X10691395Y-27787546D01*
X10691395Y-27787546D01*
G37*
G36*
X8825000Y-29653000D02*
G01*
X6923000Y-29653000D01*
X6923000Y-27751000D01*
X8825000Y-27751000D01*
X8825000Y-29653000D01*
X8825000Y-29653000D01*
G37*
G36*
X55528000Y-28919800D02*
G01*
X53926000Y-28919800D01*
X53926000Y-27317800D01*
X55528000Y-27317800D01*
X55528000Y-28919800D01*
X55528000Y-28919800D01*
G37*
G36*
X61528000Y-28919800D02*
G01*
X59926000Y-28919800D01*
X59926000Y-27317800D01*
X61528000Y-27317800D01*
X61528000Y-28919800D01*
X61528000Y-28919800D01*
G37*
G36*
X73528000Y-28919800D02*
G01*
X71926000Y-28919800D01*
X71926000Y-27317800D01*
X73528000Y-27317800D01*
X73528000Y-28919800D01*
X73528000Y-28919800D01*
G37*
G36*
X67528000Y-28919800D02*
G01*
X65926000Y-28919800D01*
X65926000Y-27317800D01*
X67528000Y-27317800D01*
X67528000Y-28919800D01*
X67528000Y-28919800D01*
G37*
G36*
X37646564Y-25749389D02*
G01*
X37837833Y-25828615D01*
X37837835Y-25828616D01*
X38009973Y-25943635D01*
X38156365Y-26090027D01*
X38271385Y-26262167D01*
X38350611Y-26453436D01*
X38391000Y-26656484D01*
X38391000Y-26863516D01*
X38350611Y-27066564D01*
X38271385Y-27257833D01*
X38271384Y-27257835D01*
X38156365Y-27429973D01*
X38009973Y-27576365D01*
X37837835Y-27691384D01*
X37837834Y-27691385D01*
X37837833Y-27691385D01*
X37646564Y-27770611D01*
X37443516Y-27811000D01*
X37236484Y-27811000D01*
X37033436Y-27770611D01*
X36842167Y-27691385D01*
X36842166Y-27691385D01*
X36842165Y-27691384D01*
X36670027Y-27576365D01*
X36523635Y-27429973D01*
X36408616Y-27257835D01*
X36408615Y-27257833D01*
X36329389Y-27066564D01*
X36289000Y-26863516D01*
X36289000Y-26656484D01*
X36329389Y-26453436D01*
X36408615Y-26262167D01*
X36523635Y-26090027D01*
X36670027Y-25943635D01*
X36842165Y-25828616D01*
X36842167Y-25828615D01*
X37033436Y-25749389D01*
X37236484Y-25709000D01*
X37443516Y-25709000D01*
X37646564Y-25749389D01*
X37646564Y-25749389D01*
G37*
G36*
X31146564Y-25749389D02*
G01*
X31337833Y-25828615D01*
X31337835Y-25828616D01*
X31509973Y-25943635D01*
X31656365Y-26090027D01*
X31771385Y-26262167D01*
X31850611Y-26453436D01*
X31891000Y-26656484D01*
X31891000Y-26863516D01*
X31850611Y-27066564D01*
X31771385Y-27257833D01*
X31771384Y-27257835D01*
X31656365Y-27429973D01*
X31509973Y-27576365D01*
X31337835Y-27691384D01*
X31337834Y-27691385D01*
X31337833Y-27691385D01*
X31146564Y-27770611D01*
X30943516Y-27811000D01*
X30736484Y-27811000D01*
X30533436Y-27770611D01*
X30342167Y-27691385D01*
X30342166Y-27691385D01*
X30342165Y-27691384D01*
X30170027Y-27576365D01*
X30023635Y-27429973D01*
X29908616Y-27257835D01*
X29908615Y-27257833D01*
X29829389Y-27066564D01*
X29789000Y-26863516D01*
X29789000Y-26656484D01*
X29829389Y-26453436D01*
X29908615Y-26262167D01*
X30023635Y-26090027D01*
X30170027Y-25943635D01*
X30342165Y-25828616D01*
X30342167Y-25828615D01*
X30533436Y-25749389D01*
X30736484Y-25709000D01*
X30943516Y-25709000D01*
X31146564Y-25749389D01*
X31146564Y-25749389D01*
G37*
G36*
X18537395Y-22775546D02*
G01*
X18710466Y-22847234D01*
X18710467Y-22847235D01*
X18866227Y-22951310D01*
X18998690Y-23083773D01*
X18998691Y-23083775D01*
X19102766Y-23239534D01*
X19174454Y-23412605D01*
X19211000Y-23596333D01*
X19211000Y-23783667D01*
X19174454Y-23967395D01*
X19102766Y-24140466D01*
X19102765Y-24140467D01*
X18998690Y-24296227D01*
X18866227Y-24428690D01*
X18787818Y-24481081D01*
X18710466Y-24532766D01*
X18537395Y-24604454D01*
X18353667Y-24641000D01*
X18166333Y-24641000D01*
X17982605Y-24604454D01*
X17809534Y-24532766D01*
X17732182Y-24481081D01*
X17653773Y-24428690D01*
X17521310Y-24296227D01*
X17417235Y-24140467D01*
X17417234Y-24140466D01*
X17345546Y-23967395D01*
X17309000Y-23783667D01*
X17309000Y-23596333D01*
X17345546Y-23412605D01*
X17417234Y-23239534D01*
X17521309Y-23083775D01*
X17521310Y-23083773D01*
X17653773Y-22951310D01*
X17809533Y-22847235D01*
X17809534Y-22847234D01*
X17982605Y-22775546D01*
X18166333Y-22739000D01*
X18353667Y-22739000D01*
X18537395Y-22775546D01*
X18537395Y-22775546D01*
G37*
G36*
X16671000Y-24641000D02*
G01*
X14769000Y-24641000D01*
X14769000Y-22739000D01*
X16671000Y-22739000D01*
X16671000Y-24641000D01*
X16671000Y-24641000D01*
G37*
G36*
X31146564Y-21249389D02*
G01*
X31337833Y-21328615D01*
X31337835Y-21328616D01*
X31509973Y-21443635D01*
X31656365Y-21590027D01*
X31771385Y-21762167D01*
X31850611Y-21953436D01*
X31891000Y-22156484D01*
X31891000Y-22363516D01*
X31850611Y-22566564D01*
X31779186Y-22739000D01*
X31771384Y-22757835D01*
X31656365Y-22929973D01*
X31509973Y-23076365D01*
X31337835Y-23191384D01*
X31337834Y-23191385D01*
X31337833Y-23191385D01*
X31146564Y-23270611D01*
X30943516Y-23311000D01*
X30736484Y-23311000D01*
X30533436Y-23270611D01*
X30342167Y-23191385D01*
X30342166Y-23191385D01*
X30342165Y-23191384D01*
X30170027Y-23076365D01*
X30023635Y-22929973D01*
X29908616Y-22757835D01*
X29900814Y-22739000D01*
X29829389Y-22566564D01*
X29789000Y-22363516D01*
X29789000Y-22156484D01*
X29829389Y-21953436D01*
X29908615Y-21762167D01*
X30023635Y-21590027D01*
X30170027Y-21443635D01*
X30342165Y-21328616D01*
X30342167Y-21328615D01*
X30533436Y-21249389D01*
X30736484Y-21209000D01*
X30943516Y-21209000D01*
X31146564Y-21249389D01*
X31146564Y-21249389D01*
G37*
G36*
X37646564Y-21249389D02*
G01*
X37837833Y-21328615D01*
X37837835Y-21328616D01*
X38009973Y-21443635D01*
X38156365Y-21590027D01*
X38271385Y-21762167D01*
X38350611Y-21953436D01*
X38391000Y-22156484D01*
X38391000Y-22363516D01*
X38350611Y-22566564D01*
X38279186Y-22739000D01*
X38271384Y-22757835D01*
X38156365Y-22929973D01*
X38009973Y-23076365D01*
X37837835Y-23191384D01*
X37837834Y-23191385D01*
X37837833Y-23191385D01*
X37646564Y-23270611D01*
X37443516Y-23311000D01*
X37236484Y-23311000D01*
X37033436Y-23270611D01*
X36842167Y-23191385D01*
X36842166Y-23191385D01*
X36842165Y-23191384D01*
X36670027Y-23076365D01*
X36523635Y-22929973D01*
X36408616Y-22757835D01*
X36400814Y-22739000D01*
X36329389Y-22566564D01*
X36289000Y-22363516D01*
X36289000Y-22156484D01*
X36329389Y-21953436D01*
X36408615Y-21762167D01*
X36523635Y-21590027D01*
X36670027Y-21443635D01*
X36842165Y-21328616D01*
X36842167Y-21328615D01*
X37033436Y-21249389D01*
X37236484Y-21209000D01*
X37443516Y-21209000D01*
X37646564Y-21249389D01*
X37646564Y-21249389D01*
G37*
G36*
X65262394Y-18500934D02*
G01*
X65413624Y-18563576D01*
X65413626Y-18563577D01*
X65549732Y-18654520D01*
X65665480Y-18770268D01*
X65756423Y-18906374D01*
X65756424Y-18906376D01*
X65819066Y-19057606D01*
X65851000Y-19218152D01*
X65851000Y-19381848D01*
X65819066Y-19542394D01*
X65756424Y-19693624D01*
X65756423Y-19693626D01*
X65665480Y-19829732D01*
X65549732Y-19945480D01*
X65413626Y-20036423D01*
X65413625Y-20036424D01*
X65413624Y-20036424D01*
X65262394Y-20099066D01*
X65101848Y-20131000D01*
X64938152Y-20131000D01*
X64777606Y-20099066D01*
X64626376Y-20036424D01*
X64626375Y-20036424D01*
X64626374Y-20036423D01*
X64490268Y-19945480D01*
X64374520Y-19829732D01*
X64283577Y-19693626D01*
X64283576Y-19693624D01*
X64220934Y-19542394D01*
X64189000Y-19381848D01*
X64189000Y-19218152D01*
X64220934Y-19057606D01*
X64283576Y-18906376D01*
X64283577Y-18906374D01*
X64374520Y-18770268D01*
X64490268Y-18654520D01*
X64626374Y-18563577D01*
X64626376Y-18563576D01*
X64777606Y-18500934D01*
X64938152Y-18469000D01*
X65101848Y-18469000D01*
X65262394Y-18500934D01*
X65262394Y-18500934D01*
G37*
G36*
X62722394Y-18500934D02*
G01*
X62873624Y-18563576D01*
X62873626Y-18563577D01*
X63009732Y-18654520D01*
X63125480Y-18770268D01*
X63216423Y-18906374D01*
X63216424Y-18906376D01*
X63279066Y-19057606D01*
X63311000Y-19218152D01*
X63311000Y-19381848D01*
X63279066Y-19542394D01*
X63216424Y-19693624D01*
X63216423Y-19693626D01*
X63125480Y-19829732D01*
X63009732Y-19945480D01*
X62873626Y-20036423D01*
X62873625Y-20036424D01*
X62873624Y-20036424D01*
X62722394Y-20099066D01*
X62561848Y-20131000D01*
X62398152Y-20131000D01*
X62237606Y-20099066D01*
X62086376Y-20036424D01*
X62086375Y-20036424D01*
X62086374Y-20036423D01*
X61950268Y-19945480D01*
X61834520Y-19829732D01*
X61743577Y-19693626D01*
X61743576Y-19693624D01*
X61680934Y-19542394D01*
X61649000Y-19381848D01*
X61649000Y-19218152D01*
X61680934Y-19057606D01*
X61743576Y-18906376D01*
X61743577Y-18906374D01*
X61834520Y-18770268D01*
X61950268Y-18654520D01*
X62086374Y-18563577D01*
X62086376Y-18563576D01*
X62237606Y-18500934D01*
X62398152Y-18469000D01*
X62561848Y-18469000D01*
X62722394Y-18500934D01*
X62722394Y-18500934D01*
G37*
G36*
X60182394Y-18500934D02*
G01*
X60333624Y-18563576D01*
X60333626Y-18563577D01*
X60469732Y-18654520D01*
X60585480Y-18770268D01*
X60676423Y-18906374D01*
X60676424Y-18906376D01*
X60739066Y-19057606D01*
X60771000Y-19218152D01*
X60771000Y-19381848D01*
X60739066Y-19542394D01*
X60676424Y-19693624D01*
X60676423Y-19693626D01*
X60585480Y-19829732D01*
X60469732Y-19945480D01*
X60333626Y-20036423D01*
X60333625Y-20036424D01*
X60333624Y-20036424D01*
X60182394Y-20099066D01*
X60021848Y-20131000D01*
X59858152Y-20131000D01*
X59697606Y-20099066D01*
X59546376Y-20036424D01*
X59546375Y-20036424D01*
X59546374Y-20036423D01*
X59410268Y-19945480D01*
X59294520Y-19829732D01*
X59203577Y-19693626D01*
X59203576Y-19693624D01*
X59140934Y-19542394D01*
X59109000Y-19381848D01*
X59109000Y-19218152D01*
X59140934Y-19057606D01*
X59203576Y-18906376D01*
X59203577Y-18906374D01*
X59294520Y-18770268D01*
X59410268Y-18654520D01*
X59546374Y-18563577D01*
X59546376Y-18563576D01*
X59697606Y-18500934D01*
X59858152Y-18469000D01*
X60021848Y-18469000D01*
X60182394Y-18500934D01*
X60182394Y-18500934D01*
G37*
G36*
X57642394Y-18500934D02*
G01*
X57793624Y-18563576D01*
X57793626Y-18563577D01*
X57929732Y-18654520D01*
X58045480Y-18770268D01*
X58136423Y-18906374D01*
X58136424Y-18906376D01*
X58199066Y-19057606D01*
X58231000Y-19218152D01*
X58231000Y-19381848D01*
X58199066Y-19542394D01*
X58136424Y-19693624D01*
X58136423Y-19693626D01*
X58045480Y-19829732D01*
X57929732Y-19945480D01*
X57793626Y-20036423D01*
X57793625Y-20036424D01*
X57793624Y-20036424D01*
X57642394Y-20099066D01*
X57481848Y-20131000D01*
X57318152Y-20131000D01*
X57157606Y-20099066D01*
X57006376Y-20036424D01*
X57006375Y-20036424D01*
X57006374Y-20036423D01*
X56870268Y-19945480D01*
X56754520Y-19829732D01*
X56663577Y-19693626D01*
X56663576Y-19693624D01*
X56600934Y-19542394D01*
X56569000Y-19381848D01*
X56569000Y-19218152D01*
X56600934Y-19057606D01*
X56663576Y-18906376D01*
X56663577Y-18906374D01*
X56754520Y-18770268D01*
X56870268Y-18654520D01*
X57006374Y-18563577D01*
X57006376Y-18563576D01*
X57157606Y-18500934D01*
X57318152Y-18469000D01*
X57481848Y-18469000D01*
X57642394Y-18500934D01*
X57642394Y-18500934D01*
G37*
G36*
X55102394Y-18500934D02*
G01*
X55253624Y-18563576D01*
X55253626Y-18563577D01*
X55389732Y-18654520D01*
X55505480Y-18770268D01*
X55596423Y-18906374D01*
X55596424Y-18906376D01*
X55659066Y-19057606D01*
X55691000Y-19218152D01*
X55691000Y-19381848D01*
X55659066Y-19542394D01*
X55596424Y-19693624D01*
X55596423Y-19693626D01*
X55505480Y-19829732D01*
X55389732Y-19945480D01*
X55253626Y-20036423D01*
X55253625Y-20036424D01*
X55253624Y-20036424D01*
X55102394Y-20099066D01*
X54941848Y-20131000D01*
X54778152Y-20131000D01*
X54617606Y-20099066D01*
X54466376Y-20036424D01*
X54466375Y-20036424D01*
X54466374Y-20036423D01*
X54330268Y-19945480D01*
X54214520Y-19829732D01*
X54123577Y-19693626D01*
X54123576Y-19693624D01*
X54060934Y-19542394D01*
X54029000Y-19381848D01*
X54029000Y-19218152D01*
X54060934Y-19057606D01*
X54123576Y-18906376D01*
X54123577Y-18906374D01*
X54214520Y-18770268D01*
X54330268Y-18654520D01*
X54466374Y-18563577D01*
X54466376Y-18563576D01*
X54617606Y-18500934D01*
X54778152Y-18469000D01*
X54941848Y-18469000D01*
X55102394Y-18500934D01*
X55102394Y-18500934D01*
G37*
G36*
X52562394Y-18500934D02*
G01*
X52713624Y-18563576D01*
X52713626Y-18563577D01*
X52849732Y-18654520D01*
X52965480Y-18770268D01*
X53056423Y-18906374D01*
X53056424Y-18906376D01*
X53119066Y-19057606D01*
X53151000Y-19218152D01*
X53151000Y-19381848D01*
X53119066Y-19542394D01*
X53056424Y-19693624D01*
X53056423Y-19693626D01*
X52965480Y-19829732D01*
X52849732Y-19945480D01*
X52713626Y-20036423D01*
X52713625Y-20036424D01*
X52713624Y-20036424D01*
X52562394Y-20099066D01*
X52401848Y-20131000D01*
X52238152Y-20131000D01*
X52077606Y-20099066D01*
X51926376Y-20036424D01*
X51926375Y-20036424D01*
X51926374Y-20036423D01*
X51790268Y-19945480D01*
X51674520Y-19829732D01*
X51583577Y-19693626D01*
X51583576Y-19693624D01*
X51520934Y-19542394D01*
X51489000Y-19381848D01*
X51489000Y-19218152D01*
X51520934Y-19057606D01*
X51583576Y-18906376D01*
X51583577Y-18906374D01*
X51674520Y-18770268D01*
X51790268Y-18654520D01*
X51926374Y-18563577D01*
X51926376Y-18563576D01*
X52077606Y-18500934D01*
X52238152Y-18469000D01*
X52401848Y-18469000D01*
X52562394Y-18500934D01*
X52562394Y-18500934D01*
G37*
G36*
X50022394Y-18500934D02*
G01*
X50173624Y-18563576D01*
X50173626Y-18563577D01*
X50309732Y-18654520D01*
X50425480Y-18770268D01*
X50516423Y-18906374D01*
X50516424Y-18906376D01*
X50579066Y-19057606D01*
X50611000Y-19218152D01*
X50611000Y-19381848D01*
X50579066Y-19542394D01*
X50516424Y-19693624D01*
X50516423Y-19693626D01*
X50425480Y-19829732D01*
X50309732Y-19945480D01*
X50173626Y-20036423D01*
X50173625Y-20036424D01*
X50173624Y-20036424D01*
X50022394Y-20099066D01*
X49861848Y-20131000D01*
X49698152Y-20131000D01*
X49537606Y-20099066D01*
X49386376Y-20036424D01*
X49386375Y-20036424D01*
X49386374Y-20036423D01*
X49250268Y-19945480D01*
X49134520Y-19829732D01*
X49043577Y-19693626D01*
X49043576Y-19693624D01*
X48980934Y-19542394D01*
X48949000Y-19381848D01*
X48949000Y-19218152D01*
X48980934Y-19057606D01*
X49043576Y-18906376D01*
X49043577Y-18906374D01*
X49134520Y-18770268D01*
X49250268Y-18654520D01*
X49386374Y-18563577D01*
X49386376Y-18563576D01*
X49537606Y-18500934D01*
X49698152Y-18469000D01*
X49861848Y-18469000D01*
X50022394Y-18500934D01*
X50022394Y-18500934D01*
G37*
G36*
X93202394Y-18500934D02*
G01*
X93353624Y-18563576D01*
X93353626Y-18563577D01*
X93489732Y-18654520D01*
X93605480Y-18770268D01*
X93696423Y-18906374D01*
X93696424Y-18906376D01*
X93759066Y-19057606D01*
X93791000Y-19218152D01*
X93791000Y-19381848D01*
X93759066Y-19542394D01*
X93696424Y-19693624D01*
X93696423Y-19693626D01*
X93605480Y-19829732D01*
X93489732Y-19945480D01*
X93353626Y-20036423D01*
X93353625Y-20036424D01*
X93353624Y-20036424D01*
X93202394Y-20099066D01*
X93041848Y-20131000D01*
X92878152Y-20131000D01*
X92717606Y-20099066D01*
X92566376Y-20036424D01*
X92566375Y-20036424D01*
X92566374Y-20036423D01*
X92430268Y-19945480D01*
X92314520Y-19829732D01*
X92223577Y-19693626D01*
X92223576Y-19693624D01*
X92160934Y-19542394D01*
X92129000Y-19381848D01*
X92129000Y-19218152D01*
X92160934Y-19057606D01*
X92223576Y-18906376D01*
X92223577Y-18906374D01*
X92314520Y-18770268D01*
X92430268Y-18654520D01*
X92566374Y-18563577D01*
X92566376Y-18563576D01*
X92717606Y-18500934D01*
X92878152Y-18469000D01*
X93041848Y-18469000D01*
X93202394Y-18500934D01*
X93202394Y-18500934D01*
G37*
G36*
X90662394Y-18500934D02*
G01*
X90813624Y-18563576D01*
X90813626Y-18563577D01*
X90949732Y-18654520D01*
X91065480Y-18770268D01*
X91156423Y-18906374D01*
X91156424Y-18906376D01*
X91219066Y-19057606D01*
X91251000Y-19218152D01*
X91251000Y-19381848D01*
X91219066Y-19542394D01*
X91156424Y-19693624D01*
X91156423Y-19693626D01*
X91065480Y-19829732D01*
X90949732Y-19945480D01*
X90813626Y-20036423D01*
X90813625Y-20036424D01*
X90813624Y-20036424D01*
X90662394Y-20099066D01*
X90501848Y-20131000D01*
X90338152Y-20131000D01*
X90177606Y-20099066D01*
X90026376Y-20036424D01*
X90026375Y-20036424D01*
X90026374Y-20036423D01*
X89890268Y-19945480D01*
X89774520Y-19829732D01*
X89683577Y-19693626D01*
X89683576Y-19693624D01*
X89620934Y-19542394D01*
X89589000Y-19381848D01*
X89589000Y-19218152D01*
X89620934Y-19057606D01*
X89683576Y-18906376D01*
X89683577Y-18906374D01*
X89774520Y-18770268D01*
X89890268Y-18654520D01*
X90026374Y-18563577D01*
X90026376Y-18563576D01*
X90177606Y-18500934D01*
X90338152Y-18469000D01*
X90501848Y-18469000D01*
X90662394Y-18500934D01*
X90662394Y-18500934D01*
G37*
G36*
X85582394Y-18500934D02*
G01*
X85733624Y-18563576D01*
X85733626Y-18563577D01*
X85869732Y-18654520D01*
X85985480Y-18770268D01*
X86076423Y-18906374D01*
X86076424Y-18906376D01*
X86139066Y-19057606D01*
X86171000Y-19218152D01*
X86171000Y-19381848D01*
X86139066Y-19542394D01*
X86076424Y-19693624D01*
X86076423Y-19693626D01*
X85985480Y-19829732D01*
X85869732Y-19945480D01*
X85733626Y-20036423D01*
X85733625Y-20036424D01*
X85733624Y-20036424D01*
X85582394Y-20099066D01*
X85421848Y-20131000D01*
X85258152Y-20131000D01*
X85097606Y-20099066D01*
X84946376Y-20036424D01*
X84946375Y-20036424D01*
X84946374Y-20036423D01*
X84810268Y-19945480D01*
X84694520Y-19829732D01*
X84603577Y-19693626D01*
X84603576Y-19693624D01*
X84540934Y-19542394D01*
X84509000Y-19381848D01*
X84509000Y-19218152D01*
X84540934Y-19057606D01*
X84603576Y-18906376D01*
X84603577Y-18906374D01*
X84694520Y-18770268D01*
X84810268Y-18654520D01*
X84946374Y-18563577D01*
X84946376Y-18563576D01*
X85097606Y-18500934D01*
X85258152Y-18469000D01*
X85421848Y-18469000D01*
X85582394Y-18500934D01*
X85582394Y-18500934D01*
G37*
G36*
X70342394Y-18500934D02*
G01*
X70493624Y-18563576D01*
X70493626Y-18563577D01*
X70629732Y-18654520D01*
X70745480Y-18770268D01*
X70836423Y-18906374D01*
X70836424Y-18906376D01*
X70899066Y-19057606D01*
X70931000Y-19218152D01*
X70931000Y-19381848D01*
X70899066Y-19542394D01*
X70836424Y-19693624D01*
X70836423Y-19693626D01*
X70745480Y-19829732D01*
X70629732Y-19945480D01*
X70493626Y-20036423D01*
X70493625Y-20036424D01*
X70493624Y-20036424D01*
X70342394Y-20099066D01*
X70181848Y-20131000D01*
X70018152Y-20131000D01*
X69857606Y-20099066D01*
X69706376Y-20036424D01*
X69706375Y-20036424D01*
X69706374Y-20036423D01*
X69570268Y-19945480D01*
X69454520Y-19829732D01*
X69363577Y-19693626D01*
X69363576Y-19693624D01*
X69300934Y-19542394D01*
X69269000Y-19381848D01*
X69269000Y-19218152D01*
X69300934Y-19057606D01*
X69363576Y-18906376D01*
X69363577Y-18906374D01*
X69454520Y-18770268D01*
X69570268Y-18654520D01*
X69706374Y-18563577D01*
X69706376Y-18563576D01*
X69857606Y-18500934D01*
X70018152Y-18469000D01*
X70181848Y-18469000D01*
X70342394Y-18500934D01*
X70342394Y-18500934D01*
G37*
G36*
X72882394Y-18500934D02*
G01*
X73033624Y-18563576D01*
X73033626Y-18563577D01*
X73169732Y-18654520D01*
X73285480Y-18770268D01*
X73376423Y-18906374D01*
X73376424Y-18906376D01*
X73439066Y-19057606D01*
X73471000Y-19218152D01*
X73471000Y-19381848D01*
X73439066Y-19542394D01*
X73376424Y-19693624D01*
X73376423Y-19693626D01*
X73285480Y-19829732D01*
X73169732Y-19945480D01*
X73033626Y-20036423D01*
X73033625Y-20036424D01*
X73033624Y-20036424D01*
X72882394Y-20099066D01*
X72721848Y-20131000D01*
X72558152Y-20131000D01*
X72397606Y-20099066D01*
X72246376Y-20036424D01*
X72246375Y-20036424D01*
X72246374Y-20036423D01*
X72110268Y-19945480D01*
X71994520Y-19829732D01*
X71903577Y-19693626D01*
X71903576Y-19693624D01*
X71840934Y-19542394D01*
X71809000Y-19381848D01*
X71809000Y-19218152D01*
X71840934Y-19057606D01*
X71903576Y-18906376D01*
X71903577Y-18906374D01*
X71994520Y-18770268D01*
X72110268Y-18654520D01*
X72246374Y-18563577D01*
X72246376Y-18563576D01*
X72397606Y-18500934D01*
X72558152Y-18469000D01*
X72721848Y-18469000D01*
X72882394Y-18500934D01*
X72882394Y-18500934D01*
G37*
G36*
X75422394Y-18500934D02*
G01*
X75573624Y-18563576D01*
X75573626Y-18563577D01*
X75709732Y-18654520D01*
X75825480Y-18770268D01*
X75916423Y-18906374D01*
X75916424Y-18906376D01*
X75979066Y-19057606D01*
X76011000Y-19218152D01*
X76011000Y-19381848D01*
X75979066Y-19542394D01*
X75916424Y-19693624D01*
X75916423Y-19693626D01*
X75825480Y-19829732D01*
X75709732Y-19945480D01*
X75573626Y-20036423D01*
X75573625Y-20036424D01*
X75573624Y-20036424D01*
X75422394Y-20099066D01*
X75261848Y-20131000D01*
X75098152Y-20131000D01*
X74937606Y-20099066D01*
X74786376Y-20036424D01*
X74786375Y-20036424D01*
X74786374Y-20036423D01*
X74650268Y-19945480D01*
X74534520Y-19829732D01*
X74443577Y-19693626D01*
X74443576Y-19693624D01*
X74380934Y-19542394D01*
X74349000Y-19381848D01*
X74349000Y-19218152D01*
X74380934Y-19057606D01*
X74443576Y-18906376D01*
X74443577Y-18906374D01*
X74534520Y-18770268D01*
X74650268Y-18654520D01*
X74786374Y-18563577D01*
X74786376Y-18563576D01*
X74937606Y-18500934D01*
X75098152Y-18469000D01*
X75261848Y-18469000D01*
X75422394Y-18500934D01*
X75422394Y-18500934D01*
G37*
G36*
X77962394Y-18500934D02*
G01*
X78113624Y-18563576D01*
X78113626Y-18563577D01*
X78249732Y-18654520D01*
X78365480Y-18770268D01*
X78456423Y-18906374D01*
X78456424Y-18906376D01*
X78519066Y-19057606D01*
X78551000Y-19218152D01*
X78551000Y-19381848D01*
X78519066Y-19542394D01*
X78456424Y-19693624D01*
X78456423Y-19693626D01*
X78365480Y-19829732D01*
X78249732Y-19945480D01*
X78113626Y-20036423D01*
X78113625Y-20036424D01*
X78113624Y-20036424D01*
X77962394Y-20099066D01*
X77801848Y-20131000D01*
X77638152Y-20131000D01*
X77477606Y-20099066D01*
X77326376Y-20036424D01*
X77326375Y-20036424D01*
X77326374Y-20036423D01*
X77190268Y-19945480D01*
X77074520Y-19829732D01*
X76983577Y-19693626D01*
X76983576Y-19693624D01*
X76920934Y-19542394D01*
X76889000Y-19381848D01*
X76889000Y-19218152D01*
X76920934Y-19057606D01*
X76983576Y-18906376D01*
X76983577Y-18906374D01*
X77074520Y-18770268D01*
X77190268Y-18654520D01*
X77326374Y-18563577D01*
X77326376Y-18563576D01*
X77477606Y-18500934D01*
X77638152Y-18469000D01*
X77801848Y-18469000D01*
X77962394Y-18500934D01*
X77962394Y-18500934D01*
G37*
G36*
X80502394Y-18500934D02*
G01*
X80653624Y-18563576D01*
X80653626Y-18563577D01*
X80789732Y-18654520D01*
X80905480Y-18770268D01*
X80996423Y-18906374D01*
X80996424Y-18906376D01*
X81059066Y-19057606D01*
X81091000Y-19218152D01*
X81091000Y-19381848D01*
X81059066Y-19542394D01*
X80996424Y-19693624D01*
X80996423Y-19693626D01*
X80905480Y-19829732D01*
X80789732Y-19945480D01*
X80653626Y-20036423D01*
X80653625Y-20036424D01*
X80653624Y-20036424D01*
X80502394Y-20099066D01*
X80341848Y-20131000D01*
X80178152Y-20131000D01*
X80017606Y-20099066D01*
X79866376Y-20036424D01*
X79866375Y-20036424D01*
X79866374Y-20036423D01*
X79730268Y-19945480D01*
X79614520Y-19829732D01*
X79523577Y-19693626D01*
X79523576Y-19693624D01*
X79460934Y-19542394D01*
X79429000Y-19381848D01*
X79429000Y-19218152D01*
X79460934Y-19057606D01*
X79523576Y-18906376D01*
X79523577Y-18906374D01*
X79614520Y-18770268D01*
X79730268Y-18654520D01*
X79866374Y-18563577D01*
X79866376Y-18563576D01*
X80017606Y-18500934D01*
X80178152Y-18469000D01*
X80341848Y-18469000D01*
X80502394Y-18500934D01*
X80502394Y-18500934D01*
G37*
G36*
X83042394Y-18500934D02*
G01*
X83193624Y-18563576D01*
X83193626Y-18563577D01*
X83329732Y-18654520D01*
X83445480Y-18770268D01*
X83536423Y-18906374D01*
X83536424Y-18906376D01*
X83599066Y-19057606D01*
X83631000Y-19218152D01*
X83631000Y-19381848D01*
X83599066Y-19542394D01*
X83536424Y-19693624D01*
X83536423Y-19693626D01*
X83445480Y-19829732D01*
X83329732Y-19945480D01*
X83193626Y-20036423D01*
X83193625Y-20036424D01*
X83193624Y-20036424D01*
X83042394Y-20099066D01*
X82881848Y-20131000D01*
X82718152Y-20131000D01*
X82557606Y-20099066D01*
X82406376Y-20036424D01*
X82406375Y-20036424D01*
X82406374Y-20036423D01*
X82270268Y-19945480D01*
X82154520Y-19829732D01*
X82063577Y-19693626D01*
X82063576Y-19693624D01*
X82000934Y-19542394D01*
X81969000Y-19381848D01*
X81969000Y-19218152D01*
X82000934Y-19057606D01*
X82063576Y-18906376D01*
X82063577Y-18906374D01*
X82154520Y-18770268D01*
X82270268Y-18654520D01*
X82406374Y-18563577D01*
X82406376Y-18563576D01*
X82557606Y-18500934D01*
X82718152Y-18469000D01*
X82881848Y-18469000D01*
X83042394Y-18500934D01*
X83042394Y-18500934D01*
G37*
G36*
X47482394Y-18500934D02*
G01*
X47633624Y-18563576D01*
X47633626Y-18563577D01*
X47769732Y-18654520D01*
X47885480Y-18770268D01*
X47976423Y-18906374D01*
X47976424Y-18906376D01*
X48039066Y-19057606D01*
X48071000Y-19218152D01*
X48071000Y-19381848D01*
X48039066Y-19542394D01*
X47976424Y-19693624D01*
X47976423Y-19693626D01*
X47885480Y-19829732D01*
X47769732Y-19945480D01*
X47633626Y-20036423D01*
X47633625Y-20036424D01*
X47633624Y-20036424D01*
X47482394Y-20099066D01*
X47321848Y-20131000D01*
X47158152Y-20131000D01*
X46997606Y-20099066D01*
X46846376Y-20036424D01*
X46846375Y-20036424D01*
X46846374Y-20036423D01*
X46710268Y-19945480D01*
X46594520Y-19829732D01*
X46503577Y-19693626D01*
X46503576Y-19693624D01*
X46440934Y-19542394D01*
X46409000Y-19381848D01*
X46409000Y-19218152D01*
X46440934Y-19057606D01*
X46503576Y-18906376D01*
X46503577Y-18906374D01*
X46594520Y-18770268D01*
X46710268Y-18654520D01*
X46846374Y-18563577D01*
X46846376Y-18563576D01*
X46997606Y-18500934D01*
X47158152Y-18469000D01*
X47321848Y-18469000D01*
X47482394Y-18500934D01*
X47482394Y-18500934D01*
G37*
G36*
X88122394Y-18500934D02*
G01*
X88273624Y-18563576D01*
X88273626Y-18563577D01*
X88409732Y-18654520D01*
X88525480Y-18770268D01*
X88616423Y-18906374D01*
X88616424Y-18906376D01*
X88679066Y-19057606D01*
X88711000Y-19218152D01*
X88711000Y-19381848D01*
X88679066Y-19542394D01*
X88616424Y-19693624D01*
X88616423Y-19693626D01*
X88525480Y-19829732D01*
X88409732Y-19945480D01*
X88273626Y-20036423D01*
X88273625Y-20036424D01*
X88273624Y-20036424D01*
X88122394Y-20099066D01*
X87961848Y-20131000D01*
X87798152Y-20131000D01*
X87637606Y-20099066D01*
X87486376Y-20036424D01*
X87486375Y-20036424D01*
X87486374Y-20036423D01*
X87350268Y-19945480D01*
X87234520Y-19829732D01*
X87143577Y-19693626D01*
X87143576Y-19693624D01*
X87080934Y-19542394D01*
X87049000Y-19381848D01*
X87049000Y-19218152D01*
X87080934Y-19057606D01*
X87143576Y-18906376D01*
X87143577Y-18906374D01*
X87234520Y-18770268D01*
X87350268Y-18654520D01*
X87486374Y-18563577D01*
X87486376Y-18563576D01*
X87637606Y-18500934D01*
X87798152Y-18469000D01*
X87961848Y-18469000D01*
X88122394Y-18500934D01*
X88122394Y-18500934D01*
G37*
G36*
X67802394Y-18500934D02*
G01*
X67953624Y-18563576D01*
X67953626Y-18563577D01*
X68089732Y-18654520D01*
X68205480Y-18770268D01*
X68296423Y-18906374D01*
X68296424Y-18906376D01*
X68359066Y-19057606D01*
X68391000Y-19218152D01*
X68391000Y-19381848D01*
X68359066Y-19542394D01*
X68296424Y-19693624D01*
X68296423Y-19693626D01*
X68205480Y-19829732D01*
X68089732Y-19945480D01*
X67953626Y-20036423D01*
X67953625Y-20036424D01*
X67953624Y-20036424D01*
X67802394Y-20099066D01*
X67641848Y-20131000D01*
X67478152Y-20131000D01*
X67317606Y-20099066D01*
X67166376Y-20036424D01*
X67166375Y-20036424D01*
X67166374Y-20036423D01*
X67030268Y-19945480D01*
X66914520Y-19829732D01*
X66823577Y-19693626D01*
X66823576Y-19693624D01*
X66760934Y-19542394D01*
X66729000Y-19381848D01*
X66729000Y-19218152D01*
X66760934Y-19057606D01*
X66823576Y-18906376D01*
X66823577Y-18906374D01*
X66914520Y-18770268D01*
X67030268Y-18654520D01*
X67166374Y-18563577D01*
X67166376Y-18563576D01*
X67317606Y-18500934D01*
X67478152Y-18469000D01*
X67641848Y-18469000D01*
X67802394Y-18500934D01*
X67802394Y-18500934D01*
G37*
G36*
X25296395Y-16103546D02*
G01*
X25469466Y-16175234D01*
X25469467Y-16175235D01*
X25625227Y-16279310D01*
X25757690Y-16411773D01*
X25757691Y-16411775D01*
X25861766Y-16567534D01*
X25933454Y-16740605D01*
X25970000Y-16924333D01*
X25970000Y-17111667D01*
X25933454Y-17295395D01*
X25861766Y-17468466D01*
X25861765Y-17468467D01*
X25757690Y-17624227D01*
X25625227Y-17756690D01*
X25546818Y-17809081D01*
X25469466Y-17860766D01*
X25296395Y-17932454D01*
X25112667Y-17969000D01*
X24925333Y-17969000D01*
X24741605Y-17932454D01*
X24568534Y-17860766D01*
X24491182Y-17809081D01*
X24412773Y-17756690D01*
X24280310Y-17624227D01*
X24176235Y-17468467D01*
X24176234Y-17468466D01*
X24104546Y-17295395D01*
X24068000Y-17111667D01*
X24068000Y-16924333D01*
X24104546Y-16740605D01*
X24176234Y-16567534D01*
X24280309Y-16411775D01*
X24280310Y-16411773D01*
X24412773Y-16279310D01*
X24568533Y-16175235D01*
X24568534Y-16175234D01*
X24741605Y-16103546D01*
X24925333Y-16067000D01*
X25112667Y-16067000D01*
X25296395Y-16103546D01*
X25296395Y-16103546D01*
G37*
G36*
X29614395Y-16103546D02*
G01*
X29787466Y-16175234D01*
X29787467Y-16175235D01*
X29943227Y-16279310D01*
X30075690Y-16411773D01*
X30075691Y-16411775D01*
X30179766Y-16567534D01*
X30251454Y-16740605D01*
X30288000Y-16924333D01*
X30288000Y-17111667D01*
X30251454Y-17295395D01*
X30179766Y-17468466D01*
X30179765Y-17468467D01*
X30075690Y-17624227D01*
X29943227Y-17756690D01*
X29864818Y-17809081D01*
X29787466Y-17860766D01*
X29614395Y-17932454D01*
X29430667Y-17969000D01*
X29243333Y-17969000D01*
X29059605Y-17932454D01*
X28886534Y-17860766D01*
X28809182Y-17809081D01*
X28730773Y-17756690D01*
X28598310Y-17624227D01*
X28494235Y-17468467D01*
X28494234Y-17468466D01*
X28422546Y-17295395D01*
X28386000Y-17111667D01*
X28386000Y-16924333D01*
X28422546Y-16740605D01*
X28494234Y-16567534D01*
X28598309Y-16411775D01*
X28598310Y-16411773D01*
X28730773Y-16279310D01*
X28886533Y-16175235D01*
X28886534Y-16175234D01*
X29059605Y-16103546D01*
X29243333Y-16067000D01*
X29430667Y-16067000D01*
X29614395Y-16103546D01*
X29614395Y-16103546D01*
G37*
G36*
X27455395Y-16103546D02*
G01*
X27628466Y-16175234D01*
X27628467Y-16175235D01*
X27784227Y-16279310D01*
X27916690Y-16411773D01*
X27916691Y-16411775D01*
X28020766Y-16567534D01*
X28092454Y-16740605D01*
X28129000Y-16924333D01*
X28129000Y-17111667D01*
X28092454Y-17295395D01*
X28020766Y-17468466D01*
X28020765Y-17468467D01*
X27916690Y-17624227D01*
X27784227Y-17756690D01*
X27705818Y-17809081D01*
X27628466Y-17860766D01*
X27455395Y-17932454D01*
X27271667Y-17969000D01*
X27084333Y-17969000D01*
X26900605Y-17932454D01*
X26727534Y-17860766D01*
X26650182Y-17809081D01*
X26571773Y-17756690D01*
X26439310Y-17624227D01*
X26335235Y-17468467D01*
X26335234Y-17468466D01*
X26263546Y-17295395D01*
X26227000Y-17111667D01*
X26227000Y-16924333D01*
X26263546Y-16740605D01*
X26335234Y-16567534D01*
X26439309Y-16411775D01*
X26439310Y-16411773D01*
X26571773Y-16279310D01*
X26727533Y-16175235D01*
X26727534Y-16175234D01*
X26900605Y-16103546D01*
X27084333Y-16067000D01*
X27271667Y-16067000D01*
X27455395Y-16103546D01*
X27455395Y-16103546D01*
G37*
G36*
X23811000Y-17969000D02*
G01*
X21909000Y-17969000D01*
X21909000Y-16067000D01*
X23811000Y-16067000D01*
X23811000Y-17969000D01*
X23811000Y-17969000D01*
G37*
G36*
X40879487Y-12498996D02*
G01*
X41116253Y-12597068D01*
X41116255Y-12597069D01*
X41329339Y-12739447D01*
X41510553Y-12920661D01*
X41652932Y-13133747D01*
X41751004Y-13370513D01*
X41801000Y-13621861D01*
X41801000Y-13878139D01*
X41751004Y-14129487D01*
X41652932Y-14366253D01*
X41652931Y-14366255D01*
X41510553Y-14579339D01*
X41329339Y-14760553D01*
X41116255Y-14902931D01*
X41116254Y-14902932D01*
X41116253Y-14902932D01*
X40879487Y-15001004D01*
X40628139Y-15051000D01*
X40371861Y-15051000D01*
X40120513Y-15001004D01*
X39883747Y-14902932D01*
X39883746Y-14902932D01*
X39883745Y-14902931D01*
X39670661Y-14760553D01*
X39489447Y-14579339D01*
X39347069Y-14366255D01*
X39347068Y-14366253D01*
X39248996Y-14129487D01*
X39199000Y-13878139D01*
X39199000Y-13621861D01*
X39248996Y-13370513D01*
X39347068Y-13133747D01*
X39489447Y-12920661D01*
X39670661Y-12739447D01*
X39883745Y-12597069D01*
X39883747Y-12597068D01*
X40120513Y-12498996D01*
X40371861Y-12449000D01*
X40628139Y-12449000D01*
X40879487Y-12498996D01*
X40879487Y-12498996D01*
G37*
G36*
X81129487Y-12498996D02*
G01*
X81366253Y-12597068D01*
X81366255Y-12597069D01*
X81579339Y-12739447D01*
X81760553Y-12920661D01*
X81902932Y-13133747D01*
X82001004Y-13370513D01*
X82051000Y-13621861D01*
X82051000Y-13878139D01*
X82001004Y-14129487D01*
X81902932Y-14366253D01*
X81902931Y-14366255D01*
X81760553Y-14579339D01*
X81579339Y-14760553D01*
X81366255Y-14902931D01*
X81366254Y-14902932D01*
X81366253Y-14902932D01*
X81129487Y-15001004D01*
X80878139Y-15051000D01*
X80621861Y-15051000D01*
X80370513Y-15001004D01*
X80133747Y-14902932D01*
X80133746Y-14902932D01*
X80133745Y-14902931D01*
X79920661Y-14760553D01*
X79739447Y-14579339D01*
X79597069Y-14366255D01*
X79597068Y-14366253D01*
X79498996Y-14129487D01*
X79449000Y-13878139D01*
X79449000Y-13621861D01*
X79498996Y-13370513D01*
X79597068Y-13133747D01*
X79739447Y-12920661D01*
X79920661Y-12739447D01*
X80133745Y-12597069D01*
X80133747Y-12597068D01*
X80370513Y-12498996D01*
X80621861Y-12449000D01*
X80878139Y-12449000D01*
X81129487Y-12498996D01*
X81129487Y-12498996D01*
G37*
G36*
X88375256Y-10391298D02*
G01*
X88481579Y-10412447D01*
X88782042Y-10536903D01*
X89052451Y-10717585D01*
X89282415Y-10947549D01*
X89463097Y-11217958D01*
X89587553Y-11518421D01*
X89651000Y-11837391D01*
X89651000Y-12162609D01*
X89587553Y-12481579D01*
X89580338Y-12498997D01*
X89480741Y-12739447D01*
X89463097Y-12782042D01*
X89282415Y-13052451D01*
X89052451Y-13282415D01*
X88782042Y-13463097D01*
X88481579Y-13587553D01*
X88375256Y-13608702D01*
X88162611Y-13651000D01*
X87837389Y-13651000D01*
X87624744Y-13608702D01*
X87518421Y-13587553D01*
X87217958Y-13463097D01*
X86947549Y-13282415D01*
X86717585Y-13052451D01*
X86536903Y-12782042D01*
X86519260Y-12739447D01*
X86419662Y-12498997D01*
X86412447Y-12481579D01*
X86349000Y-12162609D01*
X86349000Y-11837391D01*
X86412447Y-11518421D01*
X86536903Y-11217958D01*
X86717585Y-10947549D01*
X86947549Y-10717585D01*
X87217958Y-10536903D01*
X87518421Y-10412447D01*
X87624744Y-10391298D01*
X87837389Y-10349000D01*
X88162611Y-10349000D01*
X88375256Y-10391298D01*
X88375256Y-10391298D01*
G37*
G36*
X12375256Y-10391298D02*
G01*
X12481579Y-10412447D01*
X12782042Y-10536903D01*
X13052451Y-10717585D01*
X13282415Y-10947549D01*
X13463097Y-11217958D01*
X13587553Y-11518421D01*
X13651000Y-11837391D01*
X13651000Y-12162609D01*
X13587553Y-12481579D01*
X13580338Y-12498997D01*
X13480741Y-12739447D01*
X13463097Y-12782042D01*
X13282415Y-13052451D01*
X13052451Y-13282415D01*
X12782042Y-13463097D01*
X12481579Y-13587553D01*
X12375256Y-13608702D01*
X12162611Y-13651000D01*
X11837389Y-13651000D01*
X11624744Y-13608702D01*
X11518421Y-13587553D01*
X11217958Y-13463097D01*
X10947549Y-13282415D01*
X10717585Y-13052451D01*
X10536903Y-12782042D01*
X10519260Y-12739447D01*
X10419662Y-12498997D01*
X10412447Y-12481579D01*
X10349000Y-12162609D01*
X10349000Y-11837391D01*
X10412447Y-11518421D01*
X10536903Y-11217958D01*
X10717585Y-10947549D01*
X10947549Y-10717585D01*
X11217958Y-10536903D01*
X11518421Y-10412447D01*
X11624744Y-10391298D01*
X11837389Y-10349000D01*
X12162611Y-10349000D01*
X12375256Y-10391298D01*
X12375256Y-10391298D01*
G37*
G36*
X60901000Y-5901000D02*
G01*
X59099000Y-5901000D01*
X59099000Y-4099000D01*
X60901000Y-4099000D01*
X60901000Y-5901000D01*
X60901000Y-5901000D01*
G37*
G36*
X77890443Y-4105519D02*
G01*
X77956627Y-4112037D01*
X78126466Y-4163557D01*
X78282991Y-4247222D01*
X78318729Y-4276552D01*
X78420186Y-4359814D01*
X78503448Y-4461271D01*
X78532778Y-4497009D01*
X78616443Y-4653534D01*
X78667963Y-4823373D01*
X78685359Y-5000000D01*
X78667963Y-5176627D01*
X78616443Y-5346466D01*
X78532778Y-5502991D01*
X78503448Y-5538729D01*
X78420186Y-5640186D01*
X78318729Y-5723448D01*
X78282991Y-5752778D01*
X78126466Y-5836443D01*
X77956627Y-5887963D01*
X77890442Y-5894482D01*
X77824260Y-5901000D01*
X77735740Y-5901000D01*
X77669558Y-5894482D01*
X77603373Y-5887963D01*
X77433534Y-5836443D01*
X77277009Y-5752778D01*
X77241271Y-5723448D01*
X77139814Y-5640186D01*
X77056552Y-5538729D01*
X77027222Y-5502991D01*
X76943557Y-5346466D01*
X76892037Y-5176627D01*
X76874641Y-5000000D01*
X76892037Y-4823373D01*
X76943557Y-4653534D01*
X77027222Y-4497009D01*
X77056552Y-4461271D01*
X77139814Y-4359814D01*
X77241271Y-4276552D01*
X77277009Y-4247222D01*
X77433534Y-4163557D01*
X77603373Y-4112037D01*
X77669558Y-4105518D01*
X77735740Y-4099000D01*
X77824260Y-4099000D01*
X77890443Y-4105519D01*
X77890443Y-4105519D01*
G37*
G36*
X80430443Y-4105519D02*
G01*
X80496627Y-4112037D01*
X80666466Y-4163557D01*
X80822991Y-4247222D01*
X80858729Y-4276552D01*
X80960186Y-4359814D01*
X81043448Y-4461271D01*
X81072778Y-4497009D01*
X81156443Y-4653534D01*
X81207963Y-4823373D01*
X81225359Y-5000000D01*
X81207963Y-5176627D01*
X81156443Y-5346466D01*
X81072778Y-5502991D01*
X81043448Y-5538729D01*
X80960186Y-5640186D01*
X80858729Y-5723448D01*
X80822991Y-5752778D01*
X80666466Y-5836443D01*
X80496627Y-5887963D01*
X80430442Y-5894482D01*
X80364260Y-5901000D01*
X80275740Y-5901000D01*
X80209558Y-5894482D01*
X80143373Y-5887963D01*
X79973534Y-5836443D01*
X79817009Y-5752778D01*
X79781271Y-5723448D01*
X79679814Y-5640186D01*
X79596552Y-5538729D01*
X79567222Y-5502991D01*
X79483557Y-5346466D01*
X79432037Y-5176627D01*
X79414641Y-5000000D01*
X79432037Y-4823373D01*
X79483557Y-4653534D01*
X79567222Y-4497009D01*
X79596552Y-4461271D01*
X79679814Y-4359814D01*
X79781271Y-4276552D01*
X79817009Y-4247222D01*
X79973534Y-4163557D01*
X80143373Y-4112037D01*
X80209558Y-4105518D01*
X80275740Y-4099000D01*
X80364260Y-4099000D01*
X80430443Y-4105519D01*
X80430443Y-4105519D01*
G37*
G36*
X72810443Y-4105519D02*
G01*
X72876627Y-4112037D01*
X73046466Y-4163557D01*
X73202991Y-4247222D01*
X73238729Y-4276552D01*
X73340186Y-4359814D01*
X73423448Y-4461271D01*
X73452778Y-4497009D01*
X73536443Y-4653534D01*
X73587963Y-4823373D01*
X73605359Y-5000000D01*
X73587963Y-5176627D01*
X73536443Y-5346466D01*
X73452778Y-5502991D01*
X73423448Y-5538729D01*
X73340186Y-5640186D01*
X73238729Y-5723448D01*
X73202991Y-5752778D01*
X73046466Y-5836443D01*
X72876627Y-5887963D01*
X72810443Y-5894481D01*
X72744260Y-5901000D01*
X72655740Y-5901000D01*
X72589558Y-5894482D01*
X72523373Y-5887963D01*
X72353534Y-5836443D01*
X72197009Y-5752778D01*
X72161271Y-5723448D01*
X72059814Y-5640186D01*
X71976552Y-5538729D01*
X71947222Y-5502991D01*
X71863557Y-5346466D01*
X71812037Y-5176627D01*
X71794641Y-5000000D01*
X71812037Y-4823373D01*
X71863557Y-4653534D01*
X71947222Y-4497009D01*
X71976552Y-4461271D01*
X72059814Y-4359814D01*
X72161271Y-4276552D01*
X72197009Y-4247222D01*
X72353534Y-4163557D01*
X72523373Y-4112037D01*
X72589558Y-4105518D01*
X72655740Y-4099000D01*
X72744260Y-4099000D01*
X72810443Y-4105519D01*
X72810443Y-4105519D01*
G37*
G36*
X75350443Y-4105519D02*
G01*
X75416627Y-4112037D01*
X75586466Y-4163557D01*
X75742991Y-4247222D01*
X75778729Y-4276552D01*
X75880186Y-4359814D01*
X75963448Y-4461271D01*
X75992778Y-4497009D01*
X76076443Y-4653534D01*
X76127963Y-4823373D01*
X76145359Y-5000000D01*
X76127963Y-5176627D01*
X76076443Y-5346466D01*
X75992778Y-5502991D01*
X75963448Y-5538729D01*
X75880186Y-5640186D01*
X75778729Y-5723448D01*
X75742991Y-5752778D01*
X75586466Y-5836443D01*
X75416627Y-5887963D01*
X75350442Y-5894482D01*
X75284260Y-5901000D01*
X75195740Y-5901000D01*
X75129558Y-5894482D01*
X75063373Y-5887963D01*
X74893534Y-5836443D01*
X74737009Y-5752778D01*
X74701271Y-5723448D01*
X74599814Y-5640186D01*
X74516552Y-5538729D01*
X74487222Y-5502991D01*
X74403557Y-5346466D01*
X74352037Y-5176627D01*
X74334641Y-5000000D01*
X74352037Y-4823373D01*
X74403557Y-4653534D01*
X74487222Y-4497009D01*
X74516552Y-4461271D01*
X74599814Y-4359814D01*
X74701271Y-4276552D01*
X74737009Y-4247222D01*
X74893534Y-4163557D01*
X75063373Y-4112037D01*
X75129558Y-4105518D01*
X75195740Y-4099000D01*
X75284260Y-4099000D01*
X75350443Y-4105519D01*
X75350443Y-4105519D01*
G37*
G36*
X70270443Y-4105519D02*
G01*
X70336627Y-4112037D01*
X70506466Y-4163557D01*
X70662991Y-4247222D01*
X70698729Y-4276552D01*
X70800186Y-4359814D01*
X70883448Y-4461271D01*
X70912778Y-4497009D01*
X70996443Y-4653534D01*
X71047963Y-4823373D01*
X71065359Y-5000000D01*
X71047963Y-5176627D01*
X70996443Y-5346466D01*
X70912778Y-5502991D01*
X70883448Y-5538729D01*
X70800186Y-5640186D01*
X70698729Y-5723448D01*
X70662991Y-5752778D01*
X70506466Y-5836443D01*
X70336627Y-5887963D01*
X70270443Y-5894481D01*
X70204260Y-5901000D01*
X70115740Y-5901000D01*
X70049558Y-5894482D01*
X69983373Y-5887963D01*
X69813534Y-5836443D01*
X69657009Y-5752778D01*
X69621271Y-5723448D01*
X69519814Y-5640186D01*
X69436552Y-5538729D01*
X69407222Y-5502991D01*
X69323557Y-5346466D01*
X69272037Y-5176627D01*
X69254641Y-5000000D01*
X69272037Y-4823373D01*
X69323557Y-4653534D01*
X69407222Y-4497009D01*
X69436552Y-4461271D01*
X69519814Y-4359814D01*
X69621271Y-4276552D01*
X69657009Y-4247222D01*
X69813534Y-4163557D01*
X69983373Y-4112037D01*
X70049558Y-4105518D01*
X70115740Y-4099000D01*
X70204260Y-4099000D01*
X70270443Y-4105519D01*
X70270443Y-4105519D01*
G37*
G36*
X67730443Y-4105519D02*
G01*
X67796627Y-4112037D01*
X67966466Y-4163557D01*
X68122991Y-4247222D01*
X68158729Y-4276552D01*
X68260186Y-4359814D01*
X68343448Y-4461271D01*
X68372778Y-4497009D01*
X68456443Y-4653534D01*
X68507963Y-4823373D01*
X68525359Y-5000000D01*
X68507963Y-5176627D01*
X68456443Y-5346466D01*
X68372778Y-5502991D01*
X68343448Y-5538729D01*
X68260186Y-5640186D01*
X68158729Y-5723448D01*
X68122991Y-5752778D01*
X67966466Y-5836443D01*
X67796627Y-5887963D01*
X67730443Y-5894481D01*
X67664260Y-5901000D01*
X67575740Y-5901000D01*
X67509558Y-5894482D01*
X67443373Y-5887963D01*
X67273534Y-5836443D01*
X67117009Y-5752778D01*
X67081271Y-5723448D01*
X66979814Y-5640186D01*
X66896552Y-5538729D01*
X66867222Y-5502991D01*
X66783557Y-5346466D01*
X66732037Y-5176627D01*
X66714641Y-5000000D01*
X66732037Y-4823373D01*
X66783557Y-4653534D01*
X66867222Y-4497009D01*
X66896552Y-4461271D01*
X66979814Y-4359814D01*
X67081271Y-4276552D01*
X67117009Y-4247222D01*
X67273534Y-4163557D01*
X67443373Y-4112037D01*
X67509558Y-4105518D01*
X67575740Y-4099000D01*
X67664260Y-4099000D01*
X67730443Y-4105519D01*
X67730443Y-4105519D01*
G37*
G36*
X65190443Y-4105519D02*
G01*
X65256627Y-4112037D01*
X65426466Y-4163557D01*
X65582991Y-4247222D01*
X65618729Y-4276552D01*
X65720186Y-4359814D01*
X65803448Y-4461271D01*
X65832778Y-4497009D01*
X65916443Y-4653534D01*
X65967963Y-4823373D01*
X65985359Y-5000000D01*
X65967963Y-5176627D01*
X65916443Y-5346466D01*
X65832778Y-5502991D01*
X65803448Y-5538729D01*
X65720186Y-5640186D01*
X65618729Y-5723448D01*
X65582991Y-5752778D01*
X65426466Y-5836443D01*
X65256627Y-5887963D01*
X65190443Y-5894481D01*
X65124260Y-5901000D01*
X65035740Y-5901000D01*
X64969558Y-5894482D01*
X64903373Y-5887963D01*
X64733534Y-5836443D01*
X64577009Y-5752778D01*
X64541271Y-5723448D01*
X64439814Y-5640186D01*
X64356552Y-5538729D01*
X64327222Y-5502991D01*
X64243557Y-5346466D01*
X64192037Y-5176627D01*
X64174641Y-5000000D01*
X64192037Y-4823373D01*
X64243557Y-4653534D01*
X64327222Y-4497009D01*
X64356552Y-4461271D01*
X64439814Y-4359814D01*
X64541271Y-4276552D01*
X64577009Y-4247222D01*
X64733534Y-4163557D01*
X64903373Y-4112037D01*
X64969558Y-4105518D01*
X65035740Y-4099000D01*
X65124260Y-4099000D01*
X65190443Y-4105519D01*
X65190443Y-4105519D01*
G37*
G36*
X62650443Y-4105519D02*
G01*
X62716627Y-4112037D01*
X62886466Y-4163557D01*
X63042991Y-4247222D01*
X63078729Y-4276552D01*
X63180186Y-4359814D01*
X63263448Y-4461271D01*
X63292778Y-4497009D01*
X63376443Y-4653534D01*
X63427963Y-4823373D01*
X63445359Y-5000000D01*
X63427963Y-5176627D01*
X63376443Y-5346466D01*
X63292778Y-5502991D01*
X63263448Y-5538729D01*
X63180186Y-5640186D01*
X63078729Y-5723448D01*
X63042991Y-5752778D01*
X62886466Y-5836443D01*
X62716627Y-5887963D01*
X62650443Y-5894481D01*
X62584260Y-5901000D01*
X62495740Y-5901000D01*
X62429558Y-5894482D01*
X62363373Y-5887963D01*
X62193534Y-5836443D01*
X62037009Y-5752778D01*
X62001271Y-5723448D01*
X61899814Y-5640186D01*
X61816552Y-5538729D01*
X61787222Y-5502991D01*
X61703557Y-5346466D01*
X61652037Y-5176627D01*
X61634641Y-5000000D01*
X61652037Y-4823373D01*
X61703557Y-4653534D01*
X61787222Y-4497009D01*
X61816552Y-4461271D01*
X61899814Y-4359814D01*
X62001271Y-4276552D01*
X62037009Y-4247222D01*
X62193534Y-4163557D01*
X62363373Y-4112037D01*
X62429558Y-4105518D01*
X62495740Y-4099000D01*
X62584260Y-4099000D01*
X62650443Y-4105519D01*
X62650443Y-4105519D01*
G37*
G36*
X47153642Y-3229781D02*
G01*
X47299414Y-3290162D01*
X47299416Y-3290163D01*
X47430608Y-3377822D01*
X47542178Y-3489392D01*
X47629837Y-3620584D01*
X47629838Y-3620586D01*
X47690219Y-3766358D01*
X47721000Y-3921107D01*
X47721000Y-4078893D01*
X47690219Y-4233642D01*
X47637956Y-4359815D01*
X47629837Y-4379416D01*
X47542178Y-4510608D01*
X47430608Y-4622178D01*
X47299416Y-4709837D01*
X47299415Y-4709838D01*
X47299414Y-4709838D01*
X47153642Y-4770219D01*
X46998893Y-4801000D01*
X46841107Y-4801000D01*
X46686358Y-4770219D01*
X46540586Y-4709838D01*
X46540585Y-4709838D01*
X46540584Y-4709837D01*
X46409392Y-4622178D01*
X46297822Y-4510608D01*
X46210163Y-4379416D01*
X46202044Y-4359815D01*
X46149781Y-4233642D01*
X46119000Y-4078893D01*
X46119000Y-3921107D01*
X46149781Y-3766358D01*
X46210162Y-3620586D01*
X46210163Y-3620584D01*
X46297822Y-3489392D01*
X46409392Y-3377822D01*
X46540584Y-3290163D01*
X46540586Y-3290162D01*
X46686358Y-3229781D01*
X46841107Y-3199000D01*
X46998893Y-3199000D01*
X47153642Y-3229781D01*
X47153642Y-3229781D01*
G37*
G36*
X44613642Y-3229781D02*
G01*
X44759414Y-3290162D01*
X44759416Y-3290163D01*
X44890608Y-3377822D01*
X45002178Y-3489392D01*
X45089837Y-3620584D01*
X45089838Y-3620586D01*
X45150219Y-3766358D01*
X45181000Y-3921107D01*
X45181000Y-4078893D01*
X45150219Y-4233642D01*
X45097956Y-4359815D01*
X45089837Y-4379416D01*
X45002178Y-4510608D01*
X44890608Y-4622178D01*
X44759416Y-4709837D01*
X44759415Y-4709838D01*
X44759414Y-4709838D01*
X44613642Y-4770219D01*
X44458893Y-4801000D01*
X44301107Y-4801000D01*
X44146358Y-4770219D01*
X44000586Y-4709838D01*
X44000585Y-4709838D01*
X44000584Y-4709837D01*
X43869392Y-4622178D01*
X43757822Y-4510608D01*
X43670163Y-4379416D01*
X43662044Y-4359815D01*
X43609781Y-4233642D01*
X43579000Y-4078893D01*
X43579000Y-3921107D01*
X43609781Y-3766358D01*
X43670162Y-3620586D01*
X43670163Y-3620584D01*
X43757822Y-3489392D01*
X43869392Y-3377822D01*
X44000584Y-3290163D01*
X44000586Y-3290162D01*
X44146358Y-3229781D01*
X44301107Y-3199000D01*
X44458893Y-3199000D01*
X44613642Y-3229781D01*
X44613642Y-3229781D01*
G37*
G36*
X49693642Y-3229781D02*
G01*
X49839414Y-3290162D01*
X49839416Y-3290163D01*
X49970608Y-3377822D01*
X50082178Y-3489392D01*
X50169837Y-3620584D01*
X50169838Y-3620586D01*
X50230219Y-3766358D01*
X50261000Y-3921107D01*
X50261000Y-4078893D01*
X50230219Y-4233642D01*
X50177956Y-4359815D01*
X50169837Y-4379416D01*
X50082178Y-4510608D01*
X49970608Y-4622178D01*
X49839416Y-4709837D01*
X49839415Y-4709838D01*
X49839414Y-4709838D01*
X49693642Y-4770219D01*
X49538893Y-4801000D01*
X49381107Y-4801000D01*
X49226358Y-4770219D01*
X49080586Y-4709838D01*
X49080585Y-4709838D01*
X49080584Y-4709837D01*
X48949392Y-4622178D01*
X48837822Y-4510608D01*
X48750163Y-4379416D01*
X48742044Y-4359815D01*
X48689781Y-4233642D01*
X48659000Y-4078893D01*
X48659000Y-3921107D01*
X48689781Y-3766358D01*
X48750162Y-3620586D01*
X48750163Y-3620584D01*
X48837822Y-3489392D01*
X48949392Y-3377822D01*
X49080584Y-3290163D01*
X49080586Y-3290162D01*
X49226358Y-3229781D01*
X49381107Y-3199000D01*
X49538893Y-3199000D01*
X49693642Y-3229781D01*
X49693642Y-3229781D01*
G37*
G36*
X52801000Y-4801000D02*
G01*
X51199000Y-4801000D01*
X51199000Y-3199000D01*
X52801000Y-3199000D01*
X52801000Y-4801000D01*
X52801000Y-4801000D01*
G37*
G36*
X25748228Y-2181703D02*
G01*
X25903100Y-2245853D01*
X26042481Y-2338985D01*
X26161015Y-2457519D01*
X26254147Y-2596900D01*
X26318297Y-2751772D01*
X26351000Y-2916184D01*
X26351000Y-3083816D01*
X26318297Y-3248228D01*
X26254147Y-3403100D01*
X26161015Y-3542481D01*
X26042481Y-3661015D01*
X25903100Y-3754147D01*
X25748228Y-3818297D01*
X25583816Y-3851000D01*
X25416184Y-3851000D01*
X25251772Y-3818297D01*
X25096900Y-3754147D01*
X24957519Y-3661015D01*
X24838985Y-3542481D01*
X24745853Y-3403100D01*
X24681703Y-3248228D01*
X24649000Y-3083816D01*
X24649000Y-2916184D01*
X24681703Y-2751772D01*
X24745853Y-2596900D01*
X24838985Y-2457519D01*
X24957519Y-2338985D01*
X25096900Y-2245853D01*
X25251772Y-2181703D01*
X25416184Y-2149000D01*
X25583816Y-2149000D01*
X25748228Y-2181703D01*
X25748228Y-2181703D01*
G37*
G36*
X28748228Y-2181703D02*
G01*
X28903100Y-2245853D01*
X29042481Y-2338985D01*
X29161015Y-2457519D01*
X29254147Y-2596900D01*
X29318297Y-2751772D01*
X29351000Y-2916184D01*
X29351000Y-3083816D01*
X29318297Y-3248228D01*
X29254147Y-3403100D01*
X29161015Y-3542481D01*
X29042481Y-3661015D01*
X28903100Y-3754147D01*
X28748228Y-3818297D01*
X28583816Y-3851000D01*
X28416184Y-3851000D01*
X28251772Y-3818297D01*
X28096900Y-3754147D01*
X27957519Y-3661015D01*
X27838985Y-3542481D01*
X27745853Y-3403100D01*
X27681703Y-3248228D01*
X27649000Y-3083816D01*
X27649000Y-2916184D01*
X27681703Y-2751772D01*
X27745853Y-2596900D01*
X27838985Y-2457519D01*
X27957519Y-2338985D01*
X28096900Y-2245853D01*
X28251772Y-2181703D01*
X28416184Y-2149000D01*
X28583816Y-2149000D01*
X28748228Y-2181703D01*
X28748228Y-2181703D01*
G37*
G36*
X34693642Y-2229781D02*
G01*
X34839414Y-2290162D01*
X34839416Y-2290163D01*
X34970608Y-2377822D01*
X35082178Y-2489392D01*
X35154012Y-2596900D01*
X35169838Y-2620586D01*
X35230219Y-2766358D01*
X35261000Y-2921107D01*
X35261000Y-3078893D01*
X35230219Y-3233642D01*
X35206807Y-3290163D01*
X35169837Y-3379416D01*
X35082178Y-3510608D01*
X34970608Y-3622178D01*
X34839416Y-3709837D01*
X34839415Y-3709838D01*
X34839414Y-3709838D01*
X34693642Y-3770219D01*
X34538893Y-3801000D01*
X34381107Y-3801000D01*
X34226358Y-3770219D01*
X34080586Y-3709838D01*
X34080585Y-3709838D01*
X34080584Y-3709837D01*
X33949392Y-3622178D01*
X33837822Y-3510608D01*
X33750163Y-3379416D01*
X33713193Y-3290163D01*
X33689781Y-3233642D01*
X33659000Y-3078893D01*
X33659000Y-2921107D01*
X33689781Y-2766358D01*
X33750162Y-2620586D01*
X33765988Y-2596900D01*
X33837822Y-2489392D01*
X33949392Y-2377822D01*
X34080584Y-2290163D01*
X34080586Y-2290162D01*
X34226358Y-2229781D01*
X34381107Y-2199000D01*
X34538893Y-2199000D01*
X34693642Y-2229781D01*
X34693642Y-2229781D01*
G37*
G36*
X37233642Y-2229781D02*
G01*
X37379414Y-2290162D01*
X37379416Y-2290163D01*
X37510608Y-2377822D01*
X37622178Y-2489392D01*
X37694012Y-2596900D01*
X37709838Y-2620586D01*
X37770219Y-2766358D01*
X37801000Y-2921107D01*
X37801000Y-3078893D01*
X37770219Y-3233642D01*
X37746807Y-3290163D01*
X37709837Y-3379416D01*
X37622178Y-3510608D01*
X37510608Y-3622178D01*
X37379416Y-3709837D01*
X37379415Y-3709838D01*
X37379414Y-3709838D01*
X37233642Y-3770219D01*
X37078893Y-3801000D01*
X36921107Y-3801000D01*
X36766358Y-3770219D01*
X36620586Y-3709838D01*
X36620585Y-3709838D01*
X36620584Y-3709837D01*
X36489392Y-3622178D01*
X36377822Y-3510608D01*
X36290163Y-3379416D01*
X36253193Y-3290163D01*
X36229781Y-3233642D01*
X36199000Y-3078893D01*
X36199000Y-2921107D01*
X36229781Y-2766358D01*
X36290162Y-2620586D01*
X36305988Y-2596900D01*
X36377822Y-2489392D01*
X36489392Y-2377822D01*
X36620584Y-2290163D01*
X36620586Y-2290162D01*
X36766358Y-2229781D01*
X36921107Y-2199000D01*
X37078893Y-2199000D01*
X37233642Y-2229781D01*
X37233642Y-2229781D01*
G37*
G36*
X40341000Y-3801000D02*
G01*
X38739000Y-3801000D01*
X38739000Y-2199000D01*
X40341000Y-2199000D01*
X40341000Y-3801000D01*
X40341000Y-3801000D01*
G37*
M02*
