G04 #@! TF.GenerationSoftware,KiCad,Pcbnew,(5.1.0)-1*
G04 #@! TF.CreationDate,2019-05-12T21:15:30+02:00*
G04 #@! TF.ProjectId,ESP32 dev board,45535033-3220-4646-9576-20626f617264,rev?*
G04 #@! TF.SameCoordinates,Original*
G04 #@! TF.FileFunction,Copper,L1,Top*
G04 #@! TF.FilePolarity,Positive*
%FSLAX46Y46*%
G04 Gerber Fmt 4.6, Leading zero omitted, Abs format (unit mm)*
G04 Created by KiCad (PCBNEW (5.1.0)-1) date 2019-05-12 21:15:30*
%MOMM*%
%LPD*%
G04 APERTURE LIST*
%ADD10O,1.700000X1.700000*%
%ADD11R,1.700000X1.700000*%
%ADD12C,1.500000*%
%ADD13R,1.500000X1.500000*%
%ADD14C,1.800000*%
%ADD15R,1.800000X1.800000*%
%ADD16C,1.560000*%
%ADD17R,1.560000X1.560000*%
%ADD18C,1.524000*%
%ADD19R,1.524000X1.524000*%
%ADD20C,1.600000*%
%ADD21R,1.600000X1.600000*%
%ADD22C,2.000000*%
%ADD23R,2.000000X2.000000*%
%ADD24C,4.000000*%
%ADD25R,2.000000X3.200000*%
%ADD26C,0.800000*%
%ADD27C,0.508000*%
%ADD28C,0.254000*%
G04 APERTURE END LIST*
D10*
X41000000Y-72120000D03*
X41000000Y-69580000D03*
X41000000Y-67040000D03*
D11*
X41000000Y-64500000D03*
D10*
X44000000Y-72120000D03*
D11*
X44000000Y-69580000D03*
D10*
X80320000Y-5000000D03*
X77780000Y-5000000D03*
X75240000Y-5000000D03*
X72700000Y-5000000D03*
X70160000Y-5000000D03*
X67620000Y-5000000D03*
X65080000Y-5000000D03*
X62540000Y-5000000D03*
D11*
X60000000Y-5000000D03*
D12*
X44380000Y-4000000D03*
X46920000Y-4000000D03*
X49460000Y-4000000D03*
D13*
X52000000Y-4000000D03*
D10*
X34780000Y-70040000D03*
X34780000Y-67500000D03*
D11*
X34780000Y-64960000D03*
D10*
X32240000Y-70040000D03*
X32240000Y-67500000D03*
D11*
X32240000Y-64960000D03*
D10*
X29700000Y-70040000D03*
X29700000Y-67500000D03*
D11*
X29700000Y-64960000D03*
D10*
X27160000Y-70040000D03*
X27160000Y-67500000D03*
D11*
X27160000Y-64960000D03*
D10*
X24620000Y-70040000D03*
X24620000Y-67500000D03*
D11*
X24620000Y-64960000D03*
D10*
X22080000Y-70040000D03*
X22080000Y-67500000D03*
D11*
X22080000Y-64960000D03*
D10*
X19540000Y-70040000D03*
X19540000Y-67500000D03*
D11*
X19540000Y-64960000D03*
D14*
X29337000Y-17018000D03*
X27178000Y-17018000D03*
X25019000Y-17018000D03*
D15*
X22860000Y-17018000D03*
D14*
X10414000Y-28702000D03*
D15*
X7874000Y-28702000D03*
D16*
X92960000Y-19300000D03*
X90420000Y-19300000D03*
X87880000Y-19300000D03*
X85340000Y-19300000D03*
X82800000Y-19300000D03*
X80260000Y-19300000D03*
X77720000Y-19300000D03*
X75180000Y-19300000D03*
X72640000Y-19300000D03*
X70100000Y-19300000D03*
X67560000Y-19300000D03*
X65020000Y-19300000D03*
X62480000Y-19300000D03*
X59940000Y-19300000D03*
X57400000Y-19300000D03*
X54860000Y-19300000D03*
X52320000Y-19300000D03*
X49780000Y-19300000D03*
X47240000Y-19300000D03*
X90420000Y-44700000D03*
X87880000Y-44700000D03*
X85340000Y-44700000D03*
X82800000Y-44700000D03*
X80260000Y-44700000D03*
X77720000Y-44700000D03*
X75180000Y-44700000D03*
X72640000Y-44700000D03*
X70100000Y-44700000D03*
X67560000Y-44700000D03*
X65020000Y-44700000D03*
X62480000Y-44700000D03*
X59940000Y-44700000D03*
X57400000Y-44700000D03*
X54860000Y-44700000D03*
X52320000Y-44700000D03*
X92960000Y-44700000D03*
X49780000Y-44700000D03*
D17*
X47240000Y-44700000D03*
D18*
X69515000Y-52800000D03*
X66975000Y-52800000D03*
X64435000Y-52800000D03*
X61895000Y-52800000D03*
X59355000Y-52800000D03*
X56815000Y-52800000D03*
X54275000Y-52800000D03*
D19*
X51735000Y-52800000D03*
D20*
X95000000Y-54500000D03*
D21*
X95000000Y-52000000D03*
D20*
X87000000Y-54500000D03*
D21*
X87000000Y-52000000D03*
D22*
X35600000Y-54000000D03*
D23*
X28000000Y-54000000D03*
D20*
X28500000Y-3000000D03*
X25500000Y-3000000D03*
D24*
X56400000Y-64000000D03*
X47600000Y-64000000D03*
D14*
X54500000Y-71000000D03*
X52000000Y-71000000D03*
X49500000Y-71000000D03*
D23*
X69500000Y-71500000D03*
D22*
X72000000Y-71500000D03*
X74500000Y-71500000D03*
D25*
X66400000Y-64000000D03*
X77600000Y-64000000D03*
D22*
X69500000Y-57000000D03*
X74500000Y-57000000D03*
X37340000Y-22260000D03*
X37340000Y-26760000D03*
X30840000Y-22260000D03*
X30840000Y-26760000D03*
X37340000Y-32420000D03*
X37340000Y-36920000D03*
X30840000Y-32420000D03*
X30840000Y-36920000D03*
D13*
X39540000Y-3000000D03*
D12*
X34460000Y-3000000D03*
X37000000Y-3000000D03*
D14*
X20220000Y-53590000D03*
D15*
X17680000Y-53590000D03*
D14*
X25160000Y-39400000D03*
D15*
X22620000Y-39400000D03*
D14*
X9910000Y-45040000D03*
D15*
X7370000Y-45040000D03*
D14*
X18490000Y-35690000D03*
D15*
X15950000Y-35690000D03*
D14*
X16870000Y-41680000D03*
D15*
X14330000Y-41680000D03*
D14*
X17540000Y-46810000D03*
D15*
X15000000Y-46810000D03*
D14*
X11640000Y-51220000D03*
D15*
X9100000Y-51220000D03*
D14*
X11330000Y-37240000D03*
D15*
X8790000Y-37240000D03*
D14*
X26220000Y-46460000D03*
D15*
X23680000Y-46460000D03*
D14*
X18260000Y-23690000D03*
D15*
X15720000Y-23690000D03*
D14*
X26850000Y-28890000D03*
D15*
X24310000Y-28890000D03*
D13*
X54727000Y-28118800D03*
D12*
X54727000Y-33198800D03*
X54727000Y-30658800D03*
D13*
X60727000Y-28118800D03*
D12*
X60727000Y-33198800D03*
X60727000Y-30658800D03*
D13*
X66727000Y-28118800D03*
D12*
X66727000Y-33198800D03*
X66727000Y-30658800D03*
D13*
X72727000Y-28118800D03*
D12*
X72727000Y-33198800D03*
X72727000Y-30658800D03*
D26*
X46228000Y-5588000D03*
X47498000Y-14986000D03*
X48867651Y-16101651D03*
X55286801Y-35137199D03*
X50292000Y-35560000D03*
X47240000Y-24713300D03*
X44196000Y-27686000D03*
X37994600Y-42979300D03*
X37210700Y-5730200D03*
X69010700Y-23008300D03*
X42777700Y-23008300D03*
X88900000Y-34708500D03*
X84510200Y-24887400D03*
X87295200Y-32084800D03*
X87496900Y-26271400D03*
X47888100Y-57447200D03*
X35462600Y-36128400D03*
X34725000Y-40256400D03*
X33959000Y-35347100D03*
X37175900Y-41695000D03*
X71800200Y-35129200D03*
X44370500Y-65945400D03*
X81633400Y-41199500D03*
X81344500Y-40139200D03*
X78522500Y-36529700D03*
X62625500Y-49373600D03*
X61132200Y-6674300D03*
X78595100Y-38425700D03*
X80280600Y-39841600D03*
X50870300Y-27054000D03*
X82281600Y-24393600D03*
X50738700Y-33073000D03*
X28591600Y-37930100D03*
X50858400Y-25249600D03*
X84547600Y-27187500D03*
X52099500Y-26099200D03*
X86454700Y-23565700D03*
X52117800Y-34347900D03*
X85630800Y-34577700D03*
X68334800Y-53625500D03*
X30107900Y-42975200D03*
X35918200Y-48183200D03*
X90583100Y-42904700D03*
X36112500Y-49435500D03*
X43801300Y-17860800D03*
X46912200Y-34823500D03*
X53256900Y-30470100D03*
X41427400Y-20165060D03*
D27*
X44000000Y-72120000D02*
X41000000Y-72120000D01*
X44679200Y-72120000D02*
X44000000Y-72120000D01*
X44679200Y-72120000D02*
X45358300Y-72120000D01*
X34780000Y-70040000D02*
X36138300Y-70040000D01*
X36138300Y-70040000D02*
X38218300Y-72120000D01*
X38218300Y-72120000D02*
X41000000Y-72120000D01*
X32240000Y-70040000D02*
X34780000Y-70040000D01*
X29700000Y-70040000D02*
X32240000Y-70040000D01*
X27160000Y-70040000D02*
X29700000Y-70040000D01*
X24620000Y-70040000D02*
X27160000Y-70040000D01*
X22080000Y-70040000D02*
X24620000Y-70040000D01*
X19540000Y-70040000D02*
X22080000Y-70040000D01*
X62480000Y-19300000D02*
X61142200Y-20637800D01*
X61142200Y-20637800D02*
X48577800Y-20637800D01*
X48577800Y-20637800D02*
X47240000Y-19300000D01*
X87000000Y-54500000D02*
X95000000Y-54500000D01*
X49500000Y-71736400D02*
X45741900Y-71736400D01*
X45741900Y-71736400D02*
X45358300Y-72120000D01*
X72000000Y-71500000D02*
X72000000Y-71726600D01*
X72000000Y-71726600D02*
X70694300Y-73032300D01*
X70694300Y-73032300D02*
X50795900Y-73032300D01*
X50795900Y-73032300D02*
X49500000Y-71736400D01*
X49500000Y-71736400D02*
X49500000Y-71000000D01*
X39540000Y-3000000D02*
X43380000Y-3000000D01*
X43380000Y-3000000D02*
X44380000Y-4000000D01*
X60727000Y-33198800D02*
X54727000Y-33198800D01*
X66727000Y-33198800D02*
X60727000Y-33198800D01*
X72727000Y-33198800D02*
X66727000Y-33198800D01*
X44380000Y-4000000D02*
X44640000Y-4000000D01*
X44640000Y-4000000D02*
X46228000Y-5588000D01*
X47498000Y-14986000D02*
X47752000Y-14986000D01*
X47752000Y-14986000D02*
X48867651Y-16101651D01*
X55286801Y-35137199D02*
X54864000Y-35560000D01*
X54864000Y-35560000D02*
X50292000Y-35560000D01*
X47240000Y-24713300D02*
X47168700Y-24713300D01*
X47168700Y-24713300D02*
X44196000Y-27686000D01*
X37340000Y-26760000D02*
X41091700Y-23008300D01*
X47240000Y-44700000D02*
X39715300Y-44700000D01*
X39715300Y-44700000D02*
X37994600Y-42979300D01*
X56815000Y-52800000D02*
X54801900Y-50786900D01*
X54801900Y-50786900D02*
X53326900Y-50786900D01*
X53326900Y-50786900D02*
X47240000Y-44700000D01*
X34784900Y-3000000D02*
X34784900Y-3304400D01*
X34784900Y-3304400D02*
X37210700Y-5730200D01*
X50741700Y-4000000D02*
X50741700Y-3449500D01*
X50741700Y-3449500D02*
X48441500Y-1149300D01*
X48441500Y-1149300D02*
X36635600Y-1149300D01*
X36635600Y-1149300D02*
X34784900Y-3000000D01*
X34460000Y-3000000D02*
X34784900Y-3000000D01*
X56815000Y-52800000D02*
X58789000Y-54774000D01*
X58789000Y-54774000D02*
X72274000Y-54774000D01*
X72274000Y-54774000D02*
X74500000Y-57000000D01*
X30840000Y-36920000D02*
X30956700Y-37036700D01*
X30956700Y-37036700D02*
X37223300Y-37036700D01*
X37223300Y-37036700D02*
X37340000Y-36920000D01*
X87000000Y-52000000D02*
X85691700Y-52000000D01*
X85691700Y-52000000D02*
X80691700Y-57000000D01*
X80691700Y-57000000D02*
X74500000Y-57000000D01*
X28500000Y-3000000D02*
X34460000Y-3000000D01*
X52000000Y-4000000D02*
X50741700Y-4000000D01*
X30840000Y-26760000D02*
X37340000Y-26760000D01*
X42777700Y-23008300D02*
X69010700Y-23008300D01*
X41091700Y-23008300D02*
X42777700Y-23008300D01*
D28*
X22620000Y-39400000D02*
X22620000Y-37965000D01*
X22620000Y-37965000D02*
X14970300Y-30315300D01*
X14970300Y-30315300D02*
X9487300Y-30315300D01*
X9487300Y-30315300D02*
X7874000Y-28702000D01*
X54727000Y-30658800D02*
X55997000Y-31928800D01*
X55997000Y-31928800D02*
X84957800Y-31928800D01*
X84957800Y-31928800D02*
X87737500Y-34708500D01*
X87737500Y-34708500D02*
X88900000Y-34708500D01*
X60727000Y-30658800D02*
X64196600Y-30658800D01*
X64196600Y-30658800D02*
X65337000Y-29518400D01*
X65337000Y-29518400D02*
X67508000Y-29518400D01*
X67508000Y-29518400D02*
X71851500Y-25174900D01*
X71851500Y-25174900D02*
X84222700Y-25174900D01*
X84222700Y-25174900D02*
X84510200Y-24887400D01*
X66727000Y-30658800D02*
X67445700Y-30658800D01*
X67445700Y-30658800D02*
X71117100Y-26987400D01*
X71117100Y-26987400D02*
X82197800Y-26987400D01*
X82197800Y-26987400D02*
X87295200Y-32084800D01*
X87496900Y-26271400D02*
X88076600Y-26851100D01*
X88076600Y-26851100D02*
X88076600Y-32416600D01*
X88076600Y-32416600D02*
X87601900Y-32891300D01*
X87601900Y-32891300D02*
X86766200Y-32891300D01*
X86766200Y-32891300D02*
X84533700Y-30658800D01*
X84533700Y-30658800D02*
X72727000Y-30658800D01*
D27*
X47888100Y-58552900D02*
X42358300Y-64082700D01*
X42358300Y-64082700D02*
X42358300Y-64500000D01*
X95000000Y-52000000D02*
X96317400Y-53317400D01*
X96317400Y-53317400D02*
X96317400Y-55120700D01*
X96317400Y-55120700D02*
X93675700Y-57762400D01*
X93675700Y-57762400D02*
X76387700Y-57762400D01*
X76387700Y-57762400D02*
X75597200Y-58552900D01*
X75597200Y-58552900D02*
X47888100Y-58552900D01*
X47888100Y-57447200D02*
X47888100Y-58552900D01*
X41000000Y-64500000D02*
X39641700Y-64500000D01*
X34780000Y-67500000D02*
X36641700Y-67500000D01*
X36641700Y-67500000D02*
X39641700Y-64500000D01*
X32240000Y-67500000D02*
X34780000Y-67500000D01*
X29700000Y-67500000D02*
X32240000Y-67500000D01*
X27160000Y-67500000D02*
X29700000Y-67500000D01*
X24620000Y-67500000D02*
X27160000Y-67500000D01*
X22080000Y-67500000D02*
X24620000Y-67500000D01*
X19540000Y-67500000D02*
X22080000Y-67500000D01*
X11330000Y-37240000D02*
X12430000Y-37240000D01*
X12430000Y-37240000D02*
X16870000Y-41680000D01*
X17540000Y-51220000D02*
X17850000Y-51220000D01*
X17850000Y-51220000D02*
X20220000Y-53590000D01*
X11640000Y-51220000D02*
X17540000Y-51220000D01*
X17540000Y-51220000D02*
X17540000Y-46810000D01*
X25160000Y-39400000D02*
X22880000Y-41680000D01*
X22880000Y-41680000D02*
X16870000Y-41680000D01*
X9910000Y-45040000D02*
X15770000Y-45040000D01*
X15770000Y-45040000D02*
X17540000Y-46810000D01*
X41000000Y-64500000D02*
X42358300Y-64500000D01*
D28*
X54727000Y-28118800D02*
X53595700Y-28118800D01*
X35462600Y-36128400D02*
X33614100Y-36128400D01*
X33614100Y-36128400D02*
X33169500Y-35683800D01*
X33169500Y-35683800D02*
X33169500Y-34977500D01*
X33169500Y-34977500D02*
X33764600Y-34382400D01*
X33764600Y-34382400D02*
X43373200Y-34382400D01*
X43373200Y-34382400D02*
X49128500Y-28627100D01*
X49128500Y-28627100D02*
X53087400Y-28627100D01*
X53087400Y-28627100D02*
X53595700Y-28118800D01*
X60727000Y-28118800D02*
X59595700Y-28118800D01*
X59595700Y-28118800D02*
X58433500Y-26956600D01*
X58433500Y-26956600D02*
X53804100Y-26956600D01*
X53804100Y-26956600D02*
X52896000Y-27864700D01*
X52896000Y-27864700D02*
X49171900Y-27864700D01*
X49171900Y-27864700D02*
X43235200Y-33801400D01*
X43235200Y-33801400D02*
X31612400Y-33801400D01*
X31612400Y-33801400D02*
X27753000Y-37660800D01*
X27753000Y-37660800D02*
X27753000Y-38253400D01*
X27753000Y-38253400D02*
X29756000Y-40256400D01*
X29756000Y-40256400D02*
X34725000Y-40256400D01*
X65595700Y-28118800D02*
X64464400Y-29250100D01*
X64464400Y-29250100D02*
X51380900Y-29250100D01*
X51380900Y-29250100D02*
X45283900Y-35347100D01*
X45283900Y-35347100D02*
X33959000Y-35347100D01*
X66727000Y-28118800D02*
X65595700Y-28118800D01*
X71800200Y-35129200D02*
X56462400Y-35129200D01*
X56462400Y-35129200D02*
X49896600Y-41695000D01*
X49896600Y-41695000D02*
X37175900Y-41695000D01*
X67560000Y-44700000D02*
X71060500Y-41199500D01*
X71060500Y-41199500D02*
X81633400Y-41199500D01*
X44370500Y-65945400D02*
X48030300Y-69605200D01*
X48030300Y-69605200D02*
X72605200Y-69605200D01*
X72605200Y-69605200D02*
X74500000Y-71500000D01*
X70100000Y-44700000D02*
X72403700Y-42396300D01*
X72403700Y-42396300D02*
X81552900Y-42396300D01*
X81552900Y-42396300D02*
X82414800Y-41534400D01*
X82414800Y-41534400D02*
X82414800Y-40856100D01*
X82414800Y-40856100D02*
X81697900Y-40139200D01*
X81697900Y-40139200D02*
X81344500Y-40139200D01*
X54860000Y-44700000D02*
X63030300Y-36529700D01*
X63030300Y-36529700D02*
X78522500Y-36529700D01*
X62625500Y-49373600D02*
X59533600Y-49373600D01*
X59533600Y-49373600D02*
X54860000Y-44700000D01*
X25500000Y-3000000D02*
X29174300Y-6674300D01*
X29174300Y-6674300D02*
X61132200Y-6674300D01*
X62480000Y-44700000D02*
X68754300Y-38425700D01*
X68754300Y-38425700D02*
X78595100Y-38425700D01*
X75180000Y-19300000D02*
X72954400Y-17074400D01*
X72954400Y-17074400D02*
X42525600Y-17074400D01*
X42525600Y-17074400D02*
X37340000Y-22260000D01*
X30840000Y-22260000D02*
X37340000Y-22260000D01*
X72640000Y-21525100D02*
X86238600Y-21525100D01*
X86238600Y-21525100D02*
X89714400Y-25000900D01*
X89714400Y-25000900D02*
X89714400Y-35007400D01*
X89714400Y-35007400D02*
X85514700Y-39207100D01*
X85514700Y-39207100D02*
X80915100Y-39207100D01*
X80915100Y-39207100D02*
X80280600Y-39841600D01*
X37340000Y-32420000D02*
X45886300Y-23873700D01*
X45886300Y-23873700D02*
X69255100Y-23873700D01*
X69255100Y-23873700D02*
X71603700Y-21525100D01*
X71603700Y-21525100D02*
X72640000Y-21525100D01*
X72640000Y-21525100D02*
X72640000Y-19300000D01*
X30840000Y-32420000D02*
X37340000Y-32420000D01*
X82281600Y-24393600D02*
X71913800Y-24393600D01*
X71913800Y-24393600D02*
X69859100Y-26448300D01*
X69859100Y-26448300D02*
X53593600Y-26448300D01*
X53593600Y-26448300D02*
X52987900Y-27054000D01*
X52987900Y-27054000D02*
X50870300Y-27054000D01*
X50738700Y-33073000D02*
X45473700Y-38338000D01*
X45473700Y-38338000D02*
X28999500Y-38338000D01*
X28999500Y-38338000D02*
X28591600Y-37930100D01*
X50858400Y-25249600D02*
X68677100Y-25249600D01*
X68677100Y-25249600D02*
X71142400Y-22784300D01*
X71142400Y-22784300D02*
X86778500Y-22784300D01*
X86778500Y-22784300D02*
X87246400Y-23252200D01*
X87246400Y-23252200D02*
X87246400Y-24488700D01*
X87246400Y-24488700D02*
X84547600Y-27187500D01*
X52099500Y-26099200D02*
X52258700Y-25940000D01*
X52258700Y-25940000D02*
X68705500Y-25940000D01*
X68705500Y-25940000D02*
X71079800Y-23565700D01*
X71079800Y-23565700D02*
X86454700Y-23565700D01*
X85630800Y-34577700D02*
X85401000Y-34347900D01*
X85401000Y-34347900D02*
X52117800Y-34347900D01*
X52320000Y-44700000D02*
X59189600Y-51569600D01*
X59189600Y-51569600D02*
X67417400Y-51569600D01*
X67417400Y-51569600D02*
X68334800Y-52487000D01*
X68334800Y-52487000D02*
X68334800Y-53625500D01*
X37000000Y-3000000D02*
X38167700Y-1832300D01*
X38167700Y-1832300D02*
X47292300Y-1832300D01*
X47292300Y-1832300D02*
X49460000Y-4000000D01*
X69515000Y-52800000D02*
X63283500Y-46568500D01*
X63283500Y-46568500D02*
X59268500Y-46568500D01*
X59268500Y-46568500D02*
X57400000Y-44700000D01*
X14330000Y-41680000D02*
X15625200Y-42975200D01*
X15625200Y-42975200D02*
X30107900Y-42975200D01*
X14330000Y-41680000D02*
X10730000Y-41680000D01*
X10730000Y-41680000D02*
X7370000Y-45040000D01*
X24310000Y-28890000D02*
X24310000Y-35819700D01*
X24310000Y-35819700D02*
X30915500Y-42425200D01*
X30915500Y-42425200D02*
X30915500Y-43530400D01*
X30915500Y-43530400D02*
X29608200Y-44837700D01*
X29608200Y-44837700D02*
X25302300Y-44837700D01*
X25302300Y-44837700D02*
X23680000Y-46460000D01*
X30915500Y-43530400D02*
X35568300Y-48183200D01*
X35568300Y-48183200D02*
X35918200Y-48183200D01*
X15720000Y-23690000D02*
X20920000Y-28890000D01*
X20920000Y-28890000D02*
X24310000Y-28890000D01*
X77720000Y-44700000D02*
X79515300Y-42904700D01*
X79515300Y-42904700D02*
X90583100Y-42904700D01*
X67620000Y-5000000D02*
X68851300Y-5000000D01*
X85340000Y-19300000D02*
X82979800Y-16939800D01*
X82979800Y-16939800D02*
X81632800Y-16939800D01*
X81632800Y-16939800D02*
X70924300Y-6231300D01*
X70924300Y-6231300D02*
X69572400Y-6231300D01*
X69572400Y-6231300D02*
X68851300Y-5510200D01*
X68851300Y-5510200D02*
X68851300Y-5000000D01*
X66311300Y-5000000D02*
X66311300Y-5510200D01*
X66311300Y-5510200D02*
X67032400Y-6231300D01*
X67032400Y-6231300D02*
X68463900Y-6231300D01*
X68463900Y-6231300D02*
X72116200Y-9883600D01*
X72116200Y-9883600D02*
X73383600Y-9883600D01*
X73383600Y-9883600D02*
X82800000Y-19300000D01*
X65080000Y-5000000D02*
X66311300Y-5000000D01*
X63771300Y-5000000D02*
X63771300Y-5510200D01*
X63771300Y-5510200D02*
X65000700Y-6739600D01*
X65000700Y-6739600D02*
X67699600Y-6739600D01*
X67699600Y-6739600D02*
X80260000Y-19300000D01*
X62540000Y-5000000D02*
X63771300Y-5000000D01*
X61231300Y-5000000D02*
X61231300Y-5461800D01*
X61231300Y-5461800D02*
X65993300Y-10223800D01*
X65993300Y-10223800D02*
X68643800Y-10223800D01*
X68643800Y-10223800D02*
X77720000Y-19300000D01*
X60000000Y-5000000D02*
X61231300Y-5000000D01*
X29700000Y-64960000D02*
X29700000Y-55848000D01*
X29700000Y-55848000D02*
X36112500Y-49435500D01*
X59940000Y-19300000D02*
X58246600Y-17606600D01*
X58246600Y-17606600D02*
X44055500Y-17606600D01*
X44055500Y-17606600D02*
X43801300Y-17860800D01*
X53256900Y-30470100D02*
X51265600Y-30470100D01*
X51265600Y-30470100D02*
X46912200Y-34823500D01*
X42953340Y-20165060D02*
X41993085Y-20165060D01*
X45003500Y-18114900D02*
X42953340Y-20165060D01*
X41993085Y-20165060D02*
X41427400Y-20165060D01*
X51134900Y-18114900D02*
X45003500Y-18114900D01*
X52320000Y-19300000D02*
X51134900Y-18114900D01*
M02*
