G04 #@! TF.GenerationSoftware,KiCad,Pcbnew,(5.1.0)-1*
G04 #@! TF.CreationDate,2019-05-12T21:15:30+02:00*
G04 #@! TF.ProjectId,ESP32 dev board,45535033-3220-4646-9576-20626f617264,rev?*
G04 #@! TF.SameCoordinates,Original*
G04 #@! TF.FileFunction,Legend,Bot*
G04 #@! TF.FilePolarity,Positive*
%FSLAX46Y46*%
G04 Gerber Fmt 4.6, Leading zero omitted, Abs format (unit mm)*
G04 Created by KiCad (PCBNEW (5.1.0)-1) date 2019-05-12 21:15:30*
%MOMM*%
%LPD*%
G04 APERTURE LIST*
%ADD10C,0.300000*%
%ADD11C,0.150000*%
%ADD12C,0.120000*%
G04 APERTURE END LIST*
D10*
X35397142Y-38548571D02*
X36111428Y-38548571D01*
X36182857Y-39262857D01*
X36111428Y-39191428D01*
X35968571Y-39120000D01*
X35611428Y-39120000D01*
X35468571Y-39191428D01*
X35397142Y-39262857D01*
X35325714Y-39405714D01*
X35325714Y-39762857D01*
X35397142Y-39905714D01*
X35468571Y-39977142D01*
X35611428Y-40048571D01*
X35968571Y-40048571D01*
X36111428Y-39977142D01*
X36182857Y-39905714D01*
X33897142Y-40048571D02*
X34754285Y-40048571D01*
X34325714Y-40048571D02*
X34325714Y-38548571D01*
X34468571Y-38762857D01*
X34611428Y-38905714D01*
X34754285Y-38977142D01*
X32397142Y-40048571D02*
X32897142Y-39334285D01*
X33254285Y-40048571D02*
X33254285Y-38548571D01*
X32682857Y-38548571D01*
X32540000Y-38620000D01*
X32468571Y-38691428D01*
X32397142Y-38834285D01*
X32397142Y-39048571D01*
X32468571Y-39191428D01*
X32540000Y-39262857D01*
X32682857Y-39334285D01*
X33254285Y-39334285D01*
X90792857Y-22181428D02*
X90721428Y-22110000D01*
X90578571Y-22038571D01*
X90221428Y-22038571D01*
X90078571Y-22110000D01*
X90007142Y-22181428D01*
X89935714Y-22324285D01*
X89935714Y-22467142D01*
X90007142Y-22681428D01*
X90864285Y-23538571D01*
X89935714Y-23538571D01*
X89364285Y-22181428D02*
X89292857Y-22110000D01*
X89150000Y-22038571D01*
X88792857Y-22038571D01*
X88650000Y-22110000D01*
X88578571Y-22181428D01*
X88507142Y-22324285D01*
X88507142Y-22467142D01*
X88578571Y-22681428D01*
X89435714Y-23538571D01*
X88507142Y-23538571D01*
X87864285Y-23538571D02*
X87864285Y-22038571D01*
X87007142Y-23538571D02*
X87650000Y-22681428D01*
X87007142Y-22038571D02*
X87864285Y-22895714D01*
X24268571Y-5528571D02*
X23340000Y-5528571D01*
X23840000Y-6100000D01*
X23625714Y-6100000D01*
X23482857Y-6171428D01*
X23411428Y-6242857D01*
X23340000Y-6385714D01*
X23340000Y-6742857D01*
X23411428Y-6885714D01*
X23482857Y-6957142D01*
X23625714Y-7028571D01*
X24054285Y-7028571D01*
X24197142Y-6957142D01*
X24268571Y-6885714D01*
X22840000Y-5528571D02*
X21911428Y-5528571D01*
X22411428Y-6100000D01*
X22197142Y-6100000D01*
X22054285Y-6171428D01*
X21982857Y-6242857D01*
X21911428Y-6385714D01*
X21911428Y-6742857D01*
X21982857Y-6885714D01*
X22054285Y-6957142D01*
X22197142Y-7028571D01*
X22625714Y-7028571D01*
X22768571Y-6957142D01*
X22840000Y-6885714D01*
X20982857Y-5528571D02*
X20840000Y-5528571D01*
X20697142Y-5600000D01*
X20625714Y-5671428D01*
X20554285Y-5814285D01*
X20482857Y-6100000D01*
X20482857Y-6457142D01*
X20554285Y-6742857D01*
X20625714Y-6885714D01*
X20697142Y-6957142D01*
X20840000Y-7028571D01*
X20982857Y-7028571D01*
X21125714Y-6957142D01*
X21197142Y-6885714D01*
X21268571Y-6742857D01*
X21340000Y-6457142D01*
X21340000Y-6100000D01*
X21268571Y-5814285D01*
X21197142Y-5671428D01*
X21125714Y-5600000D01*
X20982857Y-5528571D01*
X18982857Y-7028571D02*
X19482857Y-6314285D01*
X19840000Y-7028571D02*
X19840000Y-5528571D01*
X19268571Y-5528571D01*
X19125714Y-5600000D01*
X19054285Y-5671428D01*
X18982857Y-5814285D01*
X18982857Y-6028571D01*
X19054285Y-6171428D01*
X19125714Y-6242857D01*
X19268571Y-6314285D01*
X19840000Y-6314285D01*
X46041428Y-36238571D02*
X46898571Y-36238571D01*
X46470000Y-36238571D02*
X46470000Y-34738571D01*
X46612857Y-34952857D01*
X46755714Y-35095714D01*
X46898571Y-35167142D01*
X45398571Y-36238571D02*
X45398571Y-34738571D01*
X44541428Y-36238571D02*
X45184285Y-35381428D01*
X44541428Y-34738571D02*
X45398571Y-35595714D01*
X81045714Y-23538571D02*
X81902857Y-23538571D01*
X81474285Y-23538571D02*
X81474285Y-22038571D01*
X81617142Y-22252857D01*
X81760000Y-22395714D01*
X81902857Y-22467142D01*
X80117142Y-22038571D02*
X79974285Y-22038571D01*
X79831428Y-22110000D01*
X79760000Y-22181428D01*
X79688571Y-22324285D01*
X79617142Y-22610000D01*
X79617142Y-22967142D01*
X79688571Y-23252857D01*
X79760000Y-23395714D01*
X79831428Y-23467142D01*
X79974285Y-23538571D01*
X80117142Y-23538571D01*
X80260000Y-23467142D01*
X80331428Y-23395714D01*
X80402857Y-23252857D01*
X80474285Y-22967142D01*
X80474285Y-22610000D01*
X80402857Y-22324285D01*
X80331428Y-22181428D01*
X80260000Y-22110000D01*
X80117142Y-22038571D01*
X78974285Y-23538571D02*
X78974285Y-22038571D01*
X78117142Y-23538571D02*
X78760000Y-22681428D01*
X78117142Y-22038571D02*
X78974285Y-22895714D01*
X48898571Y-47581428D02*
X48827142Y-47510000D01*
X48684285Y-47438571D01*
X48327142Y-47438571D01*
X48184285Y-47510000D01*
X48112857Y-47581428D01*
X48041428Y-47724285D01*
X48041428Y-47867142D01*
X48112857Y-48081428D01*
X48970000Y-48938571D01*
X48041428Y-48938571D01*
X47470000Y-47581428D02*
X47398571Y-47510000D01*
X47255714Y-47438571D01*
X46898571Y-47438571D01*
X46755714Y-47510000D01*
X46684285Y-47581428D01*
X46612857Y-47724285D01*
X46612857Y-47867142D01*
X46684285Y-48081428D01*
X47541428Y-48938571D01*
X46612857Y-48938571D01*
X45684285Y-47438571D02*
X45541428Y-47438571D01*
X45398571Y-47510000D01*
X45327142Y-47581428D01*
X45255714Y-47724285D01*
X45184285Y-48010000D01*
X45184285Y-48367142D01*
X45255714Y-48652857D01*
X45327142Y-48795714D01*
X45398571Y-48867142D01*
X45541428Y-48938571D01*
X45684285Y-48938571D01*
X45827142Y-48867142D01*
X45898571Y-48795714D01*
X45970000Y-48652857D01*
X46041428Y-48367142D01*
X46041428Y-48010000D01*
X45970000Y-47724285D01*
X45898571Y-47581428D01*
X45827142Y-47510000D01*
X45684285Y-47438571D01*
X44541428Y-47938571D02*
X44541428Y-48938571D01*
X44541428Y-48081428D02*
X44470000Y-48010000D01*
X44327142Y-47938571D01*
X44112857Y-47938571D01*
X43970000Y-48010000D01*
X43898571Y-48152857D01*
X43898571Y-48938571D01*
X42684285Y-48152857D02*
X43184285Y-48152857D01*
X43184285Y-48938571D02*
X43184285Y-47438571D01*
X42470000Y-47438571D01*
X72298571Y-61908571D02*
X72298571Y-62908571D01*
X72655714Y-61337142D02*
X73012857Y-62408571D01*
X72084285Y-62408571D01*
X71512857Y-62908571D02*
X71512857Y-61408571D01*
X70655714Y-62908571D02*
X71298571Y-62051428D01*
X70655714Y-61408571D02*
X71512857Y-62265714D01*
X70155714Y-61408571D02*
X69155714Y-61408571D01*
X69798571Y-62908571D01*
D11*
X48045000Y-24460000D02*
X49120000Y-24460000D01*
X48045000Y-34185000D02*
X43395000Y-34185000D01*
X48045000Y-24235000D02*
X43395000Y-24235000D01*
X48045000Y-34185000D02*
X48045000Y-33860000D01*
X43395000Y-34185000D02*
X43395000Y-33860000D01*
X43395000Y-24235000D02*
X43395000Y-24560000D01*
X48045000Y-24235000D02*
X48045000Y-24460000D01*
D12*
X20095436Y-7980000D02*
X21299564Y-7980000D01*
X20095436Y-9800000D02*
X21299564Y-9800000D01*
X70290436Y-63860000D02*
X71494564Y-63860000D01*
X70290436Y-65680000D02*
X71494564Y-65680000D01*
X20120436Y-13060000D02*
X21324564Y-13060000D01*
X20120436Y-14880000D02*
X21324564Y-14880000D01*
X20120436Y-10520000D02*
X21324564Y-10520000D01*
X20120436Y-12340000D02*
X21324564Y-12340000D01*
X44900436Y-37190000D02*
X46104564Y-37190000D01*
X44900436Y-39010000D02*
X46104564Y-39010000D01*
X44900436Y-39730000D02*
X46104564Y-39730000D01*
X44900436Y-41550000D02*
X46104564Y-41550000D01*
X33839564Y-47900000D02*
X32635436Y-47900000D01*
X33839564Y-46080000D02*
X32635436Y-46080000D01*
X33839564Y-50440000D02*
X32635436Y-50440000D01*
X33839564Y-48620000D02*
X32635436Y-48620000D01*
X32635436Y-41000000D02*
X33839564Y-41000000D01*
X32635436Y-42820000D02*
X33839564Y-42820000D01*
X33839564Y-45360000D02*
X32635436Y-45360000D01*
X33839564Y-43540000D02*
X32635436Y-43540000D01*
X88014564Y-28850000D02*
X86810436Y-28850000D01*
X88014564Y-27030000D02*
X86810436Y-27030000D01*
X88014564Y-31390000D02*
X86810436Y-31390000D01*
X88014564Y-29570000D02*
X86810436Y-29570000D01*
X86810436Y-24490000D02*
X88014564Y-24490000D01*
X86810436Y-26310000D02*
X88014564Y-26310000D01*
X79124564Y-36470000D02*
X77920436Y-36470000D01*
X79124564Y-34650000D02*
X77920436Y-34650000D01*
X79124564Y-33930000D02*
X77920436Y-33930000D01*
X79124564Y-32110000D02*
X77920436Y-32110000D01*
X88014564Y-33930000D02*
X86810436Y-33930000D01*
X88014564Y-32110000D02*
X86810436Y-32110000D01*
X79124564Y-28850000D02*
X77920436Y-28850000D01*
X79124564Y-27030000D02*
X77920436Y-27030000D01*
X79124564Y-31390000D02*
X77920436Y-31390000D01*
X79124564Y-29570000D02*
X77920436Y-29570000D01*
X79124564Y-26310000D02*
X77920436Y-26310000D01*
X79124564Y-24490000D02*
X77920436Y-24490000D01*
X77920436Y-37190000D02*
X79124564Y-37190000D01*
X77920436Y-39010000D02*
X79124564Y-39010000D01*
X45594564Y-56790000D02*
X44390436Y-56790000D01*
X45594564Y-54970000D02*
X44390436Y-54970000D01*
X45594564Y-59330000D02*
X44390436Y-59330000D01*
X45594564Y-57510000D02*
X44390436Y-57510000D01*
X45594564Y-54250000D02*
X44390436Y-54250000D01*
X45594564Y-52430000D02*
X44390436Y-52430000D01*
X45594564Y-51710000D02*
X44390436Y-51710000D01*
X45594564Y-49890000D02*
X44390436Y-49890000D01*
D11*
X46481904Y-22762380D02*
X46481904Y-23571904D01*
X46434285Y-23667142D01*
X46386666Y-23714761D01*
X46291428Y-23762380D01*
X46100952Y-23762380D01*
X46005714Y-23714761D01*
X45958095Y-23667142D01*
X45910476Y-23571904D01*
X45910476Y-22762380D01*
X45529523Y-22762380D02*
X44910476Y-22762380D01*
X45243809Y-23143333D01*
X45100952Y-23143333D01*
X45005714Y-23190952D01*
X44958095Y-23238571D01*
X44910476Y-23333809D01*
X44910476Y-23571904D01*
X44958095Y-23667142D01*
X45005714Y-23714761D01*
X45100952Y-23762380D01*
X45386666Y-23762380D01*
X45481904Y-23714761D01*
X45529523Y-23667142D01*
X26042857Y-9342380D02*
X26376190Y-8866190D01*
X26614285Y-9342380D02*
X26614285Y-8342380D01*
X26233333Y-8342380D01*
X26138095Y-8390000D01*
X26090476Y-8437619D01*
X26042857Y-8532857D01*
X26042857Y-8675714D01*
X26090476Y-8770952D01*
X26138095Y-8818571D01*
X26233333Y-8866190D01*
X26614285Y-8866190D01*
X25661904Y-8437619D02*
X25614285Y-8390000D01*
X25519047Y-8342380D01*
X25280952Y-8342380D01*
X25185714Y-8390000D01*
X25138095Y-8437619D01*
X25090476Y-8532857D01*
X25090476Y-8628095D01*
X25138095Y-8770952D01*
X25709523Y-9342380D01*
X25090476Y-9342380D01*
X24138095Y-9342380D02*
X24709523Y-9342380D01*
X24423809Y-9342380D02*
X24423809Y-8342380D01*
X24519047Y-8485238D01*
X24614285Y-8580476D01*
X24709523Y-8628095D01*
X75572857Y-65222380D02*
X75906190Y-64746190D01*
X76144285Y-65222380D02*
X76144285Y-64222380D01*
X75763333Y-64222380D01*
X75668095Y-64270000D01*
X75620476Y-64317619D01*
X75572857Y-64412857D01*
X75572857Y-64555714D01*
X75620476Y-64650952D01*
X75668095Y-64698571D01*
X75763333Y-64746190D01*
X76144285Y-64746190D01*
X75191904Y-64317619D02*
X75144285Y-64270000D01*
X75049047Y-64222380D01*
X74810952Y-64222380D01*
X74715714Y-64270000D01*
X74668095Y-64317619D01*
X74620476Y-64412857D01*
X74620476Y-64508095D01*
X74668095Y-64650952D01*
X75239523Y-65222380D01*
X74620476Y-65222380D01*
X74001428Y-64222380D02*
X73906190Y-64222380D01*
X73810952Y-64270000D01*
X73763333Y-64317619D01*
X73715714Y-64412857D01*
X73668095Y-64603333D01*
X73668095Y-64841428D01*
X73715714Y-65031904D01*
X73763333Y-65127142D01*
X73810952Y-65174761D01*
X73906190Y-65222380D01*
X74001428Y-65222380D01*
X74096666Y-65174761D01*
X74144285Y-65127142D01*
X74191904Y-65031904D01*
X74239523Y-64841428D01*
X74239523Y-64603333D01*
X74191904Y-64412857D01*
X74144285Y-64317619D01*
X74096666Y-64270000D01*
X74001428Y-64222380D01*
X26042857Y-14422380D02*
X26376190Y-13946190D01*
X26614285Y-14422380D02*
X26614285Y-13422380D01*
X26233333Y-13422380D01*
X26138095Y-13470000D01*
X26090476Y-13517619D01*
X26042857Y-13612857D01*
X26042857Y-13755714D01*
X26090476Y-13850952D01*
X26138095Y-13898571D01*
X26233333Y-13946190D01*
X26614285Y-13946190D01*
X25090476Y-14422380D02*
X25661904Y-14422380D01*
X25376190Y-14422380D02*
X25376190Y-13422380D01*
X25471428Y-13565238D01*
X25566666Y-13660476D01*
X25661904Y-13708095D01*
X24614285Y-14422380D02*
X24423809Y-14422380D01*
X24328571Y-14374761D01*
X24280952Y-14327142D01*
X24185714Y-14184285D01*
X24138095Y-13993809D01*
X24138095Y-13612857D01*
X24185714Y-13517619D01*
X24233333Y-13470000D01*
X24328571Y-13422380D01*
X24519047Y-13422380D01*
X24614285Y-13470000D01*
X24661904Y-13517619D01*
X24709523Y-13612857D01*
X24709523Y-13850952D01*
X24661904Y-13946190D01*
X24614285Y-13993809D01*
X24519047Y-14041428D01*
X24328571Y-14041428D01*
X24233333Y-13993809D01*
X24185714Y-13946190D01*
X24138095Y-13850952D01*
X26042857Y-11882380D02*
X26376190Y-11406190D01*
X26614285Y-11882380D02*
X26614285Y-10882380D01*
X26233333Y-10882380D01*
X26138095Y-10930000D01*
X26090476Y-10977619D01*
X26042857Y-11072857D01*
X26042857Y-11215714D01*
X26090476Y-11310952D01*
X26138095Y-11358571D01*
X26233333Y-11406190D01*
X26614285Y-11406190D01*
X25090476Y-11882380D02*
X25661904Y-11882380D01*
X25376190Y-11882380D02*
X25376190Y-10882380D01*
X25471428Y-11025238D01*
X25566666Y-11120476D01*
X25661904Y-11168095D01*
X24519047Y-11310952D02*
X24614285Y-11263333D01*
X24661904Y-11215714D01*
X24709523Y-11120476D01*
X24709523Y-11072857D01*
X24661904Y-10977619D01*
X24614285Y-10930000D01*
X24519047Y-10882380D01*
X24328571Y-10882380D01*
X24233333Y-10930000D01*
X24185714Y-10977619D01*
X24138095Y-11072857D01*
X24138095Y-11120476D01*
X24185714Y-11215714D01*
X24233333Y-11263333D01*
X24328571Y-11310952D01*
X24519047Y-11310952D01*
X24614285Y-11358571D01*
X24661904Y-11406190D01*
X24709523Y-11501428D01*
X24709523Y-11691904D01*
X24661904Y-11787142D01*
X24614285Y-11834761D01*
X24519047Y-11882380D01*
X24328571Y-11882380D01*
X24233333Y-11834761D01*
X24185714Y-11787142D01*
X24138095Y-11691904D01*
X24138095Y-11501428D01*
X24185714Y-11406190D01*
X24233333Y-11358571D01*
X24328571Y-11310952D01*
X50172857Y-38552380D02*
X50506190Y-38076190D01*
X50744285Y-38552380D02*
X50744285Y-37552380D01*
X50363333Y-37552380D01*
X50268095Y-37600000D01*
X50220476Y-37647619D01*
X50172857Y-37742857D01*
X50172857Y-37885714D01*
X50220476Y-37980952D01*
X50268095Y-38028571D01*
X50363333Y-38076190D01*
X50744285Y-38076190D01*
X49220476Y-38552380D02*
X49791904Y-38552380D01*
X49506190Y-38552380D02*
X49506190Y-37552380D01*
X49601428Y-37695238D01*
X49696666Y-37790476D01*
X49791904Y-37838095D01*
X48887142Y-37552380D02*
X48220476Y-37552380D01*
X48649047Y-38552380D01*
X50172857Y-41092380D02*
X50506190Y-40616190D01*
X50744285Y-41092380D02*
X50744285Y-40092380D01*
X50363333Y-40092380D01*
X50268095Y-40140000D01*
X50220476Y-40187619D01*
X50172857Y-40282857D01*
X50172857Y-40425714D01*
X50220476Y-40520952D01*
X50268095Y-40568571D01*
X50363333Y-40616190D01*
X50744285Y-40616190D01*
X49220476Y-41092380D02*
X49791904Y-41092380D01*
X49506190Y-41092380D02*
X49506190Y-40092380D01*
X49601428Y-40235238D01*
X49696666Y-40330476D01*
X49791904Y-40378095D01*
X48363333Y-40092380D02*
X48553809Y-40092380D01*
X48649047Y-40140000D01*
X48696666Y-40187619D01*
X48791904Y-40330476D01*
X48839523Y-40520952D01*
X48839523Y-40901904D01*
X48791904Y-40997142D01*
X48744285Y-41044761D01*
X48649047Y-41092380D01*
X48458571Y-41092380D01*
X48363333Y-41044761D01*
X48315714Y-40997142D01*
X48268095Y-40901904D01*
X48268095Y-40663809D01*
X48315714Y-40568571D01*
X48363333Y-40520952D01*
X48458571Y-40473333D01*
X48649047Y-40473333D01*
X48744285Y-40520952D01*
X48791904Y-40568571D01*
X48839523Y-40663809D01*
X38742857Y-47442380D02*
X39076190Y-46966190D01*
X39314285Y-47442380D02*
X39314285Y-46442380D01*
X38933333Y-46442380D01*
X38838095Y-46490000D01*
X38790476Y-46537619D01*
X38742857Y-46632857D01*
X38742857Y-46775714D01*
X38790476Y-46870952D01*
X38838095Y-46918571D01*
X38933333Y-46966190D01*
X39314285Y-46966190D01*
X37790476Y-47442380D02*
X38361904Y-47442380D01*
X38076190Y-47442380D02*
X38076190Y-46442380D01*
X38171428Y-46585238D01*
X38266666Y-46680476D01*
X38361904Y-46728095D01*
X36885714Y-46442380D02*
X37361904Y-46442380D01*
X37409523Y-46918571D01*
X37361904Y-46870952D01*
X37266666Y-46823333D01*
X37028571Y-46823333D01*
X36933333Y-46870952D01*
X36885714Y-46918571D01*
X36838095Y-47013809D01*
X36838095Y-47251904D01*
X36885714Y-47347142D01*
X36933333Y-47394761D01*
X37028571Y-47442380D01*
X37266666Y-47442380D01*
X37361904Y-47394761D01*
X37409523Y-47347142D01*
X38742857Y-49982380D02*
X39076190Y-49506190D01*
X39314285Y-49982380D02*
X39314285Y-48982380D01*
X38933333Y-48982380D01*
X38838095Y-49030000D01*
X38790476Y-49077619D01*
X38742857Y-49172857D01*
X38742857Y-49315714D01*
X38790476Y-49410952D01*
X38838095Y-49458571D01*
X38933333Y-49506190D01*
X39314285Y-49506190D01*
X37790476Y-49982380D02*
X38361904Y-49982380D01*
X38076190Y-49982380D02*
X38076190Y-48982380D01*
X38171428Y-49125238D01*
X38266666Y-49220476D01*
X38361904Y-49268095D01*
X36933333Y-49315714D02*
X36933333Y-49982380D01*
X37171428Y-48934761D02*
X37409523Y-49649047D01*
X36790476Y-49649047D01*
X38742857Y-42362380D02*
X39076190Y-41886190D01*
X39314285Y-42362380D02*
X39314285Y-41362380D01*
X38933333Y-41362380D01*
X38838095Y-41410000D01*
X38790476Y-41457619D01*
X38742857Y-41552857D01*
X38742857Y-41695714D01*
X38790476Y-41790952D01*
X38838095Y-41838571D01*
X38933333Y-41886190D01*
X39314285Y-41886190D01*
X37790476Y-42362380D02*
X38361904Y-42362380D01*
X38076190Y-42362380D02*
X38076190Y-41362380D01*
X38171428Y-41505238D01*
X38266666Y-41600476D01*
X38361904Y-41648095D01*
X37457142Y-41362380D02*
X36838095Y-41362380D01*
X37171428Y-41743333D01*
X37028571Y-41743333D01*
X36933333Y-41790952D01*
X36885714Y-41838571D01*
X36838095Y-41933809D01*
X36838095Y-42171904D01*
X36885714Y-42267142D01*
X36933333Y-42314761D01*
X37028571Y-42362380D01*
X37314285Y-42362380D01*
X37409523Y-42314761D01*
X37457142Y-42267142D01*
X38742857Y-44902380D02*
X39076190Y-44426190D01*
X39314285Y-44902380D02*
X39314285Y-43902380D01*
X38933333Y-43902380D01*
X38838095Y-43950000D01*
X38790476Y-43997619D01*
X38742857Y-44092857D01*
X38742857Y-44235714D01*
X38790476Y-44330952D01*
X38838095Y-44378571D01*
X38933333Y-44426190D01*
X39314285Y-44426190D01*
X37790476Y-44902380D02*
X38361904Y-44902380D01*
X38076190Y-44902380D02*
X38076190Y-43902380D01*
X38171428Y-44045238D01*
X38266666Y-44140476D01*
X38361904Y-44188095D01*
X37409523Y-43997619D02*
X37361904Y-43950000D01*
X37266666Y-43902380D01*
X37028571Y-43902380D01*
X36933333Y-43950000D01*
X36885714Y-43997619D01*
X36838095Y-44092857D01*
X36838095Y-44188095D01*
X36885714Y-44330952D01*
X37457142Y-44902380D01*
X36838095Y-44902380D01*
X92082857Y-28392380D02*
X92416190Y-27916190D01*
X92654285Y-28392380D02*
X92654285Y-27392380D01*
X92273333Y-27392380D01*
X92178095Y-27440000D01*
X92130476Y-27487619D01*
X92082857Y-27582857D01*
X92082857Y-27725714D01*
X92130476Y-27820952D01*
X92178095Y-27868571D01*
X92273333Y-27916190D01*
X92654285Y-27916190D01*
X91130476Y-28392380D02*
X91701904Y-28392380D01*
X91416190Y-28392380D02*
X91416190Y-27392380D01*
X91511428Y-27535238D01*
X91606666Y-27630476D01*
X91701904Y-27678095D01*
X90178095Y-28392380D02*
X90749523Y-28392380D01*
X90463809Y-28392380D02*
X90463809Y-27392380D01*
X90559047Y-27535238D01*
X90654285Y-27630476D01*
X90749523Y-27678095D01*
X92082857Y-30932380D02*
X92416190Y-30456190D01*
X92654285Y-30932380D02*
X92654285Y-29932380D01*
X92273333Y-29932380D01*
X92178095Y-29980000D01*
X92130476Y-30027619D01*
X92082857Y-30122857D01*
X92082857Y-30265714D01*
X92130476Y-30360952D01*
X92178095Y-30408571D01*
X92273333Y-30456190D01*
X92654285Y-30456190D01*
X91130476Y-30932380D02*
X91701904Y-30932380D01*
X91416190Y-30932380D02*
X91416190Y-29932380D01*
X91511428Y-30075238D01*
X91606666Y-30170476D01*
X91701904Y-30218095D01*
X90511428Y-29932380D02*
X90416190Y-29932380D01*
X90320952Y-29980000D01*
X90273333Y-30027619D01*
X90225714Y-30122857D01*
X90178095Y-30313333D01*
X90178095Y-30551428D01*
X90225714Y-30741904D01*
X90273333Y-30837142D01*
X90320952Y-30884761D01*
X90416190Y-30932380D01*
X90511428Y-30932380D01*
X90606666Y-30884761D01*
X90654285Y-30837142D01*
X90701904Y-30741904D01*
X90749523Y-30551428D01*
X90749523Y-30313333D01*
X90701904Y-30122857D01*
X90654285Y-30027619D01*
X90606666Y-29980000D01*
X90511428Y-29932380D01*
X91606666Y-25852380D02*
X91940000Y-25376190D01*
X92178095Y-25852380D02*
X92178095Y-24852380D01*
X91797142Y-24852380D01*
X91701904Y-24900000D01*
X91654285Y-24947619D01*
X91606666Y-25042857D01*
X91606666Y-25185714D01*
X91654285Y-25280952D01*
X91701904Y-25328571D01*
X91797142Y-25376190D01*
X92178095Y-25376190D01*
X91130476Y-25852380D02*
X90940000Y-25852380D01*
X90844761Y-25804761D01*
X90797142Y-25757142D01*
X90701904Y-25614285D01*
X90654285Y-25423809D01*
X90654285Y-25042857D01*
X90701904Y-24947619D01*
X90749523Y-24900000D01*
X90844761Y-24852380D01*
X91035238Y-24852380D01*
X91130476Y-24900000D01*
X91178095Y-24947619D01*
X91225714Y-25042857D01*
X91225714Y-25280952D01*
X91178095Y-25376190D01*
X91130476Y-25423809D01*
X91035238Y-25471428D01*
X90844761Y-25471428D01*
X90749523Y-25423809D01*
X90701904Y-25376190D01*
X90654285Y-25280952D01*
X82716666Y-36012380D02*
X83050000Y-35536190D01*
X83288095Y-36012380D02*
X83288095Y-35012380D01*
X82907142Y-35012380D01*
X82811904Y-35060000D01*
X82764285Y-35107619D01*
X82716666Y-35202857D01*
X82716666Y-35345714D01*
X82764285Y-35440952D01*
X82811904Y-35488571D01*
X82907142Y-35536190D01*
X83288095Y-35536190D01*
X82145238Y-35440952D02*
X82240476Y-35393333D01*
X82288095Y-35345714D01*
X82335714Y-35250476D01*
X82335714Y-35202857D01*
X82288095Y-35107619D01*
X82240476Y-35060000D01*
X82145238Y-35012380D01*
X81954761Y-35012380D01*
X81859523Y-35060000D01*
X81811904Y-35107619D01*
X81764285Y-35202857D01*
X81764285Y-35250476D01*
X81811904Y-35345714D01*
X81859523Y-35393333D01*
X81954761Y-35440952D01*
X82145238Y-35440952D01*
X82240476Y-35488571D01*
X82288095Y-35536190D01*
X82335714Y-35631428D01*
X82335714Y-35821904D01*
X82288095Y-35917142D01*
X82240476Y-35964761D01*
X82145238Y-36012380D01*
X81954761Y-36012380D01*
X81859523Y-35964761D01*
X81811904Y-35917142D01*
X81764285Y-35821904D01*
X81764285Y-35631428D01*
X81811904Y-35536190D01*
X81859523Y-35488571D01*
X81954761Y-35440952D01*
X82716666Y-33472380D02*
X83050000Y-32996190D01*
X83288095Y-33472380D02*
X83288095Y-32472380D01*
X82907142Y-32472380D01*
X82811904Y-32520000D01*
X82764285Y-32567619D01*
X82716666Y-32662857D01*
X82716666Y-32805714D01*
X82764285Y-32900952D01*
X82811904Y-32948571D01*
X82907142Y-32996190D01*
X83288095Y-32996190D01*
X82383333Y-32472380D02*
X81716666Y-32472380D01*
X82145238Y-33472380D01*
X91606666Y-33472380D02*
X91940000Y-32996190D01*
X92178095Y-33472380D02*
X92178095Y-32472380D01*
X91797142Y-32472380D01*
X91701904Y-32520000D01*
X91654285Y-32567619D01*
X91606666Y-32662857D01*
X91606666Y-32805714D01*
X91654285Y-32900952D01*
X91701904Y-32948571D01*
X91797142Y-32996190D01*
X92178095Y-32996190D01*
X90749523Y-32472380D02*
X90940000Y-32472380D01*
X91035238Y-32520000D01*
X91082857Y-32567619D01*
X91178095Y-32710476D01*
X91225714Y-32900952D01*
X91225714Y-33281904D01*
X91178095Y-33377142D01*
X91130476Y-33424761D01*
X91035238Y-33472380D01*
X90844761Y-33472380D01*
X90749523Y-33424761D01*
X90701904Y-33377142D01*
X90654285Y-33281904D01*
X90654285Y-33043809D01*
X90701904Y-32948571D01*
X90749523Y-32900952D01*
X90844761Y-32853333D01*
X91035238Y-32853333D01*
X91130476Y-32900952D01*
X91178095Y-32948571D01*
X91225714Y-33043809D01*
X82716666Y-28392380D02*
X83050000Y-27916190D01*
X83288095Y-28392380D02*
X83288095Y-27392380D01*
X82907142Y-27392380D01*
X82811904Y-27440000D01*
X82764285Y-27487619D01*
X82716666Y-27582857D01*
X82716666Y-27725714D01*
X82764285Y-27820952D01*
X82811904Y-27868571D01*
X82907142Y-27916190D01*
X83288095Y-27916190D01*
X81811904Y-27392380D02*
X82288095Y-27392380D01*
X82335714Y-27868571D01*
X82288095Y-27820952D01*
X82192857Y-27773333D01*
X81954761Y-27773333D01*
X81859523Y-27820952D01*
X81811904Y-27868571D01*
X81764285Y-27963809D01*
X81764285Y-28201904D01*
X81811904Y-28297142D01*
X81859523Y-28344761D01*
X81954761Y-28392380D01*
X82192857Y-28392380D01*
X82288095Y-28344761D01*
X82335714Y-28297142D01*
X82716666Y-30932380D02*
X83050000Y-30456190D01*
X83288095Y-30932380D02*
X83288095Y-29932380D01*
X82907142Y-29932380D01*
X82811904Y-29980000D01*
X82764285Y-30027619D01*
X82716666Y-30122857D01*
X82716666Y-30265714D01*
X82764285Y-30360952D01*
X82811904Y-30408571D01*
X82907142Y-30456190D01*
X83288095Y-30456190D01*
X81859523Y-30265714D02*
X81859523Y-30932380D01*
X82097619Y-29884761D02*
X82335714Y-30599047D01*
X81716666Y-30599047D01*
X82716666Y-25852380D02*
X83050000Y-25376190D01*
X83288095Y-25852380D02*
X83288095Y-24852380D01*
X82907142Y-24852380D01*
X82811904Y-24900000D01*
X82764285Y-24947619D01*
X82716666Y-25042857D01*
X82716666Y-25185714D01*
X82764285Y-25280952D01*
X82811904Y-25328571D01*
X82907142Y-25376190D01*
X83288095Y-25376190D01*
X82383333Y-24852380D02*
X81764285Y-24852380D01*
X82097619Y-25233333D01*
X81954761Y-25233333D01*
X81859523Y-25280952D01*
X81811904Y-25328571D01*
X81764285Y-25423809D01*
X81764285Y-25661904D01*
X81811904Y-25757142D01*
X81859523Y-25804761D01*
X81954761Y-25852380D01*
X82240476Y-25852380D01*
X82335714Y-25804761D01*
X82383333Y-25757142D01*
X82716666Y-38552380D02*
X83050000Y-38076190D01*
X83288095Y-38552380D02*
X83288095Y-37552380D01*
X82907142Y-37552380D01*
X82811904Y-37600000D01*
X82764285Y-37647619D01*
X82716666Y-37742857D01*
X82716666Y-37885714D01*
X82764285Y-37980952D01*
X82811904Y-38028571D01*
X82907142Y-38076190D01*
X83288095Y-38076190D01*
X82335714Y-37647619D02*
X82288095Y-37600000D01*
X82192857Y-37552380D01*
X81954761Y-37552380D01*
X81859523Y-37600000D01*
X81811904Y-37647619D01*
X81764285Y-37742857D01*
X81764285Y-37838095D01*
X81811904Y-37980952D01*
X82383333Y-38552380D01*
X81764285Y-38552380D01*
X49696666Y-56237142D02*
X49744285Y-56284761D01*
X49887142Y-56332380D01*
X49982380Y-56332380D01*
X50125238Y-56284761D01*
X50220476Y-56189523D01*
X50268095Y-56094285D01*
X50315714Y-55903809D01*
X50315714Y-55760952D01*
X50268095Y-55570476D01*
X50220476Y-55475238D01*
X50125238Y-55380000D01*
X49982380Y-55332380D01*
X49887142Y-55332380D01*
X49744285Y-55380000D01*
X49696666Y-55427619D01*
X48839523Y-55332380D02*
X49030000Y-55332380D01*
X49125238Y-55380000D01*
X49172857Y-55427619D01*
X49268095Y-55570476D01*
X49315714Y-55760952D01*
X49315714Y-56141904D01*
X49268095Y-56237142D01*
X49220476Y-56284761D01*
X49125238Y-56332380D01*
X48934761Y-56332380D01*
X48839523Y-56284761D01*
X48791904Y-56237142D01*
X48744285Y-56141904D01*
X48744285Y-55903809D01*
X48791904Y-55808571D01*
X48839523Y-55760952D01*
X48934761Y-55713333D01*
X49125238Y-55713333D01*
X49220476Y-55760952D01*
X49268095Y-55808571D01*
X49315714Y-55903809D01*
X49696666Y-58777142D02*
X49744285Y-58824761D01*
X49887142Y-58872380D01*
X49982380Y-58872380D01*
X50125238Y-58824761D01*
X50220476Y-58729523D01*
X50268095Y-58634285D01*
X50315714Y-58443809D01*
X50315714Y-58300952D01*
X50268095Y-58110476D01*
X50220476Y-58015238D01*
X50125238Y-57920000D01*
X49982380Y-57872380D01*
X49887142Y-57872380D01*
X49744285Y-57920000D01*
X49696666Y-57967619D01*
X48839523Y-58205714D02*
X48839523Y-58872380D01*
X49077619Y-57824761D02*
X49315714Y-58539047D01*
X48696666Y-58539047D01*
X49696666Y-53697142D02*
X49744285Y-53744761D01*
X49887142Y-53792380D01*
X49982380Y-53792380D01*
X50125238Y-53744761D01*
X50220476Y-53649523D01*
X50268095Y-53554285D01*
X50315714Y-53363809D01*
X50315714Y-53220952D01*
X50268095Y-53030476D01*
X50220476Y-52935238D01*
X50125238Y-52840000D01*
X49982380Y-52792380D01*
X49887142Y-52792380D01*
X49744285Y-52840000D01*
X49696666Y-52887619D01*
X49315714Y-52887619D02*
X49268095Y-52840000D01*
X49172857Y-52792380D01*
X48934761Y-52792380D01*
X48839523Y-52840000D01*
X48791904Y-52887619D01*
X48744285Y-52982857D01*
X48744285Y-53078095D01*
X48791904Y-53220952D01*
X49363333Y-53792380D01*
X48744285Y-53792380D01*
X49696666Y-51157142D02*
X49744285Y-51204761D01*
X49887142Y-51252380D01*
X49982380Y-51252380D01*
X50125238Y-51204761D01*
X50220476Y-51109523D01*
X50268095Y-51014285D01*
X50315714Y-50823809D01*
X50315714Y-50680952D01*
X50268095Y-50490476D01*
X50220476Y-50395238D01*
X50125238Y-50300000D01*
X49982380Y-50252380D01*
X49887142Y-50252380D01*
X49744285Y-50300000D01*
X49696666Y-50347619D01*
X48744285Y-51252380D02*
X49315714Y-51252380D01*
X49030000Y-51252380D02*
X49030000Y-50252380D01*
X49125238Y-50395238D01*
X49220476Y-50490476D01*
X49315714Y-50538095D01*
M02*
